<svg xmlns="http://www.w3.org/2000/svg" xmlns:xlink="http://www.w3.org/1999/xlink" viewBox="0 0 262.8 235.94"><defs><style>.cls-1{fill:url(#linear-gradient);}.cls-2{fill:#fff;}</style><linearGradient id="linear-gradient" x1="-629.4" y1="748.79" x2="-628.49" y2="746.86" gradientTransform="matrix(123.63, 0, 0, -111, 77897.49, 83141.17)" gradientUnits="userSpaceOnUse"><stop offset="0" stop-color="#00c4ff"/><stop offset="1" stop-color="#1a69f4"/></linearGradient></defs><g id="Layer_2" data-name="Layer 2"><g id="Layer_1-2" data-name="Layer 1"><g id="logo-icon"><path id="icon-base" class="cls-1" d="M182.74,0a28.65,28.65,0,0,1,24.81,14.32L259,103.7a28.6,28.6,0,0,1,0,28.55l-51.43,89.37a28.65,28.65,0,0,1-24.81,14.32H80a28.58,28.58,0,0,1-24.77-14.32L3.81,132.25a28.67,28.67,0,0,1,0-28.56L55.19,14.32A28.63,28.63,0,0,1,80,0Z"/><path id="phenix-3" class="cls-2" d="M147.58,126.81c-30.63,6.12-66.16,62.95-42.53,103.88,0,0,20-.18,54.58,0C132.75,217.32,117.76,173.79,147.58,126.81Z"/><path id="phenix-2" class="cls-2" d="M146,139c-7.46,7.85-24.58,65.65,22.11,91.54,34.88,3.25,40.16-19.21,40.16-19.21C156.54,207.39,150.32,170.18,146,139Z"/><path id="phenix-1" class="cls-2" d="M197.25,92.48c-6.2-1-48.53-1-37.61-7.73,13.47-8.24,21.71,8.85,32.82,4.12C206.59,66.42,171,42.68,131.67,45.58l.28-.31c-20.47-.25-41.32,3.43-50.73-8a28,28,0,0,0,6.89,21.16,16.56,16.56,0,0,0,12.34,5.36,20.34,20.34,0,0,0,3.89-.44c-7.33,4-15.42,2.26-18.53-.88-1.18.93-2.37,1.89-3.53,2.9a74.71,74.71,0,0,0-9.6,10,104.45,104.45,0,0,0-22.4,65.34c9.25-10.94,21.17-21,33.54-23.38-14.65,11.13-40,48.25-43.58,68.08,14.56,24.42,16.56,49.68,58.05,44.83-14.64-28.7-6.4-65.11,21.7-92.78,30.77-30.32,104.07-21.17,103.18,8.3,14.91-18.35.65-49.13-25.93-53.4Z"/></g></g></g></svg>