<svg xmlns="http://www.w3.org/2000/svg" xmlns:xlink="http://www.w3.org/1999/xlink" viewBox="0 0 513.67 343.78"><defs><style>.cls-1{fill:url(#linear-gradient);}.cls-2{fill:#fff;}.cls-3{fill:#f8c35b;}.cls-4{fill:#cecece;}</style><linearGradient id="linear-gradient" x1="130.93" y1="115.5" x2="388.31" y2="115.5" gradientUnits="userSpaceOnUse"><stop offset="0" stop-color="#f8c35b"/><stop offset="1" stop-color="#fb955d"/></linearGradient></defs><g id="Layer_2" data-name="Layer 2"><g id="Layer_1-2" data-name="Layer 1"><g id="logo"><g id="logo-icon"><path id="icon-base" class="cls-1" d="M309.93,0A28,28,0,0,1,334.2,14l50.38,87.5a28,28,0,0,1,0,27.94L334.2,217a28,28,0,0,1-24.27,14H209.31a28,28,0,0,1-24.26-14l-50.38-87.5a28,28,0,0,1,0-27.94L185.05,14A28,28,0,0,1,209.31,0Z" transform="translate(-3.72)"/><g id="phenix"><path id="phenix-3" class="cls-2" d="M275.51,124.15c-30,6-64.78,61.63-41.65,101.7,0,0,19.54-.17,53.44,0C261,212.76,246.31,170.16,275.51,124.15Z" transform="translate(-3.72)"/><path id="phenix-2" class="cls-2" d="M274,136.11c-7.3,7.68-24.07,64.27,21.65,89.61,34.15,3.23,39.31-18.81,39.31-18.81C284.27,203,278.18,166.61,274,136.11Z" transform="translate(-3.72)"/><path id="phenix-1" class="cls-2" d="M324.13,90.54c-6.07-1-47.51-1-36.82-7.57,13.13-8.12,21.25,8.67,32.14,4,13.84-22-21-45.22-59.52-42.36l.28-.29c-20-.24-40.45,3.36-49.66-7.83-.78,5.93,1.31,15,6.74,20.7a16.22,16.22,0,0,0,12.08,5.25,19.41,19.41,0,0,0,3.8-.43c-7.16,4-15.09,2.2-18.12-.86q-1.77,1.35-3.47,2.84a73.94,73.94,0,0,0-9.4,9.82c-15,18.9-21.88,41.53-21.92,64,9-10.72,20.77-20.56,32.82-22.89-14.33,10.9-39.14,47.24-42.67,66.65,14.25,23.91,16.21,48.65,56.83,43.9-14.35-28.13-6.26-63.69,21.25-90.79,30.13-29.68,101.89-20.7,101,8.12,14.6-18,.64-48.1-25.38-52.26Z" transform="translate(-3.72)"/></g></g><g id="logo-text"><path class="cls-3" d="M3.72,257.12h26q6.51,0,9.45,2.95t2.95,9.45v6.2q0,6.51-2.95,9.46t-9.45,2.94H14.88v12.4H3.72ZM31,269.52q0-3.72-3.72-3.72H14.88v13.64h12.4q3.72,0,3.72-3.72Z" transform="translate(-3.72)"/><path class="cls-3" d="M85.56,300.52H74.4V282.85H58.9v17.67H47.74v-43.4H58.9v17.05H74.4V257.12H85.56Z" transform="translate(-3.72)"/><path class="cls-3" d="M127.41,300.52H93v-43.4h34.41v8.68H104.16v8.37h18.29v8.68H104.16v9h23.25Z" transform="translate(-3.72)"/><path class="cls-3" d="M170.19,300.52H158.41l-14.88-26v26H132.37v-43.4h11.78l14.88,26v-26h11.16Z" transform="translate(-3.72)"/><path class="cls-3" d="M198.09,300.52H175.77v-8.68h5.58v-26h-5.58v-8.68h22.32v8.68h-5.58v26h5.58Z" transform="translate(-3.72)"/><path class="cls-3" d="M228.78,257.12h12.4l-14,21.7,14.26,21.7h-12.4l-8.68-13.64-8.68,13.64h-12.4l14.26-21.7-14-21.7H212l8.43,13.64Z" transform="translate(-3.72)"/><path class="cls-3" d="M284.27,300.52H273.11V265.8h-13v-8.68h37.2v8.68h-13Z" transform="translate(-3.72)"/><path class="cls-3" d="M339.45,300.52H328.29V282.85h-15.5v17.67H301.63v-43.4h11.16v17.05h15.5V257.12h11.16Z" transform="translate(-3.72)"/><path class="cls-3" d="M381.3,300.52H346.89v-43.4H381.3v8.68H358.05v8.37h18.29v8.68H358.05v9H381.3Z" transform="translate(-3.72)"/><path class="cls-3" d="M423.46,276.34l-8.68,15.5H406.1l-8.68-15.5v24.18H386.26v-43.4H398l12.4,22.94,12.4-22.94h11.78v43.4H423.46Z" transform="translate(-3.72)"/><path class="cls-3" d="M476.47,300.52H442.06v-43.4h34.41v8.68H453.22v8.37h18.29v8.68H453.22v9h23.25Z" transform="translate(-3.72)"/><path class="cls-3" d="M480.12,291.53q17,.93,23,.93a2.88,2.88,0,0,0,3.1-3.1v-5.58H492q-6.51,0-9.46-2.94t-2.94-9.46v-1.86q0-6.51,2.94-9.45t9.46-2.95h21.76v8.68H494.45q-3.72,0-3.72,3.72v1.24q0,3.72,3.72,3.72h11.16q6.08,0,8.92,2.85c1.9,1.91,2.86,4.88,2.86,8.93v3.1c0,4.05-1,7-2.86,8.93s-4.87,2.85-8.92,2.85q-3.17,0-6.7-.12l-5.7-.25q-6.33-.31-13.09-.87Z" transform="translate(-3.72)"/><path class="cls-4" d="M56.45,336.29v7.23H54V325h6.81a6.82,6.82,0,0,1,4.76,1.55,5.24,5.24,0,0,1,1.72,4.1,5.18,5.18,0,0,1-1.68,4.14,7.16,7.16,0,0,1-4.82,1.46Zm0-2h4.38a4.34,4.34,0,0,0,3-.92,3.37,3.37,0,0,0,1-2.66,3.49,3.49,0,0,0-1-2.65A4.13,4.13,0,0,0,61,327H56.45Z" transform="translate(-3.72)"/><path class="cls-4" d="M95,343.52H92.58V335H83.26v8.54H80.82V325h2.44V333h9.32V325H95Z" transform="translate(-3.72)"/><path class="cls-4" d="M120.2,335h-8v6.55h9.31v2H109.75V325h11.62v2h-9.18v6h8Z" transform="translate(-3.72)"/><path class="cls-4" d="M149.14,343.52h-2.45l-9.31-14.24v14.24h-2.45V325h2.45l9.33,14.31V325h2.43Z" transform="translate(-3.72)"/><path class="cls-4" d="M166.48,343.52H164V325h2.44Z" transform="translate(-3.72)"/><path class="cls-4" d="M187.58,332.12,192,325h2.86L189,334.2l6,9.32h-2.89l-4.55-7.21L183,343.52h-2.88l6-9.32L180.27,325h2.86Z" transform="translate(-3.72)"/><path class="cls-4" d="M221,327h-5.95v16.49h-2.42V327h-5.93v-2H221Z" transform="translate(-3.72)"/><path class="cls-4" d="M248.37,343.52h-2.45V335h-9.31v8.54h-2.44V325h2.44V333h9.31V325h2.45Z" transform="translate(-3.72)"/><path class="cls-4" d="M273.55,335h-8v6.55h9.31v2H263.1V325h11.62v2h-9.18v6h8Z" transform="translate(-3.72)"/><path class="cls-4" d="M291.43,325l6,15.08,6-15.08h3.16v18.48h-2.44v-7.2l.23-7.76-6.07,15h-1.87l-6-14.93.24,7.73v7.2h-2.44V325Z" transform="translate(-3.72)"/><path class="cls-4" d="M331.83,335h-8v6.55h9.3v2H321.38V325H333v2h-9.18v6h8Z" transform="translate(-3.72)"/><path class="cls-4" d="M352,335.28a11.5,11.5,0,0,1-4.56-2.21,4.26,4.26,0,0,1-1.43-3.25,4.47,4.47,0,0,1,1.75-3.61,6.93,6.93,0,0,1,4.54-1.43,7.54,7.54,0,0,1,3.39.74,5.53,5.53,0,0,1,2.31,2,5.18,5.18,0,0,1,.82,2.83h-2.45a3.34,3.34,0,0,0-1.07-2.64,4.32,4.32,0,0,0-3-1,4.46,4.46,0,0,0-2.82.79,2.67,2.67,0,0,0-1,2.21,2.38,2.38,0,0,0,1,1.91,9.41,9.41,0,0,0,3.27,1.43,15.59,15.59,0,0,1,3.6,1.43,5.42,5.42,0,0,1,1.93,1.83,4.63,4.63,0,0,1,.63,2.45,4.3,4.3,0,0,1-1.75,3.59,7.43,7.43,0,0,1-4.69,1.36,8.77,8.77,0,0,1-3.55-.73,6.09,6.09,0,0,1-2.55-2,4.94,4.94,0,0,1-.89-2.88h2.45a3.16,3.16,0,0,0,1.24,2.64,5.16,5.16,0,0,0,3.3,1,4.81,4.81,0,0,0,3-.78,2.78,2.78,0,0,0,.08-4.25A11.11,11.11,0,0,0,352,335.28Z" transform="translate(-3.72)"/><path class="cls-4" d="M372.06,342.29a1.48,1.48,0,0,1,.37-1,1.34,1.34,0,0,1,1.08-.41,1.4,1.4,0,0,1,1.1.41,1.43,1.43,0,0,1,.37,1,1.36,1.36,0,0,1-.37,1,1.46,1.46,0,0,1-1.1.39,1.31,1.31,0,0,1-1.45-1.37Z" transform="translate(-3.72)"/><path class="cls-4" d="M403.22,337.66a6.82,6.82,0,0,1-2.16,4.52,7.08,7.08,0,0,1-4.85,1.6,6.54,6.54,0,0,1-5.25-2.35,9.49,9.49,0,0,1-2-6.29v-1.77a10.64,10.64,0,0,1,.92-4.54,6.85,6.85,0,0,1,2.61-3,7.26,7.26,0,0,1,3.91-1.05,6.66,6.66,0,0,1,4.72,1.65,6.82,6.82,0,0,1,2.07,4.55h-2.45a5.27,5.27,0,0,0-1.38-3.21,4.15,4.15,0,0,0-3-1,4.33,4.33,0,0,0-3.66,1.73,7.88,7.88,0,0,0-1.33,4.91v1.79A8.12,8.12,0,0,0,392.7,340a4.05,4.05,0,0,0,3.51,1.78,4.65,4.65,0,0,0,3.12-.92,5.07,5.07,0,0,0,1.44-3.2Z" transform="translate(-3.72)"/><path class="cls-4" d="M431.17,334.88a11.42,11.42,0,0,1-.92,4.74,6.9,6.9,0,0,1-2.59,3.09,7.15,7.15,0,0,1-10.4-3.07,11,11,0,0,1-1-4.6v-1.33a11.25,11.25,0,0,1,.93-4.71,7.27,7.27,0,0,1,10.41-3.14,6.88,6.88,0,0,1,2.61,3.11,11.49,11.49,0,0,1,.92,4.74Zm-2.43-1.2a8.27,8.27,0,0,0-1.32-5,4.7,4.7,0,0,0-7.33,0,8.11,8.11,0,0,0-1.36,4.88v1.36a8.35,8.35,0,0,0,1.33,5,4.7,4.7,0,0,0,7.35.1,8.24,8.24,0,0,0,1.33-4.93Z" transform="translate(-3.72)"/><path class="cls-4" d="M448.37,325l6,15.08,6-15.08h3.16v18.48h-2.44v-7.2l.23-7.76-6.07,15h-1.86l-6.06-14.93.24,7.73v7.2h-2.44V325Z" transform="translate(-3.72)"/></g></g></g></g></svg>