<svg xmlns="http://www.w3.org/2000/svg" xmlns:xlink="http://www.w3.org/1999/xlink" viewBox="0 0 501.99 109.51"><defs><style>.cls-1{fill:url(#linear-gradient);}.cls-2{fill:#fff;}.cls-3{fill:#0c97f9;}.cls-4{fill:#1c1c1c;}</style><linearGradient id="linear-gradient" y1="54.76" x2="122.02" y2="54.76" gradientUnits="userSpaceOnUse"><stop offset="0" stop-color="#0c97f9"/><stop offset="0.33" stop-color="#0d94f9"/><stop offset="0.6" stop-color="#108af8"/><stop offset="0.84" stop-color="#1579f6"/><stop offset="1" stop-color="#1a69f4"/></linearGradient></defs><g id="Layer_2" data-name="Layer 2"><g id="Layer_1-2" data-name="Layer 1"><g id="logo"><g id="logo-icon"><path id="icon-base" class="cls-1" d="M84.86,0A13.29,13.29,0,0,1,96.37,6.65l23.88,41.48a13.28,13.28,0,0,1,0,13.25L96.37,102.86a13.27,13.27,0,0,1-11.51,6.65H37.16a13.27,13.27,0,0,1-11.51-6.65L1.77,61.38a13.28,13.28,0,0,1,0-13.25L25.65,6.65A13.29,13.29,0,0,1,37.16,0Z"/><g id="phenix"><path id="phenix-3" class="cls-2" d="M68.54,58.86C54.32,61.7,37.83,88.08,48.8,107.07c0,0,9.26-.08,25.33,0C61.66,100.87,54.7,80.67,68.54,58.86Z"/><path id="phenix-2" class="cls-2" d="M67.8,64.53C64.34,68.17,56.39,95,78.07,107c16.19,1.53,18.63-8.92,18.63-8.92C72.7,96.26,69.81,79,67.8,64.53Z"/><path id="phenix-1" class="cls-2" d="M91.59,42.93c-2.88-.46-22.52-.46-17.45-3.59,6.22-3.85,10.07,4.11,15.23,1.91,6.56-10.42-10-21.44-28.21-20.08l.13-.14c-9.5-.11-19.18,1.59-23.55-3.71a13,13,0,0,0,3.2,9.81,7.69,7.69,0,0,0,5.73,2.49,9.92,9.92,0,0,0,1.8-.2c-3.39,1.87-7.15,1-8.59-.41-.56.43-1.11.88-1.65,1.34A36.29,36.29,0,0,0,33.78,35a48.54,48.54,0,0,0-10.4,30.33c4.29-5.08,9.85-9.75,15.56-10.85-6.79,5.17-18.55,22.39-20.22,31.6,6.75,11.33,7.68,23.06,26.94,20.81-6.8-13.34-3-30.2,10.07-43.05C70,49.78,104,54,103.62,67.71c6.92-8.52.3-22.81-12-24.78Z"/></g></g><g id="logo-text"><path class="cls-3" d="M142.76,23.57h19q4.76,0,6.9,2.15t2.15,6.9v4.52q0,4.76-2.15,6.9t-6.9,2.15H150.9v9.05h-8.14Zm19.91,9A2.41,2.41,0,0,0,160,29.9h-9v10h9a2.41,2.41,0,0,0,2.72-2.72Z"/><path class="cls-3" d="M202.48,55.24h-8.14V42.34H183v12.9h-8.15V23.57H183V36h11.31V23.57h8.14Z"/><path class="cls-3" d="M233,55.24H207.91V23.57H233V29.9h-17V36H229.4v6.33H216.05v6.57h17Z"/><path class="cls-3" d="M264.24,55.24h-8.6l-10.86-19v19h-8.14V23.57h8.59l10.86,19v-19h8.15Z"/><path class="cls-3" d="M284.6,55.24H268.31V48.91h4.07v-19h-4.07V23.57H284.6V29.9h-4.08v19h4.08Z"/><path class="cls-3" d="M307,23.57H316L305.86,39.4l10.41,15.84h-9l-6.34-10-6.33,10H285.5L295.91,39.4,285.73,23.57h9l6.15,10Z"/><path class="cls-3" d="M349.74,23.57q5.11,0,7.76,2.65T360.15,34V44.83q0,5.12-2.65,7.76t-7.76,2.65H332.1V23.57ZM352,34q0-4.08-4.08-4.08h-7.69v19h7.69q4.08,0,4.08-4.08Z"/><path class="cls-3" d="M389.78,55.24H364.67V23.57h25.11V29.9h-17V36h13.34v6.33H372.82v6.57h17Z"/><path class="cls-3" d="M392.45,48.68q12.41.68,16.79.68a2.27,2.27,0,0,0,1.65-.61,2.23,2.23,0,0,0,.61-1.65V43H401.09q-4.74,0-6.9-2.14T392.05,34V32.62q0-4.75,2.14-6.9t6.9-2.15H417V29.9H402.9a2.4,2.4,0,0,0-2.71,2.72v.9a2.4,2.4,0,0,0,2.71,2.72h8.15c2.95,0,5.13.69,6.51,2.08s2.08,3.56,2.08,6.51V47.1q0,4.42-2.08,6.51c-1.38,1.39-3.56,2.08-6.51,2.08q-2.31,0-4.89-.09L402,55.42q-4.62-.22-9.55-.63Z"/><path class="cls-3" d="M438.65,55.24H422.36V48.91h4.07v-19h-4.07V23.57h16.29V29.9h-4.08v19h4.08Z"/><path class="cls-3" d="M469.86,54.56a185.1,185.1,0,0,1-19.45,1.13q-4.44,0-6.52-2.08c-1.38-1.39-2.08-3.56-2.08-6.51V32.62q0-4.75,2.15-6.9t6.9-2.15h16.29V29.9H452.67A2.4,2.4,0,0,0,450,32.62V47.1a2.1,2.1,0,0,0,2.26,2.26c3.47,0,6.63-.08,9.5-.23V42.57h-5.88V37.14h14Z"/><path class="cls-3" d="M502,55.24h-8.6l-10.86-19v19h-8.14V23.57H483l10.86,19v-19H502Z"/><path class="cls-4" d="M154.43,76h-6.35v6.68h-2V67.53h9.38v1.64h-7.38v5.18h6.35Z"/><path class="cls-4" d="M167.66,76.55h-3.55v6.12h-2V67.53h5a5.92,5.92,0,0,1,3.94,1.17,4.21,4.21,0,0,1,1.37,3.39,4.06,4.06,0,0,1-.76,2.46,4.52,4.52,0,0,1-2.13,1.57l3.56,6.43v.12H171Zm-3.55-1.63h3.06a3.46,3.46,0,0,0,2.37-.78,2.62,2.62,0,0,0,.88-2.06,2.74,2.74,0,0,0-.84-2.15,3.51,3.51,0,0,0-2.42-.76h-3Z"/><path class="cls-4" d="M191.12,75.59a9.33,9.33,0,0,1-.75,3.88A5.68,5.68,0,0,1,188.25,82a5.83,5.83,0,0,1-3.2.87,5.75,5.75,0,0,1-3.17-.88,5.81,5.81,0,0,1-2.15-2.5,9,9,0,0,1-.78-3.77v-1.1a9.15,9.15,0,0,1,.76-3.85A5.6,5.6,0,0,1,185,67.33a5.86,5.86,0,0,1,3.21.88,5.65,5.65,0,0,1,2.13,2.54,9.39,9.39,0,0,1,.75,3.88Zm-2-1a6.79,6.79,0,0,0-1.08-4.13A3.58,3.58,0,0,0,185,69a3.54,3.54,0,0,0-3,1.44,6.67,6.67,0,0,0-1.12,4v1.11a6.79,6.79,0,0,0,1.1,4.1,3.86,3.86,0,0,0,6,.09,6.82,6.82,0,0,0,1.09-4Z"/><path class="cls-4" d="M210,82.67h-2L200.38,71V82.67h-2V67.53h2L208,79.25V67.53h2Z"/><path class="cls-4" d="M228,69.17H223.1v13.5h-2V69.17h-4.86V67.53H228Z"/><path class="cls-4" d="M235.76,77h-5.07V75.46h5.07Z"/><path class="cls-4" d="M250.75,75.67h-6.56V81h7.62v1.63h-9.62V67.53h9.51v1.64h-7.51V74h6.56Z"/><path class="cls-4" d="M270.18,82.67h-2L260.56,71V82.67h-2V67.53h2l7.64,11.72V67.53h2Z"/><path class="cls-4" d="M278,82.67V67.53h4.27a6.88,6.88,0,0,1,3.49.88,6,6,0,0,1,2.35,2.48,8,8,0,0,1,.83,3.7v1a8.1,8.1,0,0,1-.82,3.75,5.83,5.83,0,0,1-2.36,2.48,7.37,7.37,0,0,1-3.57.88Zm2-13.5V81h2.1a4.55,4.55,0,0,0,3.59-1.44A5.9,5.9,0,0,0,287,75.51v-.88a6.06,6.06,0,0,0-1.21-4,4.29,4.29,0,0,0-3.44-1.45Z"/><path class="cls-4" d="M314.08,76h-6.35v6.68h-2V67.53h9.38v1.64h-7.38v5.18h6.35Z"/><path class="cls-4" d="M327.31,76.55h-3.55v6.12h-2V67.53h5a5.92,5.92,0,0,1,3.94,1.17,4.21,4.21,0,0,1,1.37,3.39,4.06,4.06,0,0,1-.76,2.46,4.52,4.52,0,0,1-2.13,1.57l3.56,6.43v.12H330.6Zm-3.55-1.63h3.06a3.46,3.46,0,0,0,2.37-.78,2.62,2.62,0,0,0,.88-2.06,2.74,2.74,0,0,0-.84-2.15,3.51,3.51,0,0,0-2.42-.76h-3.05Z"/><path class="cls-4" d="M347.49,78.71h-6.34l-1.43,4h-2.06l5.78-15.14h1.75L351,82.67h-2.05Zm-5.74-1.63h5.14L344.32,70Z"/><path class="cls-4" d="M359.85,67.53l4.95,12.35,4.95-12.35h2.59V82.67h-2V76.78l.19-6.37-5,12.26H364l-5-12.22.2,6.33v5.89h-2V67.53Z"/><path class="cls-4" d="M388.68,75.67h-6.56V81h7.62v1.63h-9.62V67.53h9.51v1.64h-7.51V74h6.56Z"/><path class="cls-4" d="M399.74,77.9l.3,2,.42-1.8,3-10.57h1.68l2.92,10.57.42,1.83.32-2,2.35-10.36h2l-3.67,15.14h-1.82l-3.12-11-.24-1.15-.24,1.15-3.23,11H399l-3.66-15.14h2Z"/><path class="cls-4" d="M431.27,75.59a9.33,9.33,0,0,1-.75,3.88A5.68,5.68,0,0,1,428.4,82a5.83,5.83,0,0,1-3.2.87A5.75,5.75,0,0,1,422,82a5.81,5.81,0,0,1-2.15-2.5,9,9,0,0,1-.78-3.77v-1.1a9.15,9.15,0,0,1,.76-3.85,5.6,5.6,0,0,1,5.32-3.45,5.86,5.86,0,0,1,3.21.88,5.65,5.65,0,0,1,2.13,2.54,9.39,9.39,0,0,1,.75,3.88Zm-2-1a6.73,6.73,0,0,0-1.09-4.13,3.84,3.84,0,0,0-6,0,6.67,6.67,0,0,0-1.12,4v1.11a6.79,6.79,0,0,0,1.1,4.1,3.85,3.85,0,0,0,6,.09,6.74,6.74,0,0,0,1.1-4Z"/><path class="cls-4" d="M444.07,76.55h-3.55v6.12h-2V67.53h5a5.92,5.92,0,0,1,3.94,1.17,4.18,4.18,0,0,1,1.38,3.39,4.07,4.07,0,0,1-.77,2.46A4.54,4.54,0,0,1,446,76.12l3.55,6.43v.12h-2.14Zm-3.55-1.63h3.07a3.41,3.41,0,0,0,2.36-.78,2.59,2.59,0,0,0,.88-2.06,2.74,2.74,0,0,0-.84-2.15,3.5,3.5,0,0,0-2.41-.76h-3.06Z"/><path class="cls-4" d="M459.74,75.63l-1.85,1.93v5.11h-2V67.53h2V75l6.72-7.49H467l-5.95,6.69,6.42,8.45H465.1Z"/></g></g></g></g></svg>