<svg xmlns="http://www.w3.org/2000/svg" xmlns:xlink="http://www.w3.org/1999/xlink" viewBox="0 0 492.28 344.78"><defs><style>.cls-1{fill:url(#linear-gradient);}.cls-2{fill:#fff;}.cls-3{fill:#0c97f9;}.cls-4{fill:#1c1c1c;}</style><linearGradient id="linear-gradient" x1="-44.27" y1="738.28" x2="-43.36" y2="736.35" gradientTransform="matrix(123.63, 0, 0, -111, 5675.28, 81974.36)" gradientUnits="userSpaceOnUse"><stop offset="0" stop-color="#00c4ff"/><stop offset="1" stop-color="#1a69f4"/></linearGradient></defs><g id="Layer_2" data-name="Layer 2"><g id="Layer_1-2" data-name="Layer 1"><g id="logo"><g id="phenix"><path id="icon-base" class="cls-1" d="M301.81,0a28.65,28.65,0,0,1,24.8,14.32l51.44,89.38a28.65,28.65,0,0,1,0,28.55l-51.44,89.37a28.65,28.65,0,0,1-24.8,14.32H199a28.6,28.6,0,0,1-24.78-14.32l-51.38-89.37a28.67,28.67,0,0,1,0-28.56l51.38-89.37A28.64,28.64,0,0,1,199,0Z" transform="translate(-3.72)"/><path id="phenix-3" class="cls-2" d="M266.65,126.81c-30.64,6.12-66.16,62.95-42.54,103.88,0,0,20-.18,54.58,0C251.81,217.32,236.82,173.79,266.65,126.81Z" transform="translate(-3.72)"/><path id="phenix-2" class="cls-2" d="M265,139c-7.45,7.85-24.58,65.65,22.11,91.54,34.89,3.25,40.16-19.21,40.16-19.21C275.6,207.39,269.38,170.18,265,139Z" transform="translate(-3.72)"/><path id="phenix-1" class="cls-2" d="M316.31,92.48c-6.2-1-48.53-1-37.6-7.73,13.46-8.24,21.7,8.85,32.82,4.12,14.12-22.45-21.44-46.19-60.8-43.29l.28-.31c-20.46-.25-41.32,3.43-50.72-8a28.06,28.06,0,0,0,6.88,21.16,16.58,16.58,0,0,0,12.34,5.36,20.34,20.34,0,0,0,3.89-.44c-7.32,4-15.41,2.26-18.52-.88-1.19.93-2.38,1.89-3.54,2.9a75.34,75.34,0,0,0-9.6,10,104.44,104.44,0,0,0-22.39,65.34c9.24-10.94,21.16-21,33.53-23.38-14.65,11.13-40,48.25-43.57,68.08,14.55,24.42,16.55,49.68,58.05,44.83-14.65-28.7-6.4-65.11,21.7-92.78,30.76-30.32,104.07-21.17,103.17,8.3,14.91-18.35.65-49.13-25.93-53.4Z" transform="translate(-3.72)"/></g><g id="logo-icon"><path class="cls-3" d="M3.72,258.12h26q6.51,0,9.45,2.95t2.95,9.45v6.2q0,6.51-2.95,9.46t-9.45,2.94H14.88v12.4H3.72ZM31,270.52q0-3.72-3.72-3.72H14.88v13.64h12.4q3.72,0,3.72-3.72Z" transform="translate(-3.72)"/><path class="cls-3" d="M85.56,301.52H74.4V283.85H58.9v17.67H47.74v-43.4H58.9v17.05H74.4V258.12H85.56Z" transform="translate(-3.72)"/><path class="cls-3" d="M127.41,301.52H93v-43.4h34.41v8.68H104.16v8.37h18.29v8.68H104.16v9h23.25Z" transform="translate(-3.72)"/><path class="cls-3" d="M170.19,301.52H158.41l-14.88-26v26H132.37v-43.4h11.78l14.88,26v-26h11.16Z" transform="translate(-3.72)"/><path class="cls-3" d="M198.09,301.52H175.77v-8.68h5.58v-26h-5.58v-8.68h22.32v8.68h-5.58v26h5.58Z" transform="translate(-3.72)"/><path class="cls-3" d="M228.78,258.12h12.4l-14,21.7,14.26,21.7h-12.4l-8.68-13.64-8.68,13.64h-12.4l14.26-21.7-14-21.7H212l8.43,13.64Z" transform="translate(-3.72)"/><path class="cls-3" d="M287.37,258.12q7,0,10.63,3.63t3.63,10.63v14.88q0,7-3.63,10.64t-10.63,3.62H263.19v-43.4Zm3.1,14.26q0-5.58-5.58-5.58H274.35v26h10.54q5.58,0,5.58-5.58Z" transform="translate(-3.72)"/><path class="cls-3" d="M342.24,301.52H307.83v-43.4h34.41v8.68H319v8.37h18.29v8.68H319v9h23.25Z" transform="translate(-3.72)"/><path class="cls-3" d="M345.89,292.53q17,.93,23,.93a2.88,2.88,0,0,0,3.1-3.1v-5.58H357.74q-6.51,0-9.46-2.94t-2.94-9.46v-1.86q0-6.51,2.94-9.45t9.46-2.95H379.5v8.68H360.22q-3.72,0-3.72,3.72v1.24q0,3.72,3.72,3.72h11.16q6.08,0,8.92,2.85c1.9,1.91,2.86,4.88,2.86,8.93v3.1c0,4.05-1,7-2.86,8.93s-4.87,2.85-8.92,2.85q-3.17,0-6.7-.12l-5.7-.25q-6.33-.31-13.09-.87Z" transform="translate(-3.72)"/><path class="cls-3" d="M409.2,301.52H386.88v-8.68h5.58v-26h-5.58v-8.68H409.2v8.68h-5.58v26h5.58Z" transform="translate(-3.72)"/><path class="cls-3" d="M452,300.59a250.79,250.79,0,0,1-26.66,1.55c-4.06,0-7-.95-8.93-2.85s-2.85-4.88-2.85-8.93V270.52q0-6.51,2.94-9.45t9.46-2.95h22.32v8.68H428.42q-3.72,0-3.72,3.72v19.84a2.87,2.87,0,0,0,3.1,3.1q7.13,0,13-.31v-9h-8.06v-7.44H452Z" transform="translate(-3.72)"/><path class="cls-3" d="M496,301.52H484.22l-14.88-26v26H458.18v-43.4H470l14.88,26v-26H496Z" transform="translate(-3.72)"/><path class="cls-4" d="M42,336.36H34.23v8.16H31.79V326H43.24v2h-9v6.34H42Z" transform="translate(-3.72)"/><path class="cls-4" d="M60.74,337.05H56.4v7.47H54V326h6.12a7.22,7.22,0,0,1,4.8,1.42,5.13,5.13,0,0,1,1.68,4.14,5,5,0,0,1-.93,3,5.56,5.56,0,0,1-2.6,1.91l4.35,7.85v.15H64.75Zm-4.34-2h3.74a4.22,4.22,0,0,0,2.89-.94,3.17,3.17,0,0,0,1.07-2.52,3.35,3.35,0,0,0-1-2.63,4.32,4.32,0,0,0-2.95-.93H56.4Z" transform="translate(-3.72)"/><path class="cls-4" d="M92,335.88a11.42,11.42,0,0,1-.92,4.74,6.9,6.9,0,0,1-2.59,3.09,7.15,7.15,0,0,1-10.4-3.07,11,11,0,0,1-1-4.6v-1.33a11.25,11.25,0,0,1,.93-4.71,7.27,7.27,0,0,1,10.41-3.14A6.88,6.88,0,0,1,91.07,330a11.49,11.49,0,0,1,.92,4.74Zm-2.43-1.2a8.27,8.27,0,0,0-1.32-5,4.7,4.7,0,0,0-7.33,0,8.11,8.11,0,0,0-1.36,4.88v1.36a8.28,8.28,0,0,0,1.34,5,4.69,4.69,0,0,0,7.34.1,8.24,8.24,0,0,0,1.33-4.93Z" transform="translate(-3.72)"/><path class="cls-4" d="M117.65,344.52H115.2l-9.31-14.24v14.24h-2.45V326h2.45l9.33,14.31V326h2.43Z" transform="translate(-3.72)"/><path class="cls-4" d="M142.18,328h-5.94v16.49h-2.42V328h-5.93v-2h14.29Z" transform="translate(-3.72)"/><path class="cls-4" d="M154.3,337.63h-6.2v-1.92h6.2Z" transform="translate(-3.72)"/><path class="cls-4" d="M175.2,336h-8v6.55h9.3v2H164.75V326h11.62v2h-9.18v6h8Z" transform="translate(-3.72)"/><path class="cls-4" d="M201.54,344.52h-2.46l-9.3-14.24v14.24h-2.45V326h2.45l9.33,14.31V326h2.43Z" transform="translate(-3.72)"/><path class="cls-4" d="M213.66,344.52V326h5.22a8.43,8.43,0,0,1,4.27,1.06,7.3,7.3,0,0,1,2.86,3,9.93,9.93,0,0,1,1,4.52v1.18a9.81,9.81,0,0,1-1,4.58,7.06,7.06,0,0,1-2.88,3,8.78,8.78,0,0,1-4.36,1.08ZM216.1,328v14.5h2.57a5.57,5.57,0,0,0,4.38-1.75,7.24,7.24,0,0,0,1.57-5V334.7a7.35,7.35,0,0,0-1.48-4.9A5.27,5.27,0,0,0,219,328Z" transform="translate(-3.72)"/><path class="cls-4" d="M262.94,336.36h-7.75v8.16h-2.44V326H264.2v2h-9v6.34h7.75Z" transform="translate(-3.72)"/><path class="cls-4" d="M281.7,337.05h-4.34v7.47h-2.45V326H281a7.22,7.22,0,0,1,4.8,1.42,5.13,5.13,0,0,1,1.69,4.14,5,5,0,0,1-.94,3,5.58,5.58,0,0,1-2.59,1.91l4.34,7.85v.15h-2.62Zm-4.34-2h3.74a4.21,4.21,0,0,0,2.89-.94,3.17,3.17,0,0,0,1.07-2.52,3.35,3.35,0,0,0-1-2.63,4.32,4.32,0,0,0-3-.93h-3.73Z" transform="translate(-3.72)"/><path class="cls-4" d="M308.94,339.69h-7.75l-1.74,4.83h-2.51L304,326h2.13l7.07,18.48h-2.5Zm-7-2h6.28l-3.14-8.64Z" transform="translate(-3.72)"/><path class="cls-4" d="M326.64,326l6,15.08L338.73,326h3.16v18.48h-2.44v-7.2l.23-7.76-6.07,15h-1.87l-6.05-14.93.24,7.73v7.2h-2.44V326Z" transform="translate(-3.72)"/><path class="cls-4" d="M364.44,336h-8v6.55h9.3v2H354V326h11.62v2h-9.18v6h8Z" transform="translate(-3.72)"/><path class="cls-4" d="M380.55,338.7l.36,2.43.52-2.19,3.66-12.9h2.05l3.57,12.9.51,2.23.39-2.49L394.48,326h2.45l-4.48,18.48h-2.22l-3.81-13.47-.29-1.41-.29,1.41-3.95,13.47h-2.22L375.2,326h2.43Z" transform="translate(-3.72)"/><path class="cls-4" d="M421.65,335.88a11.42,11.42,0,0,1-.91,4.74,6.9,6.9,0,0,1-2.59,3.09,7.14,7.14,0,0,1-3.91,1.07,6.91,6.91,0,0,1-6.49-4.14,10.7,10.7,0,0,1-1-4.6v-1.33a11.41,11.41,0,0,1,.92-4.71,7.28,7.28,0,0,1,10.42-3.14,6.88,6.88,0,0,1,2.61,3.11,11.49,11.49,0,0,1,.91,4.74Zm-2.42-1.2a8.27,8.27,0,0,0-1.32-5,4.36,4.36,0,0,0-3.7-1.76,4.3,4.3,0,0,0-3.63,1.76,8.11,8.11,0,0,0-1.37,4.88v1.36a8.35,8.35,0,0,0,1.34,5,4.7,4.7,0,0,0,7.35.1,8.31,8.31,0,0,0,1.33-4.93Z" transform="translate(-3.72)"/><path class="cls-4" d="M439.89,337.05h-4.34v7.47H433.1V326h6.12a7.22,7.22,0,0,1,4.8,1.42,5.13,5.13,0,0,1,1.68,4.14,5,5,0,0,1-.93,3,5.56,5.56,0,0,1-2.6,1.91l4.35,7.85v.15H443.9Zm-4.34-2h3.74a4.21,4.21,0,0,0,2.89-.94,3.17,3.17,0,0,0,1.07-2.52,3.35,3.35,0,0,0-1-2.63,4.32,4.32,0,0,0-3-.93h-3.73Z" transform="translate(-3.72)"/><path class="cls-4" d="M461.62,335.93l-2.26,2.35v6.24h-2.44V326h2.44v9.14l8.21-9.14h2.95l-7.28,8.16,7.85,10.32h-2.92Z" transform="translate(-3.72)"/></g></g></g></g></svg>