<svg xmlns="http://www.w3.org/2000/svg" xmlns:xlink="http://www.w3.org/1999/xlink" viewBox="0 0 502.66 110.77"><defs><style>.cls-1{fill:#0c97f9;}.cls-2{fill:#1c1c1c;}.cls-3{fill:url(#linear-gradient);}.cls-4{fill:#fff;}</style><linearGradient id="linear-gradient" x1="-37.14" y1="318" x2="-36.71" y2="317.09" gradientTransform="matrix(123.63, 0, 0, -111, 4630.69, 35310.02)" gradientUnits="userSpaceOnUse"><stop offset="0" stop-color="#00c4ff"/><stop offset="1" stop-color="#1a69f4"/></linearGradient></defs><g id="Layer_2" data-name="Layer 2"><g id="Layer_1-2" data-name="Layer 1"><g id="logo"><g id="logo-text"><path class="cls-1" d="M143.44,23.93h19c3.17,0,5.47.71,6.9,2.15s2.15,3.73,2.15,6.9V37.5q0,4.76-2.15,6.9t-6.9,2.15H151.58V55.6h-8.14Zm19.9,9a2.4,2.4,0,0,0-2.71-2.72h-9v10h9a2.39,2.39,0,0,0,2.71-2.71Z"/><path class="cls-1" d="M203.16,55.6H195V42.7H183.7V55.6h-8.14V23.93h8.14V36.37H195V23.93h8.15Z"/><path class="cls-1" d="M233.7,55.6H208.59V23.93H233.7v6.33h-17v6.11h13.35V42.7H216.73v6.56h17Z"/><path class="cls-1" d="M264.91,55.6h-8.59l-10.86-19v19h-8.14V23.93h8.59l10.86,19v-19h8.14Z"/><path class="cls-1" d="M285.27,55.6H269V49.26h4.07v-19H269V23.93h16.28v6.33H281.2v19h4.07Z"/><path class="cls-1" d="M307.67,23.93h9.05L306.54,39.76l10.4,15.84h-9.05l-6.33-10-6.33,10h-9.05l10.4-15.84L286.4,23.93h9l6.15,10Z"/><path class="cls-1" d="M350.42,23.93q5.11,0,7.76,2.64c1.76,1.77,2.65,4.35,2.65,7.76V45.19c0,3.41-.89,6-2.65,7.76s-4.35,2.65-7.76,2.65H332.78V23.93Zm2.26,10.4c0-2.71-1.35-4.07-4.07-4.07h-7.69v19h7.69c2.72,0,4.07-1.36,4.07-4.07Z"/><path class="cls-1" d="M390.46,55.6H365.35V23.93h25.11v6.33h-17v6.11h13.35V42.7H373.49v6.56h17Z"/><path class="cls-1" d="M393.13,49q12.39.68,16.78.67a2.11,2.11,0,0,0,2.27-2.26V43.38H401.77q-4.75,0-6.9-2.15t-2.15-6.9V33q0-4.75,2.15-6.9c1.43-1.44,3.73-2.15,6.9-2.15h15.88v6.33H403.58A2.4,2.4,0,0,0,400.87,33v.9a2.39,2.39,0,0,0,2.71,2.71h8.14q4.44,0,6.52,2.09t2.08,6.51v2.26q0,4.44-2.08,6.52t-6.52,2.08c-1.53,0-3.16,0-4.88-.09l-4.16-.18q-4.62-.22-9.55-.64Z"/><path class="cls-1" d="M439.32,55.6H423V49.26h4.07v-19H423V23.93h16.28v6.33h-4.07v19h4.07Z"/><path class="cls-1" d="M470.54,54.92a185.25,185.25,0,0,1-19.45,1.13q-4.44,0-6.52-2.08t-2.08-6.52V33q0-4.75,2.15-6.9c1.43-1.44,3.73-2.15,6.9-2.15h16.29v6.33H453.35A2.4,2.4,0,0,0,450.63,33V47.45a2.11,2.11,0,0,0,2.27,2.26q5.19,0,9.5-.22V42.93h-5.89V37.5h14Z"/><path class="cls-1" d="M502.66,55.6h-8.59l-10.86-19v19h-8.15V23.93h8.6l10.86,19v-19h8.14Z"/><path class="cls-2" d="M155.11,76.34h-6.35V83h-2V67.89h9.38v1.63h-7.38v5.19h6.35Z"/><path class="cls-2" d="M168.34,76.9h-3.56V83h-2V67.89h5a5.89,5.89,0,0,1,3.93,1.17,4.16,4.16,0,0,1,1.38,3.38,4.07,4.07,0,0,1-.76,2.47,4.59,4.59,0,0,1-2.13,1.57l3.56,6.42V83h-2.15Zm-3.56-1.63h3.07a3.45,3.45,0,0,0,2.37-.77,2.61,2.61,0,0,0,.87-2.06,2.74,2.74,0,0,0-.83-2.16,3.58,3.58,0,0,0-2.42-.76h-3.06Z"/><path class="cls-2" d="M191.8,76a9.33,9.33,0,0,1-.75,3.88,5.6,5.6,0,0,1-2.12,2.53,5.85,5.85,0,0,1-8.52-2.51,8.9,8.9,0,0,1-.78-3.77V75a9.15,9.15,0,0,1,.76-3.85,5.75,5.75,0,0,1,2.14-2.57,5.81,5.81,0,0,1,3.18-.89,5.89,5.89,0,0,1,3.2.88,5.69,5.69,0,0,1,2.14,2.55A9.39,9.39,0,0,1,191.8,75Zm-2-1a6.79,6.79,0,0,0-1.08-4.13,3.56,3.56,0,0,0-3-1.44,3.53,3.53,0,0,0-3,1.44,6.6,6.6,0,0,0-1.12,4V76a6.79,6.79,0,0,0,1.1,4.1,3.55,3.55,0,0,0,3,1.49,3.51,3.51,0,0,0,3-1.41,6.72,6.72,0,0,0,1.09-4Z"/><path class="cls-2" d="M210.68,83h-2l-7.62-11.67V83h-2V67.89h2l7.64,11.72V67.89h2Z"/><path class="cls-2" d="M228.64,69.52h-4.86V83h-2V69.52h-4.85V67.89h11.7Z"/><path class="cls-2" d="M236.44,77.38h-5.08V75.81h5.08Z"/><path class="cls-2" d="M251.42,76h-6.56V81.4h7.62V83h-9.61V67.89h9.51v1.63h-7.52V74.4h6.56Z"/><path class="cls-2" d="M270.86,83h-2l-7.62-11.67V83h-2V67.89h2l7.64,11.72V67.89h2Z"/><path class="cls-2" d="M278.66,83V67.89h4.28a6.81,6.81,0,0,1,3.49.88,5.9,5.9,0,0,1,2.34,2.48,8.13,8.13,0,0,1,.84,3.7v1a8.1,8.1,0,0,1-.83,3.75,5.75,5.75,0,0,1-2.36,2.47,7.32,7.32,0,0,1-3.57.89Zm2-13.51V81.4h2.1A4.55,4.55,0,0,0,286.35,80a5.92,5.92,0,0,0,1.28-4.09V75a6,6,0,0,0-1.21-4A4.3,4.3,0,0,0,283,69.52Z"/><path class="cls-2" d="M314.76,76.34h-6.35V83h-2V67.89h9.38v1.63h-7.38v5.19h6.35Z"/><path class="cls-2" d="M328,76.9h-3.56V83h-2V67.89h5a5.89,5.89,0,0,1,3.93,1.17,4.16,4.16,0,0,1,1.38,3.38,4.07,4.07,0,0,1-.76,2.47,4.59,4.59,0,0,1-2.13,1.57l3.56,6.42V83h-2.15Zm-3.56-1.63h3.07a3.45,3.45,0,0,0,2.37-.77,2.61,2.61,0,0,0,.87-2.06,2.74,2.74,0,0,0-.83-2.16,3.58,3.58,0,0,0-2.42-.76h-3.06Z"/><path class="cls-2" d="M348.16,79.07h-6.34l-1.42,4h-2.06l5.78-15.14h1.75L351.66,83h-2.05Zm-5.73-1.63h5.14L345,70.36Z"/><path class="cls-2" d="M360.53,67.89l5,12.35,4.95-12.35H373V83h-2v-5.9l.19-6.36-5,12.26h-1.53l-5-12.23.2,6.33V83h-2V67.89Z"/><path class="cls-2" d="M389.35,76h-6.56V81.4h7.62V83H380.8V67.89h9.51v1.63h-7.52V74.4h6.56Z"/><path class="cls-2" d="M400.42,78.26l.29,2,.43-1.8,3-10.56h1.69l2.92,10.56.41,1.83.33-2,2.35-10.36h2L410.16,83h-1.82l-3.11-11L405,70.84,404.75,72l-3.24,11h-1.82L396,67.89h2Z"/><path class="cls-2" d="M432,76a9.33,9.33,0,0,1-.75,3.88,5.66,5.66,0,0,1-2.12,2.53,6.2,6.2,0,0,1-6.37,0,5.77,5.77,0,0,1-2.15-2.51,9.05,9.05,0,0,1-.79-3.77V75a9.31,9.31,0,0,1,.76-3.85,6,6,0,0,1,8.53-2.58,5.69,5.69,0,0,1,2.14,2.55A9.39,9.39,0,0,1,432,75Zm-2-1a6.79,6.79,0,0,0-1.08-4.13,3.56,3.56,0,0,0-3-1.44,3.53,3.53,0,0,0-3,1.44,6.6,6.6,0,0,0-1.12,4V76a6.79,6.79,0,0,0,1.1,4.1,3.84,3.84,0,0,0,6,.08,6.72,6.72,0,0,0,1.09-4Z"/><path class="cls-2" d="M444.75,76.9H441.2V83h-2V67.89h5a5.92,5.92,0,0,1,3.94,1.17,4.19,4.19,0,0,1,1.37,3.38,4.07,4.07,0,0,1-.76,2.47,4.59,4.59,0,0,1-2.13,1.57l3.56,6.42V83H448Zm-3.55-1.63h3.06a3.45,3.45,0,0,0,2.37-.77,2.62,2.62,0,0,0,.88-2.06,2.74,2.74,0,0,0-.84-2.16,3.56,3.56,0,0,0-2.42-.76H441.2Z"/><path class="cls-2" d="M460.41,76l-1.85,1.92V83h-2V67.89h2v7.49l6.73-7.49h2.41l-5.95,6.69L468.17,83h-2.39Z"/></g><g id="logo-icon"><path id="icon-base" class="cls-3" d="M85.79,0A13.45,13.45,0,0,1,97.44,6.73l24.15,42a13.49,13.49,0,0,1,0,13.41L97.44,104a13.45,13.45,0,0,1-11.65,6.73H37.54A13.43,13.43,0,0,1,25.91,104L1.79,62.09a13.44,13.44,0,0,1,0-13.41L25.91,6.73A13.43,13.43,0,0,1,37.54,0Z"/><path id="phenix-3" class="cls-4" d="M69.29,59.54c-14.39,2.87-31.06,29.55-20,48.76,0,0,9.37-.08,25.62,0C62.32,102,55.29,81.59,69.29,59.54Z"/><path id="phenix-2" class="cls-4" d="M68.53,65.27C65,69,57,96.09,78.91,108.24c16.38,1.53,18.86-9,18.86-9C73.49,97.37,70.57,79.89,68.53,65.27Z"/><path id="phenix-1" class="cls-4" d="M92.6,43.42C89.69,43,69.82,43,75,39.79c6.32-3.87,10.19,4.15,15.41,1.93C97,31.18,80.29,20,61.82,21.4l.13-.15c-9.61-.11-19.4,1.62-23.82-3.75a13.15,13.15,0,0,0,3.24,9.94A7.75,7.75,0,0,0,47.16,30a10.14,10.14,0,0,0,1.82-.2c-3.43,1.89-7.23,1.06-8.69-.42-.56.44-1.12.89-1.66,1.36a35.32,35.32,0,0,0-4.51,4.72A49,49,0,0,0,23.61,66.08c4.34-5.13,9.93-9.85,15.74-11-6.88,5.22-18.77,22.65-20.46,32,6.84,11.46,7.78,23.32,27.26,21-6.88-13.47-3-30.56,10.18-43.55,14.45-14.23,48.86-9.94,48.44,3.89,7-8.61.31-23.06-12.17-25.06Z"/></g></g></g></g></svg>