<svg xmlns="http://www.w3.org/2000/svg" xmlns:xlink="http://www.w3.org/1999/xlink" viewBox="0 0 314.43 82.3"><defs><style>.cls-1{fill:url(#linear-gradient);}.cls-2{fill:#fff;}.cls-3{fill:#f8c35b;}.cls-4{fill:#cecece;}</style><linearGradient id="linear-gradient" x1="224.05" y1="41.15" x2="315.75" y2="41.15" gradientUnits="userSpaceOnUse"><stop offset="0" stop-color="#f8c35b"/><stop offset="1" stop-color="#fb955d"/></linearGradient></defs><g id="Layer_2" data-name="Layer 2"><g id="Layer_1-2" data-name="Layer 1"><g id="logo"><g id="logo-icon"><path id="icon-base" class="cls-1" d="M287.82,0a10,10,0,0,1,8.65,5l17.95,31.17a10,10,0,0,1,0,10L296.47,77.3a10,10,0,0,1-8.65,5H252a10,10,0,0,1-8.64-5l-18-31.17a10,10,0,0,1,0-10L243.33,5A10,10,0,0,1,252,0Z" transform="translate(-1.32)"/><g id="phenix"><path id="phenix-3" class="cls-2" d="M275.56,44.23c-10.69,2.14-23.08,22-14.84,36.23,0,0,7,0,19,0C270.39,75.8,265.15,60.62,275.56,44.23Z" transform="translate(-1.32)"/><path id="phenix-2" class="cls-2" d="M275,48.49c-2.6,2.74-8.58,22.9,7.71,31.93,12.17,1.15,14-6.7,14-6.7C278.68,72.34,276.51,59.36,275,48.49Z" transform="translate(-1.32)"/><path id="phenix-1" class="cls-2" d="M292.88,32.26c-2.16-.35-16.93-.34-13.12-2.7,4.68-2.89,7.57,3.09,11.45,1.44,4.93-7.83-7.48-16.11-21.2-15.09l.1-.1C263,15.72,255.69,17,252.41,13a9.8,9.8,0,0,0,2.41,7.37,5.8,5.8,0,0,0,4.3,1.87,7.64,7.64,0,0,0,1.35-.15c-2.55,1.4-5.37.78-6.45-.31-.42.32-.83.66-1.24,1a27,27,0,0,0-3.35,3.5,36.51,36.51,0,0,0-7.81,22.79c3.22-3.82,7.4-7.32,11.69-8.15-5.1,3.88-13.94,16.83-15.2,23.74,5.08,8.52,5.78,17.33,20.25,15.64-5.11-10-2.23-22.69,7.57-32.34,10.74-10.58,36.3-7.38,36,2.89,5.2-6.4.23-17.14-9-18.62Z" transform="translate(-1.32)"/></g></g><g id="logo-text"><path class="cls-3" d="M22.9,46a9.93,9.93,0,0,1-3-.4,4.72,4.72,0,0,1-2-1.13,2.47,2.47,0,0,1-.7-1.74A14.11,14.11,0,0,0,21,42.31a6.36,6.36,0,0,0,2.35-1.13,4.9,4.9,0,0,0,1.33-1.61,9.06,9.06,0,0,0,.69-1.86c.07-.3.16-.76.27-1.39s.24-1.36.38-2.17.28-1.66.42-2.54.26-1.71.39-2.51.22-1.48.31-2.05L27.29,29l-1.74-4.37A14.19,14.19,0,0,1,28,23.2a5.39,5.39,0,0,1,2.11-.47,2.71,2.71,0,0,1,1.8.55,1.77,1.77,0,0,1,.67,1.45,5.54,5.54,0,0,1-.07.75c0,.33-.11.85-.22,1.56s-.25,1.67-.45,2.92-.46,2.85-.77,4.81a37,37,0,0,1-1.27,5.63,11.32,11.32,0,0,1-1.71,3.42,5.24,5.24,0,0,1-2.26,1.7A8.41,8.41,0,0,1,22.9,46Zm7.46-25.61a2.41,2.41,0,0,1-1.69-.56,1.85,1.85,0,0,1-.62-1.44,2.83,2.83,0,0,1,.89-2.17,3.2,3.2,0,0,1,2.25-.82A2.52,2.52,0,0,1,32.9,16a1.86,1.86,0,0,1,.63,1.47,2.74,2.74,0,0,1-.89,2.14A3.24,3.24,0,0,1,30.36,20.39ZM33.3,37.16a2.37,2.37,0,0,1-1.86-.66,3,3,0,0,1-.58-2l1.89,1.33H29.17l2.49-4.68a1.89,1.89,0,0,0,.47,1.35,1.83,1.83,0,0,0,1.3.47l2,0-.68,4.18Zm1.4,0L35.38,33c.31,0,.5.18.56.56a5,5,0,0,1-.07,1.54,5.16,5.16,0,0,1-.43,1.52A.81.81,0,0,1,34.7,37.16Z" transform="translate(-1.32)"/><path class="cls-3" d="M34.73,37.16c-.31,0-.5-.19-.56-.57a4.9,4.9,0,0,1,.07-1.53,5.16,5.16,0,0,1,.43-1.52.81.81,0,0,1,.74-.56Zm0,0L35.41,33h1.76a3.06,3.06,0,0,0,1.38-.28,2.76,2.76,0,0,0,.93-.69,1.77,1.77,0,0,0,.42-.78l1.17-7.15a17.65,17.65,0,0,1,2.54-1.87,10,10,0,0,1,5.29-1.43,9.49,9.49,0,0,1,4.22.87,6.45,6.45,0,0,1,2.77,2.49,7.15,7.15,0,0,1,1,3.82,9.67,9.67,0,0,1-.63,3.42,11.1,11.1,0,0,1-1.89,3.16,13,13,0,0,1-3.07,2.62H41.7l-.37-1.35h-.2a2.59,2.59,0,0,1-.88.88,2.8,2.8,0,0,1-1.7.47Zm9.78-2.49L43.05,33h8.06l-2.26.33a3.57,3.57,0,0,0,1.18-1,7.11,7.11,0,0,0,1.21-1.92,6.29,6.29,0,0,0,.52-2.6,3.35,3.35,0,0,0-.6-2.07A2.57,2.57,0,0,0,49,25a6,6,0,0,0-2.2.41,6.34,6.34,0,0,0-1.65.94l1-2.21Zm3.3,2.49L48.46,33H58.65L58,37.16Zm10.16,0L58.65,33c.31,0,.5.18.56.56a5,5,0,0,1-.07,1.54,5.16,5.16,0,0,1-.43,1.52A.81.81,0,0,1,58,37.16Z" transform="translate(-1.32)"/><path class="cls-3" d="M59.66,44.23A2.46,2.46,0,0,1,58,43.68a1.89,1.89,0,0,1-.62-1.45,2.8,2.8,0,0,1,.9-2.17,3.21,3.21,0,0,1,2.25-.82,2.51,2.51,0,0,1,1.7.56,1.86,1.86,0,0,1,.63,1.47,2.78,2.78,0,0,1-.89,2.15A3.28,3.28,0,0,1,59.66,44.23ZM58,37.16c-.31,0-.5-.19-.56-.57a5.16,5.16,0,0,1,.06-1.53,5.86,5.86,0,0,1,.43-1.52.83.83,0,0,1,.74-.56Zm0,0L58.67,33h4.84L61.8,34.69V32.92a9.17,9.17,0,0,1,.11-1.53,12.42,12.42,0,0,1,.29-1.33c.11-.41.22-.82.34-1.22s.21-.8.28-1.21a6.55,6.55,0,0,0,.12-1.28A6.62,6.62,0,0,0,62.8,25a2.44,2.44,0,0,0-.41-1,14,14,0,0,1,2.25-.94,7.09,7.09,0,0,1,2-.34,1.84,1.84,0,0,1,1.44.48,2,2,0,0,1,.43,1.37,6.66,6.66,0,0,1-.19,1.53c-.13.56-.29,1.13-.47,1.71s-.34,1.15-.47,1.71a7.06,7.06,0,0,0-.19,1.57,2,2,0,0,0,.43,1.41,1.69,1.69,0,0,0,1.31.47h2.24l-.68,4.18H67.83A2.37,2.37,0,0,1,66,36.5a3,3,0,0,1-.59-2l1.25,1.33H65.36l-.89,1.35Zm7.54,7.07a2.46,2.46,0,0,1-1.69-.55,1.86,1.86,0,0,1-.62-1.45,2.79,2.79,0,0,1,.89-2.17,3.25,3.25,0,0,1,2.25-.82,2.49,2.49,0,0,1,1.7.56,1.84,1.84,0,0,1,.64,1.47,2.79,2.79,0,0,1-.9,2.15A3.24,3.24,0,0,1,65.54,44.23Zm4.94-7.07L71.16,33c.31,0,.49.18.55.56a5.25,5.25,0,0,1-.06,1.54,5.49,5.49,0,0,1-.43,1.52A.82.82,0,0,1,70.48,37.16Z" transform="translate(-1.32)"/><path class="cls-3" d="M70.5,37.16c-.31,0-.49-.19-.55-.57A5.16,5.16,0,0,1,70,35.06a5.86,5.86,0,0,1,.43-1.52.82.82,0,0,1,.74-.56Zm0,0L71.18,33h5.51l-2,.57c.06-.57.15-1.15.24-1.72s.2-1.13.31-1.69.23-1.08.36-1.58.23-1,.35-1.43l.3-1.23,0,1.38-1.69-2.57A12.35,12.35,0,0,1,77,23.32a6.79,6.79,0,0,1,2.58-.56,2.15,2.15,0,0,1,1.5.43,1.61,1.61,0,0,1,.47,1.26,7.83,7.83,0,0,1-.14,1.27c-.1.52-.22,1.11-.38,1.76s-.32,1.34-.49,2.07-.33,1.46-.47,2.22-.25,1.49-.34,2.22l-2.08,3.17Zm4.74-16.77a2.4,2.4,0,0,1-1.69-.56,1.83,1.83,0,0,1-.63-1.44,2.8,2.8,0,0,1,.9-2.17,3.2,3.2,0,0,1,2.25-.82,2.49,2.49,0,0,1,1.7.56,1.84,1.84,0,0,1,.64,1.47,2.75,2.75,0,0,1-.9,2.14A3.22,3.22,0,0,1,75.24,20.39Zm3.64-5.33a2.28,2.28,0,0,1-1.54-.5,1.69,1.69,0,0,1-.57-1.32,2.5,2.5,0,0,1,.82-2,3,3,0,0,1,2-.74,2.26,2.26,0,0,1,1.56.51,1.68,1.68,0,0,1,.57,1.33,2.47,2.47,0,0,1-.82,1.94A2.91,2.91,0,0,1,78.88,15.06Zm2.23,5.33a2.41,2.41,0,0,1-1.69-.56,1.85,1.85,0,0,1-.62-1.44,2.8,2.8,0,0,1,.9-2.17A3.17,3.17,0,0,1,82,15.4a2.51,2.51,0,0,1,1.7.56,1.87,1.87,0,0,1,.64,1.47,2.75,2.75,0,0,1-.9,2.14A3.24,3.24,0,0,1,81.11,20.39Z" transform="translate(-1.32)"/><path class="cls-3" d="M100.38,43.71a10,10,0,0,1-3.5-.59,8.44,8.44,0,0,1-2.83-1.71,7.88,7.88,0,0,1-1.9-2.62,8,8,0,0,1-.69-3.34,6,6,0,0,1,.62-2.92A3.84,3.84,0,0,1,93.66,31a4.13,4.13,0,0,1,1.88-.48A3.35,3.35,0,0,1,97.4,31a2.08,2.08,0,0,1,.82.75,4.13,4.13,0,0,0-.73.82,5.52,5.52,0,0,0-.65,1.31,5.32,5.32,0,0,0-.26,1.7,5.08,5.08,0,0,0,.2,1.35,3.92,3.92,0,0,0,.65,1.31,3.11,3.11,0,0,0,1.24,1,4.77,4.77,0,0,0,2,.37,5.35,5.35,0,0,0,4.58-2.3,9.3,9.3,0,0,0,1.26-2.5,15.61,15.61,0,0,0,.69-3,27.33,27.33,0,0,0,.2-3.3,13.79,13.79,0,0,0,0-1.38,5.32,5.32,0,0,0-.17-1,2.6,2.6,0,0,0-.32-.76c.76-.4,1.42-.72,2-.94a4.47,4.47,0,0,1,1.72-.34,1.71,1.71,0,0,1,1.51.55,2.59,2.59,0,0,1,.36,1.45,10.42,10.42,0,0,1-.13,1.6c-.08.58-.17,1.16-.26,1.74a12,12,0,0,0-.13,1.6,2.53,2.53,0,0,0,.39,1.55,1.61,1.61,0,0,0,1.36.51h3.48l-1.72,1.71V32.92a11,11,0,0,1,.13-1.75,13.55,13.55,0,0,1,.31-1.35c.13-.41.23-.82.32-1.24a7.5,7.5,0,0,0,.13-1.43,6.1,6.1,0,0,0-.15-1.41,2.49,2.49,0,0,0-.4-1,13.31,13.31,0,0,1,2.25-.94,7,7,0,0,1,2-.33,1.83,1.83,0,0,1,1.45.48,2,2,0,0,1,.42,1.39,7.37,7.37,0,0,1-.26,1.86c-.17.65-.35,1.3-.53,2a7.08,7.08,0,0,0-.28,1.88,2.16,2.16,0,0,0,.43,1.45,1.69,1.69,0,0,0,1.32.48h3.22l-1.51,1.71V32.92a9.13,9.13,0,0,1,.12-1.53c.08-.47.17-.91.28-1.33s.23-.82.34-1.22.21-.8.29-1.21a6.55,6.55,0,0,0,.12-1.28,6.07,6.07,0,0,0-.16-1.41,2.47,2.47,0,0,0-.39-.93,14.51,14.51,0,0,1,2.26-.94,6.83,6.83,0,0,1,1.93-.34,1.92,1.92,0,0,1,1.49.48,1.74,1.74,0,0,1,.43,1.21,8.32,8.32,0,0,1-.22,1.65c-.15.71-.33,1.5-.55,2.38s-.42,1.81-.61,2.76-.34,1.87-.44,2.75l-2.08,3.2h-5.62a2.34,2.34,0,0,1-1.85-.66,3,3,0,0,1-.59-2l1.25,1.33H119l-.89,1.35h-5a2.37,2.37,0,0,1-1.86-.66,3,3,0,0,1-.59-2l1.12,1.36h-1.43a13.26,13.26,0,0,1-1.09,2.51,11.49,11.49,0,0,1-2,2.58,9.57,9.57,0,0,1-2.92,2A9.44,9.44,0,0,1,100.38,43.71Zm30-6.55a2.37,2.37,0,0,1-1.86-.66,3,3,0,0,1-.59-2l1.25,1.33h-3l3.77-6.16c-.05.26-.1.51-.13.75a5.91,5.91,0,0,0-.05.7,2,2,0,0,0,.43,1.41,1.69,1.69,0,0,0,1.31.47h2.24l-.68,4.18Zm2.65,0,.68-4.18c.31,0,.49.18.56.56a5.32,5.32,0,0,1-.07,1.54,5.49,5.49,0,0,1-.43,1.52A.82.82,0,0,1,133.06,37.16Z" transform="translate(-1.32)"/><path class="cls-3" d="M133.09,37.16c-.32,0-.5-.19-.56-.57a5.16,5.16,0,0,1,.06-1.53,5.86,5.86,0,0,1,.43-1.52.82.82,0,0,1,.74-.56Zm0,0,.67-4.18h19.79l-.55.54c0-.22.08-.56.12-1s.06-.82.06-1.09a1.85,1.85,0,0,0-.28-1.19,1.15,1.15,0,0,0-.89-.32H141.12a6.67,6.67,0,0,1-2.51-.47,3.71,3.71,0,0,1-1.86-1.72,7.37,7.37,0,0,1-.7-3.58,20.35,20.35,0,0,1,.12-2.11c.08-.76.17-1.5.27-2.21s.21-1.3.31-1.77a14.3,14.3,0,0,0,2,.33,31.46,31.46,0,0,0,3.52.17c.81,0,1.7,0,2.67-.07l2.95-.13,2.93-.13c1,0,1.83-.06,2.63-.06a13.56,13.56,0,0,1,2.53.18,1.92,1.92,0,0,1,1.24.67,2.56,2.56,0,0,1,.34,1.46,7.2,7.2,0,0,1-.12,1.29,4.19,4.19,0,0,1-.38,1.18,18,18,0,0,0-2.35-.35c-1-.1-2.06-.14-3.18-.14-.68,0-1.45,0-2.3.05l-2.64.12-2.56.11-2.08.08a11.13,11.13,0,0,1-1.19,0l.57-.34c-.07.28-.13.62-.19,1a6.81,6.81,0,0,0-.09,1c0,.54.15.88.44,1a2.32,2.32,0,0,0,1.07.23h12.09a3.74,3.74,0,0,1,2.69,1,4.57,4.57,0,0,1,1,3.33c0,.42,0,.88-.07,1.39s-.09,1-.15,1.45a11,11,0,0,1-.2,1.11l-2.08,3.2Zm26.07,0a2.34,2.34,0,0,1-1.85-.66,3,3,0,0,1-.59-2l1.9,1.33h-3.51l3.2-4.65a1.9,1.9,0,0,0,.43,1.35,1.69,1.69,0,0,0,1.31.47h2.88l-.67,4.18Zm3.1,0,.67-4.18c.32,0,.5.18.56.56a5.25,5.25,0,0,1-.06,1.54A5.86,5.86,0,0,1,163,36.6.82.82,0,0,1,162.26,37.16Z" transform="translate(-1.32)"/><path class="cls-3" d="M162.28,37.16c-.31,0-.49-.19-.56-.57a5.22,5.22,0,0,1,.07-1.53,5.49,5.49,0,0,1,.43-1.52A.82.82,0,0,1,163,33Zm0,0L163,33h4.84l-1.72,1.71V32.92a9.13,9.13,0,0,1,.12-1.53,12.46,12.46,0,0,1,.28-1.33c.11-.41.23-.82.34-1.22s.21-.8.29-1.21a7.44,7.44,0,0,0,.11-1.28,6,6,0,0,0-.14-1.37,2.44,2.44,0,0,0-.4-1,13.31,13.31,0,0,1,2.25-.94,7,7,0,0,1,2-.34,1.86,1.86,0,0,1,1.44.48,2,2,0,0,1,.43,1.37,6.7,6.7,0,0,1-.2,1.53c-.13.56-.28,1.13-.47,1.71s-.33,1.15-.46,1.71a7.11,7.11,0,0,0-.2,1.57,2,2,0,0,0,.43,1.41,1.7,1.7,0,0,0,1.31.47h2.24l-.68,4.18h-2.65a2.37,2.37,0,0,1-1.86-.66,3,3,0,0,1-.58-2l1.25,1.33h-1.28l-.88,1.35Zm8.43-16.77a2.4,2.4,0,0,1-1.69-.56,1.83,1.83,0,0,1-.63-1.44,2.8,2.8,0,0,1,.9-2.17,3.2,3.2,0,0,1,2.25-.82,2.49,2.49,0,0,1,1.7.56,1.84,1.84,0,0,1,.64,1.47,2.75,2.75,0,0,1-.9,2.14A3.22,3.22,0,0,1,170.71,20.39Zm4,16.77.68-4.18c.31,0,.5.18.56.56a5,5,0,0,1-.07,1.54,5.16,5.16,0,0,1-.43,1.52A.81.81,0,0,1,174.76,37.16Z" transform="translate(-1.32)"/><path class="cls-3" d="M176.45,44.23a2.46,2.46,0,0,1-1.69-.55,1.89,1.89,0,0,1-.62-1.45,2.8,2.8,0,0,1,.9-2.17,3.21,3.21,0,0,1,2.25-.82,2.51,2.51,0,0,1,1.7.56,1.86,1.86,0,0,1,.63,1.47,2.78,2.78,0,0,1-.89,2.15A3.28,3.28,0,0,1,176.45,44.23Zm-1.66-7.07c-.31,0-.5-.19-.56-.57a4.9,4.9,0,0,1,.07-1.53,5.52,5.52,0,0,1,.42-1.52.83.83,0,0,1,.75-.56Zm0,0,.68-4.18h4.83l-1.71,1.71V32.92a9.17,9.17,0,0,1,.11-1.53c.08-.47.18-.91.29-1.33s.22-.82.34-1.22.2-.8.28-1.21a6.55,6.55,0,0,0,.12-1.28,6.62,6.62,0,0,0-.14-1.37,2.44,2.44,0,0,0-.41-1,14,14,0,0,1,2.25-.94,7.09,7.09,0,0,1,2-.34,1.84,1.84,0,0,1,1.44.48,2,2,0,0,1,.43,1.37,6.66,6.66,0,0,1-.19,1.53c-.13.56-.29,1.13-.47,1.71s-.34,1.15-.47,1.71A7.06,7.06,0,0,0,184,31.1a2,2,0,0,0,.43,1.41,1.69,1.69,0,0,0,1.31.47H188l-.68,4.18h-2.65a2.37,2.37,0,0,1-1.86-.66,3,3,0,0,1-.59-2l1.25,1.33h-1.27l-.89,1.35Zm7.54,7.07a2.46,2.46,0,0,1-1.69-.55,1.86,1.86,0,0,1-.62-1.45,2.79,2.79,0,0,1,.89-2.17,3.25,3.25,0,0,1,2.25-.82,2.49,2.49,0,0,1,1.7.56,1.84,1.84,0,0,1,.64,1.47,2.79,2.79,0,0,1-.9,2.15A3.24,3.24,0,0,1,182.33,44.23Zm4.94-7.07L188,33c.31,0,.49.18.55.56a4.92,4.92,0,0,1-.06,1.54A5.49,5.49,0,0,1,188,36.6.82.82,0,0,1,187.27,37.16Z" transform="translate(-1.32)"/><path class="cls-3" d="M187.29,37.16c-.31,0-.49-.19-.55-.57a5.16,5.16,0,0,1,.06-1.53,5.86,5.86,0,0,1,.43-1.52A.82.82,0,0,1,188,33Zm0,0L188,33h4.73l-1.22,1c-.09-.4-.15-.83-.21-1.29a13.36,13.36,0,0,1-.07-1.44,12.7,12.7,0,0,1,.66-4.19,9.83,9.83,0,0,1,1.91-3.3,8.43,8.43,0,0,1,3-2.17,9.8,9.8,0,0,1,4-.77,10.41,10.41,0,0,1,3.07.42,8.94,8.94,0,0,1,2.28,1,8.23,8.23,0,0,1,1.49,1.17,3.73,3.73,0,0,1,.67.84,6.41,6.41,0,0,1-.1,1c-.07.42-.16.89-.28,1.42s-.23,1.09-.37,1.67-.28,1.21-.42,1.84-.26,1.27-.38,1.91-.2,1.26-.27,1.87l-2.08,3.17Zm14-3.61c.07-.57.16-1.19.27-1.85s.22-1.31.36-2,.28-1.3.42-1.93.26-1.2.39-1.73.22-1,.31-1.34l.21,1a2.51,2.51,0,0,0-1.24-.56,7.42,7.42,0,0,0-1.42-.17,3.5,3.5,0,0,0-2.28.78,5,5,0,0,0-1.5,2.14,8.88,8.88,0,0,0-.53,3.19,9.11,9.11,0,0,0,0,.93,7.92,7.92,0,0,0,.1.8q.06.34.12.63l-.65-.46h7.43Zm-.23-15.11a2.41,2.41,0,0,1-1.69-.56,1.85,1.85,0,0,1-.62-1.44,2.83,2.83,0,0,1,.89-2.17,3.2,3.2,0,0,1,2.25-.82,2.53,2.53,0,0,1,1.71.56,1.86,1.86,0,0,1,.63,1.47,2.78,2.78,0,0,1-.89,2.14A3.24,3.24,0,0,1,201.1,18.44Z" transform="translate(-1.32)"/><path class="cls-4" d="M2.82,60.67v4.46H1.32V53.75h4.2a4.18,4.18,0,0,1,2.92,1,3.58,3.58,0,0,1,0,5.07,4.36,4.36,0,0,1-3,.89Zm0-1.22h2.7a2.68,2.68,0,0,0,1.84-.57A2.06,2.06,0,0,0,8,57.24a2.14,2.14,0,0,0-.64-1.63A2.53,2.53,0,0,0,5.6,55H2.82Z" transform="translate(-1.32)"/><path class="cls-4" d="M23.36,65.13H21.85V59.87H16.11v5.26h-1.5V53.75h1.5v4.89h5.74V53.75h1.51Z" transform="translate(-1.32)"/><path class="cls-4" d="M35.65,59.87H30.72v4h5.73v1.23H29.22V53.75h7.15V55H30.72v3.66h4.93Z" transform="translate(-1.32)"/><path class="cls-4" d="M50.26,65.13H48.75L43,56.36v8.77H41.51V53.75H43l5.74,8.81V53.75h1.5Z" transform="translate(-1.32)"/><path class="cls-4" d="M57.73,65.13h-1.5V53.75h1.5Z" transform="translate(-1.32)"/><path class="cls-4" d="M67.52,58.11l2.72-4.36H72l-3.6,5.64,3.68,5.74H70.31l-2.79-4.44L64.7,65.13H62.93l3.69-5.74L63,53.75h1.75Z" transform="translate(-1.32)"/><path class="cls-4" d="M84.9,55H81.24V65.13H79.75V55H76.1V53.75h8.8Z" transform="translate(-1.32)"/><path class="cls-4" d="M98.52,65.13H97V59.87H91.28v5.26h-1.5V53.75h1.5v4.89H97V53.75h1.5Z" transform="translate(-1.32)"/><path class="cls-4" d="M110.82,59.87h-4.93v4h5.73v1.23h-7.23V53.75h7.15V55h-5.65v3.66h4.93Z" transform="translate(-1.32)"/><path class="cls-4" d="M118.62,53.75,122.34,63l3.72-9.28H128V65.13h-1.5V60.7l.14-4.78-3.73,9.21h-1.15L118,55.94l.15,4.76v4.43h-1.5V53.75Z" transform="translate(-1.32)"/><path class="cls-4" d="M140.28,59.87h-4.93v4h5.73v1.23h-7.23V53.75H141V55h-5.65v3.66h4.93Z" transform="translate(-1.32)"/><path class="cls-4" d="M149.5,60.06a7,7,0,0,1-2.81-1.37,2.58,2.58,0,0,1-.88-2,2.75,2.75,0,0,1,1.07-2.22,4.27,4.27,0,0,1,2.8-.88,4.72,4.72,0,0,1,2.09.45,3.46,3.46,0,0,1,1.42,1.25,3.23,3.23,0,0,1,.5,1.74h-1.51a2.08,2.08,0,0,0-.65-1.63,2.7,2.7,0,0,0-1.85-.59,2.76,2.76,0,0,0-1.73.49,1.62,1.62,0,0,0-.62,1.36,1.46,1.46,0,0,0,.59,1.18,5.84,5.84,0,0,0,2,.88,9,9,0,0,1,2.22.88,3.31,3.31,0,0,1,1.19,1.12,2.85,2.85,0,0,1,.39,1.51,2.64,2.64,0,0,1-1.08,2.21,4.57,4.57,0,0,1-2.89.83,5.28,5.28,0,0,1-2.18-.45A3.56,3.56,0,0,1,146,63.6a3,3,0,0,1-.55-1.77H147a2,2,0,0,0,.76,1.63,3.2,3.2,0,0,0,2,.6,2.93,2.93,0,0,0,1.83-.49,1.57,1.57,0,0,0,.63-1.32,1.55,1.55,0,0,0-.59-1.29A6.5,6.5,0,0,0,149.5,60.06Z" transform="translate(-1.32)"/><path class="cls-4" d="M158.64,64.37a.92.92,0,0,1,.23-.63.85.85,0,0,1,.66-.25.9.9,0,0,1,.68.25.92.92,0,0,1,.23.63.85.85,0,0,1-.23.6.89.89,0,0,1-.68.24.81.81,0,0,1-.89-.84Z" transform="translate(-1.32)"/><path class="cls-4" d="M174.62,61.52a4.21,4.21,0,0,1-1.34,2.78,4.32,4.32,0,0,1-3,1,4,4,0,0,1-3.23-1.44A5.8,5.8,0,0,1,165.86,60V58.88a6.58,6.58,0,0,1,.56-2.79A4.29,4.29,0,0,1,168,54.24a4.45,4.45,0,0,1,2.41-.64,4.08,4.08,0,0,1,2.9,1,4.23,4.23,0,0,1,1.28,2.8h-1.51a3.32,3.32,0,0,0-.85-2,2.58,2.58,0,0,0-1.82-.61,2.7,2.7,0,0,0-2.26,1.07,4.89,4.89,0,0,0-.81,3V60a5,5,0,0,0,.77,3,2.5,2.5,0,0,0,2.16,1.1,2.86,2.86,0,0,0,1.92-.57,3.13,3.13,0,0,0,.89-2Z" transform="translate(-1.32)"/><path class="cls-4" d="M188.61,59.81a7.17,7.17,0,0,1-.56,2.92,4.39,4.39,0,0,1-8,0,6.77,6.77,0,0,1-.59-2.83v-.82a7,7,0,0,1,.57-2.9,4.49,4.49,0,0,1,6.41-1.93,4.23,4.23,0,0,1,1.61,1.91,7.17,7.17,0,0,1,.56,2.92Zm-1.49-.74a5.09,5.09,0,0,0-.81-3.1A2.68,2.68,0,0,0,184,54.89,2.64,2.64,0,0,0,181.8,56a4.91,4.91,0,0,0-.84,3v.84a5.12,5.12,0,0,0,.82,3.08,2.89,2.89,0,0,0,4.52.06,5.11,5.11,0,0,0,.82-3Z" transform="translate(-1.32)"/><path class="cls-4" d="M196,53.75,199.72,63l3.72-9.28h1.94V65.13h-1.5V60.7l.14-4.78-3.73,9.21h-1.15l-3.73-9.19.15,4.76v4.43h-1.5V53.75Z" transform="translate(-1.32)"/></g></g></g></g></svg>