<svg xmlns="http://www.w3.org/2000/svg" xmlns:xlink="http://www.w3.org/1999/xlink" viewBox="0 0 389.39 82.3"><defs><style>.cls-1{fill:url(#linear-gradient);}.cls-2{fill:#fff;}.cls-3{fill:#f8c35b;}.cls-4{fill:#cecece;}</style><linearGradient id="linear-gradient" y1="41.15" x2="91.7" y2="41.15" gradientUnits="userSpaceOnUse"><stop offset="0" stop-color="#f8c35b"/><stop offset="1" stop-color="#fb955d"/></linearGradient></defs><g id="Layer_2" data-name="Layer 2"><g id="Layer_1-2" data-name="Layer 1"><g id="logo"><g id="logo-icon"><path id="icon-base" class="cls-1" d="M63.77,0a10,10,0,0,1,8.65,5l18,31.17a10,10,0,0,1,0,10l-18,31.17a10,10,0,0,1-8.65,5H27.92a10,10,0,0,1-8.64-5l-18-31.17a10,10,0,0,1,0-10L19.28,5a10,10,0,0,1,8.64-5Z"/><g id="phenix"><path id="phenix-3" class="cls-2" d="M51.51,44.23c-10.69,2.14-23.08,22-14.84,36.23,0,0,7,0,19,0C46.34,75.8,41.11,60.62,51.51,44.23Z"/><path id="phenix-2" class="cls-2" d="M51,48.49c-2.61,2.74-8.58,22.9,7.71,31.93,12.16,1.15,14-6.7,14-6.7C54.63,72.34,52.46,59.36,51,48.49Z"/><path id="phenix-1" class="cls-2" d="M68.83,32.26c-2.16-.35-16.92-.34-13.11-2.7,4.67-2.89,7.57,3.09,11.44,1.44,4.93-7.83-7.47-16.11-21.2-15.09l.1-.1C38.92,15.72,31.65,17,28.37,13a9.75,9.75,0,0,0,2.4,7.37,5.8,5.8,0,0,0,4.3,1.87,7.76,7.76,0,0,0,1.36-.15c-2.56,1.4-5.38.78-6.46-.31-.42.32-.83.66-1.24,1a27,27,0,0,0-3.35,3.5A36.51,36.51,0,0,0,17.57,49.1C20.8,45.28,25,41.78,29.27,41c-5.11,3.88-13.95,16.83-15.2,23.74C19.14,73.21,19.84,82,34.31,80.33c-5.11-10-2.23-22.69,7.57-32.34,10.74-10.58,36.3-7.38,36,2.89,5.2-6.4.23-17.14-9-18.62Z"/></g></g><g id="logo-text"><path class="cls-3" d="M107.29,17.68h14.3q3.57,0,5.19,1.62t1.62,5.19v3.4q0,3.59-1.62,5.2t-5.19,1.61h-8.17v6.81h-6.13Zm15,6.81a1.81,1.81,0,0,0-2-2h-6.81v7.5h6.81a1.81,1.81,0,0,0,2-2.05Z"/><path class="cls-3" d="M152.23,41.51H146.1v-9.7h-8.51v9.7h-6.13V17.68h6.13V27h8.51V17.68h6.13Z"/><path class="cls-3" d="M175.21,41.51H156.32V17.68h18.89v4.76H162.45V27h10v4.77h-10v4.94h12.76Z"/><path class="cls-3" d="M198.71,41.51h-6.47l-8.17-14.3v14.3h-6.13V17.68h6.47L192.58,32V17.68h6.13Z"/><path class="cls-3" d="M214,41.51H201.77V36.75h3.07V22.44h-3.07V17.68H214v4.76H211V36.75H214Z"/><path class="cls-3" d="M230.89,17.68h6.81L230,29.6l7.84,11.91h-6.81L226.29,34l-4.77,7.49h-6.81l7.83-11.91-7.66-11.92h6.78l4.63,7.49Z"/><path class="cls-3" d="M261.36,41.51h-6.13V22.44h-7.15V17.68h20.43v4.76h-7.15Z"/><path class="cls-3" d="M291.66,41.51h-6.12v-9.7H277v9.7h-6.13V17.68H277V27h8.52V17.68h6.12Z"/><path class="cls-3" d="M314.65,41.51h-18.9V17.68h18.9v4.76H301.88V27h10v4.77h-10v4.94h12.77Z"/><path class="cls-3" d="M337.8,28.23,333,36.75h-4.76l-4.77-8.52V41.51h-6.13V17.68h6.47l6.81,12.6,6.81-12.6h6.47V41.51H337.8Z"/><path class="cls-3" d="M366.91,41.51H348V17.68h18.9v4.76H354.14V27h10.05v4.77H354.14v4.94h12.77Z"/><path class="cls-3" d="M368.92,36.58q9.33.51,12.63.51a1.59,1.59,0,0,0,1.71-1.71V32.32h-7.84q-3.57,0-5.19-1.62c-1.08-1.08-1.61-2.81-1.61-5.19v-1c0-2.39.53-4.12,1.61-5.19s2.81-1.62,5.19-1.62h12v4.76H376.79a1.81,1.81,0,0,0-2.05,2v.68a1.81,1.81,0,0,0,2.05,2h6.13q3.33,0,4.9,1.57a6.7,6.7,0,0,1,1.57,4.9v1.7a6.73,6.73,0,0,1-1.57,4.91q-1.57,1.56-4.9,1.56c-1.16,0-2.39,0-3.68-.06l-3.13-.14c-2.32-.11-4.71-.27-7.19-.48Z"/><path class="cls-4" d="M108.47,58.15v4h-1.34V52h3.74a3.75,3.75,0,0,1,2.61.85,3.2,3.2,0,0,1,0,4.53,3.91,3.91,0,0,1-2.64.79Zm0-1.09h2.4a2.4,2.4,0,0,0,1.65-.51,1.85,1.85,0,0,0,.57-1.46,1.9,1.9,0,0,0-.57-1.45,2.22,2.22,0,0,0-1.57-.57h-2.48Z"/><path class="cls-4" d="M129.65,62.13H128.3V57.44h-5.11v4.69h-1.34V52h1.34v4.36h5.11V52h1.35Z"/><path class="cls-4" d="M143.48,57.44h-4.4V61h5.11v1.1h-6.45V52h6.38v1.09h-5v3.27h4.4Z"/><path class="cls-4" d="M159.37,62.13H158l-5.11-7.83v7.83h-1.34V52h1.34L158,59.83V52h1.33Z"/><path class="cls-4" d="M168.89,62.13h-1.34V52h1.34Z"/><path class="cls-4" d="M180.48,55.87,182.91,52h1.58l-3.21,5,3.29,5.12H183l-2.5-4-2.51,4h-1.58L179.68,57l-3.22-5H178Z"/><path class="cls-4" d="M198.85,53.07h-3.27v9.06h-1.33V53.07H191V52h7.85Z"/><path class="cls-4" d="M213.87,62.13h-1.35V57.44H207.4v4.69h-1.33V52h1.33v4.36h5.12V52h1.35Z"/><path class="cls-4" d="M227.69,57.44h-4.4V61h5.12v1.1H222V52h6.37v1.09h-5v3.27h4.4Z"/><path class="cls-4" d="M237.51,52l3.32,8.28L244.15,52h1.74V62.13h-1.34v-4l.12-4.26-3.33,8.22h-1L237,53.93l.13,4.24v4h-1.34V52Z"/><path class="cls-4" d="M259.7,57.44h-4.4V61h5.11v1.1H254V52h6.38v1.09h-5v3.27h4.4Z"/><path class="cls-4" d="M270.78,57.6a6.3,6.3,0,0,1-2.51-1.21,2.36,2.36,0,0,1-.78-1.79,2.46,2.46,0,0,1,1-2,3.82,3.82,0,0,1,2.49-.78,4.1,4.1,0,0,1,1.86.4,3,3,0,0,1,1.27,1.12,2.83,2.83,0,0,1,.45,1.55h-1.34a1.86,1.86,0,0,0-.59-1.45,2.39,2.39,0,0,0-1.65-.53,2.46,2.46,0,0,0-1.55.44,1.47,1.47,0,0,0-.55,1.21,1.33,1.33,0,0,0,.53,1.05,5.15,5.15,0,0,0,1.79.79,8.39,8.39,0,0,1,2,.78,3,3,0,0,1,1.06,1,2.56,2.56,0,0,1,.34,1.35,2.36,2.36,0,0,1-1,2,4.07,4.07,0,0,1-2.57.75,4.86,4.86,0,0,1-1.95-.4,3.33,3.33,0,0,1-1.4-1.1,2.67,2.67,0,0,1-.49-1.58h1.34a1.76,1.76,0,0,0,.68,1.45,2.92,2.92,0,0,0,1.82.53,2.61,2.61,0,0,0,1.62-.43,1.4,1.4,0,0,0,.57-1.18,1.37,1.37,0,0,0-.53-1.15A6.09,6.09,0,0,0,270.78,57.6Z"/><path class="cls-4" d="M281.8,61.45a.83.83,0,0,1,.19-.56.78.78,0,0,1,.6-.22.75.75,0,0,1,.6.22.79.79,0,0,1,.21.56.75.75,0,0,1-.21.54.78.78,0,0,1-.6.21A.81.81,0,0,1,282,62,.78.78,0,0,1,281.8,61.45Z"/><path class="cls-4" d="M298.91,58.91a3.73,3.73,0,0,1-1.19,2.48,3.88,3.88,0,0,1-2.66.88A3.57,3.57,0,0,1,292.18,61a5.15,5.15,0,0,1-1.09-3.45v-1a5.77,5.77,0,0,1,.51-2.49A3.79,3.79,0,0,1,293,52.41a4,4,0,0,1,2.15-.57,3.68,3.68,0,0,1,2.59.9,3.78,3.78,0,0,1,1.14,2.5h-1.35a2.86,2.86,0,0,0-.76-1.76,2.24,2.24,0,0,0-1.62-.55,2.39,2.39,0,0,0-2,1,4.32,4.32,0,0,0-.73,2.7v1a4.51,4.51,0,0,0,.69,2.64,2.22,2.22,0,0,0,1.93,1,2.62,2.62,0,0,0,1.71-.5,2.81,2.81,0,0,0,.79-1.76Z"/><path class="cls-4" d="M314.25,57.38a6.19,6.19,0,0,1-.5,2.6,3.75,3.75,0,0,1-1.42,1.7,3.92,3.92,0,0,1-2.15.59A3.79,3.79,0,0,1,306.62,60a5.92,5.92,0,0,1-.53-2.53v-.73a6.2,6.2,0,0,1,.51-2.59,4,4,0,0,1,5.72-1.72,3.76,3.76,0,0,1,1.43,1.7,6.27,6.27,0,0,1,.5,2.61Zm-1.33-.66A4.59,4.59,0,0,0,312.2,54a2.41,2.41,0,0,0-2-1,2.38,2.38,0,0,0-2,1,4.42,4.42,0,0,0-.75,2.68v.75a4.56,4.56,0,0,0,.74,2.75,2.58,2.58,0,0,0,4,.06,4.55,4.55,0,0,0,.73-2.71Z"/><path class="cls-4" d="M323.7,52,327,60.26,330.34,52h1.74V62.13h-1.34v-4l.12-4.26-3.33,8.22h-1l-3.32-8.2.13,4.24v4H322V52Z"/></g></g></g></g></svg>