<svg xmlns="http://www.w3.org/2000/svg" xmlns:xlink="http://www.w3.org/1999/xlink" viewBox="0 0 257 219.7"><defs><style>.cls-1{fill:url(#linear-gradient);}.cls-2{fill:#fff;}.cls-3{fill:#f8c35b;}.cls-4{fill:#cecece;}</style><linearGradient id="linear-gradient" x1="49.61" y1="72.47" x2="211.1" y2="72.47" gradientUnits="userSpaceOnUse"><stop offset="0" stop-color="#f8c35b"/><stop offset="1" stop-color="#fb955d"/></linearGradient></defs><g id="Layer_2" data-name="Layer 2"><g id="Layer_1-2" data-name="Layer 1"><g id="logo"><g id="logo-icon"><path id="icon-base" class="cls-1" d="M161.92,0a17.6,17.6,0,0,1,15.23,8.8l31.61,54.9a17.6,17.6,0,0,1,0,17.54l-31.61,54.9a17.6,17.6,0,0,1-15.23,8.8H98.78a17.58,17.58,0,0,1-15.22-8.8L52,81.24A17.6,17.6,0,0,1,52,63.7L83.56,8.8A17.58,17.58,0,0,1,98.78,0Z" transform="translate(-1.35)"/><g id="phenix"><path id="phenix-3" class="cls-2" d="M140.32,77.9c-18.82,3.76-40.64,38.67-26.13,63.81,0,0,12.26-.11,33.53,0C131.21,133.5,122,106.76,140.32,77.9Z" transform="translate(-1.35)"/><path id="phenix-2" class="cls-2" d="M139.34,85.4c-4.58,4.82-15.1,40.33,13.58,56.23,21.43,2,24.67-11.8,24.67-11.8C145.82,127.4,142,104.54,139.34,85.4Z" transform="translate(-1.35)"/><path id="phenix-1" class="cls-2" d="M170.83,56.81c-3.81-.61-29.81-.6-23.1-4.75C156,47,161.06,57.5,167.89,54.59,176.57,40.8,154.72,26.22,130.55,28l.17-.19c-12.57-.15-25.38,2.11-31.16-4.91a17.23,17.23,0,0,0,4.23,13,10.19,10.19,0,0,0,7.58,3.29,12.07,12.07,0,0,0,2.39-.27c-4.5,2.48-9.47,1.39-11.38-.54-.73.57-1.46,1.16-2.17,1.78a46.51,46.51,0,0,0-5.9,6.17A64.18,64.18,0,0,0,80.55,86.47c5.68-6.72,13-12.9,20.6-14.36-9,6.84-24.56,29.64-26.77,41.82,8.94,15,10.17,30.52,35.66,27.54-9-17.64-3.93-40,13.33-57,18.9-18.62,63.93-13,63.38,5.1,9.16-11.27.4-30.18-15.93-32.8Z" transform="translate(-1.35)"/></g></g><g id="logo-text"><path class="cls-3" d="M10,198a12.75,12.75,0,0,1-3.91-.53A6,6,0,0,1,3.52,196a3.2,3.2,0,0,1-.92-2.28,18.32,18.32,0,0,0,4.93-.55,8.42,8.42,0,0,0,3.08-1.47,6.71,6.71,0,0,0,1.73-2.11,11,11,0,0,0,.9-2.43c.09-.39.21-1,.36-1.82s.31-1.78.49-2.84.36-2.17.54-3.32.36-2.23.52-3.28.29-1.94.4-2.68l.21,2.55L13.48,170a19.39,19.39,0,0,1,3.23-1.87,7.11,7.11,0,0,1,2.75-.61,3.61,3.61,0,0,1,2.37.72,2.35,2.35,0,0,1,.86,1.9c0,.2,0,.53-.08,1s-.15,1.12-.29,2-.34,2.19-.6,3.82-.59,3.73-1,6.29a46.66,46.66,0,0,1-1.67,7.37,14.52,14.52,0,0,1-2.22,4.47,6.89,6.89,0,0,1-3,2.22A11,11,0,0,1,10,198Zm9.76-33.49a3.17,3.17,0,0,1-2.21-.73,2.44,2.44,0,0,1-.82-1.89A3.63,3.63,0,0,1,17.92,159,4.17,4.17,0,0,1,20.86,158a3.22,3.22,0,0,1,2.22.74,2.4,2.4,0,0,1,.84,1.92,3.59,3.59,0,0,1-1.18,2.8A4.2,4.2,0,0,1,19.77,164.48Zm3.84,21.93a3.11,3.11,0,0,1-2.43-.86,3.91,3.91,0,0,1-.76-2.64l2.48,1.73H18.21l3.26-6.12a2.51,2.51,0,0,0,.61,1.77,2.39,2.39,0,0,0,1.7.61l2.55,0-.88,5.47Zm1.84,0,.88-5.47c.41,0,.65.24.73.73a6.88,6.88,0,0,1-.08,2,7.79,7.79,0,0,1-.56,2A1.08,1.08,0,0,1,25.45,186.41Z" transform="translate(-1.35)"/><path class="cls-3" d="M25.48,186.41c-.41,0-.65-.25-.73-.75a6.47,6.47,0,0,1,.09-2,7,7,0,0,1,.56-2,1.07,1.07,0,0,1,1-.73Zm0,0,.89-5.47h2.31a4.13,4.13,0,0,0,1.8-.36,3.65,3.65,0,0,0,1.21-.9,2.49,2.49,0,0,0,.56-1l1.53-9.35a22.28,22.28,0,0,1,3.31-2.45,13.69,13.69,0,0,1,3.32-1.41A14,14,0,0,1,44,165a12.49,12.49,0,0,1,5.53,1.14,8.53,8.53,0,0,1,3.62,3.25,9.37,9.37,0,0,1,1.29,5,12.59,12.59,0,0,1-.83,4.47A14.34,14.34,0,0,1,51.15,183a16.88,16.88,0,0,1-4,3.43H34.59l-.47-1.77h-.27a3.61,3.61,0,0,1-1.14,1.16,3.77,3.77,0,0,1-2.23.61Zm12.79-3.26-1.91-2.21H46.9l-3,.44a4.93,4.93,0,0,0,1.55-1.26,9.23,9.23,0,0,0,1.58-2.51,8.36,8.36,0,0,0,.68-3.4A4.4,4.4,0,0,0,47,171.5a3.38,3.38,0,0,0-2.86-1,7.63,7.63,0,0,0-2.87.54,8,8,0,0,0-2.16,1.22l1.36-2.89Zm4.31,3.26.85-5.47H56.76l-.88,5.47Zm13.3,0,.88-5.47c.41,0,.65.24.73.73a6.88,6.88,0,0,1-.08,2,7.79,7.79,0,0,1-.56,2A1.08,1.08,0,0,1,55.88,186.41Z" transform="translate(-1.35)"/><path class="cls-3" d="M58.09,195.66a3.17,3.17,0,0,1-2.21-.73,2.41,2.41,0,0,1-.82-1.89,3.67,3.67,0,0,1,1.17-2.84,4.24,4.24,0,0,1,2.94-1.07,3.29,3.29,0,0,1,2.23.73,2.43,2.43,0,0,1,.84,1.92,3.63,3.63,0,0,1-1.18,2.81A4.25,4.25,0,0,1,58.09,195.66Zm-2.18-9.25c-.41,0-.65-.25-.73-.75a6.47,6.47,0,0,1,.09-2,7,7,0,0,1,.56-2,1.07,1.07,0,0,1,1-.73Zm0,0,.88-5.47h6.33l-2.24,2.24v-2.31a12.64,12.64,0,0,1,.15-2,16.42,16.42,0,0,1,.37-1.73c.15-.54.3-1.08.44-1.6s.28-1.05.38-1.58a9.05,9.05,0,0,0,.15-1.68,7.86,7.86,0,0,0-.19-1.79,3.28,3.28,0,0,0-.52-1.27A17.37,17.37,0,0,1,64.6,168a9.12,9.12,0,0,1,2.6-.44,2.45,2.45,0,0,1,1.89.63,2.63,2.63,0,0,1,.56,1.79,8.79,8.79,0,0,1-.26,2c-.17.73-.37,1.47-.61,2.23s-.44,1.51-.61,2.24a9.29,9.29,0,0,0-.26,2.06,2.66,2.66,0,0,0,.56,1.84,2.26,2.26,0,0,0,1.72.61h2.93l-.89,5.47H68.76a3.11,3.11,0,0,1-2.43-.86,3.91,3.91,0,0,1-.76-2.64l1.63,1.73H65.53l-1.15,1.77Zm9.86,9.25a3.19,3.19,0,0,1-2.21-.73,2.44,2.44,0,0,1-.81-1.89,3.67,3.67,0,0,1,1.17-2.84,4.21,4.21,0,0,1,2.94-1.07,3.31,3.31,0,0,1,2.23.73,2.45,2.45,0,0,1,.83,1.92,3.62,3.62,0,0,1-1.17,2.81A4.29,4.29,0,0,1,65.77,195.66Zm6.46-9.25.89-5.47c.4,0,.65.24.73.73a6.61,6.61,0,0,1-.09,2,7.4,7.4,0,0,1-.56,2A1.08,1.08,0,0,1,72.23,186.41Z" transform="translate(-1.35)"/><path class="cls-3" d="M72.26,186.41c-.4,0-.65-.25-.73-.75a6.47,6.47,0,0,1,.09-2,7,7,0,0,1,.56-2,1.08,1.08,0,0,1,1-.73Zm0,0,.89-5.47h7.21l-2.65.75c.08-.75.19-1.5.32-2.25s.26-1.48.41-2.21.3-1.41.45-2.07.32-1.28.46-1.87.28-1.12.4-1.6l0,1.8-2.21-3.36a16.52,16.52,0,0,1,3.3-1.82,8.77,8.77,0,0,1,3.37-.73,2.85,2.85,0,0,1,2,.56,2.14,2.14,0,0,1,.61,1.65,9.13,9.13,0,0,1-.19,1.66c-.12.68-.29,1.45-.49,2.3s-.42,1.75-.65,2.7-.43,1.92-.61,2.91-.33,1.95-.44,2.9l-2.72,4.15Zm6.19-21.93a3.19,3.19,0,0,1-2.21-.73,2.44,2.44,0,0,1-.81-1.89A3.65,3.65,0,0,1,76.6,159,4.17,4.17,0,0,1,79.54,158a3.26,3.26,0,0,1,2.23.74,2.43,2.43,0,0,1,.83,1.92,3.62,3.62,0,0,1-1.17,2.8A4.23,4.23,0,0,1,78.45,164.48Zm4.76-7a2.91,2.91,0,0,1-2-.66,2.18,2.18,0,0,1-.75-1.72,3.29,3.29,0,0,1,1.07-2.56,3.8,3.8,0,0,1,2.67-1,3,3,0,0,1,2,.66A2.21,2.21,0,0,1,87,154a3.26,3.26,0,0,1-1.07,2.53A3.88,3.88,0,0,1,83.21,157.51Zm2.93,7a3.17,3.17,0,0,1-2.21-.73,2.41,2.41,0,0,1-.82-1.89A3.65,3.65,0,0,1,84.28,159,4.2,4.2,0,0,1,87.22,158a3.24,3.24,0,0,1,2.23.74,2.39,2.39,0,0,1,.83,1.92,3.62,3.62,0,0,1-1.17,2.8A4.2,4.2,0,0,1,86.14,164.48Z" transform="translate(-1.35)"/><path class="cls-3" d="M111.33,195a13.13,13.13,0,0,1-4.57-.78,11.1,11.1,0,0,1-3.71-2.23,10.36,10.36,0,0,1-3.38-7.8,7.7,7.7,0,0,1,.81-3.81,5,5,0,0,1,2.06-2.06,5.42,5.42,0,0,1,2.46-.63,4.39,4.39,0,0,1,2.44.62,2.71,2.71,0,0,1,1.07,1,5,5,0,0,0-1,1.07,6.73,6.73,0,0,0-.85,1.72,6.66,6.66,0,0,0-.34,2.21,6.57,6.57,0,0,0,.25,1.77,5.22,5.22,0,0,0,.85,1.72A4.2,4.2,0,0,0,109.1,189a6.29,6.29,0,0,0,2.64.48,7.24,7.24,0,0,0,3.48-.8,7.44,7.44,0,0,0,2.5-2.21,12.23,12.23,0,0,0,1.65-3.27,20.11,20.11,0,0,0,.9-4,33.85,33.85,0,0,0,.27-4.32q0-1-.06-1.8a7.37,7.37,0,0,0-.23-1.31,3.76,3.76,0,0,0-.42-1c1-.52,1.86-.93,2.58-1.22a5.87,5.87,0,0,1,2.25-.45,2.23,2.23,0,0,1,2,.72,3.34,3.34,0,0,1,.48,1.9,14.66,14.66,0,0,1-.17,2.09c-.12.76-.23,1.52-.34,2.28a13.43,13.43,0,0,0-.17,2.09,3.33,3.33,0,0,0,.51,2,2.09,2.09,0,0,0,1.76.66h4.56L131,183.18v-2.31a12.74,12.74,0,0,1,.17-2.29,14.58,14.58,0,0,1,.4-1.77c.16-.53.3-1.07.41-1.62a9.39,9.39,0,0,0,.17-1.87,8.15,8.15,0,0,0-.19-1.85,3.34,3.34,0,0,0-.52-1.28A16.52,16.52,0,0,1,134.4,169a9.12,9.12,0,0,1,2.6-.44,2.4,2.4,0,0,1,1.9.63,2.66,2.66,0,0,1,.55,1.82,9.73,9.73,0,0,1-.34,2.43c-.23.85-.46,1.7-.7,2.55a9,9,0,0,0-.36,2.46,2.79,2.79,0,0,0,.56,1.89,2.2,2.2,0,0,0,1.72.63h4.22l-2,2.24v-2.31a12.64,12.64,0,0,1,.15-2c.1-.61.23-1.19.37-1.73s.3-1.08.44-1.6.28-1.05.38-1.58a9.05,9.05,0,0,0,.15-1.68,8,8,0,0,0-.2-1.84,3.63,3.63,0,0,0-.51-1.22,19,19,0,0,1,3-1.23,8.79,8.79,0,0,1,2.51-.44,2.55,2.55,0,0,1,2,.63,2.31,2.31,0,0,1,.56,1.58,11.5,11.5,0,0,1-.29,2.16c-.19.92-.43,2-.72,3.11s-.55,2.36-.8,3.61-.44,2.44-.57,3.6l-2.72,4.18H138.9a3.11,3.11,0,0,1-2.43-.86,3.91,3.91,0,0,1-.76-2.64l1.63,1.73h-1.67l-1.15,1.77h-6.6a3.11,3.11,0,0,1-2.43-.86,3.91,3.91,0,0,1-.76-2.64l1.46,1.77h-1.87a16.77,16.77,0,0,1-1.43,3.28,15.2,15.2,0,0,1-2.57,3.38A12.64,12.64,0,0,1,116.5,194,12.39,12.39,0,0,1,111.33,195Zm39.27-8.57a3.11,3.11,0,0,1-2.43-.86,3.91,3.91,0,0,1-.77-2.64l1.64,1.73h-4l4.93-8c-.07.34-.13.67-.17,1a6,6,0,0,0-.07.92,2.66,2.66,0,0,0,.56,1.84,2.25,2.25,0,0,0,1.72.61H155l-.88,5.47Zm3.47,0,.88-5.47c.41,0,.65.24.73.73a6.88,6.88,0,0,1-.08,2,7.79,7.79,0,0,1-.56,2A1.08,1.08,0,0,1,154.07,186.41Z" transform="translate(-1.35)"/><path class="cls-3" d="M154.1,186.41c-.41,0-.65-.25-.73-.75a6.47,6.47,0,0,1,.09-2,7,7,0,0,1,.56-2,1.07,1.07,0,0,1,1-.73Zm0,0,.89-5.47h25.87l-.71.71q.06-.43.15-1.32c0-.59.08-1.07.08-1.43a2.39,2.39,0,0,0-.37-1.55,1.47,1.47,0,0,0-1.16-.42H164.61a8.59,8.59,0,0,1-3.28-.62,4.82,4.82,0,0,1-2.43-2.24,9.62,9.62,0,0,1-.92-4.69q0-1.26.15-2.76c.1-1,.22-2,.36-2.89s.27-1.7.41-2.31a19.77,19.77,0,0,0,2.63.43,42.32,42.32,0,0,0,4.61.22q1.59,0,3.48-.09l3.86-.17,3.84-.17c1.25,0,2.39-.08,3.44-.08a17.44,17.44,0,0,1,3.31.24,2.48,2.48,0,0,1,1.62.88,3.42,3.42,0,0,1,.44,1.9,9.91,9.91,0,0,1-.15,1.69,5.36,5.36,0,0,1-.5,1.54,22.46,22.46,0,0,0-3.07-.45c-1.31-.13-2.7-.19-4.17-.19-.88,0-1.89,0-3,.07l-3.45.15-3.35.15c-1.05.05-2,.08-2.72.1a12.44,12.44,0,0,1-1.54,0l.74-.44c-.09.37-.17.81-.25,1.33a8.68,8.68,0,0,0-.12,1.26c0,.7.19,1.15.58,1.36a3,3,0,0,0,1.39.3h15.81a4.86,4.86,0,0,1,3.52,1.26c.87.84,1.31,2.29,1.31,4.35,0,.55,0,1.15-.09,1.82s-.12,1.3-.2,1.89-.16,1.07-.25,1.46l-2.72,4.18Zm34.1,0a3.11,3.11,0,0,1-2.43-.86,3.91,3.91,0,0,1-.76-2.64l2.48,1.73H182.9l4.18-6.08a2.56,2.56,0,0,0,.56,1.77,2.26,2.26,0,0,0,1.72.61h3.77l-.88,5.47Zm4.05,0,.88-5.47c.41,0,.66.24.73.73a6.55,6.55,0,0,1-.08,2,7.4,7.4,0,0,1-.56,2A1.08,1.08,0,0,1,192.25,186.41Z" transform="translate(-1.35)"/><path class="cls-3" d="M192.28,186.41c-.4,0-.65-.25-.73-.75a6.47,6.47,0,0,1,.09-2,7,7,0,0,1,.56-2,1.08,1.08,0,0,1,1-.73Zm0,0,.89-5.47h6.32l-2.24,2.24v-2.31a12.64,12.64,0,0,1,.15-2c.1-.61.23-1.19.37-1.73s.3-1.08.45-1.6.27-1.05.37-1.58a9.05,9.05,0,0,0,.15-1.68,8.49,8.49,0,0,0-.18-1.79,3.28,3.28,0,0,0-.53-1.27A18.07,18.07,0,0,1,201,168a9.12,9.12,0,0,1,2.6-.44,2.43,2.43,0,0,1,1.89.63A2.63,2.63,0,0,1,206,170a8.79,8.79,0,0,1-.26,2c-.17.73-.37,1.47-.61,2.23s-.44,1.51-.61,2.24a9.24,9.24,0,0,0-.25,2.06,2.62,2.62,0,0,0,.56,1.84,2.23,2.23,0,0,0,1.71.61h2.93l-.89,5.47h-3.47a3.11,3.11,0,0,1-2.43-.86,3.91,3.91,0,0,1-.76-2.64l1.63,1.73h-1.66l-1.16,1.77Zm11-21.93a3.17,3.17,0,0,1-2.21-.73,2.41,2.41,0,0,1-.82-1.89,3.63,3.63,0,0,1,1.18-2.83,4.17,4.17,0,0,1,2.94-1.08,3.22,3.22,0,0,1,2.22.74,2.4,2.4,0,0,1,.84,1.92,3.59,3.59,0,0,1-1.18,2.8A4.2,4.2,0,0,1,203.3,164.48Zm5.3,21.93.89-5.47c.41,0,.65.24.73.73a6.61,6.61,0,0,1-.09,2,7,7,0,0,1-.56,2A1.08,1.08,0,0,1,208.6,186.41Z" transform="translate(-1.35)"/><path class="cls-3" d="M210.81,195.66a3.19,3.19,0,0,1-2.21-.73,2.44,2.44,0,0,1-.81-1.89A3.67,3.67,0,0,1,209,190.2a4.21,4.21,0,0,1,2.94-1.07,3.31,3.31,0,0,1,2.23.73,2.45,2.45,0,0,1,.83,1.92,3.62,3.62,0,0,1-1.17,2.81A4.27,4.27,0,0,1,210.81,195.66Zm-2.17-9.25c-.41,0-.65-.25-.73-.75a6.41,6.41,0,0,1,.08-2,7.4,7.4,0,0,1,.56-2,1.08,1.08,0,0,1,1-.73Zm0,0,.88-5.47h6.32l-2.24,2.24v-2.31a12.64,12.64,0,0,1,.15-2c.11-.61.23-1.19.38-1.73s.29-1.08.44-1.6.27-1.05.37-1.58a8.26,8.26,0,0,0,.16-1.68,8.47,8.47,0,0,0-.19-1.79,3.13,3.13,0,0,0-.53-1.27,18.07,18.07,0,0,1,2.94-1.23,9.18,9.18,0,0,1,2.6-.44,2.42,2.42,0,0,1,1.89.63,2.58,2.58,0,0,1,.56,1.79,8.74,8.74,0,0,1-.25,2c-.17.73-.38,1.47-.61,2.23s-.45,1.51-.62,2.24a9.24,9.24,0,0,0-.25,2.06,2.66,2.66,0,0,0,.56,1.84,2.25,2.25,0,0,0,1.72.61h2.92l-.88,5.47h-3.47a3.11,3.11,0,0,1-2.43-.86,3.91,3.91,0,0,1-.77-2.64l1.63,1.73h-1.66l-1.16,1.77Zm9.86,9.25a3.17,3.17,0,0,1-2.21-.73,2.41,2.41,0,0,1-.82-1.89,3.67,3.67,0,0,1,1.17-2.84,4.24,4.24,0,0,1,2.94-1.07,3.29,3.29,0,0,1,2.23.73,2.42,2.42,0,0,1,.83,1.92,3.62,3.62,0,0,1-1.17,2.81A4.25,4.25,0,0,1,218.5,195.66Zm6.46-9.25.88-5.47c.41,0,.65.24.73.73a6.88,6.88,0,0,1-.08,2,7.79,7.79,0,0,1-.56,2A1.09,1.09,0,0,1,225,186.41Z" transform="translate(-1.35)"/><path class="cls-3" d="M225,186.41c-.41,0-.65-.25-.73-.75a6.73,6.73,0,0,1,.08-2,7.36,7.36,0,0,1,.57-2,1.07,1.07,0,0,1,1-.73Zm0,0,.88-5.47h6.19l-1.6,1.26c-.11-.53-.2-1.09-.27-1.69a16.29,16.29,0,0,1-.1-1.88,16.49,16.49,0,0,1,.87-5.48,12.86,12.86,0,0,1,2.5-4.32A11,11,0,0,1,237.4,166a12.82,12.82,0,0,1,5.17-1,13.41,13.41,0,0,1,4,.55,11.69,11.69,0,0,1,3,1.34,11.3,11.3,0,0,1,1.94,1.53,4.55,4.55,0,0,1,.88,1.1,8.41,8.41,0,0,1-.13,1.36q-.13.82-.36,1.86c-.15.69-.31,1.42-.49,2.19s-.37,1.57-.55,2.4-.34,1.66-.49,2.5-.27,1.65-.36,2.44l-2.72,4.15Zm18.36-4.72c.09-.75.2-1.56.34-2.42s.29-1.72.48-2.58.36-1.7.54-2.52.35-1.57.51-2.26.29-1.27.41-1.75l.27,1.26a3.22,3.22,0,0,0-1.61-.73,9.27,9.27,0,0,0-1.86-.22,4.61,4.61,0,0,0-3,1,6.53,6.53,0,0,0-1.95,2.8,11.31,11.31,0,0,0-.7,4.17c0,.43,0,.84.05,1.22a9.07,9.07,0,0,0,.14,1c.05.3.1.58.15.83l-.85-.61H246ZM243,161.93a3.19,3.19,0,0,1-2.21-.73,2.42,2.42,0,0,1-.81-1.89,3.65,3.65,0,0,1,1.17-2.83,4.17,4.17,0,0,1,2.94-1.08,3.26,3.26,0,0,1,2.23.74,2.43,2.43,0,0,1,.83,1.92,3.62,3.62,0,0,1-1.17,2.8A4.21,4.21,0,0,1,243,161.93Z" transform="translate(-1.35)"/><path class="cls-4" d="M2.88,215v4.54H1.35v-11.6H5.62a4.31,4.31,0,0,1,3,1,3.66,3.66,0,0,1,0,5.17,4.47,4.47,0,0,1-3,.91Zm0-1.25H5.62a2.71,2.71,0,0,0,1.88-.58,2.09,2.09,0,0,0,.66-1.67,2.18,2.18,0,0,0-.66-1.66,2.6,2.6,0,0,0-1.79-.65H2.88Z" transform="translate(-1.35)"/><path class="cls-4" d="M27.08,219.54H25.54v-5.36H19.69v5.36H18.16v-11.6h1.53v5h5.85v-5h1.54Z" transform="translate(-1.35)"/><path class="cls-4" d="M42.87,214.18h-5v4.11h5.84v1.25H36.32v-11.6h7.29v1.25H37.85v3.74h5Z" transform="translate(-1.35)"/><path class="cls-4" d="M61,219.54H59.49l-5.84-8.94v8.94H52.12v-11.6h1.53l5.86,9v-9H61Z" transform="translate(-1.35)"/><path class="cls-4" d="M71.91,219.54H70.38v-11.6h1.53Z" transform="translate(-1.35)"/><path class="cls-4" d="M85.15,212.39l2.78-4.45h1.8l-3.66,5.76,3.75,5.84H88L85.15,215l-2.86,4.52H80.48l3.76-5.84-3.68-5.76h1.8Z" transform="translate(-1.35)"/><path class="cls-4" d="M106.13,209.19h-3.72v10.35h-1.52V209.19H97.17v-1.25h9Z" transform="translate(-1.35)"/><path class="cls-4" d="M123.29,219.54h-1.53v-5.36h-5.85v5.36h-1.53v-11.6h1.53v5h5.85v-5h1.53Z" transform="translate(-1.35)"/><path class="cls-4" d="M139.09,214.18h-5v4.11h5.84v1.25h-7.37v-11.6h7.29v1.25h-5.76v3.74h5Z" transform="translate(-1.35)"/><path class="cls-4" d="M150.31,207.94l3.79,9.47,3.79-9.47h2v11.6h-1.53V215l.14-4.88-3.81,9.39h-1.17l-3.8-9.37.15,4.86v4.51h-1.53v-11.6Z" transform="translate(-1.35)"/><path class="cls-4" d="M175.66,214.18h-5v4.11h5.84v1.25H169.1v-11.6h7.29v1.25h-5.76v3.74h5Z" transform="translate(-1.35)"/><path class="cls-4" d="M188.32,214.37a7.16,7.16,0,0,1-2.87-1.39,2.68,2.68,0,0,1-.89-2,2.8,2.8,0,0,1,1.09-2.27,4.34,4.34,0,0,1,2.85-.9,4.7,4.7,0,0,1,2.13.47,3.46,3.46,0,0,1,1.45,1.27,3.29,3.29,0,0,1,.51,1.78h-1.53a2.13,2.13,0,0,0-.67-1.66,2.75,2.75,0,0,0-1.89-.6,2.79,2.79,0,0,0-1.76.49,1.67,1.67,0,0,0-.64,1.39,1.5,1.5,0,0,0,.6,1.2,6,6,0,0,0,2.05.9,9.72,9.72,0,0,1,2.26.89,3.36,3.36,0,0,1,1.21,1.15,2.84,2.84,0,0,1,.4,1.53,2.71,2.71,0,0,1-1.1,2.26,4.65,4.65,0,0,1-2.94.85,5.36,5.36,0,0,1-2.23-.46,3.76,3.76,0,0,1-1.6-1.25,3.08,3.08,0,0,1-.56-1.81h1.54a2,2,0,0,0,.77,1.66,3.26,3.26,0,0,0,2.08.61,3,3,0,0,0,1.86-.49,1.61,1.61,0,0,0,.64-1.35,1.57,1.57,0,0,0-.6-1.32A6.76,6.76,0,0,0,188.32,214.37Z" transform="translate(-1.35)"/><path class="cls-4" d="M200.9,218.77a.93.93,0,0,1,.23-.64.86.86,0,0,1,.68-.25.85.85,0,0,1,.93.89.84.84,0,0,1-.24.61.9.9,0,0,1-.69.25.86.86,0,0,1-.68-.25A.87.87,0,0,1,200.9,218.77Z" transform="translate(-1.35)"/><path class="cls-4" d="M220.45,215.86a4.23,4.23,0,0,1-1.35,2.84,4.46,4.46,0,0,1-3,1,4.11,4.11,0,0,1-3.3-1.47,6,6,0,0,1-1.24-3.95v-1.11a6.63,6.63,0,0,1,.58-2.84,4.34,4.34,0,0,1,1.64-1.89,4.51,4.51,0,0,1,2.45-.66,4.22,4.22,0,0,1,3,1,4.3,4.3,0,0,1,1.29,2.85h-1.53a3.33,3.33,0,0,0-.87-2,2.58,2.58,0,0,0-1.86-.62,2.75,2.75,0,0,0-2.3,1.08,5,5,0,0,0-.83,3.08v1.13a5.06,5.06,0,0,0,.79,3,2.54,2.54,0,0,0,2.21,1.12,2.89,2.89,0,0,0,1.95-.58,3.15,3.15,0,0,0,.91-2Z" transform="translate(-1.35)"/><path class="cls-4" d="M238,214.12a7,7,0,0,1-.58,3,4.28,4.28,0,0,1-1.62,1.94,4.44,4.44,0,0,1-2.45.67,4.39,4.39,0,0,1-2.43-.67,4.45,4.45,0,0,1-1.65-1.92,6.87,6.87,0,0,1-.6-2.89v-.84a7,7,0,0,1,.58-2.95,4.39,4.39,0,0,1,1.65-2,4.35,4.35,0,0,1,2.43-.69,4.5,4.5,0,0,1,2.46.68,4.32,4.32,0,0,1,1.63,1.95,7.06,7.06,0,0,1,.58,3Zm-1.52-.75a5.23,5.23,0,0,0-.83-3.17,2.76,2.76,0,0,0-2.32-1.1,2.7,2.7,0,0,0-2.28,1.1,5.11,5.11,0,0,0-.86,3.07v.85a5.2,5.2,0,0,0,.84,3.14,2.95,2.95,0,0,0,4.61.06,5.21,5.21,0,0,0,.84-3.09Z" transform="translate(-1.35)"/><path class="cls-4" d="M248.78,207.94l3.79,9.47,3.8-9.47h2v11.6h-1.53V215l.14-4.88-3.8,9.39H252l-3.79-9.37.15,4.86v4.51h-1.53v-11.6Z" transform="translate(-1.35)"/></g></g></g></g></svg>