<svg xmlns="http://www.w3.org/2000/svg" xmlns:xlink="http://www.w3.org/1999/xlink" width="1772.628" height="524" viewBox="0 0 1772.628 524">
  <defs>
    <linearGradient id="linear-gradient" x1="0.5" x2="0.5" y2="1" gradientUnits="objectBoundingBox">
      <stop offset="0" stop-color="#ffd500"/>
      <stop offset="1" stop-color="#f49d1a"/>
    </linearGradient>
    <linearGradient id="linear-gradient-2" x1="0.5" x2="0.5" y2="1" gradientUnits="objectBoundingBox">
      <stop offset="0" stop-color="#fff"/>
      <stop offset="1" stop-color="#fff"/>
    </linearGradient>
    <linearGradient id="linear-gradient-3" x1="0.5" x2="0.5" y2="1" gradientUnits="objectBoundingBox">
      <stop offset="0" stop-color="#ddd"/>
      <stop offset="1" stop-color="#f7f7f7"/>
    </linearGradient>
  </defs>
  <g id="px-logo" transform="translate(7693 1704)">
    <g id="icon" transform="translate(-7693 -1704)">
      <path id="Polygon_3" data-name="Polygon 3" d="M389.539,0A121,121,0,0,1,494.028,59.982l82.34,141a121,121,0,0,1,0,122.036l-82.34,141A121,121,0,0,1,389.539,524H222.461a121,121,0,0,1-104.488-59.982l-82.34-141a121,121,0,0,1,0-122.036l82.34-141A121,121,0,0,1,222.461,0Z" fill="url(#linear-gradient)"/>
      <path id="Subtraction_1" data-name="Subtraction 1" d="M143.59,407.123h-.015c-4.159,0-8.368-.2-12.51-.589-29.094-2.731-54.094-11.621-74.306-26.422A127.14,127.14,0,0,1,29.7,353.081a154.025,154.025,0,0,1-19.658-36.348,147.724,147.724,0,0,1-9.4-38.351A125.748,125.748,0,0,1,2.3,241.695a134.906,134.906,0,0,1,12.124-34.91,175.014,175.014,0,0,1,22-33.018c1.647-1.967,3.378-4.007,4.9-5.806,7.287-8.587,14.822-17.465,20.831-27.019A75.941,75.941,0,0,0,73.7,89.4a7.188,7.188,0,0,1,.2-1.984c.062-.342.133-.727.2-1.177A40.952,40.952,0,0,1,86.24,100.042a114.47,114.47,0,0,1,7.1,16.543l.285.773.492.123,1.445.363c1.425-2.429,2.924-4.862,4.373-7.215a181.123,181.123,0,0,0,9.1-15.965C120.276,71.2,122.968,45,117.268,14.589h0l0-.005a63.5,63.5,0,0,0-1.1-6.684c-.7-3.787-1.433-7.7-1.272-7.892A.018.018,0,0,1,114.919,0c6.59,8.8,13.41,22.018,18.713,36.259,5.439,14.609,8.8,28.759,9.455,39.845a82.321,82.321,0,0,1-4.549,33.148A76.961,76.961,0,0,1,120.495,137.3c-22.973,23.175-38.38,44.215-48.488,66.216-15.539,33.863-13.992,65.685,4.6,94.583,12.939,20.106,32.858,31.231,62.688,35.012a102.788,102.788,0,0,0,13.108.908,58.488,58.488,0,0,0,24.006-4.635c19.017-8.342,32.4-22.154,40.9-42.226,6.168,6.7,12.345,13.447,19.443,21.234,2.071-8.129-.683-18.15-7.37-26.8-9.679-12.524-25.6-19.708-43.687-19.708a83.8,83.8,0,0,0-21.7,3.036c1.969-1.805,8.807-8.905,15.42-15.772l.009-.01c5.821-6.044,11.32-11.753,12.873-13.2-.5-.006-1.044-.011-1.657-.011-13.923,0-32.46,2.418-41.7,13.94-5.291,6.594-6.8,15.365-4.482,26.069a138.3,138.3,0,0,0,4.936,16.324c.811,2.33,1.645,4.731,2.407,7.1.457,1.533.982,2.98,1.59,4.654l.1.289-.146,0-.621,0a51.246,51.246,0,0,1-26.926-7.826,66.988,66.988,0,0,1-18.036-16.313c-8.621-11.248-9.8-13.228-15.832-26.482a62.361,62.361,0,0,1-5.6-30.909c.635-9.312,3.178-19.244,7.775-30.363,5.895-14.359,15.448-27.4,29.207-39.875,11.876-10.791,26.029-25.932,30.092-47.413a103.837,103.837,0,0,0,1.249-17.4c.04-2.536.081-5.157.2-7.729,6.493,1.048,13.564,5.521,19.4,12.269,5.874,6.788,9.682,14.96,10.448,22.42a61.212,61.212,0,0,1,.241,6.646c-.079,10.214-.079,10.214,10.165,10.443l.486.011c1.429.038,2.857.057,4.246.057,22.89,0,40.512-5.117,55.457-16.1a104.055,104.055,0,0,0,9.347-8.244l.009-.009c1.51-1.439,3.072-2.928,4.763-4.472,2.316,12.875,1.533,24.318-2.39,34.982-3.758,10.216-10.34,19.531-20.12,28.478,11.783,10.055,24.976,14.739,41.521,14.739,8,0,16.641-1.046,28.024-3.392-3.742,10.338-9.011,18.167-16.106,23.94-7.077,5.758-15.927,9.433-27.057,11.235a71.971,71.971,0,0,1,18.286,15.859,66.081,66.081,0,0,1,10.678,18.92c5.439,14.648,6.315,30.994,6.455,45.052l-4.99-3.177c-6.177-3.934-11.512-7.331-17.2-10.925-.656,2.864-1.261,5.694-1.847,8.43-1.308,6.114-2.541,11.881-4.2,17.505A141.237,141.237,0,0,1,260.1,346a147.644,147.644,0,0,1-71.706,53.555A137.62,137.62,0,0,1,143.59,407.123Zm11.9-239.894h0l-8.074,14.313,8.074,14.315h16.148l8.076-14.315-8.076-14.313Z" transform="translate(144.645 42.258)" fill="url(#linear-gradient-2)"/>
      <path id="shadowover" d="M141.709,211.3c-70.03,66.54-55.992,203.592,66.4,235.2,14.926,1.864,108.515-27.313,108.918-114.844,0,0-29.125,74.4-112.952,35.9,0,0-33.24-14.508-42.115-62-2.824-13.211-19.605-29.258-23.881-49.115C134.771,240.964,143.887,221.512,141.709,211.3Z" transform="translate(45.171 -1.192)" opacity="0.7" fill="url(#linear-gradient-3)"/>
      <path id="Polygon_2" data-name="Polygon 2" d="M12.845,0l4.282,8.6-4.282,8.6H4.282L0,8.6,4.282,0Z" transform="translate(299.972 214.972)" fill="#f1f1f1"/>
    </g>
    <g id="txt" transform="translate(-7027.856 -1628.573)">
      <path id="Path_725" data-name="Path 725" d="M80.743,50.3q13.989,0,21.483-6.512t7.494-19.871q0-12.69-7.827-19.537T79.078-2.463q-5.329,0-8.826.167a54.375,54.375,0,0,0-7.161.835V50.3ZM63.423,157.5a92.261,92.261,0,0,1-11.491,2,121.894,121.894,0,0,1-15.488,1,69.182,69.182,0,0,1-13.49-1.169,23.93,23.93,0,0,1-9.826-4.174,18.038,18.038,0,0,1-6-8.349q-2-5.343-2-14.026V-24.5q0-7.013,3.83-10.854a27.353,27.353,0,0,1,10.492-6.178A124.436,124.436,0,0,1,45.271-47.38a231.516,231.516,0,0,1,29.144-1.837q45.964,0,70.279,19.7T169.008,23.92a80.517,80.517,0,0,1-5.163,29.555,61.329,61.329,0,0,1-15.321,22.709Q138.365,85.7,122.877,90.879T87.072,96.055H63.423Zm315.755,0a92.256,92.256,0,0,1-11.491,2,121.9,121.9,0,0,1-15.488,1,69.182,69.182,0,0,1-13.49-1.169,23.93,23.93,0,0,1-9.826-4.174,18.039,18.039,0,0,1-6-8.349q-2-5.343-2-14.026v-52.1H256.94V157.5a92.264,92.264,0,0,1-11.491,2,121.894,121.894,0,0,1-15.488,1,69.183,69.183,0,0,1-13.49-1.169,23.93,23.93,0,0,1-9.826-4.174,18.038,18.038,0,0,1-6-8.349q-2-5.343-2-14.026V-43.54q3.664-.668,11.658-1.837a105.974,105.974,0,0,1,15.321-1.169,69.193,69.193,0,0,1,13.49,1.169,23.929,23.929,0,0,1,9.826,4.175,18.037,18.037,0,0,1,6,8.349q2,5.343,2,14.026V34.607h63.95V-43.54q3.664-.668,11.658-1.837a105.975,105.975,0,0,1,15.322-1.169,69.192,69.192,0,0,1,13.489,1.169,23.928,23.928,0,0,1,9.826,4.175,18.038,18.038,0,0,1,6,8.349q2,5.343,2,14.026Zm43.3-169.985q0-14.36,8.327-22.709t22.649-8.349H563.369a40.031,40.031,0,0,1,4.163,9.685,43.3,43.3,0,0,1,1.832,12.69q0,12.69-5.5,18.034T549.38,2.213H479.1V33.271h74.942a40.519,40.519,0,0,1,4.163,9.518,41.652,41.652,0,0,1,1.832,12.524q0,12.691-5.329,18.034t-14.322,5.343H479.1v35.066h85.6a40.033,40.033,0,0,1,4.164,9.685,43.3,43.3,0,0,1,1.832,12.69q0,12.69-5.5,18.2t-14.489,5.51H453.454q-14.322,0-22.649-8.349t-8.327-22.709ZM787.862,151.826q-4.663,4.676-13.49,7.18a78.175,78.175,0,0,1-21.15,2.5,73.069,73.069,0,0,1-23.315-3.674q-10.992-3.673-17.986-17.7l-32.974-67.46q-5-10.353-8.993-19.537t-8.66-21.206l-2,.334Q660.627,50.3,660.794,69t.166,36.736V157.5a92.365,92.365,0,0,1-11.158,2,111.761,111.761,0,0,1-14.822,1,75.173,75.173,0,0,1-12.99-1,19.867,19.867,0,0,1-9.326-4.008A19.3,19.3,0,0,1,607,147.318q-2-5.176-2-13.525V-33.187q4.663-6.679,14.322-10.019a62.761,62.761,0,0,1,20.651-3.34A71.64,71.64,0,0,1,663.458-42.7q11.158,3.84,17.82,17.533l33.307,67.46q5,10.353,8.993,19.537t8.66,21.206L733.9,82.7q-1.332-18.034-1.665-36.068t-.333-36.067v-54.1a92.361,92.361,0,0,1,11.158-2,111.755,111.755,0,0,1,14.822-1q14.655,0,22.316,5.176t7.661,21.541ZM889.45,157.5a92.273,92.273,0,0,1-11.491,2,121.9,121.9,0,0,1-15.488,1,69.184,69.184,0,0,1-13.49-1.169,23.93,23.93,0,0,1-9.826-4.174,18.039,18.039,0,0,1-6-8.349q-2-5.343-2-14.026V-43.54q3.664-.668,11.658-1.837a105.976,105.976,0,0,1,15.322-1.169,69.193,69.193,0,0,1,13.489,1.169,23.927,23.927,0,0,1,9.826,4.175,18.038,18.038,0,0,1,6,8.349q2,5.343,2,14.026Zm29.31-176.331a45.92,45.92,0,0,1,4.663-9.351,38.575,38.575,0,0,1,7.494-8.516,39.393,39.393,0,0,1,10.492-6.345,34.241,34.241,0,0,1,13.323-2.5A30.1,30.1,0,0,1,971.72-40.7q7.327,4.842,14.988,16.531l25.98,39.741,38.3-56.773a36.463,36.463,0,0,1,7.494-2.5,40.263,40.263,0,0,1,9.493-1.169q15.322,0,23.982,7.347t8.66,18.034a29.717,29.717,0,0,1-4.829,16.7q-4.83,7.347-13.156,17.7l-34.307,42.079,54.291,77.813q-2.664,12.357-11.491,19.537t-23.815,7.18a28.526,28.526,0,0,1-16.654-4.842q-6.995-4.842-14.322-16.531l-26.979-42.747L967.39,160.843q-2.664.334-5,.5t-4.663.167q-18.985,0-27.978-7.681t-8.993-19.036a33.027,33.027,0,0,1,4.163-16.865,147.539,147.539,0,0,1,11.824-16.865L971.72,55.98Z" transform="translate(4.866 49.217)" fill="url(#linear-gradient)"/>
      <text id="Website_Themes" data-name="Website Themes" transform="translate(557.484 364.546)" fill="#343a40" font-size="129" font-family="BioSans-SemiBold, Bio Sans" font-weight="600" letter-spacing="0.03em"><tspan x="-549.54" y="0">WEBSITE THEMES</tspan></text>
    </g>
  </g>
</svg>
