<svg xmlns="http://www.w3.org/2000/svg" xmlns:xlink="http://www.w3.org/1999/xlink" width="260" height="221.102" viewBox="0 0 260 221.102">
  <defs>
    <linearGradient id="linear-gradient" x1="0.5" x2="0.5" y2="1" gradientUnits="objectBoundingBox">
      <stop offset="0" stop-color="#00c4ff"/>
      <stop offset="1" stop-color="#1a69f4"/>
    </linearGradient>
    <linearGradient id="linear-gradient-2" x1="0.5" x2="0.5" y2="1" gradientUnits="objectBoundingBox">
      <stop offset="0" stop-color="#fff"/>
      <stop offset="1" stop-color="#fff"/>
    </linearGradient>
    <linearGradient id="linear-gradient-3" x1="0.5" x2="0.5" y2="1" gradientUnits="objectBoundingBox">
      <stop offset="0" stop-color="#ddd"/>
      <stop offset="1" stop-color="#f7f7f7"/>
    </linearGradient>
  </defs>
  <g id="pds-icon" transform="translate(0 0.431)">
    <path id="Polygon_3" data-name="Polygon 3" d="M165.252,0a52,52,0,0,1,44.826,25.644L244.5,84.2a52,52,0,0,1,0,52.712l-34.426,58.551A52,52,0,0,1,165.252,221.1h-70.5a52,52,0,0,1-44.826-25.644L15.5,136.907a52,52,0,0,1,0-52.712L49.922,25.644A52,52,0,0,1,94.748,0Z" transform="translate(0 -0.431)" fill="url(#linear-gradient)"/>
    <path id="Subtraction_1" data-name="Subtraction 1" d="M60.26,170.53h-.006c-1.745,0-3.512-.083-5.25-.247-12.21-1.144-22.7-4.867-31.184-11.067a53.306,53.306,0,0,1-11.354-11.323,64.476,64.476,0,0,1-8.25-15.225A61.779,61.779,0,0,1,.27,116.6a52.572,52.572,0,0,1,.7-15.367A56.435,56.435,0,0,1,6.053,86.615a73.3,73.3,0,0,1,9.234-13.83c.691-.824,1.417-1.678,2.058-2.432a101.508,101.508,0,0,0,8.742-11.317A31.76,31.76,0,0,0,30.93,37.445a3.005,3.005,0,0,1,.084-.831c.026-.143.056-.3.085-.493A17.164,17.164,0,0,1,36.192,41.9a47.9,47.9,0,0,1,2.981,6.929l.12.324.206.051.607.152c.6-1.017,1.227-2.036,1.835-3.022a75.829,75.829,0,0,0,3.819-6.687c4.716-9.83,5.846-20.8,3.454-33.541h0l0,0a26.556,26.556,0,0,0-.462-2.8A27.724,27.724,0,0,1,48.222,0a.008.008,0,0,1,.006,0,63.735,63.735,0,0,1,7.853,15.188,60.8,60.8,0,0,1,3.968,16.69A34.42,34.42,0,0,1,58.14,45.762a32.229,32.229,0,0,1-7.572,11.746c-9.641,9.707-16.107,18.52-20.349,27.735-6.521,14.184-5.872,27.513,1.93,39.617,5.43,8.422,13.79,13.082,26.308,14.665a43.217,43.217,0,0,0,5.5.38,24.587,24.587,0,0,0,10.075-1.942c7.981-3.494,13.6-9.28,17.166-17.687,2.588,2.806,5.181,5.633,8.16,8.894.869-3.405-.287-7.6-3.093-11.227-4.062-5.246-10.744-8.255-18.334-8.255a35.231,35.231,0,0,0-9.106,1.271c.826-.756,3.7-3.73,6.471-6.606l0,0c2.443-2.532,4.751-4.923,5.4-5.529-.21,0-.438,0-.7,0-5.843,0-13.622,1.013-17.5,5.839-2.22,2.762-2.853,6.436-1.881,10.92a57.846,57.846,0,0,0,2.071,6.838c.34.976.691,1.981,1.01,2.973.192.642.412,1.248.667,1.95l.044.121H64.1a21.537,21.537,0,0,1-11.3-3.278,28.093,28.093,0,0,1-7.569-6.833,41.062,41.062,0,0,1-6.644-11.092,26.077,26.077,0,0,1-2.349-12.947A40.495,40.495,0,0,1,39.5,80.593a46.223,46.223,0,0,1,12.257-16.7c4.984-4.52,10.923-10.862,12.629-19.86a43.413,43.413,0,0,0,.524-7.286c.017-1.062.034-2.16.086-3.238,2.725.439,5.692,2.312,8.143,5.139a17.718,17.718,0,0,1,4.385,9.391,25.59,25.59,0,0,1,.1,2.784c-.033,4.278-.033,4.278,4.266,4.374l.2,0c.6.016,1.2.024,1.782.024,9.606,0,17-2.143,23.274-6.745a43.641,43.641,0,0,0,3.923-3.453l0,0c.634-.6,1.289-1.226,2-1.873a27.34,27.34,0,0,1-1,14.653,30.4,30.4,0,0,1-8.444,11.928A25.426,25.426,0,0,0,121.05,75.9a57.718,57.718,0,0,0,11.761-1.421,22.173,22.173,0,0,1-6.759,10.028A23.42,23.42,0,0,1,114.7,89.216a30.187,30.187,0,0,1,7.674,6.643,27.665,27.665,0,0,1,4.481,7.925c2.283,6.135,2.65,12.982,2.709,18.871l-2.094-1.331c-2.592-1.648-4.831-3.071-7.217-4.576-.275,1.2-.529,2.385-.775,3.531-.549,2.561-1.066,4.976-1.764,7.332a59.114,59.114,0,0,1-8.556,17.316A61.952,61.952,0,0,1,79.062,167.36,57.855,57.855,0,0,1,60.26,170.53Zm5-100.483h0l-3.388,6,3.388,6h6.777l3.389-6-3.389-6Z" transform="translate(61.189 18.675)" fill="url(#linear-gradient-2)"/>
    <path id="shadowover" d="M117.255,211.3c-29.389,27.871-23.5,85.277,27.866,98.517,6.264.781,45.54-11.44,45.709-48.1,0,0-12.223,31.164-47.4,15.039,0,0-13.95-6.077-17.674-25.97-1.185-5.534-8.228-12.255-10.022-20.573C114.343,223.725,118.169,215.577,117.255,211.3Z" transform="translate(-38.341 -122.318)" opacity="0.7" fill="url(#linear-gradient-3)"/>
    <path id="Polygon_2" data-name="Polygon 2" d="M5.391,0l1.8,3.6-1.8,3.6H1.8L0,3.6,1.8,0Z" transform="translate(126.375 91.019)" fill="#f1f1f1"/>
  </g>
</svg>
