<svg xmlns="http://www.w3.org/2000/svg" xmlns:xlink="http://www.w3.org/1999/xlink" width="1267" height="237" viewBox="0 0 1267 237">
  <defs>
    <linearGradient id="linear-gradient" x1="0.5" x2="0.5" y2="1" gradientUnits="objectBoundingBox">
      <stop offset="0" stop-color="#f8c35b"/>
      <stop offset="1" stop-color="#fb955d"/>
    </linearGradient>
    <linearGradient id="linear-gradient-2" x1="0.5" x2="0.5" y2="1" gradientUnits="objectBoundingBox">
      <stop offset="0" stop-color="#fff"/>
      <stop offset="1" stop-color="#fff"/>
    </linearGradient>
    <linearGradient id="linear-gradient-3" x1="0.5" x2="0.5" y2="1" gradientUnits="objectBoundingBox">
      <stop offset="0" stop-color="#ddd"/>
      <stop offset="1" stop-color="#f7f7f7"/>
    </linearGradient>
  </defs>
  <g id="px-copyrights" transform="translate(7351 1659)">
    <g id="icon" transform="translate(-7350.846 -1638)">
      <path id="Polygon_3" data-name="Polygon 3" d="M155.357,0a60,60,0,0,1,51.775,29.678l28.111,48a60,60,0,0,1,0,60.643l-28.111,48A60,60,0,0,1,155.357,216H97.643a60,60,0,0,1-51.775-29.678l-28.111-48a60,60,0,0,1,0-60.643l28.111-48A60,60,0,0,1,97.643,0Z" transform="translate(-0.154)" fill="url(#linear-gradient)"/>
      <path id="Subtraction_1" data-name="Subtraction 1" d="M59.245,167.979h-.006c-1.716,0-3.453-.082-5.162-.243-12-1.127-22.319-4.795-30.659-10.9a52.458,52.458,0,0,1-11.163-11.153,63.55,63.55,0,0,1-8.111-15A60.951,60.951,0,0,1,.265,114.86,51.884,51.884,0,0,1,.949,99.723a55.662,55.662,0,0,1,5-14.4A72.211,72.211,0,0,1,15.03,71.7c.679-.812,1.394-1.653,2.024-2.4a99.968,99.968,0,0,0,8.595-11.148,31.333,31.333,0,0,0,4.761-21.268,2.966,2.966,0,0,1,.082-.819c.026-.141.055-.3.084-.485a16.9,16.9,0,0,1,5.007,5.7A47.23,47.23,0,0,1,38.514,48.1l.118.319.2.051.6.15c.588-1,1.206-2.006,1.8-2.977a74.731,74.731,0,0,0,3.754-6.587c4.637-9.683,5.747-20.49,3.4-33.039h0l0,0a26.2,26.2,0,0,0-.454-2.758A27.357,27.357,0,0,1,47.409,0a.008.008,0,0,1,.006,0,62.824,62.824,0,0,1,7.721,14.961,59.983,59.983,0,0,1,3.9,16.44A33.966,33.966,0,0,1,57.16,45.077a31.754,31.754,0,0,1-7.444,11.57C40.237,66.21,33.88,74.891,29.71,83.968c-6.412,13.972-5.773,27.1,1.9,39.025,5.338,8.3,13.557,12.886,25.865,14.446a42.412,42.412,0,0,0,5.408.375,24.132,24.132,0,0,0,9.9-1.913c7.846-3.442,13.367-9.141,16.877-17.423,2.545,2.764,5.094,5.548,8.022,8.761.854-3.354-.282-7.489-3.041-11.059-3.993-5.167-10.563-8.131-18.025-8.131a34.575,34.575,0,0,0-8.953,1.252c.812-.745,3.634-3.674,6.362-6.507l0,0c2.4-2.494,4.671-4.849,5.311-5.446-.207,0-.431,0-.684,0-5.745,0-13.393,1-17.207,5.752-2.183,2.721-2.805,6.34-1.849,10.756a57.061,57.061,0,0,0,2.036,6.735c.334.961.679,1.952.993,2.929.189.633.405,1.229.656,1.92l.043.119h-.316a21.144,21.144,0,0,1-11.11-3.229,27.639,27.639,0,0,1-7.442-6.731,40.463,40.463,0,0,1-6.532-10.926,25.73,25.73,0,0,1-2.309-12.753,39.951,39.951,0,0,1,3.208-12.528A45.528,45.528,0,0,1,50.881,62.935c4.9-4.452,10.739-10.7,12.416-19.563a42.843,42.843,0,0,0,.515-7.177c.017-1.046.033-2.128.084-3.189,2.679.432,5.6,2.278,8.006,5.062a17.468,17.468,0,0,1,4.311,9.25,25.255,25.255,0,0,1,.1,2.742c-.033,4.214-.033,4.214,4.194,4.309l.2,0c.589.016,1.179.024,1.752.024,9.445,0,16.715-2.111,22.882-6.644a42.931,42.931,0,0,0,3.857-3.4l0,0c.623-.594,1.267-1.208,1.965-1.845a26.98,26.98,0,0,1-.986,14.434,29.949,29.949,0,0,1-8.3,11.75,24.968,24.968,0,0,0,17.131,6.081,56.642,56.642,0,0,0,11.563-1.4,21.843,21.843,0,0,1-6.645,9.878,23,23,0,0,1-11.164,4.636,29.7,29.7,0,0,1,7.545,6.543,27.265,27.265,0,0,1,4.406,7.807c2.244,6.044,2.606,12.788,2.663,18.588l-2.059-1.311c-2.549-1.623-4.75-3.025-7.1-4.508-.271,1.182-.52,2.349-.762,3.478-.54,2.522-1.048,4.9-1.735,7.223a58.274,58.274,0,0,1-8.412,17.057,60.918,60.918,0,0,1-29.586,22.1A56.782,56.782,0,0,1,59.245,167.979ZM64.156,69h0L60.825,74.9l3.331,5.906h6.663L74.151,74.9,70.819,69Z" transform="translate(59.68 17.436)" fill="url(#linear-gradient-2)"/>
      <path id="shadowover" d="M116.957,211.3c-28.894,27.454-23.1,84,27.4,97.043,6.158.769,44.773-11.269,44.939-47.385,0,0-12.017,30.7-46.6,14.814,0,0-13.715-5.986-17.377-25.582-1.165-5.451-8.089-12.072-9.853-20.265C114.094,223.539,117.855,215.514,116.957,211.3Z" transform="translate(-39.85 -124.61)" opacity="0.7" fill="url(#linear-gradient-3)"/>
      <path id="Polygon_2" data-name="Polygon 2" d="M5.3,0,7.066,3.549,5.3,7.1H1.767L0,3.549,1.767,0Z" transform="translate(123.768 88.697)" fill="#f1f1f1"/>
    </g>
    <g id="txt" transform="translate(-7027.856 -1628.573)">
      <path id="Path_725" data-name="Path 725" d="M51.349,11.612q8.551,0,13.131-3.98T69.061-4.513q0-7.757-4.784-11.941T50.331-20.639q-3.257,0-5.4.1a33.236,33.236,0,0,0-4.377.51V11.612ZM40.763,77.137a56.394,56.394,0,0,1-7.024,1.225,74.5,74.5,0,0,1-9.467.612,42.287,42.287,0,0,1-8.245-.714,14.627,14.627,0,0,1-6.006-2.552,11.026,11.026,0,0,1-3.665-5.1,24.95,24.95,0,0,1-1.222-8.573V-34.112a8.986,8.986,0,0,1,2.341-6.634,16.719,16.719,0,0,1,6.413-3.776,76.059,76.059,0,0,1,15.778-3.572,141.51,141.51,0,0,1,17.814-1.123q28.095,0,42.957,12.043T105.3-4.513a49.214,49.214,0,0,1-3.156,18.065,37.486,37.486,0,0,1-9.365,13.88A42.033,42.033,0,0,1,77.1,36.414a69.03,69.03,0,0,1-21.885,3.164H40.763Zm193,0a56.392,56.392,0,0,1-7.024,1.225,74.505,74.505,0,0,1-9.467.612,42.287,42.287,0,0,1-8.245-.714,14.627,14.627,0,0,1-6.006-2.552,11.026,11.026,0,0,1-3.665-5.1,24.949,24.949,0,0,1-1.222-8.573V30.188H159.046V77.137a56.4,56.4,0,0,1-7.024,1.225,74.505,74.505,0,0,1-9.467.612,42.287,42.287,0,0,1-8.245-.714,14.627,14.627,0,0,1-6.006-2.552,11.026,11.026,0,0,1-3.665-5.1,24.95,24.95,0,0,1-1.222-8.573V-45.747q2.239-.408,7.126-1.123a64.774,64.774,0,0,1,9.365-.714,42.293,42.293,0,0,1,8.245.714,14.626,14.626,0,0,1,6.006,2.552,11.025,11.025,0,0,1,3.665,5.1,24.949,24.949,0,0,1,1.222,8.573V2.019h39.088V-45.747q2.239-.408,7.125-1.123a64.775,64.775,0,0,1,9.365-.714,42.292,42.292,0,0,1,8.245.714,14.626,14.626,0,0,1,6.006,2.552,11.025,11.025,0,0,1,3.665,5.1,24.95,24.95,0,0,1,1.221,8.573Zm26.466-103.9q0-8.777,5.09-13.881t13.844-5.1h67.183a24.469,24.469,0,0,1,2.545,5.92,26.467,26.467,0,0,1,1.12,7.757q0,7.757-3.359,11.023a12.163,12.163,0,0,1-8.856,3.266H294.837V1.2h45.807a24.764,24.764,0,0,1,2.545,5.818,25.458,25.458,0,0,1,1.12,7.655q0,7.757-3.257,11.023a11.813,11.813,0,0,1-8.754,3.266h-37.46V50.4h52.322a24.469,24.469,0,0,1,2.545,5.92,26.464,26.464,0,0,1,1.12,7.757q0,7.757-3.359,11.125a11.955,11.955,0,0,1-8.856,3.368H279.161q-8.754,0-13.844-5.1t-5.09-13.881ZM483.562,73.667a18.59,18.59,0,0,1-8.245,4.389,47.783,47.783,0,0,1-12.928,1.531,44.662,44.662,0,0,1-14.251-2.245q-6.718-2.245-10.994-10.819L416.989,25.289q-3.054-6.328-5.5-11.941T406.2.386l-1.221.2q.814,11.023.916,22.454T406,45.5v31.64a56.46,56.46,0,0,1-6.82,1.225,68.312,68.312,0,0,1-9.06.612,45.948,45.948,0,0,1-7.94-.612,12.143,12.143,0,0,1-5.7-2.45,11.8,11.8,0,0,1-3.461-5,23.344,23.344,0,0,1-1.221-8.267V-39.419a17.038,17.038,0,0,1,8.754-6.124,38.362,38.362,0,0,1,12.622-2.041,43.788,43.788,0,0,1,14.353,2.347q6.82,2.347,10.892,10.717L438.773,6.714q3.054,6.328,5.5,11.941t5.293,12.962l1.018-.2q-.814-11.023-1.018-22.046t-.2-22.046V-45.747a56.454,56.454,0,0,1,6.82-1.225,68.308,68.308,0,0,1,9.06-.612q8.958,0,13.64,3.164t4.682,13.166Zm62.094,3.47a56.4,56.4,0,0,1-7.024,1.225,74.506,74.506,0,0,1-9.467.612,42.287,42.287,0,0,1-8.245-.714,14.627,14.627,0,0,1-6.006-2.552,11.027,11.027,0,0,1-3.665-5.1,24.95,24.95,0,0,1-1.222-8.573V-45.747q2.24-.408,7.126-1.123a64.775,64.775,0,0,1,9.365-.714,42.292,42.292,0,0,1,8.245.714,14.625,14.625,0,0,1,6.006,2.552,11.026,11.026,0,0,1,3.665,5.1,24.951,24.951,0,0,1,1.222,8.573ZM563.571-30.642a28.066,28.066,0,0,1,2.85-5.715A23.576,23.576,0,0,1,571-41.562a24.079,24.079,0,0,1,6.413-3.878,20.93,20.93,0,0,1,8.143-1.531,18.4,18.4,0,0,1,10.383,2.96q4.479,2.96,9.161,10.1l15.88,24.291,23.412-34.7a22.29,22.29,0,0,1,4.581-1.531,24.61,24.61,0,0,1,5.8-.714q9.365,0,14.658,4.491a13.923,13.923,0,0,1,5.293,11.023,18.163,18.163,0,0,1-2.952,10.206q-2.952,4.491-8.042,10.819L642.766,15.7,675.95,63.256A20.374,20.374,0,0,1,668.926,75.2q-5.395,4.389-14.556,4.389a17.436,17.436,0,0,1-10.179-2.96q-4.275-2.96-8.754-10.1l-16.49-26.128L593.294,79.178q-1.629.2-3.054.306t-2.85.1q-11.6,0-17.1-4.695a14.7,14.7,0,0,1-5.5-11.635,20.187,20.187,0,0,1,2.545-10.308,90.181,90.181,0,0,1,7.227-10.308l21.377-27.557Z" transform="translate(-37.134 120.79)" fill="url(#linear-gradient)"/>
      <text id="Designed_Development_By" data-name="Designed &amp; Development By" transform="translate(455.856 33.573)" fill="#fa975c" font-size="66" font-family="BioSans-Light, Bio Sans" font-weight="300" letter-spacing="0.03em"><tspan x="-486.981" y="0">DESIGNED &amp; DEVELOPMENT BY</tspan></text>
      <text id="Themes" transform="translate(807.856 183.573)" fill="#fa9a5c" font-size="66" font-family="BioSans-SemiBold, Bio Sans" font-weight="600" letter-spacing="0.03em"><tspan x="-131.043" y="0">THEMES</tspan></text>
      <line id="Line_78" data-name="Line 78" x2="272.5" transform="translate(671.356 105.073)" fill="none" stroke="#fa9c5c" stroke-width="1"/>
    </g>
  </g>
</svg>
