<svg xmlns="http://www.w3.org/2000/svg" width="512.066" height="448" viewBox="0 0 512.066 448">
  <path id="bg-icon" d="M144,208a32,32,0,1,0,32,32A31.966,31.966,0,0,0,144,208Zm112,0a32,32,0,1,0,32,32A31.966,31.966,0,0,0,256,208Zm112,0a32,32,0,1,0,32,32A31.966,31.966,0,0,0,368,208ZM256,32C114.6,32,0,125.1,0,240c0,47.6,19.9,91.2,52.9,126.3C38,405.7,7,439.1,6.5,439.5A24.007,24.007,0,0,0,24,480c61.5,0,110-25.7,139.1-46.3A308.851,308.851,0,0,0,256,448c141.4,0,256-93.1,256-208S397.4,32,256,32Zm0,368a259.856,259.856,0,0,1-78.4-12.1l-22.7-7.2-19.5,13.8a215.042,215.042,0,0,1-57.5,29,250.825,250.825,0,0,0,19.9-40.2l10.6-28.1L87.8,333.4C69.7,314.1,48,282.2,48,240c0-88.2,93.3-160,208-160s208,71.8,208,160S370.7,400,256,400Z" transform="translate(0.066 -32)" opacity="0.05"/>
</svg>
