<svg xmlns="http://www.w3.org/2000/svg" xmlns:xlink="http://www.w3.org/1999/xlink" width="128.297" height="128.297" viewBox="0 0 128.297 128.297">
  <defs>
    <linearGradient id="linear-gradient" x1="0.5" x2="0.5" y2="1" gradientUnits="objectBoundingBox">
      <stop offset="0" stop-color="#00c4ff"/>
      <stop offset="1" stop-color="#1a69f4"/>
    </linearGradient>
  </defs>
  <path id="dice-d12" d="M127.453,46.418l-14-27.99a8.034,8.034,0,0,0-3.586-3.586l-27.99-14A8.035,8.035,0,0,0,78.3,0H50a8.02,8.02,0,0,0-3.586.847l-27.99,14a8.034,8.034,0,0,0-3.586,3.586l-14,27.99A8.035,8.035,0,0,0,0,50V78.293a8.02,8.02,0,0,0,.847,3.586l14,27.99a8.034,8.034,0,0,0,3.586,3.586l27.99,14A8.02,8.02,0,0,0,50,128.3H78.293a8.02,8.02,0,0,0,3.586-.847l27.99-14a8.034,8.034,0,0,0,3.586-3.586l14-27.99a8.02,8.02,0,0,0,.847-3.586V50a8,8,0,0,0-.844-3.586Zm-13.436.025L94.426,72.564,70.164,60.434V37l35.262-7.051-.233-1.155Zm-38.7,69.828H52.986L39.715,83.092,64.15,70.873,88.587,83.092ZM50.952,12.028h26.4l16.108,8.054L64.15,25.943l-29.3-5.861ZM23.106,28.8l-.233,1.155,35.262,7.054v23.43L33.874,72.567,14.283,46.443ZM12.028,77.348V63.478L26.788,83.157,37.3,109.446,25,103.3ZM103.3,103.3,91,109.446l10.515-26.289,14.759-19.678v13.87Z" fill="url(#linear-gradient)"/>
</svg>
