<svg xmlns="http://www.w3.org/2000/svg" xmlns:xlink="http://www.w3.org/1999/xlink" viewBox="0 0 257.38 231"><defs><style>.cls-1{fill:url(#linear-gradient);}.cls-2{fill:#fff;}</style><linearGradient id="linear-gradient" y1="115.5" x2="257.38" y2="115.5" gradientUnits="userSpaceOnUse"><stop offset="0" stop-color="#0c97f9"/><stop offset="0.33" stop-color="#0d94f9"/><stop offset="0.6" stop-color="#108af8"/><stop offset="0.84" stop-color="#1579f6"/><stop offset="1" stop-color="#1a69f4"/></linearGradient></defs><g id="Layer_2" data-name="Layer 2"><g id="Layer_1-2" data-name="Layer 1"><g id="logo"><g id="logo-icon"><path id="icon-base" class="cls-1" d="M179,0a28,28,0,0,1,24.27,14l50.38,87.5a28,28,0,0,1,0,27.94L203.27,217A28,28,0,0,1,179,231H78.38a28,28,0,0,1-24.27-14L3.73,129.47a28,28,0,0,1,0-27.94L54.11,14A28,28,0,0,1,78.38,0Z"/><g id="phenix"><path id="phenix-3" class="cls-2" d="M144.58,124.15c-30,6-64.78,61.63-41.65,101.7,0,0,19.53-.17,53.44,0C130.06,212.76,115.37,170.16,144.58,124.15Z"/><path id="phenix-2" class="cls-2" d="M143,136.11c-7.31,7.68-24.08,64.27,21.64,89.61C198.81,229,204,206.91,204,206.91,153.34,203,147.25,166.61,143,136.11Z"/><path id="phenix-1" class="cls-2" d="M193.2,90.54c-6.07-1-47.51-1-36.82-7.57,13.13-8.12,21.25,8.67,32.14,4,13.84-22-21-45.22-59.52-42.36l.27-.29c-20-.24-40.44,3.36-49.65-7.83-.78,5.93,1.3,15,6.74,20.7a16.2,16.2,0,0,0,12.08,5.25,19.41,19.41,0,0,0,3.8-.43c-7.16,4-15.09,2.2-18.13-.86Q82.35,62.54,80.64,64a75.24,75.24,0,0,0-9.4,9.82c-15,18.9-21.87,41.53-21.92,64,9-10.72,20.78-20.56,32.83-22.89C67.82,125.83,43,162.17,39.48,181.58c14.25,23.91,16.21,48.65,56.83,43.9-14.35-28.13-6.26-63.69,21.25-90.79,30.13-29.68,101.89-20.7,101,8.12,14.6-18,.64-48.1-25.38-52.26Z"/></g></g></g></g></g></svg>