<svg xmlns="http://www.w3.org/2000/svg" xmlns:xlink="http://www.w3.org/1999/xlink" width="28" height="24" viewBox="0 0 28 24">
  <defs>
    <linearGradient id="linear-gradient" x1="0.5" x2="0.5" y2="1" gradientUnits="objectBoundingBox">
      <stop offset="0" stop-color="#f8c35b"/>
      <stop offset="1" stop-color="#fb955d"/>
    </linearGradient>
    <linearGradient id="linear-gradient-2" x1="0.5" x2="0.5" y2="1" gradientUnits="objectBoundingBox">
      <stop offset="0" stop-color="#fff"/>
      <stop offset="1" stop-color="#fff"/>
    </linearGradient>
    <linearGradient id="linear-gradient-3" x1="0.5" x2="0.5" y2="1" gradientUnits="objectBoundingBox">
      <stop offset="0" stop-color="#ddd"/>
      <stop offset="1" stop-color="#f7f7f7"/>
    </linearGradient>
  </defs>
  <g id="icon" transform="translate(-0.109)">
    <path id="Polygon_3" data-name="Polygon 3" d="M16.405,0a8,8,0,0,1,6.91,3.969l2.333,4a8,8,0,0,1,0,8.062l-2.333,4A8,8,0,0,1,16.405,24h-4.81a8,8,0,0,1-6.91-3.969l-2.333-4a8,8,0,0,1,0-8.062l2.333-4A8,8,0,0,1,11.595,0Z" transform="translate(0.109 0)" fill="url(#linear-gradient)"/>
    <g id="Group_265" data-name="Group 265" transform="translate(1.619 0.803)">
      <path id="Subtraction_1" data-name="Subtraction 1" d="M5.86,16.645h0c-.17,0-.342-.008-.511-.024a5.991,5.991,0,0,1-3.033-1.08,5.193,5.193,0,0,1-1.1-1.105,6.3,6.3,0,0,1-.8-1.486,6.048,6.048,0,0,1-.384-1.568,5.15,5.15,0,0,1,.068-1.5A5.522,5.522,0,0,1,.589,8.454a7.156,7.156,0,0,1,.9-1.35l.2-.237a9.9,9.9,0,0,0,.85-1.1,3.109,3.109,0,0,0,.471-2.107.294.294,0,0,1,.008-.081c0-.014.005-.03.008-.048a1.673,1.673,0,0,1,.5.564,4.684,4.684,0,0,1,.29.676l.012.032.02.005.059.015c.058-.1.119-.2.178-.295A7.408,7.408,0,0,0,4.45,3.87,5.161,5.161,0,0,0,4.786.6h0A2.6,2.6,0,0,0,4.742.323,2.715,2.715,0,0,1,4.69,0h0a6.229,6.229,0,0,1,.764,1.482A5.952,5.952,0,0,1,5.84,3.111a3.371,3.371,0,0,1-.186,1.355,3.147,3.147,0,0,1-.736,1.146A9.493,9.493,0,0,0,2.939,8.32a3.826,3.826,0,0,0,.188,3.867,3.276,3.276,0,0,0,2.559,1.431,4.188,4.188,0,0,0,.535.037,2.384,2.384,0,0,0,.98-.19A3.116,3.116,0,0,0,8.869,11.74c.252.274.5.55.794.868a1.326,1.326,0,0,0-.3-1.1,2.21,2.21,0,0,0-1.783-.806,3.415,3.415,0,0,0-.886.124c.08-.074.359-.364.629-.645h0c.238-.247.462-.481.525-.54H7.781a2.212,2.212,0,0,0-1.7.57A1.222,1.222,0,0,0,5.9,11.281a5.661,5.661,0,0,0,.2.667c.033.1.067.193.1.29.019.063.04.122.065.19l0,.012H6.233a2.089,2.089,0,0,1-1.1-.32,2.736,2.736,0,0,1-.736-.667,4.011,4.011,0,0,1-.646-1.083,2.553,2.553,0,0,1-.228-1.264,3.964,3.964,0,0,1,.317-1.241,4.511,4.511,0,0,1,1.192-1.63A3.568,3.568,0,0,0,6.261,4.3a4.252,4.252,0,0,0,.051-.711c0-.1,0-.211.008-.316a1.418,1.418,0,0,1,.792.5,1.732,1.732,0,0,1,.426.917,2.507,2.507,0,0,1,.01.272c0,.418,0,.418.415.427h.02l.173,0a3.635,3.635,0,0,0,2.263-.658,4.249,4.249,0,0,0,.381-.337h0c.062-.059.125-.12.194-.183a2.678,2.678,0,0,1-.1,1.43,2.968,2.968,0,0,1-.821,1.164,2.467,2.467,0,0,0,1.695.6,5.594,5.594,0,0,0,1.144-.139,2.165,2.165,0,0,1-.657.979,2.273,2.273,0,0,1-1.1.459,2.939,2.939,0,0,1,.746.648,2.7,2.7,0,0,1,.436.774,5.513,5.513,0,0,1,.263,1.842l-.2-.13-.7-.447c-.027.117-.051.233-.075.345-.053.25-.1.486-.172.716a5.778,5.778,0,0,1-.832,1.69,6.027,6.027,0,0,1-2.927,2.19A5.608,5.608,0,0,1,5.86,16.645Zm.486-9.808h0l-.33.585.33.585h.659l.33-.585-.33-.585Z" transform="translate(6.489 2.197)" fill="url(#linear-gradient-2)"/>
      <path id="shadowover" d="M101.29,211.3a5.67,5.67,0,0,0,2.71,9.616c.609.076,4.429-1.117,4.445-4.7,0,0-1.189,3.042-4.61,1.468a3.4,3.4,0,0,1-1.719-2.535c-.115-.54-.8-1.2-.975-2.008C101.007,212.513,101.379,211.717,101.29,211.3Z" transform="translate(-93.077 -202.241)" opacity="0.7" fill="url(#linear-gradient-3)"/>
      <path id="Polygon_2" data-name="Polygon 2" d="M.524,0,.7.352.524.7H.175L0,.352.175,0Z" transform="translate(12.829 9.258)" fill="#f1f1f1"/>
    </g>
  </g>
</svg>
