<svg xmlns="http://www.w3.org/2000/svg" xmlns:xlink="http://www.w3.org/1999/xlink" width="556" height="182" viewBox="0 0 556 182">
  <defs>
    <linearGradient id="linear-gradient" x1="0.5" x2="0.5" y2="1" gradientUnits="objectBoundingBox">
      <stop offset="0" stop-color="#00c4ff"/>
      <stop offset="1" stop-color="#1a69f4"/>
    </linearGradient>
    <linearGradient id="linear-gradient-2" x1="0.5" x2="0.5" y2="1" gradientUnits="objectBoundingBox">
      <stop offset="0" stop-color="#fff"/>
      <stop offset="1" stop-color="#fff"/>
    </linearGradient>
    <linearGradient id="linear-gradient-3" x1="0.5" x2="0.5" y2="1" gradientUnits="objectBoundingBox">
      <stop offset="0" stop-color="#ddd"/>
      <stop offset="1" stop-color="#f7f7f7"/>
    </linearGradient>
    <linearGradient id="linear-gradient-5" x1="0.5" x2="0.5" y2="1" gradientUnits="objectBoundingBox">
      <stop offset="0" stop-color="#54aefc"/>
      <stop offset="0.445" stop-color="#3289e9"/>
      <stop offset="1" stop-color="#5848d2"/>
    </linearGradient>
    <linearGradient id="linear-gradient-6" x1="0.5" x2="0.5" y2="1" gradientUnits="objectBoundingBox">
      <stop offset="0" stop-color="#ffd500"/>
      <stop offset="1" stop-color="#f49d1a"/>
    </linearGradient>
    <linearGradient id="linear-gradient-8" x1="0.5" x2="0.5" y2="1" gradientUnits="objectBoundingBox">
      <stop offset="0" stop-color="#ffd500"/>
      <stop offset="1" stop-color="#f4711a"/>
    </linearGradient>
    <linearGradient id="linear-gradient-10" x1="0.5" x2="0.5" y2="1" gradientUnits="objectBoundingBox">
      <stop offset="0" stop-color="#f772a3"/>
      <stop offset="1" stop-color="#dd4857"/>
    </linearGradient>
    <linearGradient id="linear-gradient-11" x1="0.5" x2="0.5" y2="1" gradientUnits="objectBoundingBox">
      <stop offset="0" stop-color="#7295f7"/>
      <stop offset="1" stop-color="#4853dd"/>
    </linearGradient>
    <linearGradient id="linear-gradient-12" x1="0.5" x2="0.5" y2="1" gradientUnits="objectBoundingBox">
      <stop offset="0" stop-color="#ff714e"/>
      <stop offset="0.219" stop-color="#f66146"/>
      <stop offset="1" stop-color="#d62a2a"/>
    </linearGradient>
    <linearGradient id="linear-gradient-13" x1="0.5" x2="0.5" y2="1" gradientUnits="objectBoundingBox">
      <stop offset="0" stop-color="#435d80"/>
      <stop offset="1" stop-color="#0e356b"/>
    </linearGradient>
    <linearGradient id="linear-gradient-14" x1="0.208" y1="0.156" x2="0.638" y2="1.067" xlink:href="#linear-gradient"/>
    <clipPath id="clip-path">
      <rect id="Rectangle_322" data-name="Rectangle 322" width="78.179" height="80.923" transform="translate(45.12 34.69)" fill="none"/>
    </clipPath>
  </defs>
  <g id="icons" transform="translate(-642.806 -109.038)">
    <g id="lines" transform="translate(763.618 141.236)" style="isolation: isolate">
      <path id="Path_942" data-name="Path 942" d="M28.57,4.5-1.6,23.353" transform="translate(2.02 8.772)" fill="none" stroke="#5fafe6" stroke-width="1" stroke-dasharray="2"/>
      <path id="Path_944" data-name="Path 944" d="M25.564,0,0,24.169" transform="matrix(0.259, 0.966, -0.966, 0.259, 23.345, 56.041)" fill="none" stroke="#5fafe6" stroke-width="1" stroke-dasharray="2"/>
      <line id="Line_64" data-name="Line 64" y1="66.368" transform="translate(240.103 17.066)" fill="none" stroke="#f4a018" stroke-width="1" stroke-dasharray="2"/>
      <line id="Line_71" data-name="Line 71" y1="66.368" transform="translate(333.65 17.066)" fill="none" stroke="#02bafd" stroke-width="1" stroke-dasharray="2"/>
      <line id="Line_65" data-name="Line 65" x1="24.019" y1="8.849" transform="translate(361.462 104.924)" fill="none" stroke="#5466e4" stroke-width="1" stroke-dasharray="2"/>
      <line id="Line_66" data-name="Line 66" x1="24.019" y2="17.698" transform="translate(361.462 59.415)" fill="none" stroke="#6682ef" stroke-width="1" stroke-dasharray="2"/>
      <line id="Line_61" data-name="Line 61" x2="31.604" transform="translate(84.613)" fill="none" stroke="#0c99f9" stroke-width="1" stroke-dasharray="2"/>
      <line id="Line_67" data-name="Line 67" x2="31.604" transform="translate(181.952)" fill="none" stroke="#3284e7" stroke-width="1" stroke-dasharray="2"/>
      <line id="Line_70" data-name="Line 70" x2="32.868" transform="translate(275.499)" fill="none" stroke="#f9b60e" stroke-width="1" stroke-dasharray="2"/>
      <line id="Line_62" data-name="Line 62" x2="35.396" transform="translate(272.971 94.811)" fill="none" stroke="#f9a00d" stroke-width="1" stroke-dasharray="2"/>
      <line id="Line_68" data-name="Line 68" x2="35.396" transform="translate(176.896 94.811)" fill="none" stroke="#0c97f9" stroke-width="1" stroke-dasharray="2"/>
      <line id="Line_69" data-name="Line 69" x2="35.396" transform="translate(82.716 94.811)" fill="none" stroke="#ea5d7e" stroke-width="1" stroke-dasharray="2"/>
    </g>
    <g id="phenix" transform="translate(642.806 133.019)">
      <path id="Polygon_3" data-name="Polygon 3" d="M86.035,0a20,20,0,0,1,17.259,9.894l20.788,35.5a20,20,0,0,1,0,20.213l-20.788,35.5A20,20,0,0,1,86.035,111H43.965a20,20,0,0,1-17.259-9.894L5.918,65.606a20,20,0,0,1,0-20.213l20.788-35.5A20,20,0,0,1,43.965,0Z" transform="translate(0 0.019)" fill="url(#linear-gradient)"/>
      <path id="Subtraction_1" data-name="Subtraction 1" d="M30.392,86.006h0c-.88,0-1.771-.042-2.648-.124A31.138,31.138,0,0,1,12.014,80.3,26.885,26.885,0,0,1,6.287,74.59a32.519,32.519,0,0,1-4.161-7.679,31.158,31.158,0,0,1-1.99-8.1,26.515,26.515,0,0,1,.351-7.75,28.463,28.463,0,0,1,2.566-7.375A36.967,36.967,0,0,1,7.71,36.709c.348-.416.715-.846,1.038-1.227a51.2,51.2,0,0,0,4.409-5.708A16.018,16.018,0,0,0,15.6,18.885a1.516,1.516,0,0,1,.042-.419c.013-.072.028-.154.043-.249a8.657,8.657,0,0,1,2.568,2.917,24.158,24.158,0,0,1,1.5,3.495l.06.163.1.026.306.077c.3-.513.619-1.027.926-1.524A38.244,38.244,0,0,0,23.079,20c2.378-4.958,2.948-10.491,1.742-16.916h0a13.393,13.393,0,0,0-.233-1.412A13.982,13.982,0,0,1,24.321,0l0,0a32.145,32.145,0,0,1,3.961,7.66,30.663,30.663,0,0,1,2,8.417,17.36,17.36,0,0,1-.963,7A16.255,16.255,0,0,1,25.5,29c-4.862,4.9-8.123,9.341-10.263,13.988-3.289,7.154-2.962,13.876.973,19.981,2.739,4.247,6.955,6.6,13.269,7.4a21.8,21.8,0,0,0,2.774.192,12.4,12.4,0,0,0,5.081-.979A16.125,16.125,0,0,0,46,60.662c1.305,1.415,2.613,2.841,4.115,4.486a6.836,6.836,0,0,0-1.56-5.662A11.48,11.48,0,0,0,39.3,55.322a17.769,17.769,0,0,0-4.593.641c.417-.381,1.864-1.881,3.264-3.332l0,0c1.232-1.277,2.4-2.483,2.725-2.788l-.351,0c-2.947,0-6.87.511-8.827,2.945a6.3,6.3,0,0,0-.949,5.507,29.174,29.174,0,0,0,1.045,3.449c.172.492.348,1,.509,1.5.1.324.208.63.336.983l.022.061h-.162a10.862,10.862,0,0,1-5.7-1.653,14.168,14.168,0,0,1-3.817-3.446,20.71,20.71,0,0,1-3.351-5.594,13.152,13.152,0,0,1-1.185-6.53,20.423,20.423,0,0,1,1.646-6.414A23.313,23.313,0,0,1,26.1,32.223c2.514-2.28,5.509-5.478,6.369-10.016a21.9,21.9,0,0,0,.264-3.675c.008-.536.017-1.089.043-1.633a7.358,7.358,0,0,1,4.107,2.592A8.936,8.936,0,0,1,39.1,24.227a12.907,12.907,0,0,1,.051,1.4c-.017,2.158-.017,2.158,2.152,2.206l.1,0c.3.008.6.012.9.012,4.845,0,8.575-1.081,11.738-3.4a22.011,22.011,0,0,0,1.978-1.742l0,0c.32-.3.65-.619,1.008-.945a13.789,13.789,0,0,1-.506,7.39,15.334,15.334,0,0,1-4.258,6.016,12.823,12.823,0,0,0,8.788,3.114,29.11,29.11,0,0,0,5.932-.717,11.183,11.183,0,0,1-3.409,5.057A11.812,11.812,0,0,1,57.847,45a15.225,15.225,0,0,1,3.87,3.35,13.953,13.953,0,0,1,2.26,4,28.394,28.394,0,0,1,1.366,9.517l-1.056-.671c-1.307-.831-2.437-1.549-3.64-2.308-.139.605-.267,1.2-.391,1.781-.277,1.292-.538,2.51-.89,3.7a29.814,29.814,0,0,1-4.315,8.734A31.245,31.245,0,0,1,39.875,84.407,29.179,29.179,0,0,1,30.392,86.006Zm2.519-50.678h0L31.2,38.352l1.709,3.024h3.418l1.709-3.024-1.709-3.024Z" transform="translate(30.86 9.365)" fill="url(#linear-gradient-2)"/>
      <path id="shadowover" d="M108.489,211.3c-14.823,14.057-11.851,43.009,14.054,49.687,3.159.394,22.968-5.77,23.053-24.261,0,0-6.165,15.718-23.907,7.585,0,0-7.036-3.065-8.914-13.1-.6-2.791-4.15-6.181-5.055-10.376C107.021,217.567,108.95,213.457,108.489,211.3Z" transform="translate(-68.69 -166.476)" opacity="0.7" fill="url(#linear-gradient-3)"/>
      <path id="Polygon_2" data-name="Polygon 2" d="M2.719,0l.906,1.817L2.719,3.635H.906L0,1.817.906,0Z" transform="translate(63.737 45.852)" fill="#f1f1f1"/>
    </g>
    <g id="webpack-ts-js" transform="translate(784.391 109)">
      <g id="icon" transform="translate(0)">
        <path id="Polygon_4" data-name="Polygon 4" d="M50.139,0a8,8,0,0,1,6.922,3.99l13.615,23.5a8,8,0,0,1,0,8.021L57.061,59.01A8,8,0,0,1,50.139,63H22.861a8,8,0,0,1-6.922-3.99L2.324,35.51a8,8,0,0,1,0-8.021L15.939,3.99A8,8,0,0,1,22.861,0Z" transform="translate(0.415 0.038)" fill="url(#linear-gradient)"/>
        <path id="webpack" d="M33.034,24.677a1.762,1.762,0,0,1-.922,1.56L18.639,33.825a1.774,1.774,0,0,1-.922.213,1.089,1.089,0,0,1-.922-.355L3.322,26.237a1.762,1.762,0,0,1-.922-1.56V9.36A1.762,1.762,0,0,1,3.322,7.8L16.795.213A1.774,1.774,0,0,1,17.717,0a1.089,1.089,0,0,1,.922.355L32.112,7.942a1.818,1.818,0,0,1,.922,1.56ZM17.717,3.687,5.8,10.353V23.684l11.913,6.807L29.63,23.755v-13.4Zm0,3.546,8.368,4.822-8.368,4.822L9.349,12.055Zm8.509,14.75-6.807,3.9v-6.1l6.807-3.9Zm-10.211,3.9-6.807-3.9v-6.1l6.807,3.9Z" transform="translate(19.491 14.081)" fill="#fff"/>
      </g>
      <g id="icon-2" data-name="icon" transform="translate(92.283)">
        <path id="Polygon_4-2" data-name="Polygon 4" d="M49.357,0A8,8,0,0,1,56.3,4.031l13.429,23.5a8,8,0,0,1,0,7.938L56.3,58.969A8,8,0,0,1,49.357,63H22.643A8,8,0,0,1,15.7,58.969L2.268,35.469a8,8,0,0,1,0-7.938L15.7,4.031A8,8,0,0,1,22.643,0Z" transform="translate(0.132 0.038)" fill="url(#linear-gradient-5)"/>
        <text id="TS" transform="translate(16.132 44.038)" fill="#fff" font-size="34" font-family="BioSans-Bold, Bio Sans" font-weight="700" letter-spacing="0.03em"><tspan x="0" y="0">TS</tspan></text>
      </g>
      <g id="icon-3" data-name="icon" transform="translate(183.302 1.264)">
        <path id="Polygon_4-3" data-name="Polygon 4" d="M50.958,0a8,8,0,0,1,6.87,3.9l13.726,23a8,8,0,0,1,0,8.2l-13.726,23a8,8,0,0,1-6.87,3.9H23.042a8,8,0,0,1-6.87-3.9L2.447,35.1a8,8,0,0,1,0-8.2l13.726-23A8,8,0,0,1,23.042,0Z" transform="translate(0.113 -0.227)" fill="url(#linear-gradient-6)"/>
        <g id="javascript" transform="translate(20.634 17.938)">
          <path id="Path_940" data-name="Path 940" d="M-371.15-42h-5.824v15.691c0,3.906-1.3,4.933-3.632,4.933a8.385,8.385,0,0,1-2.809-.411l-.685,4.522a12.826,12.826,0,0,0,4.043.548c5.276,0,8.908-2.467,8.908-9.661Z" transform="translate(384.1 42.617)" fill="#fff"/>
          <path id="Path_941" data-name="Path 941" d="M-350.744-42.9c-5.687,0-9.319,3.22-9.319,7.469,0,3.7,2.809,6.03,6.852,7.469,2.878,1.1,4.043,1.987,4.043,3.495,0,1.644-1.3,2.741-3.906,2.741a13.6,13.6,0,0,1-5.961-1.576l-1.165,4.591a15.027,15.027,0,0,0,6.646,1.576c6.646,0,9.8-3.563,9.8-7.743,0-3.563-1.987-5.824-6.235-7.469-3.22-1.233-4.522-1.987-4.522-3.563,0-1.233,1.165-2.4,3.563-2.4a10.9,10.9,0,0,1,4.865,1.233l1.37-4.728A13.828,13.828,0,0,0-350.744-42.9Z" transform="translate(376.576 42.9)" fill="#fff"/>
        </g>
      </g>
      <g id="icon-4" data-name="icon" transform="translate(284.434 8.849)">
        <path id="Polygon_4-4" data-name="Polygon 4" d="M39.036,0a8,8,0,0,1,6.808,3.8l9.564,15.5a8,8,0,0,1,0,8.4L45.844,43.2A8,8,0,0,1,39.036,47H18.964a8,8,0,0,1-6.808-3.8L2.592,27.7a8,8,0,0,1,0-8.4L12.156,3.8A8,8,0,0,1,18.964,0Z" transform="translate(-0.019 0.189)" fill="url(#linear-gradient)"/>
        <path id="react" d="M25.263,11.528c-.315-.063-.629-.252-1.007-.315.063-.252.063-.44.126-.692.755-3.523.252-6.292-1.321-7.235s-4.09,0-6.606,2.265c-.252.252-.5.44-.755.692l-.44-.44c-2.705-2.391-5.348-3.4-6.984-2.391-1.51.881-2.013,3.523-1.384,6.858a5.891,5.891,0,0,0,.252,1.007,7.968,7.968,0,0,0-1.132.377C2.865,12.723.6,14.422.6,16.247s2.391,3.712,5.662,4.845a4.07,4.07,0,0,1,.818.252,6.582,6.582,0,0,1-.252,1.07C6.2,25.621,6.7,28.264,8.276,29.207c1.573.881,4.278,0,6.858-2.328.252-.126.377-.377.629-.629a9.677,9.677,0,0,0,.818.755c2.517,2.2,4.97,3.02,6.543,2.2,1.573-.881,2.139-3.712,1.447-7.11-.063-.252-.063-.5-.126-.818a2.855,2.855,0,0,0,.5-.126c3.4-1.132,5.851-2.957,5.851-4.845C30.737,14.3,28.409,12.6,25.263,11.528Zm-7.99-5.033c2.2-1.887,4.215-2.642,5.222-2.139,1.007.629,1.384,2.831.755,5.851-.063.252-.063.377-.126.629a27.39,27.39,0,0,0-3.964-.629,19.928,19.928,0,0,0-2.517-3.083A5.932,5.932,0,0,1,17.273,6.495ZM10.478,19.141c.315.5.629,1.07.881,1.51a20.187,20.187,0,0,1-2.705-.44A28,28,0,0,1,9.66,17.568,6.2,6.2,0,0,0,10.478,19.141Zm-1.825-7.11a12.158,12.158,0,0,1,2.705-.44,11.854,11.854,0,0,0-.881,1.51,8.9,8.9,0,0,0-.818,1.51,21.822,21.822,0,0,1-1.007-2.58Zm1.573,4.09c.377-.818.818-1.573,1.258-2.391a22.721,22.721,0,0,1,1.447-2.265c.881-.063,1.825-.063,2.705-.063s1.825,0,2.705.063c.5.755,1.007,1.51,1.447,2.265s.881,1.573,1.258,2.391c-.377.818-.818,1.573-1.258,2.391a22.721,22.721,0,0,1-1.447,2.265c-.881.063-1.825.063-2.705.063s-1.825,0-2.705-.063c-.5-.755-1.007-1.51-1.447-2.265s-.755-1.573-1.258-2.391Zm10.633,3.02a9.4,9.4,0,0,0,.818-1.573c.377.818.692,1.762,1.007,2.642a13.379,13.379,0,0,1-2.768.44,4.977,4.977,0,0,0,.944-1.51Zm.944-4.467c-.315-.5-.5-1.07-.818-1.51-.315-.5-.629-1.007-.881-1.51,1.007.126,1.887.315,2.705.44a21.822,21.822,0,0,0-1.007,2.58ZM15.7,8.067c.629.692,1.2,1.384,1.762,2.139a31.745,31.745,0,0,0-3.46,0A8.226,8.226,0,0,1,15.7,8.067ZM8.9,4.418c1.007-.629,3.146.252,5.474,2.265a2.35,2.35,0,0,0,.44.377c-.881,1.007-1.762,2.013-2.58,3.083a27.389,27.389,0,0,0-3.964.629,3.607,3.607,0,0,0-.252-.881C7.521,7.061,7.9,4.985,8.9,4.418Zm-1.51,15.54a5.283,5.283,0,0,1-.755-.252,12.761,12.761,0,0,1-3.712-1.825A2.575,2.575,0,0,1,1.8,16.121c0-1.07,1.887-2.517,4.53-3.4a5.315,5.315,0,0,1,1.07-.315,27.447,27.447,0,0,0,1.447,3.775,38.936,38.936,0,0,0-1.447,3.775Zm6.858,5.725a14.336,14.336,0,0,1-3.335,2.139,2.545,2.545,0,0,1-2.139.063c-.881-.5-1.384-2.642-.818-5.411a5.891,5.891,0,0,1,.252-1.007,40.047,40.047,0,0,0,3.964.629,20.818,20.818,0,0,0,2.58,3.146c-.126.126-.315.252-.5.44Zm1.51-1.447c-.629-.629-1.2-1.384-1.825-2.139H15.7a17.681,17.681,0,0,0,1.825-.063A22.469,22.469,0,0,1,15.763,24.237Zm7.676,1.825a2.356,2.356,0,0,1-1.007,1.825c-.881.5-2.957-.126-5.1-2.013-.252-.252-.5-.44-.755-.692A30.621,30.621,0,0,0,19.1,22.035a20.058,20.058,0,0,0,3.964-.629c.063.252.063.44.126.755a10.072,10.072,0,0,1,.252,3.9Zm1.07-6.355c-.126.063-.315.063-.5.126a21.485,21.485,0,0,0-1.51-3.775,18.937,18.937,0,0,0,1.447-3.712,2.114,2.114,0,0,1,.881.315c2.705,1.007,4.656,2.328,4.656,3.4,0,1.2-2.076,2.705-4.97,3.649ZM15.7,18.826a2.705,2.705,0,1,0-2.705-2.705A2.685,2.685,0,0,0,15.7,18.826Z" transform="translate(13.376 6.882)" fill="#fff"/>
      </g>
    </g>
    <g id="sass-css-html5" transform="translate(784.391 203.811)">
      <g id="icon-5" data-name="icon" transform="translate(183.302 0)">
        <path id="Polygon_4-5" data-name="Polygon 4" d="M50.958,0a8,8,0,0,1,6.87,3.9l13.726,23a8,8,0,0,1,0,8.2l-13.726,23a8,8,0,0,1-6.87,3.9H23.042a8,8,0,0,1-6.87-3.9L2.447,35.1a8,8,0,0,1,0-8.2l13.726-23A8,8,0,0,1,23.042,0Z" transform="translate(0.113 0.226)" fill="url(#linear-gradient-8)"/>
        <path id="html5" d="M0,32,2.445,59.726l10.97,3.657,11.04-3.657L26.9,32Zm21.59,8.96H8.714L9,44.42H21.3l-.953,10.4-6.858,1.891v.021h-.077L6.5,54.816l-.42-5.31H9.422l.245,2.669,3.748,1.016,3.762-1.016.42-4.357H5.905l-.9-10.2H21.9Z" transform="translate(23.824 -16.803)" fill="#fff"/>
      </g>
      <g id="icon-6" data-name="icon" transform="translate(91.019 0)">
        <path id="Polygon_4-6" data-name="Polygon 4" d="M50.176,0A8,8,0,0,1,57.07,3.941l13.54,23a8,8,0,0,1,0,8.117l-13.54,23A8,8,0,0,1,50.176,62H22.824a8,8,0,0,1-6.894-3.941l-13.54-23a8,8,0,0,1,0-8.117l13.54-23A8,8,0,0,1,22.824,0Z" transform="translate(0.396 0.226)" fill="url(#linear-gradient)"/>
        <path id="css3-alt" d="M0,32,2.482,60.148,13.654,63.86l11.172-3.712L27.309,32Zm22.267,5.689-.341,3.364-8.2,3.506-.021.007h7.929l-.91,10.426L13.74,57.033,6.713,54.956,6.258,49.7H9.736l.228,2.724,3.741.946,3.89-1.1.263-4.381L6.031,47.859v-.007l-.014.007L5.76,44.566l7.972-3.321.462-.192H5.455l-.412-3.364Z" transform="translate(23.133 -16.803)" fill="#fff"/>
      </g>
      <g id="icon-7" data-name="icon" transform="translate(0 0)">
        <path id="Polygon_4-7" data-name="Polygon 4" d="M49.357,0A8,8,0,0,1,56.3,4.031l13.429,23.5a8,8,0,0,1,0,7.938L56.3,58.969A8,8,0,0,1,49.357,63H22.643A8,8,0,0,1,15.7,58.969L2.268,35.469a8,8,0,0,1,0-7.938L15.7,4.031A8,8,0,0,1,22.643,0Z" transform="translate(0.415 0.226)" fill="url(#linear-gradient-10)"/>
        <path id="sass" d="M45.145,29.514a3.6,3.6,0,0,0-1.787-2.822c.188.188.47.376,0,0-.658-.47-.376-.188,0,0-2.445-1.787-5.737-1.317-8.559-.47a5.429,5.429,0,0,1-.564-5.079.344.344,0,0,0-.188-.47,5.575,5.575,0,0,0-2.163,0c-.188.094-.376.094-.47.376a17.222,17.222,0,0,1-3.01,5.831,5,5,0,0,1-.188-4.609.344.344,0,0,0-.188-.47,3.7,3.7,0,0,0-2.257,0c-.752.188-1.881,3.95-2.257,4.609-.752,1.6-1.5,3.95-2.728,5.173-1.129-1.317,1.975-4.514,1.035-5.737a.79.79,0,0,0-1.317,0,5.105,5.105,0,0,0,0-1.693,1.328,1.328,0,0,0-1.317-.941c-1.6,0-2.916,1.223-3.95,2.351-.941,1.035-3.292,1.693-4.609,2.351-2.257-1.881-6.96-3.95-7.054-7.148C3.48,17.1,7.806,14.56,10.722,13.149c3.856-1.881,9.687-4.42,13.92-2.257a2.375,2.375,0,0,1,1.223,2.916c-.752,3.01-4.138,5.079-7.054,5.925a12.527,12.527,0,0,1-4.514.658,7.642,7.642,0,0,1-3.856-1.5c-.188,0-.094.188-.094.376,2.163,5.455,12.7,1.5,15.425-1.317a7.893,7.893,0,0,0,2.445-4.7,4.235,4.235,0,0,0-2.728-4.609C18.622,5.625,9.217,9.763,4.044,13.9,1.787,15.689-1.035,18.6.376,21.614,1.693,25,6.113,26.693,8.841,28.668c-2.257,1.129-5.079,2.257-6.49,4.42a4.056,4.056,0,0,0-.564,3.856c1.129,2.445,5.173,1.317,6.866.376a6.579,6.579,0,0,0,3.01-3.95,6.043,6.043,0,0,0-.376-4.42l2.445-1.223c-.658,1.975-1.035,4.609.47,6.4a1.711,1.711,0,0,0,2.539,0,22.289,22.289,0,0,0,1.787-3.292,7.039,7.039,0,0,0,.094,2.445,1.088,1.088,0,0,0,1.787.47c2.351-1.6,3.856-6.019,4.985-8.653a15.242,15.242,0,0,0,1.223,3.1.579.579,0,0,1-.094.658c-.941.941-2.916,2.445-3.01,3.856,0,.376.094.564.47.658a5.734,5.734,0,0,0,4.044-1.035,2.653,2.653,0,0,0,1.223-3.1c-.47-1.787,1.035-3.856,2.257-5.361a8.766,8.766,0,0,0,1.223,3.292C31.6,28.2,29.908,29.608,30.191,31.3a1.132,1.132,0,0,0,1.223.941,7.849,7.849,0,0,0,3.48-1.881,2.7,2.7,0,0,0,.094-3.01,11.054,11.054,0,0,1,6.3,0,4.533,4.533,0,0,1,2.351,1.787A2.009,2.009,0,0,1,42.7,31.96c-.376.188-.47.376-.376.47s.47.188,1.129-.188a2.633,2.633,0,0,0,1.317-1.881,1.053,1.053,0,0,0,.376-.846ZM10.157,31.772a4.8,4.8,0,0,1-1.975,3.574A3.824,3.824,0,0,1,5.831,36.38c-.752.094-1.5-.094-1.6-1.035-.094-2.351,3.574-4.8,5.643-5.455A3.31,3.31,0,0,1,10.157,31.772Zm9.029-6.4c-.376,1.881-1.317,5.455-2.822,6.866-.188.188-.376.188-.564-.188-.941-2.163.376-6.49,2.916-7.148.376.094.47.188.47.47Zm6.207,7.148c.752-.752,1.5-1.6,2.257-2.351C27.651,31.113,26.052,32.806,25.394,32.524Zm7.054-1.6c-.188.094-.658.188-.658.094-.094-1.035,1.035-2.163,1.787-2.728A2.05,2.05,0,0,1,32.448,30.925Z" transform="translate(16.608 7.354)" fill="#fff"/>
      </g>
    </g>
    <g id="php" transform="translate(1061.24 203.811)">
      <path id="Polygon_4-8" data-name="Polygon 4" d="M50.958,0a8,8,0,0,1,6.87,3.9l13.726,23a8,8,0,0,1,0,8.2l-13.726,23a8,8,0,0,1-6.87,3.9H23.042a8,8,0,0,1-6.87-3.9L2.447,35.1a8,8,0,0,1,0-8.2l13.726-23A8,8,0,0,1,23.042,0Z" transform="translate(-0.434 0.226)" fill="url(#linear-gradient-11)"/>
      <path id="php-outline" d="M24.362,12.618c12.993,0,23.144,5.481,23.144,11.572S37.558,35.762,24.362,35.762c-12.993,0-23.144-5.481-23.144-11.572S11.369,12.618,24.362,12.618m0-1.218C10.963,11.4,0,17.084,0,24.19S10.963,36.98,24.362,36.98,48.724,31.3,48.724,24.19,37.761,11.4,24.362,11.4ZM16.546,23.175c-.609,3.045-2.639,2.842-5.38,2.842l1.117-5.38C15.226,20.536,17.155,20.333,16.546,23.175ZM7.41,31.4h2.842l.609-3.451c3.147,0,5.075.2,6.8-1.421,1.929-1.827,2.538-5.075,1.117-6.7a4.559,4.559,0,0,0-3.553-1.218H9.846ZM21.52,15.054h2.842l-.609,3.451c2.436,0,4.669-.1,5.684.812,1.117,1.117.609,2.335-.609,8.628H25.986c1.218-6.09,1.32-6.6,1.015-7.106-.609-.406-1.421-.406-3.756-.406l-1.421,7.309H18.982Zm16.952,8.121c-.609,3.147-2.842,2.842-5.38,2.842l1.015-5.481C37.051,20.536,38.979,20.333,38.472,23.175ZM29.234,31.4h2.842l.609-3.451c3.248,0,5.075.2,6.8-1.421,1.929-1.827,2.538-5.075,1.117-6.7a4.559,4.559,0,0,0-3.553-1.218h-5.38Z" transform="translate(12.298 6.782)" fill="#fff"/>
    </g>
    <g id="laravel" transform="translate(1142.146 243)">
      <path id="Polygon_4-9" data-name="Polygon 4" d="M38.2,0a8,8,0,0,1,6.879,3.916l9.5,16a8,8,0,0,1,0,8.169l-9.5,16A8,8,0,0,1,38.2,48H18.8a8,8,0,0,1-6.879-3.916l-9.5-16a8,8,0,0,1,0-8.169l9.5-16A8,8,0,0,1,18.8,0Z" transform="translate(-0.339 0.038)" fill="url(#linear-gradient-12)"/>
      <path id="laravel-2" data-name="laravel" d="M35.537,18.989c-.3-.3-3.5-4.388-4.09-5.057a1.2,1.2,0,0,0-1.264-.521c-.372.074-4.462.744-4.983.818-.446.074-.818.3-.446.744.3.372,2.975,4.165,3.57,5.057l-10.784,2.6L8.912,8.279c-.372-.521-.446-.744-1.19-.595-.818,0-6.768.521-7.14.521-.446,0-.892.149-.446,1.264S7.35,25.087,7.573,25.459a1.454,1.454,0,0,0,1.785.818c1.19-.3,5.28-1.339,7.511-1.934,1.19,2.157,3.57,6.4,4.016,7.065.595.818.967.744,1.859.446.744-.149,11.156-3.942,11.6-4.165.446-.149.744-.372.446-.818-.3-.372-2.975-4.016-4.462-5.95.967-.3,4.462-1.19,4.909-1.339.446-.074.595-.3.3-.595ZM15.9,23c-.074,0-6.173,1.487-6.545,1.487s-.372,0-.372-.074S1.772,9.618,1.7,9.469,1.624,9.1,1.7,9.1s5.727-.521,5.875-.521.149,0,.3.149c0,0,7.958,13.684,8.032,13.907.149.3.074.372,0,.372Zm17.031,3.272c.074.149.149.3-.074.372-.3.074-10.263,3.5-10.412,3.57s-.372.074-.595-.3c-.3-.372-3.5-5.95-3.5-5.95L28.918,21.22c.3-.074.372-.149.521.074.149.3,3.421,4.834,3.5,4.983Zm.744-7.511c-.3.074-4.09.967-4.09.967l-3.2-4.388c-.074-.074-.149-.3.074-.3.3,0,3.719-.595,3.867-.595a.525.525,0,0,1,.521.149c.3.3,2.975,3.719,3.049,3.867C34.05,18.617,33.826,18.766,33.678,18.766Z" transform="translate(10.191 5.82)" fill="#fff"/>
    </g>
    <g id="wordpress" transform="translate(1137.089 167.151)">
      <path id="Polygon_4-10" data-name="Polygon 4" d="M38.148,0a8,8,0,0,1,6.915,3.978l9.6,16.5a8,8,0,0,1,0,8.044l-9.6,16.5A8,8,0,0,1,38.148,49h-19.3a8,8,0,0,1-6.915-3.978l-9.6-16.5a8,8,0,0,1,0-8.044l9.6-16.5A8,8,0,0,1,18.852,0Z" transform="translate(-0.283 -0.113)" fill="url(#linear-gradient-13)"/>
      <path id="wordpress-simple" d="M20.881,8A12.881,12.881,0,1,0,33.761,20.881,12.9,12.9,0,0,0,20.881,8ZM9.3,20.881a11.5,11.5,0,0,1,1-4.711L15.827,31.3A11.591,11.591,0,0,1,9.3,20.881ZM20.881,32.463a11.537,11.537,0,0,1-3.272-.473l3.475-10.1,3.558,9.754a1.566,1.566,0,0,0,.083.161A11.6,11.6,0,0,1,20.881,32.463Zm1.595-17.01c.7-.036,1.324-.109,1.324-.109a.479.479,0,0,0-.073-.956s-1.875.145-3.085.145c-1.137,0-3.049-.145-3.049-.145a.479.479,0,0,0-.073.956s.592.073,1.215.109l1.8,4.945L18,28,13.786,15.453c.7-.036,1.324-.109,1.324-.109a.479.479,0,0,0-.073-.956s-1.875.145-3.085.145c-.218,0-.473-.005-.748-.016a11.582,11.582,0,0,1,17.5-2.181,1.467,1.467,0,0,0-.151-.01,2,2,0,0,0-1.942,2.057A5.424,5.424,0,0,0,27.747,17.1a6.078,6.078,0,0,1,.956,3.194,13.906,13.906,0,0,1-.883,3.745L26.667,27.9ZM26.7,30.889,30.24,20.663a10.955,10.955,0,0,0,.883-4.15,8.523,8.523,0,0,0-.078-1.189A11.583,11.583,0,0,1,26.7,30.889Z" transform="translate(7.961 3.264)" fill="#fff"/>
    </g>
    <g id="pds-icon" transform="translate(645.988 133.038)">
      <path id="icon-base" d="M135.632,0A13.479,13.479,0,0,1,147.3,6.739L171.5,48.784a13.479,13.479,0,0,1,0,13.433L147.3,104.261A13.479,13.479,0,0,1,135.632,111H87.278a13.463,13.463,0,0,1-11.656-6.739L51.452,62.216a13.479,13.479,0,0,1,0-13.433L75.622,6.739A13.463,13.463,0,0,1,87.278,0Z" transform="translate(-49.659)" fill="url(#linear-gradient-14)"/>
      <g id="Group_524" data-name="Group 524" transform="translate(-22.391 -19.651)" clip-path="url(#clip-path)">
        <path id="Path_1680" data-name="Path 1680" d="M95.031,41.2c13.585,2.682,19.571,33.81,4.4,37.166,1.24,1.1,4.633,2.479,7.41,6.34,6.293,8.753,3.026,14.876,3.21,18.477a28.65,28.65,0,0,0,5.439-5.5c6.269-8.074,9.29-17.808,7.136-28.154a13.985,13.985,0,0,1-1.711,2.357c.316-12.943-11.6-31.407-25.882-30.685m-7.07,63.68c-9.686-3.941-33.127-4.765-41.762-15.932,4.464,9.663,15,13.255,25.18,15.489,9.47,2.079,21.159.641,24.039,11.157,1.805-4.407-2.767-8.814-7.443-10.714m6.25,10.544c-2.357-8.088-20.674-7.858-35.564-12.321-2.135-.636-7.8-2.677-8.645-3.3,15.607,11.968,30.638,6.891,41.305,13.16,1.885,1.15,1.621,1.348,2.9,2.465m6.161-50.086c-.08-7.381-6.024-7.438-10.139-7.636-.943-.047-5.963-1.716-9.564.057l-2.314-.028c-1.546,0-3.639.17-4.949-.82l-1.112-1.1c-.052-.052-.137-.146-.212-.212a7.32,7.32,0,0,0,1.815,4.714c.66.731,2.508,2.173,3.837,2.2l-1.57,4.77c-3.163,12.571,5.034,14.65,13.354,20.678,4.4,3.182,9.427,7.782,8.706,13.787.024-1.414-2.074-4.846-2.828-5.9C86.839,84.2,50.275,76.161,70.176,46.611A25.09,25.09,0,0,1,93.334,35.327c-.872-.17-1.819-.368-2.432-.434C67.918,32.518,48.838,49.675,47.971,72.536l-1.805-4c-1.541,3.427-1.339,11.591.42,15.187,3.648,9.036,15.588,12.92,24.2,15.06,11.935,2.965,28.329,2.574,25.647,15.913,5.265-1.287,12.788-13.669,11.878-20.334A19.472,19.472,0,0,0,93.541,78.023a8.666,8.666,0,0,1-3.408-1.188c-1.079-.688-1.716-1.739-2.536-2.083a16.389,16.389,0,0,1-1.24-3.3,8.145,8.145,0,0,1,3.017-7.6c3.728-3.064,7.641-.91,11.016,1.494m-13.5-5.953.471.33a.42.42,0,0,1,0,.7l-.471.3a.41.41,0,0,1-.236.061l-1.97-.033a.471.471,0,0,1-.236-.08l-.471-.33a.424.424,0,0,1,0-.7l.471-.3a.419.419,0,0,1,.236-.061l1.933.057A.471.471,0,0,1,86.89,59.394Z" transform="translate(-0.004 0.009)" fill="#fff" fill-rule="evenodd"/>
      </g>
    </g>
  </g>
</svg>
