<svg xmlns="http://www.w3.org/2000/svg" xmlns:xlink="http://www.w3.org/1999/xlink" width="28" height="24" viewBox="0 0 28 24">
  <defs>
    <linearGradient id="linear-gradient" x1="0.5" x2="0.5" y2="1" gradientUnits="objectBoundingBox">
      <stop offset="0" stop-color="#8772f7"/>
      <stop offset="1" stop-color="#5f48dd"/>
    </linearGradient>
  </defs>
  <g id="icon" transform="translate(-0.109 -72)">
    <path id="Polygon_4" data-name="Polygon 4" d="M16.405,0a8,8,0,0,1,6.91,3.969l2.333,4a8,8,0,0,1,0,8.062l-2.333,4A8,8,0,0,1,16.405,24h-4.81a8,8,0,0,1-6.91-3.969l-2.333-4a8,8,0,0,1,0-8.062l2.333-4A8,8,0,0,1,11.595,0Z" transform="translate(0.109 72)" fill="url(#linear-gradient)"/>
    <path id="wordpress-simple" d="M14.3,8a6.3,6.3,0,1,0,6.3,6.3A6.308,6.308,0,0,0,14.3,8ZM8.635,14.3a5.626,5.626,0,0,1,.49-2.3l2.7,7.4A5.67,5.67,0,0,1,8.635,14.3ZM14.3,19.966a5.643,5.643,0,0,1-1.6-.231L14.4,14.8l1.74,4.771a.766.766,0,0,0,.041.079A5.672,5.672,0,0,1,14.3,19.966Zm.78-8.321c.34-.018.648-.053.648-.053a.234.234,0,0,0-.036-.467s-.917.071-1.509.071c-.556,0-1.491-.071-1.491-.071a.234.234,0,0,0-.036.467s.29.036.595.053l.882,2.419-1.24,3.717L10.83,11.646c.34-.018.648-.053.648-.053a.234.234,0,0,0-.036-.467s-.917.071-1.509.071c-.107,0-.231,0-.366-.008a5.666,5.666,0,0,1,8.559-1.067.718.718,0,0,0-.074-.005.981.981,0,0,0-.95,1.006,2.653,2.653,0,0,0,.556,1.329,2.973,2.973,0,0,1,.467,1.562,6.8,6.8,0,0,1-.432,1.832l-.564,1.888ZM17.149,19.2l1.73-5a5.359,5.359,0,0,0,.432-2.03,4.17,4.17,0,0,0-.038-.582A5.666,5.666,0,0,1,17.149,19.2Z" transform="translate(-0.192 69.699)" fill="#fff"/>
  </g>
</svg>
