<svg xmlns="http://www.w3.org/2000/svg" xmlns:xlink="http://www.w3.org/1999/xlink" width="28" height="24" viewBox="0 0 28 24">
  <defs>
    <linearGradient id="linear-gradient" x1="0.5" x2="0.5" y2="1" gradientUnits="objectBoundingBox">
      <stop offset="0" stop-color="#00c4ff"/>
      <stop offset="1" stop-color="#1a69f4"/>
    </linearGradient>
  </defs>
  <g id="icon" transform="translate(-0.109)">
    <path id="Polygon_3" data-name="Polygon 3" d="M16.405,0a8,8,0,0,1,6.91,3.969l2.333,4a8,8,0,0,1,0,8.062l-2.333,4A8,8,0,0,1,16.405,24h-4.81a8,8,0,0,1-6.91-3.969l-2.333-4a8,8,0,0,1,0-8.062l2.333-4A8,8,0,0,1,11.595,0Z" transform="translate(0.109 0)" fill="url(#linear-gradient)"/>
    <path id="book" d="M2.989,3.55V2.8a.187.187,0,0,1,.187-.187H8.033A.187.187,0,0,1,8.22,2.8V3.55a.187.187,0,0,1-.187.187H3.176A.187.187,0,0,1,2.989,3.55ZM3.176,5.6H8.033a.187.187,0,0,0,.187-.187V4.671a.187.187,0,0,0-.187-.187H3.176a.187.187,0,0,0-.187.187v.747A.187.187,0,0,0,3.176,5.6Zm6.985,3.729a3.9,3.9,0,0,0,0,1.509.374.374,0,0,1,.3.367v.374a.375.375,0,0,1-.374.374H1.868A1.868,1.868,0,0,1,0,10.088V1.868A1.868,1.868,0,0,1,1.868,0h8.22a.375.375,0,0,1,.374.374V8.967A.373.373,0,0,1,10.161,9.334Zm-.96.007H1.868a.747.747,0,0,0,0,1.495H9.2A5.928,5.928,0,0,1,9.2,9.341Zm.14-8.22H1.868a.746.746,0,0,0-.747.747V8.377a1.853,1.853,0,0,1,.747-.156H9.341Z" transform="translate(8.718 6)" fill="#fff"/>
  </g>
</svg>
