<svg xmlns="http://www.w3.org/2000/svg" xmlns:xlink="http://www.w3.org/1999/xlink" width="393.712" height="374.822" viewBox="0 0 393.712 374.822">
  <defs>
    <clipPath id="clip-path">
      <rect id="Rectangle_281" data-name="Rectangle 281" width="393.712" height="363.315" transform="translate(0 53)" fill="none"/>
    </clipPath>
    <linearGradient id="linear-gradient" x1="0.5" x2="0.5" y2="1" gradientUnits="objectBoundingBox">
      <stop offset="0" stop-color="#f8c35b"/>
      <stop offset="1" stop-color="#fb955d"/>
    </linearGradient>
    <linearGradient id="linear-gradient-2" x1="0.5" x2="0.5" y2="1" gradientUnits="objectBoundingBox">
      <stop offset="0" stop-color="#00c4ff"/>
      <stop offset="1" stop-color="#1a69f4"/>
    </linearGradient>
    <clipPath id="clip-path-2">
      <path id="Path_1151" data-name="Path 1151" d="M78.178,143.123V343.995h33.134c0,18.3,11.207,33.133,49.7,33.133s49.7-14.834,49.7-33.133h33.134V143.123Z" transform="translate(-78.178 -143.123)" fill="none"/>
    </clipPath>
    <linearGradient id="linear-gradient-4" x1="0.5" x2="0.5" y2="1" gradientUnits="objectBoundingBox">
      <stop offset="0" stop-color="#8772f7"/>
      <stop offset="1" stop-color="#5f48dd"/>
    </linearGradient>
    <clipPath id="clip-path-3">
      <path id="Path_1163" data-name="Path 1163" d="M606.937,0V137.143H623.5c0,16.831,14.528,30.476,64.426,30.476s64.426-13.644,64.426-30.476h33.133V0Z" transform="translate(-606.937 68.609)" fill="none"/>
    </clipPath>
  </defs>
  <g id="illistration-2" transform="translate(0 -41.497)">
    <g id="Group_279" data-name="Group 279" transform="translate(0 0.004)">
      <g id="Group_278" data-name="Group 278" transform="translate(0 0)" clip-path="url(#clip-path)">
        <path id="Path_1126" data-name="Path 1126" d="M423.706,1387.121c0-4.575-74.172-8.283-165.667-8.283s-165.667,3.708-165.667,8.283,74.172,8.283,165.667,8.283,165.667-3.709,165.667-8.283" transform="translate(-65.591 -979.09)" fill="rgba(0,0,0,0.05)"/>
        <path id="Path_1127" data-name="Path 1127" d="M771.766,561.608,756.1,537.915c-5.695-8.616-7.625-20.176-8.551-30.135-1.759-18.938-4.726-46.964-30.138-69.852l.139-7.629a22.888,22.888,0,0,0-22.888-22.888H633.631a99.182,99.182,0,0,0-99.182,99.182c0,28.1,20.312,62.763,30.518,86.725,11.684,27.433,0,104.01,0,104.01H687.037V651.55A15.3,15.3,0,0,1,702.3,636.292h22.888A22.888,22.888,0,0,0,748.073,613.4V575.256h15.259c8.392,0,12.188-6.142,8.435-13.648" transform="translate(-379.503 -289.295)" fill="url(#linear-gradient)"/>
        <path id="Path_1128" data-name="Path 1128" d="M728.5,518.52c49.9,0,64.426,19.23,64.426,42.951S778.4,604.421,728.5,604.421s-64.426-19.23-64.426-42.951S678.605,518.52,728.5,518.52" transform="translate(-471.55 -368.193)" fill="#2c3e50"/>
        <path id="Path_1129" data-name="Path 1129" d="M749.98,561.471c18.766,0,32.524,2.722,42.393,7.378a50.561,50.561,0,0,0,.558-7.378c0-23.721-14.527-42.951-64.426-42.951s-64.426,19.23-64.426,42.951c0,14.8,5.66,27.849,22.033,35.573,2.969-20.2,19.273-35.573,63.868-35.573" transform="translate(-471.551 -368.193)" fill="#212f3c"/>
        <path id="Path_1130" data-name="Path 1130" d="M792.931,561.471c0,.906-.064,1.792-.108,2.684-1.1-22.464-16.327-40.266-64.318-40.266s-63.222,17.8-64.319,40.266c-.044-.892-.107-1.778-.107-2.684,0-23.721,14.528-42.951,64.426-42.951s64.426,19.23,64.426,42.951" transform="translate(-471.551 -368.193)" fill="#8db5ff"/>
        <path id="Path_1131" data-name="Path 1131" d="M536.006,689.406a99.67,99.67,0,0,0-1.557,17.426c0,28.1,20.312,62.763,30.518,86.725a48.77,48.77,0,0,1,2.618,8.572c6.528-14.277,12.676-29.839,12.676-43.418a76.452,76.452,0,0,0-44.254-69.307" transform="translate(-379.503 -489.536)" fill="#3162a1"/>
        <path id="Path_1132" data-name="Path 1132" d="M1.117,754.934,13.2,736.656c4.393-6.646,5.883-15.564,6.6-23.247,1.358-14.609,3.646-36.23,23.249-53.886l-.107-5.886A17.657,17.657,0,0,1,60.594,635.98h47.084a76.512,76.512,0,0,1,76.512,76.512c0,21.678-15.669,48.417-23.542,66.9-9.013,21.163,0,80.236,0,80.236H66.48V824.318a11.806,11.806,0,0,0-11.771-11.771H37.052A17.656,17.656,0,0,1,19.4,794.89V765.462H7.624c-6.474,0-9.4-4.738-6.507-10.528" transform="translate(0 -451.599)" fill="url(#linear-gradient-2)"/>
        <path id="Path_1133" data-name="Path 1133" d="M242.164,721.694c-38.493,0-49.7,14.834-49.7,33.134s11.207,33.133,49.7,33.133,49.7-14.834,49.7-33.133-11.207-33.134-49.7-33.134" transform="translate(-136.665 -512.463)" fill="#2c3e50"/>
        <path id="Path_1134" data-name="Path 1134" d="M258.731,754.828c14.477,0,25.09,2.1,32.7,5.692a39.016,39.016,0,0,0,.43-5.692c0-18.3-11.207-33.134-49.7-33.134s-49.7,14.835-49.7,33.134c0,11.417,4.366,21.484,17,27.442,2.291-15.582,14.867-27.442,49.27-27.442" transform="translate(-136.665 -512.463)" fill="#212f3c"/>
        <path id="Path_1135" data-name="Path 1135" d="M192.464,754.828c0,.7.049,1.383.083,2.071.846-17.329,12.6-31.063,49.618-31.063s48.771,13.733,49.617,31.063c.034-.688.083-1.372.083-2.071,0-18.3-11.207-33.134-49.7-33.134s-49.7,14.835-49.7,33.134" transform="translate(-136.665 -512.463)" fill="#b3cdff"/>
        <path id="Path_1136" data-name="Path 1136" d="M727.458,1100.266a20.708,20.708,0,1,1-20.708,20.708A20.708,20.708,0,0,1,727.458,1100.266Z" transform="translate(-501.85 -781.281)" fill="none" stroke="#fff" stroke-linecap="square" stroke-miterlimit="10" stroke-width="14.286" stroke-dasharray="0 57.143"/>
        <path id="Path_1137" data-name="Path 1137" d="M919.174,1043.123a12.425,12.425,0,1,1-12.425,12.425,12.425,12.425,0,0,1,12.425-12.425" transform="translate(-643.866 -740.704)" fill="#fff"/>
        <path id="Path_1138" data-name="Path 1138" d="M1082.32,1128.837a4.142,4.142,0,1,1-4.142,4.142,4.142,4.142,0,0,1,4.142-4.142" transform="translate(-765.595 -801.568)" fill="#fff"/>
        <circle id="Ellipse_1" data-name="Ellipse 1" cx="12.425" cy="12.425" r="12.425" transform="translate(153.369 333.401) rotate(-80.783)" fill="none" stroke="#d9dde1" stroke-linecap="square" stroke-miterlimit="10" stroke-width="14.286" stroke-dasharray="0.299 44.515"/>
        <path id="Path_1139" data-name="Path 1139" d="M415.033,1188.261a8.283,8.283,0,1,1,8.284-8.283,8.283,8.283,0,0,1-8.284,8.283" transform="translate(-288.826 -832)" fill="#f8c25b"/>
        <path id="Path_1140" data-name="Path 1140" d="M310.891,1137.121a4.142,4.142,0,1,1,4.142-4.142,4.142,4.142,0,0,1-4.142,4.142" transform="translate(-217.817 -801.569)" fill="#f8c25b"/>
      </g>
    </g>
    <g id="Group_281" data-name="Group 281" transform="translate(22.665 41.497)">
      <g id="Group_280" data-name="Group 280" clip-path="url(#clip-path-2)">
        <path id="Path_1141" data-name="Path 1141" d="M393.561,663.324l-.867-10.41a94.318,94.318,0,0,0,24.385-3.271,76.083,76.083,0,0,0-39.928-13.118L375.086,661.3a96.126,96.126,0,0,1,18.475,2.027" transform="translate(-289.007 -493.479)" fill="#fa965c"/>
        <path id="Path_1142" data-name="Path 1142" d="M373.9,726.1a96.025,96.025,0,0,1,19.169,2.1l-.35-4.207a96.121,96.121,0,0,0-18.475-2.026Z" transform="translate(-288.164 -554.153)" fill="#679cff"/>
        <path id="Path_1143" data-name="Path 1143" d="M323.224,314.551l-16.567,198.8H339.79Z" transform="translate(-240.417 -264.851)" fill="#0c97f9"/>
        <path id="Path_1144" data-name="Path 1144" d="M339.791,233.4c0-18.3-16.567-33.133-16.567-33.133S306.657,215.1,306.657,233.4s16.567,33.134,16.567,33.134S339.791,251.7,339.791,233.4" transform="translate(-240.417 -183.699)" fill="#0c97f9"/>
        <path id="Path_1145" data-name="Path 1145" d="M361.493,267.146q-.434-8.034-.469-16.1l15.845-9.816c.075-.35.118-.711.182-1.065l-16.025,9.928c-.014-4.354.038-8.712.132-13.071l16.12-6.9c-.038-.278-.087-.552-.132-.827l-15.971,6.835q.132-5.8.332-11.6a.491.491,0,0,0,.171-.048,84.548,84.548,0,0,1,11.539-6.921c-.12-.238-.241-.475-.363-.709a86.778,86.778,0,0,0-11.313,6.747c.243-7.056.508-14.1.711-21.132-.312-.313-.562-.559-.756-.745-.328,11.584-.85,23.209-1.105,34.832-.217.244-.243.606-.012.69-.093,4.445-.147,8.889-.127,13.329l-.13.081c-.368.228-.169.485.129.581q.049,8.026.475,16.031c.189.178.322.3.322.3s.185-.17.448-.422" transform="translate(-278.238 -184.734)" fill="#fff"/>
        <path id="Path_1146" data-name="Path 1146" d="M152.326,610.791c-19.409-19.409-52.715-17.572-52.715-17.572s-1.838,33.306,17.572,52.715S169.9,663.506,169.9,663.506s1.837-33.306-17.572-52.715" transform="translate(-93.364 -462.695)" fill="url(#linear-gradient)"/>
        <path id="Path_1147" data-name="Path 1147" d="M172.3,662.6q-8.981-8.06-17.572-16.576,3.2-13.609,6.394-27.218c-.292-.451-.629-.879-.937-1.323L153.722,645q-6.95-6.9-13.724-14l9.78-24.416c-.335-.254-.678-.493-1.018-.738l-9.69,24.191q-6.013-6.294-11.952-12.658c.043-.079.115-.139.13-.232a126.833,126.833,0,0,1,4.9-19.579c-.38-.125-.759-.249-1.137-.367a130.153,130.153,0,0,0-4.844,19.156c-7.226-7.741-14.418-15.5-21.659-23.168-.662,0-1.19,0-1.592.013,11.938,12.634,23.716,25.518,35.774,38.117.028.49.385.9.718.745q6.923,7.22,14,14.272l-.052.224c-.149.631.334.693.753.479q8.565,8.461,17.507,16.5c.388-.011.66-.022.66-.022s.015-.377.028-.923" transform="translate(-95.742 -462.707)" fill="#fff"/>
        <path id="Path_1148" data-name="Path 1148" d="M438.04,474.506c19.409-19.409,17.572-52.715,17.572-52.715s-33.306-1.837-52.715,17.572-17.572,52.715-17.572,52.715,33.306,1.837,52.715-17.572" transform="translate(-296.245 -340.967)" fill="url(#linear-gradient-4)"/>
        <path id="Path_1149" data-name="Path 1149" d="M386.307,494.484q8.061-8.981,16.577-17.573l27.218,6.394c.451-.292.879-.629,1.323-.937L403.9,475.9q6.9-6.95,14-13.724l24.416,9.78c.254-.335.493-.678.737-1.018l-24.19-9.69q6.294-6.013,12.658-11.952c.079.043.139.115.232.13a126.8,126.8,0,0,1,19.579,4.9c.125-.38.249-.759.367-1.137a130.162,130.162,0,0,0-19.156-4.844c7.741-7.226,15.5-14.418,23.168-21.659,0-.662,0-1.19-.013-1.592-12.635,11.938-25.518,23.716-38.117,35.774-.49.028-.9.385-.745.718q-7.22,6.923-14.272,14l-.224-.052c-.632-.149-.694.334-.48.753q-8.461,8.565-16.5,17.507c.012.389.022.66.022.66s.377.015.923.028" transform="translate(-296.304 -343.345)" fill="#fff"/>
        <path id="Path_1150" data-name="Path 1150" d="M311.109,923.146a112.355,112.355,0,0,0,15.3.994,114.026,114.026,0,0,0,15.252-.955l-.626-7.514c-2.032.106-4.113.186-6.343.186a97.267,97.267,0,0,1-22.78-2.383Z" transform="translate(-243.578 -690.135)" fill="#3162a1"/>
      </g>
    </g>
    <g id="Group_283" data-name="Group 283" transform="translate(175.962 0.004)">
      <g id="Group_282" data-name="Group 282" transform="translate(0 0)" clip-path="url(#clip-path-3)">
        <path id="Path_1152" data-name="Path 1152" d="M846.654,439.622a130.414,130.414,0,0,1,27.991,2.7V407.409H843.828a99.954,99.954,0,0,0-13.361.921v32.092a156.707,156.707,0,0,1,16.187-.8" transform="translate(-765.662 -289.295)" fill="#fa965c"/>
        <path id="Path_1153" data-name="Path 1153" d="M830.467,519.319v5.354a157.371,157.371,0,0,1,16.187-.785,130.477,130.477,0,0,1,27.991,2.687v-5.361a130.412,130.412,0,0,0-27.991-2.7,156.707,156.707,0,0,0-16.187.8" transform="translate(-765.662 -368.192)" fill="#4183d7"/>
        <path id="Path_1154" data-name="Path 1154" d="M980.367,433.619l25.345-25.345a22.859,22.859,0,0,0-6.17-.865H983.148l-2.781,2.781L963.8,426.757v14.508a78.777,78.777,0,0,1,16.567,4.351Z" transform="translate(-860.339 -289.295)" fill="#fa965c"/>
        <path id="Path_1155" data-name="Path 1155" d="M963.8,524.188v5.353a78.39,78.39,0,0,1,16.567,4.373v-5.375a78.775,78.775,0,0,0-16.567-4.351" transform="translate(-860.339 -372.218)" fill="#4183d7"/>
        <g id="arrow-up" transform="translate(8.283 60.254)">
          <rect id="Rectangle_282" data-name="Rectangle 282" width="25.602" height="153.61" transform="translate(43.027 59.563)" fill="url(#linear-gradient-4)"/>
          <path id="Path_1156" data-name="Path 1156" d="M713.267,28.837,678.7,74.92a3.2,3.2,0,0,0,2.56,5.12h64a3.2,3.2,0,0,0,2.56-5.12Z" transform="translate(-657.44 -20.478)" fill="url(#linear-gradient-4)"/>
        </g>
        <g id="arrow-right">
          <path id="Path_1157" data-name="Path 1157" d="M920.943,485.81V606.629h16.567V469.243Z" transform="translate(-829.907 -333.202)" fill="#0c97f9"/>
          <path id="Path_1158" data-name="Path 1158" d="M1015.655,310.965l-11.714-11.714-25.855,25.855v23.429Z" transform="translate(-870.483 -212.494)" fill="url(#linear-gradient-2)"/>
          <path id="Path_1159" data-name="Path 1159" d="M937.509,388.431,920.942,405v23.429l16.567-16.567Z" transform="translate(-829.907 -275.819)" fill="#0c97f9"/>
          <path id="Path_1160" data-name="Path 1160" d="M1073.542,238.641l-36.9,5.272a2.071,2.071,0,0,0-1.172,3.514l29.286,29.286a2.071,2.071,0,0,0,3.514-1.172Z" transform="translate(-910.798 -169.456)" fill="url(#linear-gradient-2)"/>
        </g>
        <path id="Path_1161" data-name="Path 1161" d="M778.085,764.69v11.079c8.428,2.218,18.764,3.453,31.373,3.453.6,0,1.167-.022,1.76-.028v-8.417c-13.916-.513-24.775-2.671-33.134-6.087" transform="translate(-728.466 -542.994)" fill="#816cf3"/>
        <path id="Path_1162" data-name="Path 1162" d="M920.943,783.587v8.025a118.251,118.251,0,0,0,16.567-2.06v-6.99a148.31,148.31,0,0,1-16.567,1.025" transform="translate(-829.907 -555.685)" fill="#1a69f4"/>
      </g>
    </g>
  </g>
</svg>
