<svg xmlns="http://www.w3.org/2000/svg" width="360.094" height="336.74" viewBox="0 0 360.094 336.74">
  <g id="illistration-5" transform="translate(-52.046 -63.051)">
    <g id="Group_461" data-name="Group 461" transform="translate(158.419 314.827)">
      <g id="Group_457" data-name="Group 457" transform="translate(0 0)">
        <path id="Path_1457" data-name="Path 1457" d="M251.918,396.764c.235-10.067-6.171-21.134-17.486-20.174a.966.966,0,0,1-.96-.961c.34-16.169-25.088-18.46-32.888-7.132a.982.982,0,0,1-1.511.195c-3.962-3.362-9.348-.966-11.974,2.738a14.384,14.384,0,0,0-2.307,10.17.51.51,0,0,1-.22.494.814.814,0,0,1-1.025.8c-11.664-2.641-19.353,12.015-20.552,21.387-1.157,9.048.911,28.41,14.393,25.786a1.09,1.09,0,0,1,1.314.747c2.19,10.931,18.858,11.738,26.427,6.3a1,1,0,0,1,1.05,0c7.733,5.365,18.525,7.756,26.814,2.09a18.021,18.021,0,0,0,7.483-10.715c.589-2.714-.7-6.076,1.017-8.391.9-1.213,2.418-2.037,3.428-3.2a24.274,24.274,0,0,0,3.761-5.985A37.028,37.028,0,0,0,251.918,396.764Zm-9.047,17.753c-.02.3-.486.4-.545.074a24.112,24.112,0,0,1-.264-3.182c-.022-.466.689-.459.718,0A23.436,23.436,0,0,1,242.871,414.517Zm1.893-2.963a.239.239,0,0,1-.466.063,23.136,23.136,0,0,0-1.31-4.308c-.211-.444.448-.833.662-.388A9.084,9.084,0,0,1,244.764,411.555Zm2.823-1.919c-.04.371-.583.5-.688.093a38.459,38.459,0,0,0-1-3.786c-.451-1.223-1.221-2.278-1.688-3.484a.308.308,0,0,1,.449-.344C246.72,403.662,247.859,407.137,247.587,409.635Z" transform="translate(-160.596 -359.622)" fill="#fff"/>
        <path id="Path_1458" data-name="Path 1458" d="M255.532,370.446c2.535-1.845-.491-5.2-2.241-4.716-.961.979-1.687,2.38-1.073,3.7A2.254,2.254,0,0,0,255.532,370.446Z" transform="translate(-170.542 -360.094)" fill="#fff"/>
        <path id="Path_1459" data-name="Path 1459" d="M259.827,426.915c-.975.365-1.443,2.1-1.4,2.947.074,1.6,1.6,1.294,2.64.792.885-.425,2.373-1.28,1.729-2.44A3.222,3.222,0,0,0,259.827,426.915Z" transform="translate(-171.259 -366.914)" fill="#fff"/>
        <path id="Path_1460" data-name="Path 1460" d="M231.661,440.152c-7.993,3.618-16.568.038-20.128-7.661-5.09,3.968-11.189,7.266-17.879,5.935-5.522-1.1-7.247-5.252-9.166-9.925-5.331,2.644-12.318,2.973-16.442-2.085-4.364-5.35-4.861-11.469-4.913-17.814-.053.314-.1.625-.139.928-1.157,9.048.911,28.41,14.393,25.786a1.09,1.09,0,0,1,1.314.747c2.19,10.931,18.858,11.738,26.427,6.3a1,1,0,0,1,1.05,0c7.733,5.365,18.525,7.756,26.814,2.09a18.021,18.021,0,0,0,7.483-10.715,8.133,8.133,0,0,0,.163-1.528A19.788,19.788,0,0,1,231.661,440.152Z" transform="translate(-160.596 -364.876)" fill="#c5c6ba"/>
        <g id="Group_456" data-name="Group 456">
          <path id="Path_1461" data-name="Path 1461" d="M235.032,374.392c.087-17.123-26.672-19.316-35.83-7.956-8.768-6.193-17.825,5.647-16.21,14.424-12.72-3.673-21.452,13.826-22.485,23.867-1.025,9.971,2.169,29.548,16.01,27.363,2.811,9.275,14.441,11.285,22.943,9.43,1.881-.41,4.629-2.365,6.427-2.058,2.187.372,4.814,2.67,7.084,3.433a25.553,25.553,0,0,0,14.735.674c9.327-2.534,14.617-10.606,14.944-19.869a4.176,4.176,0,0,1,1.54-3.625c.8-.841,1.678-1.571,2.423-2.477a26,26,0,0,0,3.646-6.093,38.906,38.906,0,0,0,3.353-16.461c-.294-10.469-7.4-20.92-18.58-20.653m13.276,36.291a24.275,24.275,0,0,1-3.761,5.985c-1.01,1.16-2.525,1.983-3.428,3.2-1.72,2.315-.428,5.677-1.017,8.391a18.021,18.021,0,0,1-7.483,10.715c-8.29,5.666-19.081,3.275-26.814-2.09a1,1,0,0,0-1.05,0c-7.568,5.439-24.236,4.631-26.427-6.3a1.091,1.091,0,0,0-1.315-.747c-13.482,2.624-15.55-16.738-14.392-25.786,1.2-9.371,8.888-24.027,20.552-21.387a.814.814,0,0,0,1.025-.8.51.51,0,0,0,.219-.494,14.389,14.389,0,0,1,2.308-10.17c2.626-3.7,8.012-6.1,11.974-2.738a.982.982,0,0,0,1.511-.195c7.8-11.329,33.228-9.037,32.888,7.132a.966.966,0,0,0,.96.961c11.315-.96,17.721,10.108,17.486,20.174a37.044,37.044,0,0,1-3.235,14.148" transform="translate(-160.33 -359.393)"/>
          <path id="Path_1462" data-name="Path 1462" d="M264.514,427.587a3.911,3.911,0,0,0-4.482-2.075c-2.072-.231-3.358,2.233-3.532,4.067-.25,2.608,2.118,3.7,4.369,2.978,1.991-.638,4.633-2.554,3.645-4.97m-3.666,2.9c-1.045.5-2.566.805-2.64-.792-.04-.842.428-2.581,1.4-2.947a3.222,3.222,0,0,1,2.966,1.3c.644,1.16-.844,2.015-1.729,2.44" transform="translate(-171.043 -366.746)"/>
          <path id="Path_1463" data-name="Path 1463" d="M256.531,364.87a3.463,3.463,0,0,0-3.476-1.023,2.262,2.262,0,0,0-1.432,1.392c-1.345,1.535-1.989,3.649-.677,5.483a3.955,3.955,0,0,0,6.184.461c1.778-1.945,1.229-4.63-.6-6.313m-1.2,5.354a2.254,2.254,0,0,1-3.314-1.012c-.614-1.324.111-2.724,1.073-3.7,1.75-.481,4.776,2.871,2.241,4.716" transform="translate(-170.346 -359.872)"/>
          <path id="Path_1464" data-name="Path 1464" d="M254.751,407.207a.308.308,0,0,0-.449.344c.467,1.206,1.237,2.261,1.688,3.484a38.463,38.463,0,0,1,1,3.786c.1.408.648.278.688-.093.272-2.5-.867-5.973-2.929-7.521" transform="translate(-170.798 -364.715)"/>
          <path id="Path_1465" data-name="Path 1465" d="M253.586,412.6c-.214-.445-.873-.056-.662.388a23.2,23.2,0,0,1,1.31,4.308.239.239,0,0,0,.466-.063,9.084,9.084,0,0,0-1.114-4.633" transform="translate(-170.642 -365.299)"/>
          <path id="Path_1466" data-name="Path 1466" d="M252.606,417.63c-.029-.459-.74-.466-.718,0a24.115,24.115,0,0,0,.264,3.182c.059.324.524.221.545-.074a23.59,23.59,0,0,0-.091-3.108" transform="translate(-170.531 -365.843)"/>
        </g>
      </g>
      <g id="Group_460" data-name="Group 460" transform="translate(7.468 20.814)">
        <g id="Group_458" data-name="Group 458" transform="translate(1.623 0.889)">
          <path id="Path_1467" data-name="Path 1467" d="M207.819,407.853c-.552.865-1.51,1.566-2.517,1.006-.013-.006-.021-.018-.036-.026-1.269,1.741-2.593,3.442-3.842,5.2l-.007.012a16.034,16.034,0,0,0,1.886.121,14.841,14.841,0,0,0,9.9-3.916c-.793-.326-1.57-.7-2.325-1.018A18.61,18.61,0,0,1,207.819,407.853Z" transform="translate(-173.999 -386.495)" fill="#42c642"/>
          <path id="Path_1468" data-name="Path 1468" d="M175.843,418.866q-.909.75-1.773,1.553c-1.235,1.144-2.362,2.379-3.509,3.608.725.135,1.163-.382,1.832-1.045.629-.623,1.264-1.238,1.9-1.857,1.074-1.052,2.16-2.093,3.245-3.135l-.308-.218Q176.523,418.3,175.843,418.866Z" transform="translate(-170.561 -387.6)" fill="#298e46"/>
          <path id="Path_1469" data-name="Path 1469" d="M203.057,405.456a2.461,2.461,0,0,1,.435-2.666,1.35,1.35,0,0,1,.51-.339,2.249,2.249,0,0,1,.944-.4c1.465-.235,2.076,1.14,1.688,2.354a31.556,31.556,0,0,0,4.055,1.564c.6.238,1.223.463,1.837.715a12.683,12.683,0,0,0,3.5-8.593c0-7.383-6.894-14.279-14.278-14.279s-14.278,7.784-14.278,15.167a11.2,11.2,0,0,0,1.463,5.54l1.247,1.815a14.748,14.748,0,0,0,8.354,4.813c.265-.355.529-.708.787-1.057A59.387,59.387,0,0,1,203.057,405.456ZM199.6,387.11a2.613,2.613,0,0,1,2.85-1.255.242.242,0,0,1,.058.436c-.571.315-1.257.327-1.774.768-.379.324-.674,1.049-.247,1.467s1.614.132,2.09-.143a.973.973,0,0,0,.3-1.491c-.113-.156.075-.339.235-.3.965.214.9,1.51.357,2.131a3.179,3.179,0,0,1-3.2.729A1.745,1.745,0,0,1,199.6,387.11Zm-5.468,6.509c-.771.593-3.258,3.009-3.872,1.01-.432-1.4,1.779-3.672,2.824-4.327a.209.209,0,0,1,.284.284c-.475.814-1.137,1.5-1.636,2.3-.143.231-.28.467-.411.7q-.164,1.288.512.582a4.508,4.508,0,0,0,1.091-.762,22.282,22.282,0,0,0,2.64-2.175c.235-.23.893-.77.945-1.092q-.6-1.293-1.554-.554a3.525,3.525,0,0,0-.877.668.189.189,0,0,1-.267-.267c.606-.661,2.922-2.367,3.454-.727C197.819,390.975,195.2,392.8,194.133,393.619Z" transform="translate(-172.445 -383.817)" fill="#42c642"/>
          <path id="Path_1470" data-name="Path 1470" d="M208.078,408.019c-.179.076-.355.153-.535.224a1.771,1.771,0,0,1-2.138.677c-.076.019-.154.038-.231.055-1.24,1.7-2.53,3.36-3.75,5.074l-.007.012a16.034,16.034,0,0,0,1.886.121,14.841,14.841,0,0,0,9.9-3.916c-.793-.326-1.57-.7-2.325-1.018A23.57,23.57,0,0,1,208.078,408.019Z" transform="translate(-173.999 -386.513)" fill="#298e46"/>
          <path id="Path_1471" data-name="Path 1471" d="M187.81,397.654a12.907,12.907,0,0,0-.338,2.872,11.2,11.2,0,0,0,1.463,5.54l1.247,1.815a14.748,14.748,0,0,0,8.354,4.813c.265-.355.529-.708.787-1.057q1.368-1.849,2.856-3.6C195.806,408.563,189.861,403.674,187.81,397.654Z" transform="translate(-172.445 -385.359)" fill="#298e46"/>
          <path id="Path_1472" data-name="Path 1472" d="M210.055,406.591c1.045.441,2.223.755,3.149,1.127.6.238,1.223.463,1.837.715a12.683,12.683,0,0,0,3.5-8.593c0-.122-.017-.242-.02-.363A26.4,26.4,0,0,1,210.055,406.591Z" transform="translate(-174.961 -385.562)" fill="#298e46"/>
          <path id="Path_1473" data-name="Path 1473" d="M195.434,390.279a3.525,3.525,0,0,0-.877.668c-.024.024-.051.022-.078.031a.716.716,0,0,1-.4.2c-.116.129-.235.256-.349.388a.665.665,0,0,1-.161.124c-.435.639-.952,1.224-1.362,1.883-.143.231-.28.467-.411.7q-.164,1.288.512.582a4.508,4.508,0,0,0,1.091-.762,22.282,22.282,0,0,0,2.64-2.175c.235-.23.893-.77.945-1.092Q196.393,389.54,195.434,390.279Z" transform="translate(-172.924 -384.507)" fill="#fff"/>
          <path id="Path_1474" data-name="Path 1474" d="M204.357,387.166a.527.527,0,0,0-.345-.288.548.548,0,0,1-.174-.144,4.88,4.88,0,0,0-1.5.65c-.379.324-.674,1.049-.247,1.467s1.614.132,2.09-.143a.944.944,0,0,0,.41-1.271A.66.66,0,0,1,204.357,387.166Z" transform="translate(-174.051 -384.142)" fill="#fff"/>
        </g>
        <g id="Group_459" data-name="Group 459">
          <path id="Path_1475" data-name="Path 1475" d="M244.466,393.171a1.107,1.107,0,0,0-1.068-1l-.013,0a1.58,1.58,0,0,0-.442-.069c-.65-.574-1.623.728-1.83,1.287a2.99,2.99,0,0,0,.227,2.828,44.637,44.637,0,0,0-4.057,6.328,42.55,42.55,0,0,0-3.516,7.067,44.473,44.473,0,0,0-1.581-4.793,36.4,36.4,0,0,0-1.629-4.029,2.215,2.215,0,0,0,1.249-2.215,2.021,2.021,0,0,0-2.6-1.495,2.133,2.133,0,0,0-.831.551,2.673,2.673,0,0,0-1.152,2.021c-.143,1.351,1,1.9,2.186,1.627a3.767,3.767,0,0,0,.415-.124c.446,1.592,1.119,3.147,1.675,4.692.539,1.5,1.019,3.033,1.676,4.486a1.686,1.686,0,0,0-.873.966,2.183,2.183,0,0,0-.228.353c-.5.979-1.262,2.772.084,3.441,2.371,1.18,5.066-3.823,2.216-4.833-.031-.012-.06-.01-.092-.019,1.494-2.248,2.6-4.811,3.923-7.155,1.222-2.159,2.581-4.242,3.717-6.446.031.012.053.035.087.045,1.357.483,2.43-1.011,2.631-2.175a2.336,2.336,0,0,0-.177-1.341" transform="translate(-175.25 -383.836)"/>
          <path id="Path_1476" data-name="Path 1476" d="M217.635,409.479a1.56,1.56,0,0,0-1.372-.48,1.708,1.708,0,0,0-1.929.619,24.809,24.809,0,0,0-3.2-1.362,31.556,31.556,0,0,1-4.055-1.564c.387-1.214-.223-2.588-1.688-2.354a2.249,2.249,0,0,0-.944.4,1.35,1.35,0,0,0-.51.339,2.461,2.461,0,0,0-.435,2.666,59.387,59.387,0,0,0-3.735,4.64,45.345,45.345,0,0,0-4.475,6.71,2.507,2.507,0,0,0-1.754-.127,1.9,1.9,0,0,0-.931.161,1.93,1.93,0,0,0-.722,2.953c.844,1.081,2.376.851,3.453.243a1.8,1.8,0,0,0,.79-2.543c1.519-1.941,2.761-4.135,4.187-6.139,1.249-1.756,2.573-3.457,3.842-5.2.014.008.022.02.036.026,1.008.56,1.966-.141,2.517-1.006a18.61,18.61,0,0,0,3.056,1.376,26.47,26.47,0,0,0,4.131,1.63,2.993,2.993,0,0,0,.3,3.013c2.121,2.189,5.364-2.1,3.44-4" transform="translate(-171.268 -385.212)"/>
          <path id="Path_1477" data-name="Path 1477" d="M199.662,382.817a15.147,15.147,0,0,0-13.447,22.157q-.388.345-.778.69c-2.461,2.18-5.139,4.216-7.458,6.555-.926-.419-1.729-.277-2.971.7a37.533,37.533,0,0,0-6.041,5.847,1.022,1.022,0,0,0-.073,1.2.486.486,0,0,0-.057.355c.423,1.8,1.936,2.382,3.409,1.308,2.658-1.937,4.971-4.662,7.342-6.94a1,1,0,0,0,0-1.415c-.054-.043-.1-.075-.155-.116a48.385,48.385,0,0,0,7.977-6.275,15.158,15.158,0,1,0,12.251-24.071M174.086,417.23c-.632.619-1.267,1.234-1.9,1.857-.669.663-1.107,1.18-1.832,1.045,1.147-1.229,2.274-2.464,3.509-3.608q.865-.8,1.773-1.553.68-.564,1.384-1.094l.308.218c-1.085,1.042-2.171,2.083-3.245,3.135m25.576-5.857a15.188,15.188,0,0,1-11.569-5.146l-1.247-1.815a11.2,11.2,0,0,1-1.463-5.54c0-7.383,6.895-15.167,14.278-15.167s14.278,6.9,14.278,14.279-6.894,13.389-14.278,13.389" transform="translate(-168.735 -382.817)"/>
          <path id="Path_1478" data-name="Path 1478" d="M204.614,386.833c-.16-.035-.347.148-.235.3a.973.973,0,0,1-.3,1.491c-.476.275-1.662.564-2.09.143s-.132-1.143.247-1.467c.516-.441,1.2-.453,1.774-.768a.242.242,0,0,0-.058-.436,2.613,2.613,0,0,0-2.85,1.255,1.745,1.745,0,0,0,.672,2.338,3.179,3.179,0,0,0,3.2-.729c.538-.621.608-1.917-.357-2.131" transform="translate(-172.319 -383.174)"/>
          <path id="Path_1479" data-name="Path 1479" d="M197.608,389.86c-.532-1.64-2.848.066-3.454.727a.189.189,0,0,0,.267.267,3.525,3.525,0,0,1,.877-.668q.957-.74,1.554.554c-.052.322-.71.862-.945,1.092a22.282,22.282,0,0,1-2.64,2.175,4.508,4.508,0,0,1-1.091.762q-.677.705-.512-.582c.132-.236.268-.472.411-.7.5-.8,1.16-1.487,1.636-2.3a.209.209,0,0,0-.284-.284c-1.045.656-3.256,2.923-2.824,4.327.614,2,3.1-.418,3.872-1.01,1.071-.824,3.686-2.644,3.132-4.355" transform="translate(-171.165 -383.525)"/>
        </g>
      </g>
    </g>
    <g id="Group_468" data-name="Group 468" transform="translate(314.718 165.214)">
      <g id="Group_463" data-name="Group 463">
        <path id="Path_1480" data-name="Path 1480" d="M352.416,211.01a3.1,3.1,0,0,0-2.763,2.347c-.387,1.469.1,3.956,2.1,2.937,1.122-.572,2.915-2.181,2.537-3.608A2.729,2.729,0,0,0,352.416,211.01Z" transform="translate(-347.862 -181.698)" fill="#fff"/>
        <path id="Path_1481" data-name="Path 1481" d="M437.5,214.967a1.226,1.226,0,0,1-.534-2.029c3.681-4.226,6.951-9.914,5.842-15.72a15.131,15.131,0,0,0-8.94-10.852c-8.833-3.936-18.3-.335-25.645,4.976a1.248,1.248,0,0,1-1.487-.192c-4.28-3.909-9.641-8.131-15.323-9.761-6.584-1.889-12.824,1.512-17.784,5.665a27.688,27.688,0,0,0-8.191,31.51,1.113,1.113,0,0,1,.733.681c1.808,4.628.034,8.689-.825,13.321-.946,5.1-.578,11.344,3.1,15.371,7.538,8.257,23.608,5.41,29.975-2.748.531-.681,1.534-.323,1.938.249,8,11.372,23.581,8.717,33.178,1.08a29.162,29.162,0,0,0,10.275-15.026C445.306,225.751,444.751,216.343,437.5,214.967Zm-6.351,25.2a13.954,13.954,0,0,1-.351,1.465c-.087.263-.519.232-.5-.068a14.46,14.46,0,0,1,.225-1.57C430.588,239.587,431.241,239.754,431.151,240.168Zm3.164-1.57c-.016.227-.371.306-.418.056a23.682,23.682,0,0,1-.265-3.164c-.021-.369.551-.366.572,0A23.006,23.006,0,0,1,434.315,238.6Zm2.736-3.4c-.272-.591-.413-1.232-.669-1.831a10.537,10.537,0,0,0-.946-1.719c-.235-.349.319-.658.557-.326a7.439,7.439,0,0,1,1.615,3.727C437.616,235.336,437.175,235.475,437.051,235.2Zm1.814-2.67c-.458-.613-.78-1.327-1.2-1.966s-.928-1.208-1.377-1.823c-.172-.238.168-.568.4-.4a6.924,6.924,0,0,1,2.777,3.941A.33.33,0,0,1,438.865,232.532Z" transform="translate(-349.423 -178.338)" fill="#fff"/>
        <path id="Path_1482" data-name="Path 1482" d="M412.785,251.976c-2.09-1.591-3.735-3.7-5.7-5.433-3.314-2.934-5.659-2.54-9.254-.3-4.923,3.068-9.088,5.118-15.081,4.372-4.72-.587-9.4-2.406-12.369-6.309a13.866,13.866,0,0,1-3.088-7.014c-.2-1.874-.175-3.835-.364-5.746-.324,2.175-.984,4.35-1.414,6.667-.946,5.1-.578,11.344,3.1,15.371,7.538,8.257,23.608,5.41,29.975-2.748.531-.681,1.534-.323,1.938.249,8,11.372,23.581,8.717,33.178,1.08a32.779,32.779,0,0,0,5.484-5.539C432.054,254.464,421.579,258.676,412.785,251.976Z" transform="translate(-349.594 -183.986)" fill="#c5c6ba"/>
        <g id="Group_462" data-name="Group 462">
          <path id="Path_1483" data-name="Path 1483" d="M439.5,212.84c6.386-8.331,8.178-19.624-1.226-26.814-9.478-7.247-22-3.822-30.974,2.379-4.824-4.317-10.643-8.634-17.01-10.045-6.461-1.431-12.734,1.918-17.654,5.86-10.2,8.169-15.281,22.712-9,34.667a1.007,1.007,0,0,0,.033.62c2.2,6.236-2.225,13.651-1.379,20.342.623,4.926,2.934,9.5,7.271,12.133,8.8,5.34,22.321,3.248,29.262-4.3,9.629,11.823,27.136,8.481,37.562-.924,5.447-4.914,9.586-11.8,10.112-19.23.4-5.625-1.487-12.5-7-14.69m3.906,18.334A29.162,29.162,0,0,1,433.13,246.2c-9.6,7.637-25.179,10.293-33.178-1.08-.4-.572-1.408-.929-1.938-.249-6.367,8.158-22.437,11.005-29.975,2.748-3.674-4.027-4.043-10.269-3.1-15.371.859-4.631,2.634-8.693.826-13.321a1.113,1.113,0,0,0-.733-.681,27.688,27.688,0,0,1,8.191-31.51c4.96-4.152,11.2-7.554,17.784-5.665,5.682,1.631,11.042,5.852,15.323,9.761a1.248,1.248,0,0,0,1.487.192c7.346-5.311,16.811-8.913,25.645-4.976A15.131,15.131,0,0,1,442.4,196.9c1.109,5.806-2.161,11.494-5.842,15.72a1.226,1.226,0,0,0,.534,2.029c7.249,1.376,7.8,10.784,6.309,16.523" transform="translate(-349.126 -178.023)"/>
          <path id="Path_1484" data-name="Path 1484" d="M351.312,209.373a.66.66,0,0,0-.422.574,4.2,4.2,0,0,0-3.086,3.205c-.555,2.28.4,5.364,3.2,5.111,2.324-.21,5.158-2.884,5.143-5.284-.015-2.32-2.562-4.461-4.835-3.607m.233,6.717c-2,1.019-2.487-1.468-2.1-2.937a3.1,3.1,0,0,1,2.763-2.347,2.729,2.729,0,0,1,1.875,1.676c.379,1.427-1.415,3.035-2.537,3.608" transform="translate(-347.653 -181.494)"/>
          <path id="Path_1485" data-name="Path 1485" d="M445.68,234.287c-.236-.163-.577.166-.4.4.45.616.956,1.185,1.377,1.823s.745,1.353,1.2,1.966a.331.331,0,0,0,.6-.253,6.924,6.924,0,0,0-2.777-3.941" transform="translate(-358.524 -184.287)"/>
          <path id="Path_1486" data-name="Path 1486" d="M444.877,237.636c-.239-.331-.792-.023-.557.326a10.533,10.533,0,0,1,.946,1.719c.256.6.4,1.24.668,1.831.125.273.566.133.556-.15a7.43,7.43,0,0,0-1.614-3.727" transform="translate(-358.416 -184.649)"/>
          <path id="Path_1487" data-name="Path 1487" d="M442.87,242.305c-.021-.366-.594-.369-.572,0a23.672,23.672,0,0,0,.265,3.164c.047.25.4.171.418-.056a23,23,0,0,0-.11-3.108" transform="translate(-358.197 -185.154)"/>
          <path id="Path_1488" data-name="Path 1488" d="M438.77,247.381a14.445,14.445,0,0,0-.225,1.57c-.017.3.415.331.5.068a13.948,13.948,0,0,0,.351-1.465c.09-.414-.562-.581-.628-.173" transform="translate(-357.779 -185.724)"/>
        </g>
      </g>
      <g id="Group_467" data-name="Group 467" transform="translate(30.318 17.065)">
        <g id="Group_464" data-name="Group 464" transform="translate(2.933 2.242)">
          <path id="Path_1489" data-name="Path 1489" d="M418.149,202.456c-1.169,5.883-2.58,11.721-3.731,17.609-.93,4.756-1.673,9.559-2.569,14.326,6.1-2.335,12.234-4.255,15.418-10.883,2.077-4.323,1.68-10.325-.484-14.564C424.975,205.405,421.739,203.49,418.149,202.456Zm2.993,3.376a4.446,4.446,0,0,1,2.258.078c.2.082.283.453,0,.494a16.138,16.138,0,0,1-2.183-.021C420.908,206.384,420.824,205.876,421.142,205.832Zm4.013,13.62a7.349,7.349,0,0,1-2.742,4.606c-1.192,1.01-2.869,2.481-4.505,2.081a.646.646,0,0,1-.458-.765c0-.017-.007-.032-.007-.05a30.579,30.579,0,0,1,1.095-5.615,55.588,55.588,0,0,1,1.662-6.275.442.442,0,0,1,.554-.253C423.213,212.444,425.378,217.575,425.155,219.452Zm-1.092-11.329a4.3,4.3,0,0,1-1.181.034.289.289,0,0,1,0-.578,4.336,4.336,0,0,1,1.181.034A.267.267,0,0,1,424.063,208.123Z" transform="translate(-388.056 -200.051)" fill="#f9da55"/>
          <path id="Path_1490" data-name="Path 1490" d="M407.21,204.5a7.191,7.191,0,0,0-3.469-2.739,24.059,24.059,0,0,0-12.84-1.819c-.286,1.559-.577,3.177-.937,4.772a18.1,18.1,0,0,1,4.03.084c1.286.174,4.211.338,4.72,1.933.465,1.457-1.61,3.161-2.445,4.049a20.221,20.221,0,0,1-4.758,3.857c3.268,2.631,5.952,9.64,3.936,13.254-1.488,2.666-4.434,2.2-6.785.664-1.3,2.238-2.516,4.51-3.588,6.85,2.795,1.886,6.5,2.128,10.358.762,3.742-1.322,6.983-3.769,8.152-7.721.61-2.054,1.631-10.037-2.229-9.963a.918.918,0,0,1-.642-1.551c1.794-1.634,3.774-3.154,5.45-4.911C408.317,209.762,409.316,207.146,407.21,204.5Zm-2.317,4.726a5.776,5.776,0,0,1-.965-1.125c-.225-.288.169-.7.409-.409a6,6,0,0,1,.9,1.188C405.328,209.078,405.117,209.4,404.893,209.224Zm.912-2.26a8.354,8.354,0,0,1-2.208-2.089c-.173-.221.063-.636.332-.431a8.509,8.509,0,0,1,2.167,2.228A.215.215,0,0,1,405.8,206.964Z" transform="translate(-385.073 -199.75)" fill="#f9da55"/>
        </g>
        <g id="Group_465" data-name="Group 465" transform="translate(2.933 26.636)">
          <path id="Path_1491" data-name="Path 1491" d="M413.094,232.36a.621.621,0,0,1-.345-.218c-.291,1.679-.586,3.357-.9,5.029,5.738-2.2,11.508-4.03,14.822-9.76C423.219,231.116,418.15,233.333,413.094,232.36Z" transform="translate(-388.056 -227.226)" fill="#de953d"/>
          <path id="Path_1492" data-name="Path 1492" d="M395.391,237.343c-3.8,1.288-7.133.218-8.665-2.232q-.872,1.657-1.654,3.353c2.795,1.886,6.5,2.128,10.358.762,3.742-1.322,6.983-3.769,8.152-7.721a19.061,19.061,0,0,0,.584-4.3C403.15,231.691,399.475,235.958,395.391,237.343Z" transform="translate(-385.073 -227.203)" fill="#de953d"/>
        </g>
        <g id="Group_466" data-name="Group 466">
          <path id="Path_1493" data-name="Path 1493" d="M408.044,202.521c-4.2-4.334-11.211-5.123-17.261-4.1l-1.25.239-.424,1.3c-.522,1.576-1.059,3.2-1.509,4.828l-.337,1.3.654-.03c-.108,1.116.805,1.3,2.14,1.346,1.2.04,2.4.072,3.593.109a12.19,12.19,0,0,0,2.418-.013.773.773,0,0,1,.024.144c-.006.769-2.47,2.7-3.031,3.245-1.057,1.026-2.172,1.992-3.2,3.047a.5.5,0,0,0-.151.428.524.524,0,0,0,.045.283c.069.144.143.282.213.423a2.035,2.035,0,0,0-.493,1.646,21.319,21.319,0,0,0,1.963,4.323,49.691,49.691,0,0,0,2.209,4.793.3.3,0,0,0,.027.032,1.342,1.342,0,0,1-.052.166c-1.016,2.393-2.848,1.389-4.1.656-.06-.036-.113-.079-.172-.116l-1.469-1.068-1.16,1.592a47.2,47.2,0,0,0-3.91,6.427l-1.043,2.394,1.154.914c-1.421,4.424,8.933,3.617,11.134,3.1,4.81-1.124,9.81-5.028,10.846-10.037a15.617,15.617,0,0,0,.94-5.538c-.008-2.73-.362-6.406-2.826-7.542,4.246-3.675,10.142-9.008,5.023-14.293m-7.7,14.217a.918.918,0,0,0,.642,1.551c3.86-.075,2.838,7.908,2.229,9.963-1.169,3.952-4.41,6.4-8.152,7.721-3.863,1.367-7.564,1.124-10.358-.762,1.072-2.341,2.292-4.612,3.588-6.85,2.351,1.536,5.3,2,6.785-.664,2.016-3.614-.667-10.623-3.936-13.254a20.221,20.221,0,0,0,4.758-3.857c.834-.889,2.909-2.592,2.445-4.049-.509-1.6-3.434-1.758-4.72-1.933a18.1,18.1,0,0,0-4.03-.084c.361-1.6.651-3.212.937-4.772a24.059,24.059,0,0,1,12.84,1.819,7.191,7.191,0,0,1,3.469,2.739c2.106,2.647,1.106,5.263-1.048,7.521-1.676,1.757-3.656,3.277-5.45,4.911" transform="translate(-381.772 -197.316)"/>
          <path id="Path_1494" data-name="Path 1494" d="M418.106,201.188l-1.3-.256-.3,1a183.044,183.044,0,0,0-6.831,33.049l-.173,1.929,1.233-.15c-.005.249-.02.5-.017.747a.6.6,0,0,0,.746.569c4.184-.577,7.923-2.761,11.176-5.366,2.551-2.044,5.822-4.583,6.243-8.035a15.245,15.245,0,0,0,1.376-4.325c1.477-9.56-3.452-17.248-12.151-19.159m8.9,22.15c-3.184,6.628-9.32,8.548-15.418,10.883.9-4.767,1.639-9.57,2.569-14.326,1.152-5.888,2.562-11.726,3.731-17.609,3.59,1.034,6.826,2.949,8.634,6.488,2.165,4.239,2.561,10.241.484,14.564" transform="translate(-384.861 -197.64)"/>
          <path id="Path_1495" data-name="Path 1495" d="M421.453,214.516a.442.442,0,0,0-.554.253,55.588,55.588,0,0,0-1.662,6.275,30.579,30.579,0,0,0-1.095,5.615c0,.018.006.033.007.05a.646.646,0,0,0,.458.765c1.636.4,3.314-1.071,4.505-2.081a7.349,7.349,0,0,0,2.742-4.606c.223-1.877-1.942-7.008-4.4-6.272m-1.823,11.1a38.273,38.273,0,0,0,1.924-9.2,7.57,7.57,0,0,1,1.884,5.21.585.585,0,0,0,.243.428c-.016.03-.026.062-.043.092a9.133,9.133,0,0,1-4.008,3.47" transform="translate(-385.824 -199.145)"/>
          <path id="Path_1496" data-name="Path 1496" d="M434.537,197.318c-1.773,1.12-2.883,3.378-3.764,5.208-.36.747.7,1.393,1.125.658.518-.891,1.087-1.738,1.687-2.575a16.4,16.4,0,0,0,1.719-2.524c.219-.471-.252-1.092-.766-.767" transform="translate(-387.223 -197.227)"/>
          <path id="Path_1497" data-name="Path 1497" d="M440.79,203.2a6.244,6.244,0,0,0-3.078.969,30.874,30.874,0,0,0-3.264,1.95.7.7,0,0,0,.7,1.2c1.065-.544,2.145-1.059,3.222-1.578a7.765,7.765,0,0,0,2.772-1.687.507.507,0,0,0-.354-.853" transform="translate(-387.604 -197.892)"/>
          <path id="Path_1498" data-name="Path 1498" d="M441.151,209.3c-2.015-.471-4.27.558-6.053,1.416-.688.331-.205,1.479.521,1.235,1.827-.613,3.948-.677,5.686-1.483a.646.646,0,0,0-.154-1.168" transform="translate(-387.676 -198.559)"/>
          <path id="Path_1499" data-name="Path 1499" d="M441.316,215.786c-1.383-.292-2.973.12-4.384.128-.895,0-.84,1.247,0,1.352,1.412.178,3.237.411,4.537-.311a.645.645,0,0,0-.153-1.168" transform="translate(-387.845 -199.283)"/>
          <path id="Path_1500" data-name="Path 1500" d="M408.411,207.254a8.509,8.509,0,0,0-2.167-2.228c-.269-.205-.506.21-.332.431a8.353,8.353,0,0,0,2.208,2.089.215.215,0,0,0,.291-.292" transform="translate(-384.455 -198.09)"/>
          <path id="Path_1501" data-name="Path 1501" d="M407.594,209.862a6,6,0,0,0-.9-1.188c-.24-.291-.634.121-.409.409a5.776,5.776,0,0,0,.965,1.125c.224.171.435-.146.346-.346" transform="translate(-384.495 -198.491)"/>
          <path id="Path_1502" data-name="Path 1502" d="M424.54,206.32a4.446,4.446,0,0,0-2.258-.078c-.318.044-.234.552.075.551a16.139,16.139,0,0,0,2.183.021c.283-.041.2-.412,0-.494" transform="translate(-386.263 -198.22)"/>
          <path id="Path_1503" data-name="Path 1503" d="M425.411,208.252a4.336,4.336,0,0,0-1.181-.034.289.289,0,0,0,0,.578,4.3,4.3,0,0,0,1.181-.034.267.267,0,0,0,0-.511" transform="translate(-386.471 -198.449)"/>
        </g>
      </g>
    </g>
    <g id="Group_480" data-name="Group 480" transform="translate(190.413 63.051)">
      <g id="Group_476" data-name="Group 476" transform="translate(0 0)">
        <path id="Path_1523" data-name="Path 1523" d="M281.736,72.144a2.085,2.085,0,0,0,2.575-1.487,1.776,1.776,0,0,0-1.411-1.98,3.591,3.591,0,0,0-2.128,1.264A1.351,1.351,0,0,0,281.736,72.144Z" transform="translate(-278.844 -27.245)" fill="#fff"/>
        <path id="Path_1524" data-name="Path 1524" d="M280.869,83.756a2.928,2.928,0,0,0,2.606,4.015c1.995.167,4.433-.678,4.64-2.953.186-2.04-1.124-2.89-2.69-3.376C283.64,81.32,281.569,81.951,280.869,83.756Z" transform="translate(-278.865 -28.666)" fill="#fff"/>
        <path id="Path_1525" data-name="Path 1525" d="M298.947,68.134a.854.854,0,0,1,.188,1.209.642.642,0,0,1-.115.758c-7.59,8.3-.9,19.825,7.413,24.464,8.259,4.61,17.985,3.421,25.551-1.943a1.072,1.072,0,0,1,1.6.92c-.345,10.556,18.187,10.039,20.572,1.192a.905.905,0,0,1,1.314-.534c4.614,2.476,13.042-3.375,16.283-6.419,4.3-4.043,6.328-10.9,2.257-15.847a1.1,1.1,0,0,1,.218-1.687c5.937-4.429,12.314-15.365,10.962-22.908-1.136-6.328-5.284-12.157-10.18-16.169-11.594-9.5-28.338-8.453-39.344,1.392a1.163,1.163,0,0,1-1.62,0c-8.14-10.126-27.339-8.075-35.328,1.056S288.66,59.9,298.947,68.134ZM371.8,77.8a3.248,3.248,0,0,1,1.133,2.921.312.312,0,0,1-.563.074,10.213,10.213,0,0,1-.538-1.267,11.656,11.656,0,0,1-.562-1.319C371.2,77.93,371.535,77.611,371.8,77.8ZM369.9,80.643a.381.381,0,0,1,.761,0,15.693,15.693,0,0,1-.131,2.734.261.261,0,0,1-.5,0A15.61,15.61,0,0,1,369.9,80.643Zm-2.508,3.9c.1-.487.849-.28.746.205a5.979,5.979,0,0,1-.417,1.532c-.153.291-.56.131-.578-.156A6.089,6.089,0,0,1,367.388,84.54Z" transform="translate(-280.125 -22.333)" fill="#fff"/>
        <path id="Path_1526" data-name="Path 1526" d="M367.811,89.383a2.159,2.159,0,0,1-.093.224.286.286,0,0,1-.47.052,15.071,15.071,0,0,1-11.988.511c-1.32,4.065-5.9,8.578-10.467,7.11-4.666-1.5-6.954-5.812-8.41-10.2-5.89,6.329-16.725,11.17-25.063,7.6a14.058,14.058,0,0,1-8.484-10.355,13.291,13.291,0,0,1,.044-6.6c.771-2.216,2.044-4.212,2.7-6.458-8.412-2.967-12.351-9.309-13.6-16.791-.247,6.482,1.8,12.859,6.964,16.991a.854.854,0,0,1,.188,1.209.642.642,0,0,1-.115.758c-7.59,8.3-.9,19.825,7.413,24.464,8.258,4.61,17.985,3.421,25.551-1.943a1.072,1.072,0,0,1,1.6.92c-.345,10.556,18.187,10.039,20.572,1.192a.905.905,0,0,1,1.314-.534c4.614,2.476,13.042-3.375,16.283-6.419,3.523-3.31,5.513-8.506,3.888-12.995A14.239,14.239,0,0,1,367.811,89.383Z" transform="translate(-280.125 -25.663)" fill="#c5c6ba"/>
        <g id="Group_475" data-name="Group 475">
          <path id="Path_1527" data-name="Path 1527" d="M377.206,30.2a32.4,32.4,0,0,0-42.591-.336c-9.305-10.04-29.18-7.823-37.64,2.075s-10.648,28.318.125,37.409c.02.017.041.028.062.043-7.668,7.584-2.782,19.272,4.861,25.021a25.364,25.364,0,0,0,29.249.766c1.877,10.57,20.231,10.434,23.944.722,5.994,2.112,14.815-4.02,18.5-8.093,4.208-4.647,5.561-11.4,2.151-16.7a27.548,27.548,0,0,0,6.563-8.3c2.01-3.621,4.319-7.626,4.7-11.838.708-7.753-4.382-15.781-9.933-20.764M373.88,69.965a1.1,1.1,0,0,0-.218,1.687c4.071,4.942,2.046,11.8-2.257,15.847-3.242,3.044-11.67,8.895-16.284,6.419a.9.9,0,0,0-1.313.534c-2.385,8.847-20.916,9.363-20.572-1.192a1.072,1.072,0,0,0-1.6-.92c-7.566,5.364-17.293,6.553-25.551,1.943-8.312-4.638-15-16.167-7.413-24.464a.642.642,0,0,0,.115-.758.855.855,0,0,0-.187-1.209c-10.287-8.234-8.218-25.384-.227-34.516S325.558,22.154,333.7,32.28a1.163,1.163,0,0,0,1.62,0c11.006-9.845,27.75-10.892,39.344-1.392,4.894,4.012,9.044,9.841,10.18,16.169,1.352,7.543-5.026,18.479-10.962,22.908" transform="translate(-279.885 -22.051)"/>
          <path id="Path_1528" data-name="Path 1528" d="M284.425,79.968a5.187,5.187,0,0,0-5.558,3.532,4.7,4.7,0,0,0,4.386,6.078c3.281.269,6.768-1.658,6.716-5.294-.038-2.612-2.915-5.322-5.544-4.316m3.468,4.663c-.207,2.275-2.645,3.12-4.64,2.953a2.928,2.928,0,0,1-2.606-4.015c.7-1.8,2.771-2.436,4.557-2.314,1.566.486,2.875,1.336,2.69,3.376" transform="translate(-278.643 -28.479)"/>
          <path id="Path_1529" data-name="Path 1529" d="M282.34,67.189a.6.6,0,0,0-.367.325,3.668,3.668,0,0,0-3.228,2.566C278.2,72.1,279.9,73.6,281.79,73.8a3.8,3.8,0,0,0,4.2-3.369,2.989,2.989,0,0,0-3.654-3.242m1.767,3.29a2.085,2.085,0,0,1-2.575,1.487,1.351,1.351,0,0,1-.964-2.2A3.591,3.591,0,0,1,282.7,68.5a1.776,1.776,0,0,1,1.411,1.98" transform="translate(-278.641 -27.068)"/>
          <path id="Path_1530" data-name="Path 1530" d="M381.622,84.471c-.267-.194-.6.125-.531.409a11.65,11.65,0,0,0,.562,1.319,10.208,10.208,0,0,0,.538,1.267.312.312,0,0,0,.563-.074,3.248,3.248,0,0,0-1.133-2.921" transform="translate(-290.054 -28.998)"/>
          <path id="Path_1531" data-name="Path 1531" d="M380.305,87.626a.381.381,0,0,0-.761,0,15.524,15.524,0,0,0,.131,2.734.261.261,0,0,0,.5,0,15.69,15.69,0,0,0,.131-2.734" transform="translate(-289.883 -29.316)"/>
          <path id="Path_1532" data-name="Path 1532" d="M376.69,92.022a6.091,6.091,0,0,0-.249,1.581c.019.287.426.448.578.156a5.942,5.942,0,0,0,.416-1.532c.1-.485-.644-.692-.746-.205" transform="translate(-289.537 -29.815)"/>
        </g>
      </g>
      <g id="Group_479" data-name="Group 479" transform="translate(25.661 18.034)">
        <g id="Group_477" data-name="Group 477" transform="translate(1.609 1.338)">
          <path id="Path_1533" data-name="Path 1533" d="M323.226,45.224a26.5,26.5,0,0,0-3.667-.9.446.446,0,0,1-.171-.09,8.323,8.323,0,0,0-6.353,4.416,6.927,6.927,0,0,0-.837,3.678c.561,3.248,4.082,3.182,6.287,2.711a9.747,9.747,0,0,0,5.97-3.914C325.9,49,325.892,46.354,323.226,45.224Z" transform="translate(-309.644 -43.895)" fill="#f9da55"/>
          <path id="Path_1534" data-name="Path 1534" d="M362.3,61.761c-.007,0-.015,0-.021.005A6.548,6.548,0,0,0,360.517,64c-1.9,3.895,3.034,4.5,5.5,3.826,1.9-.518,4.813-3.177,3.176-5.493C367.6,60.075,364.327,60.851,362.3,61.761Z" transform="translate(-314.985 -45.747)" fill="#5199ce"/>
          <path id="Path_1535" data-name="Path 1535" d="M334.08,59.3a.582.582,0,0,1-.131-.081,6.972,6.972,0,0,0-5.092,4.921,9.523,9.523,0,0,0-.749,3.769c.329,2.045,2.161,2.055,3.621,2.077a6.492,6.492,0,0,0,6.193-3.769c.911-1.652,1.513-3.429.044-5.014C336.944,60.1,335.4,59.853,334.08,59.3Z" transform="translate(-311.418 -45.564)" fill="#ea4256"/>
          <path id="Path_1536" data-name="Path 1536" d="M352,46.118a.666.666,0,0,1-.247-.076c-2.131.522-4.6,1.831-4.917,4.112-.454,3.263,3.523,3.072,5.293,2.561a7.013,7.013,0,0,0,4.016-2.913C357.858,47.05,353.945,46.309,352,46.118Z" transform="translate(-313.504 -44.096)" fill="#42c642"/>
          <path id="Path_1537" data-name="Path 1537" d="M312.206,65.952c-1.32.212-2.2,1.647-2.664,2.827-.668,1.7.283,3.268,2.205,2.717a4.507,4.507,0,0,0,2.838-2.716C314.89,67.792,313.473,66.128,312.206,65.952Z" transform="translate(-309.329 -46.314)" fill="#f772a9"/>
          <path id="Path_1538" data-name="Path 1538" d="M372.106,43.852a2.6,2.6,0,0,0-2.66,2.253,2.488,2.488,0,0,0,.289,2.249,2.289,2.289,0,0,0,2.39.191c1.1-.378,2.865-1.313,2.812-2.689C374.88,44.4,373.383,43.921,372.106,43.852Z" transform="translate(-316.013 -43.852)" fill="#de953d"/>
        </g>
        <g id="Group_478" data-name="Group 478">
          <path id="Path_1539" data-name="Path 1539" d="M320.983,43.019a9.1,9.1,0,0,0-9.949,5.64c-1.969,4.868.806,8.426,5.912,8.291,4.249-.114,8.755-2.977,10.076-7.132,1.409-4.435-2.21-6.863-6.039-6.8m3.275,7.964a9.747,9.747,0,0,1-5.97,3.914c-2.2.471-5.726.537-6.287-2.711a6.927,6.927,0,0,1,.837-3.678,8.323,8.323,0,0,1,6.353-4.416.446.446,0,0,0,.171.09,26.5,26.5,0,0,1,3.667.9c2.666,1.129,2.676,3.774,1.228,5.9" transform="translate(-307.84 -42.411)"/>
          <path id="Path_1540" data-name="Path 1540" d="M335,57.884c-4.217-.818-7.386,2.521-8.534,6.387-.522,1.753-1.147,4.243.031,5.866,1.017,1.4,2.973,1.753,4.587,1.843,4.59.255,8.069-2.612,9.339-6.983A5.661,5.661,0,0,0,335,57.884m2.675,8.17a6.492,6.492,0,0,1-6.193,3.769c-1.46-.021-3.292-.032-3.621-2.077a9.523,9.523,0,0,1,.749-3.769,6.972,6.972,0,0,1,5.092-4.921.582.582,0,0,0,.131.081c1.323.553,2.864.8,3.885,1.9,1.47,1.585.867,3.362-.044,5.014" transform="translate(-309.558 -44.063)"/>
          <path id="Path_1541" data-name="Path 1541" d="M351.643,44.81c-.006,0-.01.007-.016.01-3.14.351-6.231,2.008-6.621,5.517-.4,3.569,3.53,4.8,6.42,4.374,2.942-.437,6.768-2.881,6.991-6.174.225-3.338-4.216-4.679-6.774-3.727m4.3,4.821a7.013,7.013,0,0,1-4.016,2.913c-1.77.511-5.747.7-5.293-2.561.316-2.281,2.787-3.591,4.917-4.112a.666.666,0,0,0,.247.076c1.945.191,5.858.932,4.145,3.685" transform="translate(-311.692 -42.587)"/>
          <path id="Path_1542" data-name="Path 1542" d="M376.435,45.458c-.331-2.657-3.032-3.689-5.284-2.8a3.2,3.2,0,0,0-1.95.581,4.7,4.7,0,0,0-1.647,3.082,3.383,3.383,0,0,0,4.229,3.989c2.224-.464,4.973-2.269,4.653-4.853m-4.512,2.919a2.289,2.289,0,0,1-2.39-.191,2.488,2.488,0,0,1-.289-2.249,2.6,2.6,0,0,1,2.66-2.253c1.277.069,2.773.545,2.831,2,.052,1.376-1.709,2.311-2.812,2.689" transform="translate(-314.202 -42.346)"/>
          <path id="Path_1543" data-name="Path 1543" d="M370.853,61.451c-1.974-3.162-7.045-3.645-9.487-.891a.631.631,0,0,0-.17.454c-1.812,1.292-3.2,3.2-2.753,5.355.767,3.664,6.184,3.734,8.886,2.676,2.581-1.009,5.211-4.892,3.524-7.594m-5.026,6.137c-2.47.674-7.4.068-5.5-3.826a6.548,6.548,0,0,1,1.767-2.229c.006,0,.014,0,.021-.005,2.022-.91,5.3-1.686,6.892.568,1.638,2.317-1.276,4.975-3.176,5.493" transform="translate(-313.183 -44.174)"/>
          <path id="Path_1544" data-name="Path 1544" d="M316.106,66.725c-.784-1.352-3.983-3.268-5.318-1.916a6.019,6.019,0,0,0-3.174,4.176c-.634,2.813,2.012,4.721,4.616,3.98,2.191-.623,5.3-3.79,3.876-6.241M314.384,68.6a4.507,4.507,0,0,1-2.838,2.716c-1.923.551-2.874-1.018-2.205-2.717.465-1.18,1.344-2.614,2.664-2.827,1.267.176,2.684,1.84,2.38,2.828" transform="translate(-307.519 -44.797)"/>
        </g>
      </g>
      <text id="COLORS" transform="translate(35.678 63.91)" font-size="10" font-family="Rubik-Medium, Rubik" font-weight="500"><tspan x="0" y="0">COLORS</tspan></text>
    </g>
    <g id="Group_500" data-name="Group 500" transform="translate(278.623 277.656)">
      <g id="Group_496" data-name="Group 496" transform="translate(0 0)">
        <path id="Path_1580" data-name="Path 1580" d="M406.638,377.614a3.345,3.345,0,0,0-1.56,2.213c-.188,1.425,1.871.906,2.593.619s1.833-1.16,1.24-2.073C408.538,377.8,407.342,377.659,406.638,377.614Z" transform="translate(-309.666 -346.806)" fill="#fff"/>
        <path id="Path_1581" data-name="Path 1581" d="M384.317,381.721a1.018,1.018,0,0,1-.7-1.229c5.437-22.719-32.175-34.69-43.745-16.225a1.184,1.184,0,0,1-.37.61c-.014.025-.028.047-.044.071a.524.524,0,0,1-.906.055,1.3,1.3,0,0,1-.162-.085c-6.985-4.609-18.591-4.773-24.85,1.4-4.263,4.207-12.719,19.055-6.638,24.058a1.092,1.092,0,0,1,0,1.541c-4.34,3.5-6.145,11.606-6.577,16.949a24.6,24.6,0,0,0,4.108,15.482c6.982,10.492,20.948,13.274,31.851,7.429a1.126,1.126,0,0,1,1.312.17c3.893,3.361,7.79,6.535,13.021,7.332,4.563.7,9.328-.058,13.786-1.123,4.351-1.039,8.744-2.676,12.216-5.579,3.341-2.794,6.838-7.867,3.7-12.041-.541-.721.216-1.564.933-1.627C399.952,417.264,401.811,386.781,384.317,381.721Zm-36.293-22.73c-.226.492-.6.912-.874,1.381a7.854,7.854,0,0,0-.694,1.59c-.166.521-.985.3-.822-.227a5.845,5.845,0,0,1,1.941-3.194C347.877,358.349,348.151,358.715,348.024,358.991Zm2.656-.138c-.467.934-1.12,1.751-1.545,2.716-.175.4-.746.052-.579-.339a7.186,7.186,0,0,1,1.718-2.692A.26.26,0,0,1,350.68,358.853Zm40.334,48.967c-.037.273-.438.225-.506,0a5.865,5.865,0,0,0-.645-1.673c-.239-.362.341-.7.578-.339A3.052,3.052,0,0,1,391.014,407.82Zm.936-6.073a4.332,4.332,0,0,0-1.819-2.586.357.357,0,0,1,.361-.616,3.66,3.66,0,0,1,1.926,3.139A.239.239,0,0,1,391.95,401.748Zm.543-4.215c.031.278-.361.329-.489.132a4,4,0,0,0-2.884-2.066c-.509-.044-.522-.826,0-.8A3.371,3.371,0,0,1,392.493,397.533Z" transform="translate(-297.988 -344.31)" fill="#fff"/>
        <path id="Path_1582" data-name="Path 1582" d="M339.429,349.085a4.954,4.954,0,0,0-1.9,2.168c-.886,1.913.672,3.422,2.58,2.9,1.27-.346,3.286-1.892,2.95-3.44C342.736,349.236,340.6,349.266,339.429,349.085Z" transform="translate(-302.113 -343.627)" fill="#fff"/>
        <path id="Path_1583" data-name="Path 1583" d="M350.556,347.18c.391.6,1.32.515,1.869.232a1.388,1.388,0,0,0-.483-2.659C351.207,344.871,350.076,346.447,350.556,347.18Z" transform="translate(-303.58 -343.144)" fill="#fff"/>
        <path id="Path_1584" data-name="Path 1584" d="M381.251,424.327c7.292-.642,12.01-5.673,14.032-11.866-4.969,5.31-12.226,9.144-19.448,7.126-1.647,10.75-8.841,18.493-20.145,19.353-11.523.875-18.156-6.679-21.139-16.9-6.593,5.348-17.512,6.186-24.972,2.411-4.453-2.254-8.2-6.593-8.414-11.8a26.194,26.194,0,0,1,1.455-8.829,38.772,38.772,0,0,0-2.293,10.458,24.6,24.6,0,0,0,4.108,15.482c6.982,10.492,20.948,13.274,31.851,7.429a1.126,1.126,0,0,1,1.312.17c3.893,3.361,7.79,6.535,13.021,7.332,4.563.7,9.328-.058,13.786-1.123,4.351-1.039,8.744-2.676,12.216-5.579,3.341-2.794,6.838-7.867,3.7-12.041C379.777,425.233,380.534,424.39,381.251,424.327Z" transform="translate(-297.988 -349.726)" fill="#c5c6ba"/>
        <g id="Group_495" data-name="Group 495">
          <path id="Path_1585" data-name="Path 1585" d="M385.365,379.845c5.185-23.452-35.645-38.068-46.6-17.19-8.174-5.4-21.467-4.7-28.065,2.945-4.287,4.966-12.178,18.872-6.55,25.224-3.938,3.865-5.44,10.742-6.183,15.929a26.307,26.307,0,0,0,32.451,29.236c1.426-.352,2.732-1.016,4.131-1.407,1.988-.555,1.669-.543,3.287.452,2.593,1.6,4.653,3.7,7.547,4.893,6.215,2.564,13.545,1.486,19.875-.115,7.076-1.79,22.528-9.926,17.413-19.285,19.207-3.556,20.716-33.913,2.7-40.683m-4.507,38.777c-.717.063-1.474.906-.933,1.627,3.141,4.175-.355,9.248-3.7,12.041-3.473,2.9-7.866,4.541-12.216,5.579-4.458,1.065-9.223,1.819-13.786,1.123-5.23-.8-9.128-3.971-13.02-7.332a1.126,1.126,0,0,0-1.312-.17c-10.9,5.844-24.87,3.063-31.851-7.429a24.6,24.6,0,0,1-4.108-15.482c.432-5.343,2.237-13.451,6.577-16.949a1.092,1.092,0,0,0,0-1.541c-6.082-5,2.374-19.85,6.638-24.058,6.259-6.177,17.865-6.013,24.85-1.4a1.3,1.3,0,0,0,.162.085.524.524,0,0,0,.906-.055c.014-.024.029-.046.044-.071a1.184,1.184,0,0,0,.37-.61c11.57-18.465,49.182-6.494,43.745,16.225a1.018,1.018,0,0,0,.7,1.229c17.494,5.061,15.636,35.543-3.066,37.19" transform="translate(-297.704 -344.021)"/>
          <path id="Path_1586" data-name="Path 1586" d="M344.884,350.539c-.248-2.887-3.564-3.857-5.882-2.818a.263.263,0,0,0-.03.021,5.519,5.519,0,0,0-3.553,4.242c-.3,2.524,2.163,4.285,4.518,3.938,2.4-.353,5.172-2.772,4.948-5.384m-4.986,3.42c-1.909.519-3.466-.99-2.58-2.9a4.954,4.954,0,0,1,1.9-2.168c1.173.181,3.307.151,3.629,1.631.336,1.548-1.68,3.094-2.95,3.44" transform="translate(-301.903 -343.43)"/>
          <path id="Path_1587" data-name="Path 1587" d="M354.631,344.476a2.65,2.65,0,0,0-4.175-.847.536.536,0,0,0-.089.118,3.5,3.5,0,0,0-1.8,3.636c.521,1.751,2.731,2.278,4.254,1.625a3.369,3.369,0,0,0,1.807-4.533m-2.424,2.734c-.548.283-1.478.367-1.869-.232-.48-.733.651-2.309,1.385-2.427a1.388,1.388,0,0,1,.483,2.659" transform="translate(-303.362 -342.943)"/>
          <path id="Path_1588" data-name="Path 1588" d="M410.757,378.28c-.3-2.086-2.265-2.538-3.971-2.116-1.692-.167-3.106,1.4-3.625,3.022-.775,2.42,1.754,3.566,3.751,3.231,2.022-.338,4.176-1.828,3.845-4.137m-3.314,1.99c-.722.287-2.781.806-2.593-.619a3.345,3.345,0,0,1,1.56-2.213c.7.045,1.9.186,2.272.76.594.913-.509,1.783-1.24,2.073" transform="translate(-309.437 -346.628)"/>
          <path id="Path_1589" data-name="Path 1589" d="M400.091,399.759c-.522-.023-.509.759,0,.8a4,4,0,0,1,2.884,2.066c.128.2.52.147.489-.132a3.371,3.371,0,0,0-3.373-2.737" transform="translate(-309.068 -349.273)"/>
          <path id="Path_1590" data-name="Path 1590" d="M401.617,403.972a.357.357,0,0,0-.361.616,4.332,4.332,0,0,1,1.819,2.586.239.239,0,0,0,.467-.062,3.662,3.662,0,0,0-1.926-3.139" transform="translate(-309.222 -349.736)"/>
          <path id="Path_1591" data-name="Path 1591" d="M401.547,412.133c-.236-.358-.817-.023-.578.339a5.865,5.865,0,0,1,.645,1.673c.068.225.468.273.506,0a3.052,3.052,0,0,0-.573-2.012" transform="translate(-309.203 -350.634)"/>
          <path id="Path_1592" data-name="Path 1592" d="M353.139,358.951a5.846,5.846,0,0,0-1.941,3.194c-.163.524.656.747.822.227a7.851,7.851,0,0,1,.694-1.59c.272-.469.649-.889.874-1.381.127-.275-.147-.642-.45-.45" transform="translate(-303.662 -344.72)"/>
          <path id="Path_1593" data-name="Path 1593" d="M356.2,358.947a7.185,7.185,0,0,0-1.718,2.692c-.167.391.4.734.579.339.426-.965,1.078-1.783,1.545-2.716a.26.26,0,0,0-.407-.314" transform="translate(-304.027 -344.718)"/>
        </g>
      </g>
      <g id="Group_499" data-name="Group 499" transform="translate(9.266 26.275)">
        <g id="Group_497" data-name="Group 497" transform="translate(2.289 2.076)">
          <path id="Path_1594" data-name="Path 1594" d="M347.026,375.458c-9.939,2.421-18,9.32-24.311,17.1-4.682,5.769-9.156,12.144-12.007,19.1,1.264-.039,2.531-.052,3.8-.065a72.566,72.566,0,0,1,12.07-18.632c4.838-5.555,10.37-10.222,17.573-12.284a26.138,26.138,0,0,1,19.023,1.55,23.291,23.291,0,0,1,11.747,13.655c1.137,3.764,1.079,7.819.961,11.711-.012.366-.04.731-.056,1.1.592-.037,1.184-.084,1.776-.1.681-7.739.059-15.785-4.064-22.334C368.183,377.749,356.707,373.1,347.026,375.458Z" transform="translate(-310.708 -374.848)" fill="#ea4256"/>
          <path id="Path_1595" data-name="Path 1595" d="M347,388.578c-11.618,3.679-19.611,13.642-24.464,24.426.706,0,1.413.007,2.118.009.63,0,1.262,0,1.894,0,4.309-12.713,15.347-25.031,29.688-24.166,7.2.434,11.234,6.369,12.426,12.988a39.321,39.321,0,0,1,.686,9.022l2.549-.285c.122-5.9-.8-11.813-4.725-16.5C362.165,388.1,354.312,386.263,347,388.578Z" transform="translate(-312.026 -376.27)" fill="#42c642"/>
          <path id="Path_1596" data-name="Path 1596" d="M340.563,384.244c-6.241,2.938-11.039,8.142-15.243,13.484a100.042,100.042,0,0,0-9.287,14.606c1.671-.01,3.341-.005,5.007,0a44.258,44.258,0,0,1,7.492-13.237c6.79-8.3,18.645-16.068,29.758-12.509A19.923,19.923,0,0,1,370.174,397.2a25.478,25.478,0,0,1,1.974,12.6c1.039-.111,2.078-.212,3.117-.3.03-.815.064-1.63.073-2.445.044-4.1-.073-8.283-1.71-12.109C368.131,382.1,352.481,378.636,340.563,384.244Z" transform="translate(-311.301 -375.606)" fill="#f9da55"/>
        </g>
        <g id="Group_498" data-name="Group 498">
          <path id="Path_1597" data-name="Path 1597" d="M375.008,384.961c-4.965-7.948-15.533-13.333-24.887-12.329-10.783,1.158-20.15,8.1-27.1,16.033-5.638,6.435-11.764,14.3-14.481,22.8l-.41,1.417,1.689.044c1.247.026,2.493.038,3.74.053l.7.01c1.778.018,3.556.032,5.333.054l.588.007c.67.01,1.342.01,2.011.024q1.086.025,2.178.065l1.375.054.727-1.862c4.076-9.864,11.141-18.6,21.9-21.466,8.338-2.225,14.887,1.447,16.665,10.046a31.889,31.889,0,0,1,.594,9.483l-.22,1.7,2.157-.109c.875-.058,1.758-.119,2.648-.174l.868-.038c1.063-.051,2.13-.081,3.2-.106l1.139-.022,1.656-.034,2.107-.064.271-2.236c.8-8.087-.3-16.708-4.445-23.349M370.29,408.89l-2.549.285a39.321,39.321,0,0,0-.686-9.022c-1.192-6.618-5.224-12.554-12.426-12.988-14.341-.865-25.379,11.453-29.688,24.166-.633,0-1.264,0-1.894,0-.7,0-1.411-.006-2.118-.009,4.853-10.785,12.845-20.748,24.464-24.426,7.314-2.315,15.167-.479,20.173,5.5,3.924,4.685,4.846,10.594,4.725,16.5m4.167-2.843c-.009.816-.043,1.631-.073,2.445-1.04.083-2.078.184-3.117.3a25.478,25.478,0,0,0-1.974-12.6,19.923,19.923,0,0,0-11.883-10.612c-11.113-3.56-22.968,4.209-29.758,12.509a44.258,44.258,0,0,0-7.492,13.237c-1.666-.008-3.337-.012-5.007,0a100.042,100.042,0,0,1,9.287-14.606c4.2-5.342,9-10.547,15.243-13.484,11.918-5.608,27.568-2.145,33.064,10.713,1.637,3.826,1.753,8.006,1.71,12.109m2.853,2.277c-.593.018-1.184.065-1.776.1.016-.366.044-.731.056-1.1.118-3.892.177-7.947-.961-11.711a23.291,23.291,0,0,0-11.747-13.655,26.138,26.138,0,0,0-19.023-1.55c-7.2,2.062-12.734,6.728-17.573,12.284a72.566,72.566,0,0,0-12.07,18.632c-1.265.013-2.532.026-3.8.065,2.851-6.954,7.326-13.33,12.007-19.1,6.314-7.778,14.372-14.678,24.311-17.1,9.68-2.357,21.156,2.291,26.507,10.793,4.122,6.549,4.744,14.6,4.064,22.334" transform="translate(-308.132 -372.512)"/>
        </g>
      </g>
      <text id="IMAGINATION" transform="translate(13.742 80.588)" font-size="9" font-family="Rubik-Medium, Rubik" font-weight="500"><tspan x="0" y="0">IMAGINATION</tspan></text>
    </g>
    <text id="ANALYSIS" transform="translate(187.489 385.098)" font-size="9" font-family="Rubik-Medium, Rubik" font-weight="500"><tspan x="0" y="0">ANALYSIS</tspan></text>
    <g id="Group_506" data-name="Group 506" transform="translate(52.046 240.858)">
      <g id="Group_502" data-name="Group 502">
        <path id="Path_1598" data-name="Path 1598" d="M138.084,378.988c4.408-8.794,6.37-18.61-.722-26.627-6.217-7.028-16.292-7.4-24.107-3.07a1.118,1.118,0,0,1-1.727.451c-9.582-7.87-26.3-6.506-36.487-.6-9.659,5.6-18.789,19.813-12.342,30.853a1.072,1.072,0,0,1-.165,1.275c-6.887,6.859-9.8,16.657-6.93,26.078,2.835,9.3,12.31,18.6,22.619,13.923a1.146,1.146,0,0,1,1.526.4c2.177,3.768,4.481,7.832,8.537,9.848,3.865,1.922,8.449,1.663,12.563.9,8.215-1.521,19.267-5.09,20.247-14.823a1.1,1.1,0,0,1,1.374-1.046c9.439,2.428,18.168-3.618,20.874-12.67,2.513-8.407-.33-16.9-5.258-23.8A1.077,1.077,0,0,1,138.084,378.988Zm-4.856,31.329c-.119.292-.608.285-.592-.081a32.611,32.611,0,0,0,.155-4.147c-.044-.539.8-.535.841,0A9.5,9.5,0,0,1,133.228,410.317Zm3.258-3.113c-.042.3-.527.281-.581,0a18.08,18.08,0,0,0-1.083-4.33c-.2-.437.44-.821.652-.381A8.406,8.406,0,0,1,136.485,407.2Zm2.377-1.161c-.248.165-.514-.153-.387-.387.478-.9-.573-2.922-.975-3.768a15.406,15.406,0,0,0-1.993-3.117c-.292-.356.175-.853.517-.516a11.862,11.862,0,0,1,2.855,4.347C139.242,403.573,139.95,405.321,138.862,406.043Z" transform="translate(-52.32 -342.127)" fill="#fff"/>
        <path id="Path_1599" data-name="Path 1599" d="M139.427,411.791a1.307,1.307,0,0,1-.563,1.044.255.255,0,0,1-.383-.142,25.7,25.7,0,0,1-5,3.577,5.567,5.567,0,0,1-.247.84c-.119.292-.608.285-.592-.081,0-.116.014-.227.021-.342-4.575,2.255-9.716,2.919-14.528,1.01a30.733,30.733,0,0,1-9.625,12.519c-3.632,2.9-7.942,5.832-12.816,5.289-7.612-.848-8.805-11.576-9.894-17.81-7.406,4.858-20.377,7.42-26.749-.208a21.51,21.51,0,0,1-4.526-10.93A25.059,25.059,0,0,0,55.6,414.14c2.835,9.3,12.31,18.6,22.619,13.923a1.146,1.146,0,0,1,1.526.4c2.177,3.768,4.481,7.832,8.537,9.848,3.865,1.922,8.449,1.663,12.563.9,8.215-1.521,19.267-5.09,20.247-14.823a1.1,1.1,0,0,1,1.374-1.046c9.439,2.428,18.168-3.618,20.874-12.67a22.174,22.174,0,0,0,.9-5.443A26.508,26.508,0,0,1,139.427,411.791Z" transform="translate(-52.322 -348.918)" fill="#c5c6ba"/>
        <g id="Group_501" data-name="Group 501">
          <path id="Path_1600" data-name="Path 1600" d="M145.567,391.724a31.307,31.307,0,0,0-2.36-6.938c-1.507-3.207-3.593-4.789-2.042-8.335,4.01-9.168,4.087-19.5-3.584-26.812a20.031,20.031,0,0,0-25.216-1.8c-9.393-7.777-24.952-7.269-35.568-2.484-10.867,4.9-19.877,16.6-18.481,29a32.469,32.469,0,0,0,.81,3.7c.531,2.307.844,1.522-.443,3.55-1.644,2.592-3.474,4.8-4.645,7.713a27.837,27.837,0,0,0-.828,18.314c3.156,10.544,13.434,20.039,24.713,15.729,2.384,4.052,5.06,8.046,9.49,10.043,4.282,1.93,9.11,1.7,13.626.839,9.064-1.733,19.7-5.685,21.634-15.608,9.213,1.907,18.1-3.452,21.666-12.143a25.342,25.342,0,0,0,1.228-14.768m-2.609,11.889c-2.706,9.051-11.435,15.1-20.874,12.669a1.1,1.1,0,0,0-1.374,1.046c-.98,9.734-12.032,13.3-20.247,14.823-4.114.762-8.7,1.02-12.563-.9-4.056-2.016-6.36-6.081-8.537-9.848a1.146,1.146,0,0,0-1.526-.4c-10.308,4.673-19.784-4.619-22.619-13.923-2.868-9.421.043-19.219,6.93-26.078a1.072,1.072,0,0,0,.165-1.275c-6.447-11.04,2.684-25.255,12.342-30.853,10.191-5.907,26.906-7.271,36.487.6a1.118,1.118,0,0,0,1.727-.451c7.815-4.331,17.891-3.958,24.107,3.07,7.092,8.018,5.13,17.833.722,26.627a1.077,1.077,0,0,0,0,1.089c4.928,6.9,7.771,15.4,5.258,23.8" transform="translate(-52.046 -341.858)"/>
          <path id="Path_1601" data-name="Path 1601" d="M148.9,409.355a11.863,11.863,0,0,0-2.855-4.347c-.342-.337-.81.16-.517.516a15.407,15.407,0,0,1,1.993,3.117c.4.847,1.453,2.873.975,3.768-.126.235.139.553.387.387,1.088-.722.379-2.47.017-3.442" transform="translate(-62.451 -348.881)"/>
          <path id="Path_1602" data-name="Path 1602" d="M145.415,409.769c-.212-.44-.852-.056-.652.381a18.08,18.08,0,0,1,1.083,4.33c.054.281.539.295.581,0a8.406,8.406,0,0,0-1.012-4.711" transform="translate(-62.372 -349.402)"/>
          <path id="Path_1603" data-name="Path 1603" d="M143.3,413.789c-.044-.535-.884-.539-.841,0a32.608,32.608,0,0,1-.155,4.147c-.017.366.473.373.592.081a9.5,9.5,0,0,0,.4-4.228" transform="translate(-62.102 -349.827)"/>
        </g>
      </g>
      <g id="Group_505" data-name="Group 505" transform="translate(20.965 16.539)">
        <g id="Group_503" data-name="Group 503" transform="translate(0.857 0.785)">
          <path id="Path_1604" data-name="Path 1604" d="M114.955,393.933a7.4,7.4,0,0,0-.261-1.292,4.265,4.265,0,0,0-.888.108l-.765.208-.257-.646a7.252,7.252,0,0,0-.746-1.283l-.468-.57.481-.616c.334-.442.605-.872.479-1.1a4.9,4.9,0,0,0-1.959-1.359,8.36,8.36,0,0,0-.611,1.044l-.309.537-.615-.3a5.462,5.462,0,0,0-2.317-.389l-.6-.085-.224-.233a4.932,4.932,0,0,0-.247-1.017,5.155,5.155,0,0,0-1.216.567,4.85,4.85,0,0,0-1.162.785.712.712,0,0,0-.068.784l.342.511-.389.53a6.888,6.888,0,0,0-1.091,1.307l-.353.777-.064-.032-.756-.36c-.252-.088-.768-.192-.952.059-.215.292-.128,1.253-.132,1.606a9.966,9.966,0,0,0,.083,1.334c.108-.035.216-.065.325-.1l.818-.265.006,1a5.741,5.741,0,0,0,.124.778,7.511,7.511,0,0,0,.289.921l.289.667-.554.531c-.115.115-.221.238-.327.363.387.347.756.708,1.125,1.073.161.16.9,1.112,1.1,1.087a1.945,1.945,0,0,1,.168-.34l.3-.538.668.43a5.189,5.189,0,0,0,1,.433l.715.156-.028.63a2.158,2.158,0,0,0,.058.487c.278,1.041,1.281.561,2.006.37q.457-.121.909-.262c.291-.092.344-.109.16-.055-.055-.178-.111-.355-.167-.533-.011-.032-.02-.065-.031-.1l-.245-.781.731-.286a7.631,7.631,0,0,0,.929-.5l.62-.441.623.681a3.687,3.687,0,0,0,.506.495c.572-.423,1.475-1.494,1.352-2.046a.643.643,0,0,0-.225-.314l-.742-.447.39-.673a5.987,5.987,0,0,0,.3-.708l.176-.654.762.113.034.006a2.631,2.631,0,0,0,.808.135c.191.1.282.034.272-.187a.479.479,0,0,0,.048-.38A9,9,0,0,0,114.955,393.933Zm-7.085,3.824a3.054,3.054,0,1,1,2.263-3.68A3.058,3.058,0,0,1,107.87,397.757Z" transform="translate(-79.189 -364.204)" fill="#678b9e"/>
          <path id="Path_1605" data-name="Path 1605" d="M107.258,392.783a2.8,2.8,0,0,0-2.053,3.256,2.447,2.447,0,0,0,2.947,1.995,2.734,2.734,0,0,0,2.183-3.1A2.678,2.678,0,0,0,107.258,392.783Z" transform="translate(-79.784 -364.849)" fill="#2d4959"/>
          <path id="Path_1606" data-name="Path 1606" d="M89.639,370.368a5.823,5.823,0,0,0-5.729,5.6c0,3.011,1.991,5.46,5,5.46s5.92-2.221,5.92-5.231S92.65,370.368,89.639,370.368Z" transform="translate(-77.419 -362.358)" fill="#2d4959"/>
          <path id="Path_1607" data-name="Path 1607" d="M96.091,383.607l-.618-.845.632-.565a10.415,10.415,0,0,0,1.713-2.117l.417-.757.746.422a8.114,8.114,0,0,0,1.295.648,16.594,16.594,0,0,0,.507-2.022c.175-.651.335-1.308.5-1.962q.087-.325.171-.651c.129-.2.08-.283-.147-.247a3.2,3.2,0,0,0-1.062-.184l-.226-.032-.882-.123-.032-.732a12.569,12.569,0,0,0-.571-2.794l-.332-.9.843-.421c.393-.189.786-.375,1.177-.562.555-.264.862-.253.743-.824a5.341,5.341,0,0,0-.8-1.256c-.357-.576-.649-1.4-1.522-1.355-.361.021-.939.5-1.235.668-.134.076-.263.16-.395.239l-.667.4-.567-.6a10.227,10.227,0,0,0-1.439-1.248l-.891-.554.14-.574c.094-.374.192-.748.3-1.12.255-.91.861-1.558-.417-1.985-.628-.21-2.746-.384-3.193.134a5.79,5.79,0,0,0-.316,1.887l-.113.567-.647-.038c-.042,0-.081-.007-.123-.007a10.277,10.277,0,0,0-1.444.115c.009.038.015.082.024.119l-.914.042-.161-.709c-.005-.018-.009-.039-.013-.057-.069-.287-.121-1.224-.345-1.444-.411-.405-.9-.088-1.434.1a6.052,6.052,0,0,0-1.85.766q-.505.064-.409.533a1.436,1.436,0,0,0,.05.788c.029.257.069.511.113.766l.177.977-.657.483a11.825,11.825,0,0,0-1.4,1.333l-.647.781-.86-.48c-.754-.379-1.068-.437-1.434.451-.624,1.511-1.368,3.12-1.152,4.779.161-.024.319-.049.481-.069l.933-.087-.124,1.054c-.014.209-.04.416-.04.626a12.636,12.636,0,0,0,.156,1.879l.148.88-.781.252a1.8,1.8,0,0,0-.866.48c-.152.3.586,1.8.716,2.139.256.674.544,1.333.846,1.987a11.863,11.863,0,0,0,1.082-.9l.468-.425.553.748a9.289,9.289,0,0,0,2.047,1.942l.743.459-.278.476c-.084.14-.169.283-.254.418a1.109,1.109,0,0,1-.508.676c.16.036.32.068.48.1a6.763,6.763,0,0,0,1.678.372c.653.145,2.383.9,2.914.4a.914.914,0,0,0,.154-.482l.076-.827c0-.035.009-.071.013-.1l.789.094a12.444,12.444,0,0,0,3.567-.674l.776-.3.449,1.009c.036.084.073.167.11.25q.18.408.364.812a.7.7,0,0,1,.448-.361c.312-.221.669-.392.994-.592a9.909,9.909,0,0,0,1.316-.927c.53-.464.349-.535-.031-1.081C96.122,383.65,96.106,383.629,96.091,383.607Zm-7.533-2.477a6.166,6.166,0,1,1,6.166-6.165A6.172,6.172,0,0,1,88.557,381.13Z" transform="translate(-76.605 -361.354)" fill="#678b9e"/>
          <path id="Path_1608" data-name="Path 1608" d="M118.856,373.644a2.8,2.8,0,0,0-2.752,2.692,2.446,2.446,0,0,0,2.4,2.622,2.733,2.733,0,0,0,2.843-2.514A2.678,2.678,0,0,0,118.856,373.644Z" transform="translate(-81.006 -362.723)" fill="#2d4959"/>
          <path id="Path_1609" data-name="Path 1609" d="M125.1,375.23l-.792.025-.1-.686a7.211,7.211,0,0,0-.428-1.423l-.323-.662.61-.489c.427-.351.792-.708.722-.962a4.905,4.905,0,0,0-1.59-1.777,8.314,8.314,0,0,0-.838.875l-.425.45-.529-.437a5.441,5.441,0,0,0-2.162-.916l-.562-.221-.164-.279a4.945,4.945,0,0,0,0-1.046,5.183,5.183,0,0,0-1.314.269,4.84,4.84,0,0,0-1.312.494.712.712,0,0,0-.248.746l.215.576-.5.427a6.893,6.893,0,0,0-1.365,1.018l-.522.673c-.018-.015-.037-.029-.055-.045l-.652-.524c-.225-.147-.7-.365-.939-.165-.276.235-.415,1.189-.5,1.533a9.881,9.881,0,0,0-.229,1.315c.114-.008.225-.012.34-.022l.856-.068-.226.976a5.642,5.642,0,0,0-.06.787,7.445,7.445,0,0,0,.067.962l.127.716-.663.387c-.139.086-.271.181-.4.278.3.426.571.863.845,1.3.12.192.618,1.29.816,1.312a1.847,1.847,0,0,1,.242-.293l.414-.453.551.573a5.263,5.263,0,0,0,.876.654l.66.317-.174.606a2.143,2.143,0,0,0-.056.487c.028,1.078,1.115.844,1.864.826.315-.008.631-.022.945-.044s.36-.027.168-.016q-.017-.279-.039-.557c0-.034,0-.068-.007-.1l-.058-.817.778-.108a7.68,7.68,0,0,0,1.019-.27l.706-.284.448.806a3.683,3.683,0,0,0,.378.6c.655-.278,1.782-1.111,1.79-1.677a.641.641,0,0,0-.146-.357l-.618-.607.536-.565a5.9,5.9,0,0,0,.455-.619l.323-.594.714.288.031.012a2.634,2.634,0,0,0,.755.319q.245.205.307-.121a.474.474,0,0,0,.135-.357,9.118,9.118,0,0,0,.158-1.626,7.361,7.361,0,0,0,.045-1.317A4.272,4.272,0,0,0,125.1,375.23Zm-6.935,3.495a3.055,3.055,0,1,1,3.055-3.053A3.058,3.058,0,0,1,118.169,378.724Z" transform="translate(-80.447 -362.059)" fill="#678b9e"/>
        </g>
        <g id="Group_504" data-name="Group 504">
          <path id="Path_1610" data-name="Path 1610" d="M102.237,375.305c-.112-.612-.708-.655-1.239-.746-.363-.062-.726-.109-1.089-.148a11.385,11.385,0,0,0-.614-3.293l.551-.276a8.932,8.932,0,0,0,2.15-1.185.436.436,0,0,0,.114-.43,12.536,12.536,0,0,0-1.657-2.737c-.3-.451-.72-1.215-1.312-1.327s-1.421.5-1.872.756c-.334.187-.66.387-.98.6a11.527,11.527,0,0,0-1.927-1.467c.06-.291.122-.58.2-.865.2-.773.868-2.011.569-2.821-.2-.552-.762-.674-1.272-.761a13.587,13.587,0,0,0-3.963.038c-.148.02-.328.1-.355.271-.133.838-.262,1.676-.377,2.515-.235-.014-.469-.036-.709-.036-.357,0-.71.021-1.059.053a7.607,7.607,0,0,0-.556-2.084c-.467-.907-1.616-.279-2.383-.028-.813.266-2.631.72-2.942,1.627a4,4,0,0,0,.221,1.734c.052.258.1.516.155.774a11.691,11.691,0,0,0-2.032,1.816c-.934-.509-1.935-.8-2.449-.2a11.047,11.047,0,0,0-1.36,3.291,7.624,7.624,0,0,0-.293,3.642.478.478,0,0,0,.461.352c.262-.008.529-.022.8-.037-.009.181-.034.357-.034.541a11.431,11.431,0,0,0,.239,2.227c-.525.217-1.336.414-1.53,1.036-.206.66.409,1.775.617,2.366a28.853,28.853,0,0,0,1.2,2.881.454.454,0,0,0,.616.161,10.109,10.109,0,0,0,1.623-1.229,11.52,11.52,0,0,0,2.2,2,3.9,3.9,0,0,0-.757,1.627c-.053,1.122,1.655,1.061,2.43,1.238.943.214,1.915.517,2.875.64a1.25,1.25,0,0,0,1.056-.17c.343-.309.339-.9.389-1.321.174.007.345.026.521.026a11.4,11.4,0,0,0,3.572-.577,3.578,3.578,0,0,0,.738,1.5c.725.573,2.194-.713,2.784-1.086.631-.4,2.027-1.135,1.909-2.045a3.064,3.064,0,0,0-.79-1.267,11.511,11.511,0,0,0,1.819-2.44,6.705,6.705,0,0,0,1.786.843.469.469,0,0,0,.507-.206,9.166,9.166,0,0,0,.818-2.774,8.517,8.517,0,0,0,.643-2.987m-.891.354q-.084.327-.171.651c-.167.654-.327,1.311-.5,1.962a16.594,16.594,0,0,1-.507,2.022,8.114,8.114,0,0,1-1.295-.648l-.746-.422-.417.757A10.415,10.415,0,0,1,96,382.1l-.632.565.618.845c.015.022.031.043.046.064.38.546.562.617.031,1.081a9.909,9.909,0,0,1-1.316.927c-.325.2-.682.371-.994.592a.7.7,0,0,0-.448.361q-.184-.405-.364-.812c-.037-.083-.074-.166-.11-.25l-.449-1.009-.776.3a12.444,12.444,0,0,1-3.567.674l-.789-.094c0,.028-.009.064-.013.1l-.076.827a.914.914,0,0,1-.154.482c-.53.5-2.261-.252-2.914-.4a6.763,6.763,0,0,1-1.678-.372c-.16-.035-.32-.068-.48-.1a1.109,1.109,0,0,0,.508-.676c.085-.134.17-.277.254-.418l.278-.476-.743-.459a9.289,9.289,0,0,1-2.047-1.942l-.553-.748-.468.425a11.863,11.863,0,0,1-1.082.9c-.3-.654-.59-1.312-.846-1.987-.13-.343-.868-1.837-.716-2.139a1.8,1.8,0,0,1,.866-.48l.781-.252-.148-.88a12.636,12.636,0,0,1-.156-1.879c0-.211.026-.418.04-.626l.124-1.054-.933.087c-.162.02-.32.045-.481.069-.216-1.659.529-3.268,1.152-4.779.366-.889.681-.831,1.434-.451l.86.48.647-.781a11.825,11.825,0,0,1,1.4-1.333l.657-.483-.177-.977c-.044-.255-.084-.509-.113-.766a1.436,1.436,0,0,1-.05-.788q-.1-.469.409-.533a6.052,6.052,0,0,1,1.85-.766c.537-.183,1.023-.5,1.434-.1.224.22.275,1.157.345,1.444,0,.018.008.039.013.057l.161.709.914-.042c-.009-.037-.015-.081-.024-.119A10.277,10.277,0,0,1,88.969,364c.042,0,.081.007.123.007l.647.038.113-.567a5.79,5.79,0,0,1,.316-1.887c.447-.518,2.564-.344,3.193-.134,1.278.427.672,1.075.417,1.985-.1.371-.2.746-.3,1.12l-.14.574.891.554a10.227,10.227,0,0,1,1.439,1.248l.567.6.667-.4c.132-.079.26-.163.395-.239.3-.169.874-.647,1.235-.668.873-.047,1.165.779,1.522,1.355a5.341,5.341,0,0,1,.8,1.256c.119.57-.187.56-.743.824-.391.187-.785.372-1.177.562l-.843.421.332.9A12.569,12.569,0,0,1,99,374.34l.032.732.882.123.226.032a3.2,3.2,0,0,1,1.062.184c.227-.036.275.045.147.247" transform="translate(-75.64 -360.47)"/>
          <path id="Path_1611" data-name="Path 1611" d="M126.366,374.5a2.918,2.918,0,0,0-1.463-.113,6.918,6.918,0,0,0-.572-1.812c.131-.1.259-.21.391-.312.3-.237.748-.482.892-.864.29-.763-.694-1.708-1.181-2.19-.411-.407-1.081-1.152-1.7-.762a5.73,5.73,0,0,0-1.02,1.177l-.028.035a6.938,6.938,0,0,0-2.568-.947,4.958,4.958,0,0,0-.084-1.535.34.34,0,0,0-.239-.239,5.653,5.653,0,0,0-3.664,1.113c-.383.315-.248.732-.15,1.179.008.037.019.072.028.108a6.977,6.977,0,0,0-1.783,1.27,1.751,1.751,0,0,0-1.7-.3,2.178,2.178,0,0,0-.892,1.373,12.162,12.162,0,0,0-.546,2.688.425.425,0,0,0,.42.42c.209.005.426.012.644.017a5.921,5.921,0,0,0,.093,2.145c-.309.19-.616.387-.935.57a.386.386,0,0,0-.135.518c.419.813.93,1.576,1.414,2.352.218.348.48,1.129.989,1.13.353,0,.674-.379.929-.695a6.943,6.943,0,0,0,1.069.782,3.91,3.91,0,0,0-.116,1.37c.117.992.927,1.116,1.785,1.144a16.191,16.191,0,0,0,1.892-.042c.333-.03.616-.067.79-.381a1.967,1.967,0,0,0,.038-1.22,7.2,7.2,0,0,0,1.309-.308,2.819,2.819,0,0,0,.713,1.057c.558.388,1.462-.426,1.872-.762.534-.436,1.51-1.253,1.175-2.042a2.254,2.254,0,0,0-.447-.627,7.082,7.082,0,0,0,.524-.787c.23.1.462.2.69.3a1.585,1.585,0,0,0,1.016.205c.816-.225.738-1.651.8-2.293.067-.691.485-2.291-.251-2.713m-.53,2.062a9.118,9.118,0,0,1-.158,1.626.474.474,0,0,1-.135.357q-.063.327-.307.121a2.634,2.634,0,0,1-.755-.319l-.031-.012-.714-.288-.323.594a5.9,5.9,0,0,1-.455.619l-.536.565.618.607a.641.641,0,0,1,.146.357c-.008.566-1.135,1.4-1.79,1.677a3.683,3.683,0,0,1-.378-.6l-.448-.806-.706.284a7.68,7.68,0,0,1-1.019.27l-.778.108.058.817c0,.034,0,.068.007.1q.021.279.039.557.288-.016-.168.016c-.315.022-.63.036-.945.044-.749.019-1.836.252-1.864-.826a2.143,2.143,0,0,1,.056-.487l.174-.606-.66-.317a5.263,5.263,0,0,1-.876-.654l-.551-.573-.414.453a1.847,1.847,0,0,0-.242.293c-.2-.022-.7-1.121-.816-1.312-.274-.441-.549-.878-.845-1.3.132-.1.264-.192.4-.278l.663-.387-.127-.716a7.445,7.445,0,0,1-.067-.962,5.642,5.642,0,0,1,.06-.787l.226-.976-.856.068c-.116.01-.227.014-.34.022a9.881,9.881,0,0,1,.229-1.315c.086-.344.225-1.3.5-1.533.236-.2.714.019.939.165l.652.524c.018.016.037.03.055.045l.522-.673a6.893,6.893,0,0,1,1.365-1.018l.5-.427-.215-.576a.712.712,0,0,1,.248-.746,4.84,4.84,0,0,1,1.312-.494,5.183,5.183,0,0,1,1.314-.269,4.945,4.945,0,0,1,0,1.046l.164.279.562.221a5.441,5.441,0,0,1,2.162.916l.529.437.425-.45a8.314,8.314,0,0,1,.838-.875,4.905,4.905,0,0,1,1.59,1.777c.07.254-.294.611-.722.962l-.61.489.323.662a7.211,7.211,0,0,1,.428,1.423l.1.686.792-.025a4.272,4.272,0,0,1,.889.1,7.361,7.361,0,0,1-.045,1.317" transform="translate(-79.478 -361.188)"/>
          <path id="Path_1612" data-name="Path 1612" d="M89.283,382.064a6.166,6.166,0,1,1,6.166-6.165,6.172,6.172,0,0,1-6.166,6.165M89.55,370.3a5.823,5.823,0,0,0-5.729,5.6c0,3.011,1.991,5.46,5,5.46s5.92-2.221,5.92-5.231S92.562,370.3,89.55,370.3" transform="translate(-76.473 -361.502)"/>
          <path id="Path_1613" data-name="Path 1613" d="M118.673,379.343a3.055,3.055,0,1,1,3.055-3.053,3.058,3.058,0,0,1-3.055,3.053m.129-5.745a2.8,2.8,0,0,0-2.752,2.692,2.446,2.446,0,0,0,2.4,2.622A2.733,2.733,0,0,0,121.3,376.4a2.678,2.678,0,0,0-2.5-2.8" transform="translate(-80.094 -361.893)"/>
          <path id="Path_1614" data-name="Path 1614" d="M114.892,391.714a2.92,2.92,0,0,0-1.448.229,6.928,6.928,0,0,0-.977-1.63c.1-.132.2-.265.307-.394a2.437,2.437,0,0,0,.667-1.046c.1-.81-1.072-1.5-1.656-1.859-.494-.3-1.319-.869-1.834-.347a5.8,5.8,0,0,0-.719,1.383c-.006.014-.012.028-.019.041a6.914,6.914,0,0,0-2.718-.325,4.964,4.964,0,0,0-.436-1.473.339.339,0,0,0-.288-.178,5.652,5.652,0,0,0-3.306,1.932c-.3.395-.072.769.127,1.182.016.033.036.065.052.1a6.993,6.993,0,0,0-1.439,1.649,1.748,1.748,0,0,0-1.72.1,2.177,2.177,0,0,0-.55,1.543,12.09,12.09,0,0,0,.093,2.74.424.424,0,0,0,.506.31c.2-.043.417-.085.631-.132a6.929,6.929,0,0,0,.126.775,6.844,6.844,0,0,0,.462,1.29c-.257.257-.509.519-.777.77a.388.388,0,0,0-.012.537c.6.692,1.272,1.317,1.921,1.959.292.288.729.986,1.224.869.343-.081.569-.523.744-.89a7.059,7.059,0,0,0,1.221.514,3.9,3.9,0,0,0,.205,1.359c.344.937,1.16.871,2,.7a15.725,15.725,0,0,0,1.83-.481c.317-.106.584-.206.681-.553a1.965,1.965,0,0,0-.246-1.2,7.2,7.2,0,0,0,1.2-.6,2.807,2.807,0,0,0,.938.862c.633.25,1.324-.752,1.645-1.175.418-.547,1.178-1.568.669-2.258a2.208,2.208,0,0,0-.58-.506,7.1,7.1,0,0,0,.327-.889c.248.044.5.087.74.128a1.583,1.583,0,0,0,1.035-.036c.741-.409.335-1.779.246-2.416-.1-.689-.06-2.341-.874-2.58m-.037,2.128a9,9,0,0,1,.223,1.618.479.479,0,0,1-.048.38c.01.221-.081.283-.272.188a2.63,2.63,0,0,1-.808-.135l-.034-.006-.762-.113-.176.654a5.987,5.987,0,0,1-.3.708l-.39.673.742.447a.643.643,0,0,1,.225.314c.124.553-.779,1.623-1.352,2.046a3.685,3.685,0,0,1-.506-.495l-.623-.681-.62.441a7.635,7.635,0,0,1-.929.5l-.731.286.245.781c.011.032.02.065.031.1.056.179.112.355.167.533.184-.054.131-.036-.16.055s-.6.181-.909.262c-.724.191-1.727.671-2.006-.37a2.158,2.158,0,0,1-.058-.487l.028-.63-.715-.156a5.186,5.186,0,0,1-1-.433l-.668-.43-.3.538a1.945,1.945,0,0,0-.168.34c-.2.025-.936-.927-1.1-1.087-.369-.364-.738-.726-1.125-1.073.106-.124.212-.247.327-.362l.554-.531-.289-.667a7.513,7.513,0,0,1-.289-.922,5.741,5.741,0,0,1-.124-.778l-.006-1-.818.265c-.109.036-.217.067-.325.1a9.967,9.967,0,0,1-.083-1.334c0-.353-.083-1.313.132-1.606.184-.251.7-.147.952-.059l.756.36.064.032.353-.777a6.89,6.89,0,0,1,1.091-1.307l.389-.53-.342-.511a.712.712,0,0,1,.068-.784,4.85,4.85,0,0,1,1.162-.785,5.155,5.155,0,0,1,1.216-.567,4.932,4.932,0,0,1,.247,1.017l.224.233.6.085a5.462,5.462,0,0,1,2.317.389l.615.3.309-.537a8.357,8.357,0,0,1,.611-1.044,4.9,4.9,0,0,1,1.959,1.359c.126.233-.145.663-.479,1.1l-.481.616.468.57a7.253,7.253,0,0,1,.746,1.283l.257.646.765-.208a4.265,4.265,0,0,1,.888-.107,7.4,7.4,0,0,1,.261,1.292" transform="translate(-78.231 -363.328)"/>
          <path id="Path_1615" data-name="Path 1615" d="M108.411,398.358a3.054,3.054,0,1,1,2.263-3.68,3.058,3.058,0,0,1-2.263,3.68M107.2,392.74A2.8,2.8,0,0,0,105.151,396a2.447,2.447,0,0,0,2.947,1.995,2.734,2.734,0,0,0,2.183-3.1,2.678,2.678,0,0,0-3.077-2.146" transform="translate(-78.872 -364.02)"/>
        </g>
      </g>
      <text id="LOGIC" transform="translate(28.314 75.2)" font-size="10" font-family="Rubik-Medium, Rubik" font-weight="500"><tspan x="0" y="0">LOGIC</tspan></text>
    </g>
    <g id="Group_510" data-name="Group 510" transform="translate(73.108 108.7)">
      <g id="Group_508" data-name="Group 508">
        <path id="Path_1616" data-name="Path 1616" d="M47.236,257.618a3.764,3.764,0,0,0,2.4-3.951,2.312,2.312,0,0,0-2.521-2.14.486.486,0,0,1-.09.05c-1.6.534-3.208,1.8-3.148,3.651A2.544,2.544,0,0,0,47.236,257.618Z" transform="translate(-41.986 -238.107)" fill="#fff"/>
        <path id="Path_1617" data-name="Path 1617" d="M52.327,245.685c1.225-.416,2.294-2.272.921-3.08-.954-.561-1.766-.171-2.752-.294a.655.655,0,0,1-.188-.064,2.615,2.615,0,0,0-1.272,1.681C48.687,245.642,51.11,246.1,52.327,245.685Z" transform="translate(-42.557 -237.073)" fill="#fff"/>
        <path id="Path_1618" data-name="Path 1618" d="M71.357,312.445c1.166,15.66,32.325,11.544,32.7-3.119a1.1,1.1,0,0,1,1.382-1.052c11.039,3.1,21.87-3.319,25.308-14.11,3.194-10.029-.746-20.339-7.723-27.707a1.019,1.019,0,0,1-.267-1.008c3.074-7.7,5.148-16.913-3.691-21.652a20.892,20.892,0,0,0-21.807,1.693,1.059,1.059,0,0,1-1.1,0c-4.232-2.987-8.573-6.115-13.916-6.5a30.214,30.214,0,0,0-13.458,2.384c-9.138,3.773-15.247,12.39-14,22.457a.582.582,0,0,1-.02.222.985.985,0,0,1,.259,1.551C47.6,273.467,43.336,283.663,44.1,294.573c1,14.342,12.78,20.089,25.921,16.857A1.07,1.07,0,0,1,71.357,312.445Zm50.728-19.752c1.541,3.243,2.333,7.176,1.211,10.675a.3.3,0,0,1-.581-.079c.1-3.625-.014-6.856-1.431-10.258C121.092,292.571,121.874,292.252,122.084,292.694Zm-2.389,4.561a18.717,18.717,0,0,1,.408,5.95c-.056.378-.568.225-.605-.082-.233-1.889-.188-3.794-.467-5.685C118.968,297.009,119.614,296.814,119.7,297.255Zm-4.4,3.1c.076-.46.77-.261.7.194a9.718,9.718,0,0,1-1.441,4.185c-.158.219-.538.1-.456-.193A37.716,37.716,0,0,0,115.3,300.359Zm-4.648,3.647a5.68,5.68,0,0,1,.476-1.175c.126-.183.495-.2.535.07a3.646,3.646,0,0,1-.99,2.649.313.313,0,0,1-.52-.3A10.961,10.961,0,0,1,110.649,304.005Z" transform="translate(-42.001 -236.703)" fill="#fff"/>
        <path id="Path_1619" data-name="Path 1619" d="M126.732,299.511a34.912,34.912,0,0,1-3.131,2.566,12.509,12.509,0,0,1-.307,5.912.3.3,0,0,1-.581-.079,37.158,37.158,0,0,0-.138-5.116,26.546,26.546,0,0,1-2.5,1.467,13.607,13.607,0,0,1,.029,3.564c-.056.378-.568.225-.605-.082-.126-1.022-.172-2.049-.231-3.075a21.213,21.213,0,0,1-3.409,1.26,8.606,8.606,0,0,1-1.3,3.43c-.158.219-.538.1-.456-.193.291-1.03.665-2,.94-3.024a19.81,19.81,0,0,1-13.49-1.819c-2.573,6.9-5.076,16.24-14.2,15.877-7.534-.3-5.194-7.674-5.762-12.918-9.271,3.413-22.144,4.893-29.365-3.336a22.884,22.884,0,0,1-5.426-17.057,44.189,44.189,0,0,1,1.1-6.49,36.36,36.36,0,0,0-3.8,18.8c1,14.342,12.78,20.089,25.921,16.857a1.07,1.07,0,0,1,1.335,1.016c1.166,15.66,32.325,11.545,32.7-3.119a1.1,1.1,0,0,1,1.382-1.052c11.039,3.1,21.87-3.319,25.308-14.11a23.7,23.7,0,0,0,1.025-5.221A31.048,31.048,0,0,1,126.732,299.511ZM110.67,310.17a.313.313,0,0,1-.52-.3,10.96,10.96,0,0,1,.5-1.243,5.681,5.681,0,0,1,.476-1.175c.126-.183.495-.2.535.07A3.646,3.646,0,0,1,110.67,310.17Z" transform="translate(-42.001 -241.323)" fill="#c5c6ba"/>
        <g id="Group_507" data-name="Group 507">
          <path id="Path_1620" data-name="Path 1620" d="M132.461,277.78a32.017,32.017,0,0,0-3.692-7.6c-1.931-2.922-4.272-4.182-3.034-7.855,1.8-5.35,2.914-11.575-.754-16.426-3.393-4.49-9.447-6.59-14.9-6.77a23.31,23.31,0,0,0-8.423,1.269c-1.192.416-2.248,1.027-3.407,1.488-2.394.949-2.787.183-4.865-1.207A23.754,23.754,0,0,0,76.032,236.7c-13.144,1.843-26.07,12.6-22.868,27.036a.581.581,0,0,0,.148.273c-8.653,8.9-13.315,22.4-10.951,34.733,2.435,12.692,15.395,17.77,26.983,14.717,5.027,15.413,34.189,12.759,36.5-3.008,11.2,2.87,22.44-3.912,26.405-14.669a27.445,27.445,0,0,0,.211-18m-1.967,16.106c-3.438,10.791-14.269,17.206-25.308,14.11a1.1,1.1,0,0,0-1.382,1.052c-.375,14.663-31.534,18.779-32.7,3.119a1.07,1.07,0,0,0-1.335-1.016c-13.141,3.233-24.916-2.515-25.921-16.857-.765-10.91,3.5-21.106,10.929-28.968a.985.985,0,0,0-.259-1.551.582.582,0,0,0,.02-.222c-1.25-10.067,4.859-18.684,14-22.457a30.214,30.214,0,0,1,13.458-2.384c5.343.385,9.684,3.513,13.916,6.5a1.059,1.059,0,0,0,1.1,0,20.892,20.892,0,0,1,21.807-1.693c8.839,4.739,6.765,13.953,3.691,21.652a1.019,1.019,0,0,0,.267,1.008c6.977,7.368,10.917,17.678,7.723,27.707" transform="translate(-41.749 -236.424)"/>
          <path id="Path_1621" data-name="Path 1621" d="M51.262,252.305a3.4,3.4,0,0,0-5.712-1.6.417.417,0,0,0-.1.174,4.885,4.885,0,0,0-3.108,4.989,4.161,4.161,0,0,0,5.595,3.205,5.713,5.713,0,0,0,3.325-6.766m-4.2,5.107a2.544,2.544,0,0,1-3.355-2.389c-.06-1.85,1.546-3.117,3.148-3.651a.486.486,0,0,0,.09-.05,2.312,2.312,0,0,1,2.521,2.14,3.764,3.764,0,0,1-2.4,3.951" transform="translate(-41.811 -237.901)"/>
          <path id="Path_1622" data-name="Path 1622" d="M55.433,241.922c-.936-1.411-4.068-2.454-5.324-.933a3.456,3.456,0,0,0-2.562,2.8c-.4,2.615,2.732,3.676,4.844,3.368,2.035-.3,4.358-3.254,3.043-5.236m-3.272,3.539c-1.217.413-3.64-.043-3.291-1.757a2.615,2.615,0,0,1,1.272-1.681.655.655,0,0,0,.188.064c.986.123,1.8-.267,2.752.294,1.373.808.3,2.664-.921,3.08" transform="translate(-42.391 -236.849)"/>
          <path id="Path_1623" data-name="Path 1623" d="M131.769,299.409c-.211-.442-.993-.123-.8.338,1.416,3.4,1.531,6.632,1.431,10.258a.3.3,0,0,0,.581.079c1.122-3.5.33-7.431-1.211-10.675" transform="translate(-51.685 -243.418)"/>
          <path id="Path_1624" data-name="Path 1624" d="M129.1,304.537c-.082-.441-.728-.246-.665.183.279,1.891.235,3.8.467,5.685.037.307.549.459.605.082a18.717,18.717,0,0,0-.408-5.95" transform="translate(-51.406 -243.985)"/>
          <path id="Path_1625" data-name="Path 1625" d="M124.083,308.028a37.717,37.717,0,0,1-1.2,4.186c-.083.288.3.412.456.193a9.718,9.718,0,0,0,1.441-4.185c.072-.455-.623-.654-.7-.194" transform="translate(-50.787 -244.373)"/>
          <path id="Path_1626" data-name="Path 1626" d="M119.951,310.9c-.04-.272-.409-.253-.535-.07A5.681,5.681,0,0,0,118.94,312a10.96,10.96,0,0,0-.5,1.243.313.313,0,0,0,.52.3,3.646,3.646,0,0,0,.99-2.649" transform="translate(-50.292 -244.698)"/>
        </g>
      </g>
      <g id="Group_509" data-name="Group 509" transform="translate(23.107 15.949)">
        <path id="Path_1627" data-name="Path 1627" d="M78,254.408c-1.917.872-3.575,2.669-5.026,4.158-.744.762-1.471,1.548-2.155,2.366q-.308.367-.6.748-.411.6-.022-.217a4.162,4.162,0,0,0-.9-1.1.344.344,0,0,0-.57.331,4.391,4.391,0,0,0,1.006,2.351.661.661,0,0,0,.636.167c.565-.144.849-.639,1.218-1.068.768-.889,1.551-1.76,2.368-2.6,1.487-1.534,3.332-2.864,4.613-4.569.275-.367-.237-.712-.562-.563" transform="translate(-67.86 -254.372)"/>
        <path id="Path_1628" data-name="Path 1628" d="M77.942,267.338a18.316,18.316,0,0,0-5.3,4.017c-.4.407-.8.822-1.179,1.251-.3.335-.729,1.173-1.1,1.321q-.26.561-.306-.031c-.118-.172-.238-.344-.355-.514-.315-.537-.678-1.055-1.03-1.566-.25-.363-.912-.154-.757.319.385,1.167,1.394,4.313,3.043,3.082,1.245-.929,2.226-2.545,3.369-3.633,1.321-1.259,2.8-2.345,4.081-3.639.33-.33-.084-.778-.467-.607" transform="translate(-67.769 -255.813)"/>
        <path id="Path_1629" data-name="Path 1629" d="M72.995,286.173q0-1.2,0-2.407a.573.573,0,0,0-.566-.566c-.754.042-1.509.079-2.262.119a2.3,2.3,0,0,0-1.547.39.315.315,0,0,0-.064.387.346.346,0,0,0-.2.212,10.12,10.12,0,0,0-.4,2.157,4.656,4.656,0,0,0-.158,1.639c.243.905,1.77.656,2.454.645.842-.012,2.412.18,2.719-.86a6.512,6.512,0,0,0,.028-1.716m-1.4,1.383a3.7,3.7,0,0,1-1.174.072,6.109,6.109,0,0,0-1.176,0q-.308-.133-.371.052l.051-.528a12.971,12.971,0,0,0,.12-2.719,3.641,3.641,0,0,0,1.284.02l1.536-.09,0,2.154q0,.343,0,.687.173.477-.275.351" transform="translate(-67.753 -257.584)"/>
        <path id="Path_1630" data-name="Path 1630" d="M106.025,262.3c-4.5-.6-9.134-.33-13.658-.325-4.218,0-8.713-.435-12.885.208a.412.412,0,0,0,0,.788c4.173.644,8.667.205,12.885.209,4.525,0,9.163.274,13.658-.325a.277.277,0,0,0,0-.555" transform="translate(-69.027 -255.204)"/>
        <path id="Path_1631" data-name="Path 1631" d="M107.175,275.068c-4.392-.746-9.2-.241-13.655-.25-4.407-.008-9.316-.574-13.649.27a.372.372,0,0,0,0,.711c4.332.843,9.244.277,13.649.269,4.452-.008,9.262.5,13.655-.249a.393.393,0,0,0,0-.752" transform="translate(-69.074 -256.629)"/>
        <path id="Path_1632" data-name="Path 1632" d="M107.851,287.183c-4.292-.834-9.128-.244-13.491-.224-4.407.02-9.111-.409-13.467.309a.313.313,0,0,0,0,.6c4.355.718,9.061.289,13.467.309,4.365.02,9.2.61,13.491-.225a.4.4,0,0,0,0-.769" transform="translate(-69.192 -257.978)"/>
      </g>
      <text id="LISTS" transform="translate(29.017 68.383)" font-size="10" font-family="Rubik-Medium, Rubik" font-weight="500"><tspan x="0" y="0">LISTS</tspan></text>
    </g>
    <g id="Group_521" data-name="Group 521" transform="translate(138.105 142.647)">
      <g id="Group_516" data-name="Group 516" transform="translate(28.481 18.293)">
        <path id="Path_1645" data-name="Path 1645" d="M274.843,272.687c8.189.743,16.755-.916,22.781-6.9,4.989-4.957,9.551-15.622,3.016-21.261a1.1,1.1,0,0,1-.168-1.308c4.462-8.251,9.176-16.8,9.349-26.419a36.34,36.34,0,0,0-7.294-22.241c-10.88-14.537-30.819-17.015-46.356-8.849a.607.607,0,0,1-.161.05.978.978,0,0,1-1.516.243c-6.726-5.969-15.369-14.671-25.156-12.423-7.592,1.743-14.978,7-20.676,12.124-9.411,8.465-25.029,27.98-15.353,40.923a1.144,1.144,0,0,1-.179,1.388c-9.58,8.334-15.385,21.374-10.3,33.78,5.435,13.248,19.32,15.176,32.021,14.608a1.161,1.161,0,0,1,1.025.586c5.3,10.875,18.485,11.574,29.109,11.042,9.319-.467,28.136-1.492,28.725-14.207A1.147,1.147,0,0,1,274.843,272.687Zm20.067-20.039a15.6,15.6,0,0,1,1.174,8.725c-.06.3-.478.2-.5-.067a32.185,32.185,0,0,0-1.317-8.481C294.127,252.415,294.758,252.257,294.91,252.647Zm-2.659,5.18c.633,1.617.97,3.672.076,5.248a.218.218,0,0,1-.4-.109c.06-1.75.307-3.263-.278-4.972C291.514,257.607,292.107,257.459,292.251,257.827Zm-2.677,3.912c-.015-.464.7-.46.719,0a6.3,6.3,0,0,1-.54,3.264c-.137.237-.585.153-.551-.149A20.958,20.958,0,0,0,289.574,261.738Zm-3.838,2.815a.326.326,0,0,1,.651,0,5.882,5.882,0,0,1-1.147,3.892c-.154.19-.519-.015-.422-.246A9.058,9.058,0,0,0,285.736,264.554Zm-101.429-6.369c.14-1.783.737-3.88,2.237-5,.233-.173.49.153.371.371-.839,1.555-1.739,2.807-1.958,4.624C184.91,258.592,184.275,258.608,184.308,258.185Zm2.411,4.083a.317.317,0,0,1-.61-.168,15.736,15.736,0,0,1,.816-2.719.28.28,0,0,1,.517.14A15.887,15.887,0,0,1,186.718,262.268Zm2.786,1.623c-.094.413-.728.236-.634-.175a10.342,10.342,0,0,1,.594-2.253.265.265,0,0,1,.49.133A10.409,10.409,0,0,1,189.5,263.892Zm4.051,4.512c.02.423-.637.421-.658,0a7,7,0,0,1,.378-2.882c.093-.232.516-.23.478.065A15.9,15.9,0,0,0,193.555,268.4Z" transform="translate(-180.947 -173.213)" fill="#fff"/>
        <path id="Path_1646" data-name="Path 1646" d="M296.132,268.413c-.018.108-.026.215-.048.323-.06.3-.478.2-.5-.067v-.006q-.952.417-1.9.763c-.334.121-.694.244-1.069.37a3.945,3.945,0,0,1-.288.642.218.218,0,0,1-.4-.109c0-.106.01-.209.013-.314q-.794.253-1.679.5a4.56,4.56,0,0,1-.506,1.846c-.137.237-.585.153-.551-.149.056-.5.15-.987.231-1.472-7.1,1.881-17.315,3.091-21.369-2.324-5.788,9.178-14.276,18.337-25.7,19.349-5.473.484-11.433-.54-15.908-3.885-4.915-3.674-2.7-7.43-2.424-12.292-9.516,2.846-21.769,3.337-29.314-4.151-6.9-6.851-8.905-18.81-5.512-28.14-7.117,8.195-10.723,19.254-6.377,29.852,5.435,13.248,19.32,15.176,32.021,14.608a1.161,1.161,0,0,1,1.025.586c5.3,10.875,18.485,11.574,29.109,11.042,9.319-.467,28.136-1.492,28.725-14.207a1.147,1.147,0,0,1,1.131-1.133c8.189.743,16.755-.916,22.781-6.9a23.2,23.2,0,0,0,5.456-9.038A34.117,34.117,0,0,1,296.132,268.413Zm-111.824-2.865c.14-1.783.737-3.88,2.237-5,.233-.173.49.153.371.371-.839,1.555-1.739,2.807-1.958,4.624C184.91,265.955,184.275,265.971,184.308,265.548Zm2.411,4.083a.317.317,0,0,1-.61-.168,15.736,15.736,0,0,1,.816-2.719.28.28,0,0,1,.517.14A15.887,15.887,0,0,1,186.718,269.631Zm2.786,1.623c-.094.413-.728.236-.634-.175a10.342,10.342,0,0,1,.594-2.253.265.265,0,0,1,.49.133A10.409,10.409,0,0,1,189.5,271.255Zm4.051,4.512c.02.423-.637.421-.658,0a7,7,0,0,1,.378-2.882c.093-.232.516-.23.478.065A15.9,15.9,0,0,0,193.555,275.767Zm91.685.042c-.154.19-.519-.015-.422-.246a9.058,9.058,0,0,0,.918-3.646.326.326,0,0,1,.651,0A5.882,5.882,0,0,1,285.24,275.809Z" transform="translate(-180.947 -180.576)" fill="#c5c6ba"/>
      </g>
      <g id="Group_517" data-name="Group 517">
        <path id="Path_1647" data-name="Path 1647" d="M303.069,235.573c4.746-10.02,6.8-20.656,3.247-31.4a36.959,36.959,0,0,0-19.9-22.383c-10.985-4.811-24.218-4.112-34.315,2.456-5.764-5.959-14.335-13.956-23.168-13.689-5.436.165-10.851,2.62-15.7,5.711-2.9-2.635-5.53,3.89-7.218,5.258A66.768,66.768,0,0,0,189.1,202.01c-3.439,6.479-6.424,14.786-3.484,22.009.01.025.02.046.031.07-6.986-1.432-13.543-3.646-19.349-7.944-6.712-4.971-11.741-12.14-16.349-19a.562.562,0,0,0-.969.566c8.09,14.324,19.289,27.493,36.994,28.433a.828.828,0,0,0,.6-.208c.245.557.126.9-.783,2-1.239,1.5-2.666,2.788-3.851,4.346a34.727,34.727,0,0,0-5.951,11.837,28.741,28.741,0,0,0,1.189,18.7c-5.641.366,1.623,3.261,2.324,4.3,4.4,6.537,11.454,9.885,19.088,10.968a54.284,54.284,0,0,0,6.991.507c2.669.032,4.017-.451,5.843,1.611,2.62,2.962,4.885,5.393,8.57,7.106,9.97,4.638,22.91,3.232,33.383,1.355,8.136-1.457,17.662-4.781,18.818-13.951,10.552.661,21.58-2.911,27.149-12.5a19.836,19.836,0,0,0,2.706-13.1,17.241,17.241,0,0,0-1.954-4.789c-.758-1.557-.742-1.351.093-3.1.913-1.91,1.98-3.744,2.886-5.659m-6.11,8.655c6.536,5.639,1.973,16.3-3.016,21.261-6.026,5.986-14.591,7.645-22.781,6.9a1.147,1.147,0,0,0-1.131,1.133c-.589,12.715-19.406,13.739-28.725,14.207-10.625.532-23.811-.166-29.109-11.042a1.161,1.161,0,0,0-1.025-.586c-12.7.568-26.587-1.36-32.021-14.608-5.087-12.406.718-25.446,10.3-33.78a1.144,1.144,0,0,0,.179-1.388c-9.676-12.943,5.942-32.458,15.353-40.923,5.7-5.125,13.084-10.38,20.676-12.124,9.787-2.248,18.43,6.455,25.156,12.423a.978.978,0,0,0,1.516-.243.608.608,0,0,0,.161-.05c15.537-8.165,35.476-5.688,46.356,8.849A36.34,36.34,0,0,1,306.14,216.5c-.172,9.62-4.887,18.168-9.349,26.419a1.1,1.1,0,0,0,.168,1.308" transform="translate(-148.895 -154.624)"/>
        <path id="Path_1648" data-name="Path 1648" d="M23.678.217a.307.307,0,0,0-.6.082c.127,4.984-5.783,4.548-8.97,3.455a6.6,6.6,0,0,0-4.3-.265,5.347,5.347,0,0,0-2.1-1.568,7.2,7.2,0,0,0-6.818.343c-1.941,1.258-.548.638,2.6.126a6.351,6.351,0,0,1,4.335.852A4.349,4.349,0,0,1,8.705,4a6.881,6.881,0,0,0-.925.669C6.221,6,4.7,8.022,5.325,10.194a2.775,2.775,0,0,0,3.709,1.92c1.935-.913,2.112-3.667,1.924-5.48A6.57,6.57,0,0,0,10.269,4.2c2.269-.566,4.406,1.083,6.786,1.3,3.061.278,7.567-1.485,6.623-5.285M9.9,7.85c0,.77-.016,2.054-.625,2.6l-2.133.625a2.223,2.223,0,0,1-.959-2.4c.127-1.543,1.544-3.087,2.8-3.9.065-.043.13-.081.2-.119A6.178,6.178,0,0,1,9.9,7.85" transform="matrix(-0.375, 0.927, -0.927, -0.375, 113.8, 4.625)"/>
        <path id="Path_1650" data-name="Path 1650" d="M359.5,229.8c-5-.152-10.034.576-15.039.7-5.022.127-10.041-.031-15.062-.108-.528-.008-.675.857-.129.946,9.6,1.57,20.926,2.317,30.407-.236a.667.667,0,0,0-.177-1.3" transform="translate(-168.952 -161.222)"/>
        <path id="Path_1652" data-name="Path 1652" d="M301.38,340.176a10.727,10.727,0,0,1-5.8-3.952c-.094-.134-.175-.274-.262-.411a4.86,4.86,0,0,0,2.961-2.356c1.275-2.114,1.152-5.691-.716-7.449a2.632,2.632,0,0,0-4.344.533,8.332,8.332,0,0,0-.489,7.444,6.669,6.669,0,0,1-1.534-.353,11.5,11.5,0,0,1-5.6-4.772c-2.437-3.79-3.475-8.529-4.535-12.853-1.115-4.546-1.955-9.155-2.875-13.743a.35.35,0,0,0-.685.093,88.958,88.958,0,0,0,2.342,14.649c.977,4.12,1.946,8.49,4.106,12.184,1.582,2.707,5.98,6.548,9.778,6.767a11.046,11.046,0,0,0,7.409,5.119.466.466,0,0,0,.248-.9m-6.831-12.857c2.569-2.26,3.457,4.161,2.347,5.33a4.427,4.427,0,0,1-2.514,1.285,8.728,8.728,0,0,1-.357-1.216c-.211-1.026-.471-4.523.524-5.4" transform="translate(-150.061 -183.488)"/>
        <path id="Path_1653" data-name="Path 1653" d="M230.933,306.622a.353.353,0,0,0-.706,0c-.373,5.45-.1,10.924-.814,16.354a44.3,44.3,0,0,1-5.021,15.379.413.413,0,0,0,.713.417c6.719-8.711,7.069-21.7,5.828-32.15" transform="translate(-141.882 -168.222)"/>
        <path id="Path_1654" data-name="Path 1654" d="M22.852.138c-2.712,6.334-5.609,12.675-8.916,18.726C10.48,25.188,4.725,30.442.053,35.88a.2.2,0,0,0,.275.275C5.692,31.541,11.342,26.1,14.848,19.871c1.826-3.246,3.336-6.694,4.935-10.055,1.443-3.033,2.99-6.138,3.549-9.475.044-.266-.353-.5-.479-.2" transform="matrix(0.839, 0.545, -0.545, 0.839, 31.806, 114.552)"/>
        <path id="Path_1655" data-name="Path 1655" d="M308.993,262.579c-.152-.39-.783-.232-.64.178a32.185,32.185,0,0,1,1.317,8.481c.019.266.437.364.5.067a15.6,15.6,0,0,0-1.174-8.725" transform="translate(-166.658 -164.852)"/>
        <path id="Path_1656" data-name="Path 1656" d="M306.006,268.409c-.144-.368-.738-.22-.606.167.585,1.709.338,3.222.278,4.972a.218.218,0,0,0,.4.109c.895-1.576.557-3.631-.076-5.248" transform="translate(-166.329 -165.503)"/>
        <path id="Path_1657" data-name="Path 1657" d="M303.743,272.795c-.019-.46-.734-.464-.719,0a20.961,20.961,0,0,1-.372,3.114c-.034.3.414.387.551.149a6.3,6.3,0,0,0,.54-3.264" transform="translate(-166.025 -165.976)"/>
        <path id="Path_1658" data-name="Path 1658" d="M298.635,275.967a9.059,9.059,0,0,1-.918,3.646c-.1.231.267.436.422.246a5.882,5.882,0,0,0,1.147-3.892.326.326,0,0,0-.651,0" transform="translate(-165.474 -166.333)"/>
        <path id="Path_1659" data-name="Path 1659" d="M186.843,263.211c-1.5,1.115-2.1,3.212-2.237,5-.033.423.6.407.651,0,.219-1.817,1.119-3.069,1.958-4.624.118-.219-.139-.545-.371-.371" transform="translate(-152.873 -164.942)"/>
        <path id="Path_1660" data-name="Path 1660" d="M187.446,270.168a15.735,15.735,0,0,0-.816,2.719.317.317,0,0,0,.61.168,15.887,15.887,0,0,0,.722-2.747.28.28,0,0,0-.517-.14" transform="translate(-153.098 -165.707)"/>
        <path id="Path_1661" data-name="Path 1661" d="M190.333,272.512a10.342,10.342,0,0,0-.594,2.253c-.094.411.539.588.634.175a10.411,10.411,0,0,0,.45-2.3.265.265,0,0,0-.49-.133" transform="translate(-153.444 -165.969)"/>
        <path id="Path_1662" data-name="Path 1662" d="M195.126,277.14c.038-.3-.385-.3-.478-.065a7,7,0,0,0-.378,2.882c.021.421.679.423.658,0a15.814,15.814,0,0,1,.2-2.817" transform="translate(-153.949 -166.473)"/>
      </g>
      <g id="Group_520" data-name="Group 520" transform="translate(49.319 40.283)">
        <g id="Group_518" data-name="Group 518" transform="translate(1.364 1.292)">
          <path id="Path_1663" data-name="Path 1663" d="M216.077,274.662a3.9,3.9,0,0,0,2.6,1.806,4.594,4.594,0,0,0,2.284-.518,11.3,11.3,0,0,1-1.249-2.389A9.669,9.669,0,0,1,216.077,274.662Z" transform="translate(-207.063 -207.675)" fill="#d34276"/>
          <path id="Path_1664" data-name="Path 1664" d="M226.7,232.453c5.113,2.034,11.147.488,15.6-2.537,4.352-2.956,6.8-7.952,7.912-12.961a45.69,45.69,0,0,0,.965-8.689c.076-2.85.286-7.359-2.931-8.618-2.722-1.064-6.227,1.712-7.349,3.967-1.32,2.658-.667,5.488.8,7.906a5.017,5.017,0,0,1,4.082-1.407c.361.061.336.626,0,.7a7.909,7.909,0,0,0-3.634,1.743c-.89.8-1.553,1.8-2.428,2.608a.3.3,0,0,1-.464-.359,9.926,9.926,0,0,1,1.823-2.7.48.48,0,0,1-.062-.045,8.1,8.1,0,0,1-1.377-8.685c-3.883-3.365-8.622-.229-9.362,4.235,0,.015-.017.02-.02.033a.332.332,0,0,1-.169.611c-2.131-.064-4.08-.153-5.933,1.11-2.291,1.56-2.877,4.348-2.709,6.957a7.623,7.623,0,0,0,3.823,6.416,20.749,20.749,0,0,0,4.162,1.5,12.5,12.5,0,0,1,2.527-8.039,3.54,3.54,0,0,1-1.194-3.329.3.3,0,0,1,.582,0,5.48,5.48,0,0,0,1.55,2.442.265.265,0,0,1,.267.232c.1.084.192.178.3.254a12.88,12.88,0,0,0,3.1,1.279.41.41,0,0,1,0,.781,4.52,4.52,0,0,1-3.9-1.051,23.222,23.222,0,0,0-1.806,4.462,14.157,14.157,0,0,0,.4,7.293.349.349,0,0,1-.634.267,9.733,9.733,0,0,1-1.1-3.536,9.82,9.82,0,0,1-6.335-2.413,9.268,9.268,0,0,1-3.085-7.6,4.9,4.9,0,0,0-3.418.433,6.436,6.436,0,0,0-2.085,2.471,9.6,9.6,0,0,0-1.065,3.25c-.1.729-.3,2.91.464,3.374a.184.184,0,0,1,.084.207c0,.012-.01.023-.014.035a.31.31,0,0,1-.3.43c-6.859.186-9.591,8.155-5.18,13.082a10.987,10.987,0,0,0,6.338,3.41c2.937.487,5.464-.471,8.274-.962a13.127,13.127,0,0,1,.907-3.089c.133-.307.6-.08.522.22a12.944,12.944,0,0,0-.55,4.055,7.324,7.324,0,0,0,1.528,3.534c.195.311-.176.585-.458.459-1.71-.761-2.161-2.475-2.054-4.256-4.54,3.018-11.539,1.713-15.228-2.243a5.954,5.954,0,0,0-1.929,4.506,7.176,7.176,0,0,0,1.832,4.741,5.27,5.27,0,0,1,3.789-2.042.333.333,0,0,1,.088.652c-4.742,1.009-5.716,8.5-4.677,12.4a6.641,6.641,0,0,0,5.265,4.989c2.092.385,4.025-.251,6.028-.65-1.161-4.418.65-9.183,4.536-12.339a9.443,9.443,0,0,1,14.108,2.337c.306.516-.451.929-.788.462a8.822,8.822,0,0,0-9.806-3.367c-4.305,1.5-7.812,6.835-7.046,11.341a10.289,10.289,0,0,0,7.429,8.24c4.191,1.068,8.2-.953,10.868-4.132,2.8-3.328,4.1-7.653,5.287-11.751,1.1-3.774,2.038-7.591,2.857-11.435,1.392-6.54,2.387-13.151,3.534-19.732a19.447,19.447,0,0,1-4.479,5.858c-4.469,3.922-12.937,6.96-18.247,3.133C226.306,232.75,226.426,232.343,226.7,232.453Zm3.263,35.27c-.113.2-.369.05-.34-.143.075-.533.248-1.055.349-1.583.06-.316.543-.181.482.133A5.269,5.269,0,0,1,229.963,267.723Zm2.835.076c-.1.243-.489.232-.484-.066.016-1.043.2-2.062.148-3.111-.018-.393.57-.381.6,0A7.033,7.033,0,0,1,232.8,267.8Zm1.812-.254a.252.252,0,0,1-.465-.127c-.031-.872.193-1.737.235-2.609a22.6,22.6,0,0,0-.117-2.63c-.024-.348.456-.355.562-.076C235.431,263.686,235.586,266.078,234.61,267.545Z" transform="translate(-205.933 -199.414)" fill="#f772a9"/>
          <path id="Path_1665" data-name="Path 1665" d="M281.808,252.771a17.571,17.571,0,0,0,6.448-2.624c2.491-1.659,4.306-3.844,4.19-6.99-.112-3.008-2.248-4.708-4.868-5.686a.234.234,0,0,1,.062-.456,4.782,4.782,0,0,1,1.891.146,25.057,25.057,0,0,0,2.327-4.094c.529-1.569.648-4.4-1.182-5.092-2.477,3.811-7.442,5.9-11.742,3.93a15.57,15.57,0,0,1-.536,1.905c-.092.249-.511.231-.492-.068.115-1.75.3-3.485.266-5.242-.029-1.464-.307-2.923-.375-4.379a4.515,4.515,0,0,1-3.046-.346c-.257-.117-.1-.464.132-.482,1.4-.116,2.635.009,3.842-.85a5.438,5.438,0,0,0,2.516-3.125.284.284,0,0,1,.542,0c.572,1.751-.88,2.971-2.158,3.913a5.8,5.8,0,0,1-1.1.641,13.454,13.454,0,0,1,.572,7.238c4.267,1.113,8.626-.212,10.862-4.279,2.181-3.971.513-10.814-5.165-9.79a.616.616,0,0,1-.686-.893c2.452-4.264-.688-10.649-5.966-9.307-.011,3.134-2.723,6.532-5.4,7.965a6.181,6.181,0,0,1-.1,3.687.34.34,0,0,1-.665-.09,16.265,16.265,0,0,0-.331-3.415,6.8,6.8,0,0,0-1.73-2.294c-.093-.111-.083-.347.1-.371a2.6,2.6,0,0,1,2.435,1.725c1.864-1.621,3.882-3.162,4.24-5.8.522-3.846-2.829-6.2-6.356-4.353-4.468,2.344-7.241,8.041-8.315,12.739a29.125,29.125,0,0,0,1.382,16.384,15.621,15.621,0,0,0,10.892,11.1c.231.093.221.467-.062.461-6.913-.147-10.827-6.907-12.66-12.693a31.959,31.959,0,0,1-1.5-8.607,170.335,170.335,0,0,0-3.926,17.428,127.842,127.842,0,0,0-1.411,23.085c.124,3.891.968,7.61,4.83,9.384a9.975,9.975,0,0,0,9.369-.671.41.41,0,0,1,.545-.413,6.361,6.361,0,0,0,1.493-1.85c1.6-3,.631-7.6-.844-10.5a7.858,7.858,0,0,0-9.8-4.018.294.294,0,0,1-.226-.535c6.3-3.462,11.534,2.446,12.6,8.27.527,2.869.624,6.11-1.295,8.5a7.809,7.809,0,0,1-.891.922c3.521,2.385,7.728.5,10.312-2.732,2.738-3.423,3.11-7.707,2.119-11.855-.048-.2.236-.331.334-.141a11.34,11.34,0,0,1,1.259,5.15,11.912,11.912,0,0,0,5.046-5.14c1.253-2.483.9-4.95.172-7.446a18.682,18.682,0,0,1-7.962,3.387c-2.424.414-5.872.7-7.96-.913a6.023,6.023,0,0,1-2.183,2.311.294.294,0,0,1-.4-.4,13.335,13.335,0,0,0,2.068-3.226,24.524,24.524,0,0,0,.464-3.984c.031-.22.342-.14.36.048a11.931,11.931,0,0,1,.012,4.509C276.238,253.593,279.589,253.19,281.808,252.771Zm6.8-8.381c0-.307.449-.3.47,0a9.743,9.743,0,0,1-.045,3.288c-.061.211-.428.248-.465,0A25.406,25.406,0,0,1,288.61,244.39Zm-1.82,1.556c-.025-.356.5-.335.543,0a5.708,5.708,0,0,1-.207,3.029c-.114.249-.493.113-.493-.133C286.633,247.867,286.859,246.932,286.79,245.946Zm-2.782,3.113a4.164,4.164,0,0,0,.813-1.631c.067-.336.574-.192.51.141a2.782,2.782,0,0,1-1.035,1.777C284.128,249.468,283.887,249.226,284.008,249.059Z" transform="translate(-211.364 -199.842)" fill="#f772a9"/>
          <path id="Path_1666" data-name="Path 1666" d="M220.549,259.292c-2.269.146-4.287-.642-4.993-3.308-.993-3.75.523-5.7,2.612-7.388a13.112,13.112,0,0,1-10.307-3.862,5.954,5.954,0,0,0-1.929,4.506,7.176,7.176,0,0,0,1.832,4.741,5.27,5.27,0,0,1,3.789-2.042.333.333,0,0,1,.088.652c-4.742,1.009-5.716,8.5-4.677,12.4a6.641,6.641,0,0,0,5.265,4.989c2.092.385,4.025-.251,6.028-.65A11.564,11.564,0,0,1,220.549,259.292Z" transform="translate(-205.933 -204.464)" fill="#d34276"/>
          <path id="Path_1667" data-name="Path 1667" d="M214.983,245.613a15.248,15.248,0,0,0,6-.49c.411-.318.815-.649,1.2-1-4.426,1.255-9.634-.918-12.454-4.647a10.044,10.044,0,0,1-1.776-7.34,8.062,8.062,0,0,0,.694,10.069A10.987,10.987,0,0,0,214.983,245.613Z" transform="translate(-205.997 -203.06)" fill="#d34276"/>
          <path id="Path_1668" data-name="Path 1668" d="M236.84,272.8a4.14,4.14,0,0,1-.571,1.471.252.252,0,0,1-.465-.127,6.875,6.875,0,0,1,.068-1.105c-.366.071-.744.119-1.128.155a4.7,4.7,0,0,1-.288,1.331c-.1.243-.489.232-.484-.066.006-.409.038-.814.073-1.218-.228.009-.457.014-.69.011a12.159,12.159,0,0,1-1.3-.1,4.51,4.51,0,0,1-.431,1.294c-.113.2-.369.05-.34-.143.059-.418.172-.829.269-1.241a7.81,7.81,0,0,1-5.993-4.4c-1.481-3.03-.5-6.182,1.095-8.913a15.485,15.485,0,0,1-2.532.9c-2.293,2.361-3.715,5.76-3.2,8.791a10.289,10.289,0,0,0,7.43,8.24c4.191,1.068,8.2-.953,10.868-4.132a18.327,18.327,0,0,0,2.131-3.224A12.261,12.261,0,0,1,236.84,272.8Z" transform="translate(-207.591 -206.137)" fill="#d34276"/>
          <path id="Path_1669" data-name="Path 1669" d="M290.41,257.588a18.876,18.876,0,0,1-6.619,2.488,17.186,17.186,0,0,1-4.834.227,4.913,4.913,0,0,1-4.981,6.622,13.742,13.742,0,0,1,.719,2.5c.527,2.869.624,6.11-1.295,8.5a7.809,7.809,0,0,1-.891.922c3.521,2.385,7.728.5,10.312-2.732,2.738-3.423,3.11-7.707,2.119-11.856-.048-.2.236-.331.334-.141a11.34,11.34,0,0,1,1.259,5.15,11.912,11.912,0,0,0,5.046-5.14c1.229-2.437.912-4.859.21-7.309C291.342,257.1,290.881,257.347,290.41,257.588Z" transform="translate(-213.35 -205.811)" fill="#d34276"/>
          <path id="Path_1670" data-name="Path 1670" d="M270.441,267.493c-.108-.067-.218-.117-.323-.2-.756,5.113-6.4,7.158-11.334,4.754a7.587,7.587,0,0,1-4.1-5.075c0,1.305.011,2.612.052,3.916.124,3.891.968,7.61,4.83,9.384a9.975,9.975,0,0,0,9.369-.671.41.41,0,0,1,.545-.413,6.361,6.361,0,0,0,1.493-1.85C272.46,274.558,271.733,270.394,270.441,267.493Z" transform="translate(-211.365 -206.942)" fill="#d34276"/>
        </g>
        <g id="Group_519" data-name="Group 519">
          <path id="Path_1671" data-name="Path 1671" d="M291.1,249.269a8.239,8.239,0,0,0,2.227-8.257,6.117,6.117,0,0,0-3.175-3.753,8.249,8.249,0,0,0,3.146-7.178c-.156-1.159-.977-3-2.185-3.36a9.461,9.461,0,0,0,.528-1.27c1.489-4.6-1.212-9.913-6.126-9.882a7.314,7.314,0,0,0-.754-7.555c-1.573-2.049-4.451-3.4-6.862-2.292a4.972,4.972,0,0,0-2.093-3.176c-5.55-4.059-11.648,4.354-13.6,8.611a25.435,25.435,0,0,0-2.15,7.924c-2.8,7.07-4.279,14.884-5.363,22.36a115.959,115.959,0,0,0-1.36,23.534c.172,2.806.855,5.6,3.008,7.555a10.952,10.952,0,0,0,13.07.887c2.719,3.5,8.5,1.244,11.179-1.365a12.485,12.485,0,0,0,3.761-8.018c2.628.044,5.159-3.374,6.2-5.413a9.008,9.008,0,0,0-.179-8.713c.247-.21.5-.417.728-.641m-1.671,8.7a11.912,11.912,0,0,1-5.046,5.14,11.34,11.34,0,0,0-1.259-5.15c-.1-.189-.382-.055-.334.141.991,4.149.618,8.433-2.119,11.856-2.584,3.232-6.791,5.116-10.312,2.732a7.809,7.809,0,0,0,.891-.922c1.918-2.394,1.822-5.635,1.295-8.5-1.071-5.824-6.3-11.732-12.6-8.27a.294.294,0,0,0,.226.535,7.858,7.858,0,0,1,9.8,4.018c1.475,2.9,2.442,7.5.844,10.5a6.361,6.361,0,0,1-1.493,1.85.41.41,0,0,0-.545.413,9.975,9.975,0,0,1-9.369.671c-3.863-1.775-4.707-5.493-4.83-9.384a127.842,127.842,0,0,1,1.411-23.085,170.331,170.331,0,0,1,3.926-17.428,31.959,31.959,0,0,0,1.5,8.607c1.832,5.786,5.746,12.547,12.66,12.693.283.006.293-.368.062-.461a15.621,15.621,0,0,1-10.892-11.1,29.125,29.125,0,0,1-1.382-16.384c1.073-4.7,3.847-10.395,8.315-12.739,3.527-1.85,6.879.507,6.356,4.353-.358,2.639-2.376,4.181-4.24,5.8a2.6,2.6,0,0,0-2.435-1.725c-.182.024-.192.26-.1.371a6.8,6.8,0,0,1,1.73,2.294,16.265,16.265,0,0,1,.331,3.415.34.34,0,0,0,.665.09,6.181,6.181,0,0,0,.1-3.687c2.681-1.433,5.393-4.831,5.4-7.965,5.278-1.342,8.418,5.043,5.966,9.307a.616.616,0,0,0,.686.893c5.678-1.025,7.347,5.818,5.165,9.79-2.236,4.067-6.6,5.393-10.862,4.279a13.454,13.454,0,0,0-.572-7.238,5.8,5.8,0,0,0,1.1-.641c1.279-.943,2.731-2.163,2.158-3.913a.284.284,0,0,0-.542,0,5.438,5.438,0,0,1-2.516,3.125c-1.208.859-2.438.734-3.842.85-.229.019-.388.365-.132.482a4.515,4.515,0,0,0,3.046.346c.068,1.456.346,2.915.375,4.379.036,1.757-.151,3.492-.266,5.242-.019.3.4.316.492.068a15.57,15.57,0,0,0,.536-1.905c4.3,1.971,9.264-.119,11.742-3.93,1.83.69,1.711,3.523,1.182,5.092a25.057,25.057,0,0,1-2.327,4.094,4.782,4.782,0,0,0-1.891-.146.234.234,0,0,0-.062.456c2.62.978,4.756,2.678,4.868,5.686.116,3.146-1.7,5.331-4.19,6.99a17.571,17.571,0,0,1-6.448,2.624c-2.22.419-5.571.822-7.644-.321a11.931,11.931,0,0,0-.012-4.509c-.018-.187-.329-.268-.36-.048a24.524,24.524,0,0,1-.464,3.984,13.335,13.335,0,0,1-2.068,3.226.294.294,0,0,0,.4.4A6.023,6.023,0,0,0,273.677,253c2.088,1.609,5.536,1.327,7.96.913a18.682,18.682,0,0,0,7.962-3.387c.73,2.5,1.081,4.964-.172,7.446" transform="translate(-209.833 -198.351)"/>
          <path id="Path_1672" data-name="Path 1672" d="M293.322,249.52c-.021-.3-.475-.307-.47,0a25.406,25.406,0,0,0-.04,3.288c.036.248.4.211.465,0a9.743,9.743,0,0,0,.045-3.288" transform="translate(-214.242 -203.679)"/>
          <path id="Path_1673" data-name="Path 1673" d="M291.339,251.266c-.045-.335-.568-.356-.543,0,.069.986-.157,1.921-.157,2.9,0,.246.379.382.493.133a5.708,5.708,0,0,0,.207-3.029" transform="translate(-214.006 -203.87)"/>
          <path id="Path_1674" data-name="Path 1674" d="M288.494,252.943a4.164,4.164,0,0,1-.813,1.631c-.121.167.12.41.288.288A2.782,2.782,0,0,0,289,253.084c.064-.333-.443-.477-.51-.141" transform="translate(-213.673 -204.065)"/>
          <path id="Path_1675" data-name="Path 1675" d="M238.363,269.937c-.107-.279-.586-.272-.562.076a22.6,22.6,0,0,1,.117,2.63c-.043.872-.267,1.737-.235,2.609a.252.252,0,0,0,.465.127c.976-1.467.821-3.859.216-5.443" transform="translate(-208.106 -205.957)"/>
          <path id="Path_1676" data-name="Path 1676" d="M236.374,272.762c-.033-.381-.621-.393-.6,0,.052,1.049-.132,2.068-.148,3.111,0,.3.387.309.484.066a7.033,7.033,0,0,0,.267-3.177" transform="translate(-207.876 -206.262)"/>
          <path id="Path_1677" data-name="Path 1677" d="M232.942,274.323c-.1.528-.275,1.049-.349,1.583-.028.193.227.343.34.143a5.269,5.269,0,0,0,.491-1.592c.061-.315-.421-.45-.482-.133" transform="translate(-207.539 -206.448)"/>
          <path id="Path_1678" data-name="Path 1678" d="M251.014,199.963c-1.541-2.318-4.542-2.382-6.922-1.41a8.466,8.466,0,0,0-4.107,3.617c-3.386-4.141-11.081-.1-10.516,5a6.755,6.755,0,0,0-6.143.918,7.781,7.781,0,0,0-3.345,5.956c-2.332-1.543-5.35,1.05-6.484,3.083-.871,1.559-2.344,5.7-.8,7.479-6.374-.021-9.277,7.71-6.424,12.963a9.147,9.147,0,0,0,.806,1.213c-3.789,1.365-3.315,8.766-.1,10.848a15.3,15.3,0,0,0-1.466,10.5,8.267,8.267,0,0,0,8.285,6.15,4.29,4.29,0,0,0,6.623,2.233c.068.081.126.165.2.245,4.411,4.933,11.617,4.69,16.345.395,5.77-5.242,7.421-14.371,9.088-21.615a216.453,216.453,0,0,0,4.386-27.02,38.643,38.643,0,0,0,1.874-9.986c.22-3.294.648-7.655-1.293-10.576m-33.637,68.082a3.9,3.9,0,0,1-2.6-1.806,9.668,9.668,0,0,0,3.636-1.1,11.3,11.3,0,0,0,1.249,2.389,4.594,4.594,0,0,1-2.284.518M251.005,208.1a45.69,45.69,0,0,1-.965,8.689c-1.114,5.009-3.56,10-7.912,12.961-4.452,3.025-10.486,4.571-15.6,2.537-.275-.11-.394.3-.187.445,5.31,3.827,13.778.789,18.247-3.133a19.447,19.447,0,0,0,4.479-5.858c-1.147,6.581-2.141,13.192-3.534,19.732-.818,3.844-1.758,7.661-2.857,11.435-1.19,4.1-2.492,8.423-5.287,11.751-2.669,3.179-6.677,5.2-10.868,4.132a10.289,10.289,0,0,1-7.429-8.24c-.767-4.506,2.74-9.838,7.046-11.341a8.822,8.822,0,0,1,9.806,3.367c.337.467,1.094.054.788-.462a9.443,9.443,0,0,0-14.108-2.337c-3.886,3.156-5.7,7.921-4.536,12.339-2,.4-3.936,1.034-6.028.65a6.641,6.641,0,0,1-5.265-4.989c-1.04-3.905-.066-11.394,4.677-12.4a.333.333,0,0,0-.088-.652,5.27,5.27,0,0,0-3.789,2.042,7.176,7.176,0,0,1-1.832-4.741,5.954,5.954,0,0,1,1.929-4.506c3.689,3.956,10.688,5.26,15.228,2.243-.108,1.782.344,3.5,2.054,4.256.282.126.652-.147.458-.459a7.324,7.324,0,0,1-1.528-3.534,12.944,12.944,0,0,1,.55-4.055c.076-.3-.389-.528-.522-.22a13.127,13.127,0,0,0-.907,3.089c-2.81.491-5.337,1.449-8.274.962a10.988,10.988,0,0,1-6.338-3.41c-4.411-4.927-1.679-12.9,5.18-13.082a.31.31,0,0,0,.3-.43c0-.012.011-.023.014-.035a.184.184,0,0,0-.084-.207c-.762-.464-.56-2.645-.464-3.374a9.6,9.6,0,0,1,1.065-3.25,6.436,6.436,0,0,1,2.085-2.471,4.9,4.9,0,0,1,3.418-.433,9.268,9.268,0,0,0,3.085,7.6,9.82,9.82,0,0,0,6.335,2.413,9.733,9.733,0,0,0,1.1,3.536.349.349,0,0,0,.634-.267,14.157,14.157,0,0,1-.4-7.293,23.222,23.222,0,0,1,1.806-4.462,4.52,4.52,0,0,0,3.9,1.051.41.41,0,0,0,0-.781,12.88,12.88,0,0,1-3.1-1.279c-.1-.076-.2-.171-.3-.254a.266.266,0,0,0-.267-.232,5.48,5.48,0,0,1-1.55-2.442.3.3,0,0,0-.582,0,3.54,3.54,0,0,0,1.194,3.329,12.5,12.5,0,0,0-2.527,8.039,20.749,20.749,0,0,1-4.162-1.5,7.622,7.622,0,0,1-3.823-6.416c-.168-2.609.419-5.4,2.709-6.957,1.854-1.263,3.8-1.174,5.933-1.11a.332.332,0,0,0,.169-.611c0-.013.018-.018.02-.033.74-4.464,5.479-7.6,9.362-4.235a8.1,8.1,0,0,0,1.377,8.685.479.479,0,0,0,.062.045,9.926,9.926,0,0,0-1.823,2.7.3.3,0,0,0,.464.359c.874-.807,1.537-1.813,2.428-2.608a7.909,7.909,0,0,1,3.634-1.743c.336-.078.361-.642,0-.7a5.017,5.017,0,0,0-4.082,1.407c-1.464-2.418-2.117-5.248-.8-7.906,1.121-2.254,4.627-5.03,7.349-3.967,3.218,1.258,3.008,5.768,2.931,8.618" transform="translate(-204.398 -197.96)"/>
        </g>
      </g>
      <text id="BRAIN" transform="translate(74.371 127.664)" font-size="10" font-family="Rubik-Medium, Rubik" font-weight="500"><tspan x="0" y="0">BRAIN</tspan></text>
      <text id="LEFT" transform="matrix(0.701, -0.714, 0.714, 0.701, 51.772, 59.119)" font-size="10" font-family="Rubik-Medium, Rubik" font-weight="500"><tspan x="0" y="0">LEFT</tspan></text>
      <text id="RIGHT" transform="translate(120.794 42.763) rotate(47.661)" font-size="10" font-family="Rubik-Medium, Rubik" font-weight="500"><tspan x="0" y="0">RIGHT</tspan></text>
    </g>
  </g>
</svg>
