<svg id="illistration-4" xmlns="http://www.w3.org/2000/svg" xmlns:xlink="http://www.w3.org/1999/xlink" width="383.642" height="287.698" viewBox="0 0 383.642 287.698">
  <defs>
    <clipPath id="clip-path">
      <rect id="Rectangle_317" data-name="Rectangle 317" width="383.642" height="287.698" fill="none"/>
    </clipPath>
    <linearGradient id="linear-gradient" x1="0.5" x2="0.5" y2="1" gradientUnits="objectBoundingBox">
      <stop offset="0" stop-color="#00c4ff"/>
      <stop offset="1" stop-color="#1a69f4"/>
    </linearGradient>
    <linearGradient id="linear-gradient-2" x1="0.5" x2="0.5" y2="1" gradientUnits="objectBoundingBox">
      <stop offset="0" stop-color="#f8c35b"/>
      <stop offset="1" stop-color="#fb955d"/>
    </linearGradient>
  </defs>
  <g id="Group_454" data-name="Group 454" clip-path="url(#clip-path)">
    <path id="Path_1409" data-name="Path 1409" d="M273,278.314q-.685,0-1.369-.006l0-.429c.949.009,1.9.009,2.85,0l0,.429q-.744.007-1.49.008m-4.226-.063c-.95-.028-1.911-.067-2.856-.114l.021-.429c.942.047,1.9.085,2.847.113Zm8.57,0-.013-.429c.941-.029,1.9-.067,2.847-.116l.022.429c-.951.048-1.912.088-2.856.116m-14.279-.282c-.942-.066-1.9-.143-2.848-.23l.038-.428c.945.086,1.9.163,2.84.229Zm19.987-.008-.03-.428c.942-.067,1.9-.145,2.84-.231l.04.427c-.946.087-1.9.165-2.849.232m-25.679-.509c-.939-.1-1.893-.221-2.837-.346l.056-.426c.941.124,1.893.241,2.828.345Zm31.371-.013-.048-.427c.938-.105,1.889-.222,2.828-.347l.056.426c-.941.126-1.9.243-2.837.348m-37.037-.737c-.933-.143-1.882-.3-2.82-.462l.073-.423c.936.163,1.882.318,2.812.461Zm42.7-.018-.065-.424c.932-.143,1.878-.3,2.812-.463l.074.422c-.937.164-1.885.32-2.82.465m-48.334-.964c-.93-.182-1.871-.376-2.8-.578l.091-.419c.924.2,1.863.394,2.79.576Zm53.964-.023-.083-.421c.929-.183,1.868-.377,2.79-.578l.091.419c-.925.2-1.867.4-2.8.58M240.49,274.5c-.924-.221-1.857-.454-2.773-.693l.109-.415c.913.239,1.843.471,2.764.691Zm65.135-.027-.1-.418c.92-.22,1.85-.453,2.764-.693l.108.415c-.917.24-1.85.474-2.772.7m-70.666-1.416c-.915-.259-1.838-.531-2.742-.807l.125-.41c.9.276,1.821.546,2.733.8Zm76.2-.032-.117-.413c.912-.259,1.831-.531,2.733-.807l.126.41c-.9.277-1.826.549-2.741.809m-81.672-1.642c-.9-.3-1.814-.606-2.716-.923l.143-.4c.9.316,1.81.625,2.707.92Zm87.138-.033-.134-.408c.9-.3,1.806-.6,2.7-.919l.143.4c-.894.315-1.8.625-2.706.922m-92.55-1.869c-.889-.333-1.789-.681-2.674-1.034l.159-.4c.883.352,1.779.7,2.666,1.031Zm97.942-.03-.151-.4c.879-.33,1.773-.676,2.657-1.029l.159.4c-.886.354-1.783.7-2.665,1.033m-103.268-2.093c-.877-.371-1.761-.756-2.628-1.144l.175-.392c.864.387,1.745.77,2.62,1.141Zm108.565-.022-.167-.4c.871-.369,1.747-.751,2.6-1.134l.175.392c-.859.385-1.737.768-2.611,1.138m-113.8-2.319c-.856-.4-1.724-.826-2.577-1.251l.191-.384c.851.424,1.715.843,2.569,1.247Zm118.995-.01-.184-.388c.846-.4,1.706-.817,2.556-1.241l.191.384c-.853.425-1.715.843-2.563,1.244m5.1-2.541-.2-.38c.833-.437,1.676-.889,2.5-1.345l.207.376c-.83.457-1.675.912-2.511,1.35m-129.223,0c-.844-.442-1.693-.9-2.523-1.356l.207-.376c.828.456,1.674.91,2.515,1.352ZM342.6,259.716l-.215-.372c.815-.471,1.638-.958,2.447-1.447l.222.367c-.811.491-1.637.979-2.455,1.452M203.368,259.7c-.826-.477-1.654-.967-2.464-1.458l.222-.367c.806.489,1.633.978,2.456,1.454Zm144.113-2.937-.23-.363c.793-.5,1.6-1.023,2.387-1.546l.237.358c-.793.525-1.6,1.047-2.394,1.551m-149.01-.029c-.8-.509-1.611-1.033-2.4-1.557l.237-.357c.788.523,1.593,1.045,2.394,1.552Zm153.767-3.123-.244-.352c.773-.535,1.554-1.088,2.322-1.644l.252.348c-.771.558-1.555,1.112-2.33,1.648M193.7,253.569c-.774-.537-1.56-1.093-2.334-1.654l.252-.347c.772.559,1.555,1.114,2.327,1.649Zm163.162-3.3-.259-.343c.753-.568,1.512-1.152,2.254-1.737l.265.337c-.745.587-1.506,1.173-2.261,1.743m-167.8-.052c-.757-.572-1.519-1.16-2.264-1.748l.266-.337c.743.586,1.5,1.172,2.257,1.742Zm172.282-3.48-.272-.332c.73-.6,1.465-1.215,2.182-1.828l.279.326c-.72.616-1.456,1.233-2.189,1.835m-176.774-.061c-.736-.605-1.473-1.224-2.19-1.838l.279-.326c.715.613,1.449,1.229,2.184,1.833Zm181.113-3.653-.285-.32c.7-.624,1.409-1.269,2.106-1.917l.292.314c-.7.65-1.41,1.3-2.113,1.923m-185.456-.068c-.706-.63-1.417-1.278-2.113-1.925l.292-.314c.694.645,1.4,1.291,2.106,1.92Zm189.642-3.82-.3-.308c.681-.659,1.363-1.332,2.027-2l.3.3c-.666.672-1.35,1.347-2.034,2.008m-193.827-.073c-.681-.66-1.365-1.336-2.032-2.009l.3-.3c.665.671,1.347,1.345,2.026,2ZM373.9,235.075l-.311-.3c.648-.68,1.3-1.381,1.944-2.083l.317.29c-.644.7-1.3,1.407-1.95,2.09M172.026,235c-.649-.682-1.3-1.385-1.948-2.09l.317-.29c.641.7,1.294,1.4,1.941,2.084Zm205.733-4.143-.322-.283c.625-.713,1.25-1.44,1.857-2.161l.329.276c-.61.724-1.237,1.453-1.864,2.168m-209.585-.077c-.626-.715-1.252-1.444-1.86-2.167l.328-.276c.606.721,1.23,1.448,1.854,2.161Zm213.267-4.3-.334-.27c.6-.741,1.194-1.493,1.769-2.236l.339.263c-.577.745-1.174,1.5-1.774,2.243M164.5,226.408c-.593-.736-1.189-1.489-1.769-2.241l.34-.263c.579.749,1.173,1.5,1.764,2.234Zm220.445-4.448-.345-.256c.567-.763,1.131-1.54,1.676-2.308l.35.249c-.547.77-1.113,1.548-1.682,2.314m-223.937-.069c-.564-.761-1.128-1.538-1.676-2.31l.35-.248c.546.769,1.108,1.544,1.671,2.3Zm227.252-4.6-.355-.242c.533-.783,1.065-1.583,1.581-2.375l.36.234c-.517.795-1.051,1.6-1.586,2.382M157.7,217.237c-.53-.78-1.062-1.58-1.58-2.376l.36-.234c.517.794,1.047,1.591,1.575,2.369ZM391.379,212.5l-.364-.226c.5-.8,1-1.619,1.482-2.439l.369.219c-.488.823-.988,1.646-1.487,2.446m-236.788-.045c-.5-.8-1-1.624-1.48-2.438l.369-.219c.481.812.978,1.629,1.476,2.43ZM394.3,207.576l-.373-.212c.462-.816.927-1.657,1.38-2.5l.378.2c-.455.844-.921,1.687-1.385,2.506m-242.621-.028c-.466-.824-.93-1.664-1.379-2.5l.378-.2c.448.829.91,1.667,1.375,2.488Zm245.34-5.013-.382-.2c.431-.84.861-1.7,1.277-2.554l.386.188c-.418.857-.849,1.72-1.281,2.562m-248.046-.005c-.431-.841-.86-1.7-1.274-2.549l.386-.188c.413.848.84,1.7,1.27,2.541Zm-2.5-5.123c-.4-.861-.791-1.735-1.168-2.6l.393-.172c.376.86.768,1.731,1.164,2.59Zm253.049-.023-.389-.18c.4-.862.792-1.739,1.171-2.606l.393.172c-.38.869-.775,1.749-1.175,2.614m-255.331-5.2c-.362-.878-.72-1.771-1.063-2.653l.4-.155c.342.88.7,1.769,1.06,2.644Zm257.626-.057-.4-.164c.36-.874.717-1.766,1.062-2.653l.4.155c-.346.889-.7,1.785-1.065,2.662m-259.7-5.271c-.325-.891-.646-1.8-.952-2.695l.406-.139c.305.894.625,1.8.95,2.686Zm261.772-.074-.4-.147c.326-.894.647-1.8.952-2.7l.406.139c-.306.9-.627,1.807-.955,2.7m-263.621-5.335c-.29-.908-.572-1.827-.84-2.732l.411-.122c.267.9.549,1.818.837,2.723Zm265.474-.1-.409-.13c.287-.9.569-1.82.835-2.724l.412.122c-.268.907-.55,1.826-.838,2.732m-267.1-5.386c-.25-.915-.495-1.845-.727-2.764l.416-.1c.231.916.474,1.844.724,2.756Zm268.717-.1-.414-.113c.25-.915.493-1.842.722-2.756l.416.1c-.23.917-.474,1.847-.724,2.765m-270.113-5.446c-.213-.926-.419-1.865-.611-2.792l.42-.088c.192.924.4,1.86.609,2.783Zm271.5-.1-.418-.1c.21-.92.415-1.856.608-2.784l.42.088c-.193.931-.4,1.87-.61,2.792m-272.668-5.5c-.175-.939-.342-1.886-.5-2.815l.424-.07c.153.926.319,1.87.494,2.806Zm273.83-.1-.422-.078c.172-.928.338-1.872.492-2.807l.424.07c-.155.938-.321,1.885-.494,2.815m-274.763-5.541c-.135-.937-.263-1.89-.379-2.833l.426-.053c.116.94.243,1.89.378,2.824Zm275.691-.1-.424-.061c.134-.934.261-1.884.376-2.824l.426.053c-.116.944-.243,1.9-.378,2.833M134.461,153.52c-.1-.947-.185-1.9-.263-2.846l.428-.035c.077.939.165,1.893.262,2.837Zm277.087-.1-.427-.044c.1-.932.183-1.887.26-2.837l.427.035c-.077.953-.165,1.911-.261,2.846m-277.555-5.6c-.058-.942-.107-1.9-.147-2.854l.429-.018c.039.95.088,1.907.146,2.845Zm278.018-.1-.428-.026c.057-.936.105-1.893.144-2.846l.429.018c-.038.956-.087,1.916-.145,2.854m-278.252-5.6c-.02-.952-.03-1.914-.031-2.858h.429c0,.942.011,1.9.031,2.85Zm278.483-.106-.429-.009c.019-.943.029-1.9.029-2.849v-.222h.429v.221c0,.952-.01,1.913-.029,2.859m-278.059-5.6-.429-.008c.018-.953.047-1.914.084-2.857l.429.017c-.037.94-.066,1.9-.085,2.848m277.625-.327c-.021-.951-.051-1.907-.091-2.841l.429-.018c.039.937.07,1.9.091,2.85Zm-277.4-5.367-.429-.026c.057-.946.124-1.9.2-2.851l.428.034c-.076.943-.143,1.9-.2,2.842m277.161-.32c-.059-.952-.129-1.908-.206-2.842l.427-.035c.078.937.148,1.9.207,2.851Zm-276.7-5.36-.427-.043c.1-.945.2-1.9.317-2.84l.426.052c-.114.937-.22,1.89-.316,2.832m276.233-.319c-.1-.937-.206-1.889-.323-2.831l.426-.053c.118.944.226,1.9.324,2.839Zm-275.544-5.336-.425-.061c.134-.938.28-1.889.433-2.825l.424.07c-.153.933-.3,1.881-.432,2.816m274.84-.318c-.135-.932-.283-1.879-.438-2.815l.424-.07c.156.939.3,1.889.439,2.824Zm-273.919-5.306-.422-.078c.172-.931.357-1.875.549-2.805l.421.087c-.192.927-.376,1.868-.548,2.8m272.984-.315c-.174-.926-.36-1.866-.554-2.795l.42-.088c.194.931.382,1.874.555,2.8Zm-271.831-5.265-.419-.1c.21-.92.434-1.855.665-2.78l.416.1c-.23.921-.453,1.854-.662,2.771m270.666-.312c-.215-.929-.44-1.861-.67-2.77l.416-.105c.23.911.456,1.846.672,2.778Zm-269.283-5.216-.414-.113c.249-.914.511-1.839.779-2.75l.412.121c-.268.908-.529,1.83-.777,2.741M406.9,102.34c-.25-.908-.513-1.83-.783-2.74l.411-.122c.271.912.536,1.836.786,2.748ZM140.625,97.183l-.409-.13c.288-.906.589-1.823.9-2.725l.406.138c-.306.9-.606,1.813-.893,2.717m264.653-.305c-.289-.9-.59-1.812-.9-2.7l.406-.139c.307.9.609,1.808.9,2.713ZM142.467,91.769l-.4-.147c.326-.9.665-1.8,1.008-2.684l.4.155c-.342.883-.68,1.783-1,2.676m260.962-.282c-.326-.889-.665-1.786-1.007-2.665l.4-.156c.344.882.684,1.782,1.011,2.674Zm-258.9-5.049-.4-.163c.361-.878.737-1.766,1.118-2.639l.394.171c-.38.871-.755,1.756-1.115,2.631m256.833-.25c-.363-.877-.738-1.755-1.113-2.612l.393-.172c.376.859.752,1.741,1.116,2.62ZM146.815,81.2l-.39-.18c.4-.862.81-1.733,1.226-2.59l.386.188c-.415.854-.826,1.723-1.222,2.582m252.271-.213c-.4-.865-.811-1.728-1.22-2.566l.386-.188c.41.84.821,1.706,1.224,2.573ZM149.313,76.063l-.382-.2c.433-.845.881-1.7,1.331-2.536l.378.2c-.449.835-.9,1.685-1.327,2.528m247.281-.181c-.429-.837-.875-1.683-1.324-2.514l.378-.2c.451.834.9,1.682,1.329,2.522ZM152.019,71.036l-.374-.211c.468-.827.95-1.661,1.434-2.478l.369.219c-.483.814-.964,1.645-1.43,2.47m241.875-.155c-.469-.827-.95-1.654-1.428-2.459l.369-.219c.48.807.961,1.637,1.432,2.466ZM154.929,66.126l-.365-.226c.5-.809,1.018-1.622,1.535-2.416l.36.234c-.515.792-1.029,1.6-1.53,2.408m236.06-.132c-.5-.8-1.014-1.61-1.528-2.4l.36-.234c.515.791,1.031,1.6,1.532,2.406ZM158.037,61.341l-.355-.241c.531-.782,1.08-1.572,1.632-2.35l.35.248c-.55.776-1.1,1.564-1.627,2.343m229.848-.114c-.529-.776-1.076-1.562-1.626-2.335l.35-.249c.551.776,1.1,1.564,1.63,2.342ZM161.338,56.689l-.345-.255c.564-.762,1.145-1.529,1.726-2.281l.34.262c-.579.749-1.158,1.514-1.721,2.274m223.249-.1c-.561-.756-1.14-1.519-1.72-2.268l.339-.263c.582.751,1.162,1.516,1.725,2.275ZM164.826,52.178l-.334-.269c.6-.741,1.21-1.484,1.818-2.207l.328.276c-.606.721-1.216,1.461-1.812,2.2M381.1,52.089c-.595-.736-1.2-1.475-1.812-2.2l.328-.276c.609.723,1.22,1.465,1.817,2.2ZM168.495,47.814l-.323-.283c.625-.713,1.266-1.43,1.906-2.131l.317.29c-.638.7-1.277,1.413-1.9,2.124m208.939-.081c-.626-.713-1.266-1.427-1.9-2.121l.317-.29c.636.7,1.278,1.412,1.906,2.128Zm-205.1-4.128-.311-.3c.654-.687,1.323-1.377,1.991-2.051l.3.3c-.665.671-1.333,1.36-1.984,2.044M373.59,43.53c-.65-.682-1.318-1.37-1.986-2.043l.3-.3c.669.675,1.34,1.364,1.991,2.049ZM176.347,39.558l-.3-.308c.677-.657,1.375-1.319,2.072-1.967l.293.314c-.7.646-1.39,1.306-2.066,1.961m193.231-.072c-.684-.662-1.38-1.321-2.068-1.96l.292-.314c.69.641,1.388,1.3,2.074,1.966ZM180.517,35.678l-.286-.32c.709-.633,1.432-1.265,2.15-1.881l.279.326c-.716.613-1.437,1.244-2.143,1.874M365.4,35.607c-.707-.631-1.43-1.261-2.147-1.875l.279-.326c.72.615,1.444,1.248,2.153,1.881ZM184.841,31.973l-.273-.332c.732-.6,1.48-1.2,2.224-1.791l.266.337c-.742.585-1.488,1.186-2.217,1.785m176.23-.073c-.733-.6-1.481-1.2-2.222-1.787l.265-.337c.744.585,1.494,1.188,2.229,1.792Zm-171.76-3.452-.259-.342c.757-.572,1.529-1.144,2.294-1.7l.252.347c-.763.552-1.533,1.122-2.287,1.693m167.279-.075c-.754-.569-1.526-1.139-2.294-1.694l.251-.348c.77.557,1.545,1.128,2.3,1.7ZM193.919,25.111l-.245-.353c.779-.54,1.573-1.079,2.361-1.6l.237.357c-.785.521-1.577,1.059-2.354,1.6m158.049-.078c-.778-.539-1.573-1.077-2.363-1.6l.237-.358c.792.524,1.589,1.064,2.369,1.6ZM198.659,21.965l-.23-.362c.8-.507,1.615-1.013,2.424-1.5l.222.367c-.806.489-1.619.993-2.416,1.5m148.551-.083c-.8-.507-1.618-1.013-2.427-1.5l.222-.367c.811.491,1.63,1,2.434,1.506ZM203.521,19.016l-.215-.371c.819-.474,1.654-.946,2.482-1.4l.207.376c-.826.455-1.658.926-2.475,1.4m138.805-.088c-.823-.475-1.66-.946-2.488-1.4l.207-.376c.83.457,1.67.929,2.5,1.406ZM208.5,16.271l-.2-.38c.842-.441,1.695-.879,2.537-1.3l.192.384c-.839.419-1.69.855-2.529,1.295m128.825-.094c-.844-.442-1.7-.878-2.544-1.3l.191-.384c.847.421,1.705.859,2.552,1.3ZM213.581,13.734l-.184-.388c.854-.4,1.724-.806,2.587-1.193l.176.391c-.86.386-1.728.786-2.579,1.189m118.628-.1c-.861-.406-1.735-.807-2.6-1.192l.175-.392c.864.386,1.74.788,2.6,1.2ZM218.762,11.408l-.168-.4c.872-.37,1.757-.735,2.632-1.085l.159.4c-.872.349-1.755.713-2.624,1.082m108.231-.1c-.88-.371-1.77-.736-2.644-1.084l.159-.4c.877.349,1.769.715,2.652,1.087ZM224.042,9.294l-.151-.4c.885-.333,1.788-.663,2.685-.98l.143.4c-.894.316-1.795.644-2.676.976m97.639-.1c-.886-.331-1.79-.659-2.688-.974l.142-.4c.9.316,1.808.645,2.7.977ZM229.415,7.4l-.135-.408c.9-.3,1.816-.589,2.724-.868l.126.411c-.9.278-1.818.569-2.715.865m86.869-.1c-.9-.3-1.822-.586-2.727-.862l.125-.411c.909.277,1.83.568,2.736.865ZM234.862,5.723l-.118-.413c.91-.259,1.838-.513,2.757-.754l.109.415c-.916.241-1.841.494-2.748.752m75.962-.09c-.916-.258-1.841-.509-2.75-.746l.108-.415c.912.237,1.84.489,2.759.748Zm-70.45-1.358-.1-.417c.92-.221,1.857-.437,2.786-.64l.092.419c-.926.2-1.86.418-2.777.638M305.308,4.2c-.917-.218-1.852-.431-2.778-.631l.091-.419c.93.2,1.868.414,2.788.633ZM245.939,3.057l-.083-.421c.934-.185,1.879-.361,2.809-.524l.075.422c-.928.163-1.87.339-2.8.523m53.8-.063c-.932-.182-1.875-.355-2.8-.516l.073-.423c.93.161,1.876.336,2.811.518Zm-48.187-.925-.066-.424c.938-.145,1.89-.282,2.829-.409l.057.426c-.936.126-1.885.263-2.82.407m42.573-.049c-.936-.143-1.885-.277-2.821-.4l.056-.426c.939.124,1.891.259,2.83.4ZM257.2,1.312l-.048-.426c.943-.107,1.9-.205,2.843-.292l.039.427c-.94.087-1.894.185-2.834.291m31.276-.037c-.942-.1-1.9-.2-2.835-.285l.039-.427c.942.085,1.9.181,2.843.285Zm-25.6-.488-.031-.428c.947-.068,1.906-.128,2.853-.176l.022.429c-.943.049-1.9.108-2.844.176M282.8.764c-.944-.066-1.9-.123-2.845-.169l.021-.428c.947.046,1.906.1,2.853.169ZM268.564.493l-.013-.429c.944-.03,1.9-.05,2.854-.061l0,.429c-.947.01-1.9.031-2.845.061m8.544-.01c-.94-.027-1.9-.046-2.849-.054l0-.429c.953.008,1.915.027,2.858.054Z" transform="translate(-82.831)" fill="#2b2b2b"/>
    <path id="Path_1410" data-name="Path 1410" d="M476.183,101.705a37.413,37.413,0,1,0-21.208,33.962l-.138.152c1.664.969,8.246,7.132,8.246,7.132L463,130.441a37.317,37.317,0,0,0,13.181-28.736" transform="translate(-248.563 -39.973)" fill="#0c97f9"/>
    <path id="Path_1411" data-name="Path 1411" d="M438.081,336.878c0-26.672-28.811-48.292-64.35-48.292s-64.35,21.621-64.35,48.292,28.81,48.292,64.35,48.292a80.024,80.024,0,0,0,35.389-7.952l11.624,12.364v-19.73c10.753-8.631,17.337-20.226,17.337-32.974" transform="translate(-191.63 -178.749)" fill="url(#linear-gradient)"/>
    <path id="Path_1412" data-name="Path 1412" d="M207,108.27c2.548-20.287-17.3-39.481-44.333-42.871s-51.013,10.308-53.561,30.6,17.3,39.481,44.333,42.871a61.363,61.363,0,0,0,27.678-2.673l7.66,10.513,1.885-15.006c9-5.54,15.119-13.731,16.337-23.428" transform="translate(-67.442 -40.189)" fill="#f8c25b"/>
    <path id="Path_1413" data-name="Path 1413" d="M648.3,74.647c2.149-16.525,21.742-27.6,43.763-24.745S730.2,68.476,728.047,85s-21.743,27.6-43.763,24.745A50,50,0,0,1,663,101.972l-8.2,6.726,1.59-12.225c-5.967-6.213-9.112-13.926-8.084-21.826" transform="translate(-401.438 -30.631)" fill="#ff6765"/>
    <path id="Path_1414" data-name="Path 1414" d="M368.456,393.007v13.657h-4.865V374.438h4.865v13.683h5.869V374.438h4.865v32.226h-4.865V393.007Z" transform="translate(-225.207 -231.926)" fill="#fff"/>
    <path id="Path_1415" data-name="Path 1415" d="M416,406.622V374.371h13.848v4.887h-8.983v8.8h6.563v4.887h-6.563v8.8h8.983v4.887Z" transform="translate(-257.671 -231.884)" fill="#fff"/>
    <path id="Path_1416" data-name="Path 1416" d="M474.435,406.665H461.179V374.439h4.865v27.391h8.392Z" transform="translate(-285.653 -231.926)" fill="#fff"/>
    <path id="Path_1417" data-name="Path 1417" d="M518.055,406.665H504.8V374.439h4.865v27.391h8.392Z" transform="translate(-312.671 -231.926)" fill="#fff"/>
    <path id="Path_1418" data-name="Path 1418" d="M556.115,373.357a7.708,7.708,0,0,1,7.722,7.716v17.592a7.709,7.709,0,1,1-15.418,0V381.073a7.709,7.709,0,0,1,7.7-7.716m2.651,7.613a2.767,2.767,0,0,0-2.78-2.778A2.725,2.725,0,0,0,554,379a2.656,2.656,0,0,0-.824,1.967v17.643a2.656,2.656,0,0,0,.824,1.968,2.726,2.726,0,0,0,1.982.81,2.767,2.767,0,0,0,2.78-2.778Z" transform="translate(-339.689 -231.256)" fill="#fff"/>
    <path id="Path_1419" data-name="Path 1419" d="M766.107,235.971H674.269a3.01,3.01,0,0,0-3.011,3.009V296.9a3.01,3.01,0,0,0,3.011,3.009H684.91v13.048l12.216-13.048h68.981a3.01,3.01,0,0,0,3.011-3.009V238.98a3.01,3.01,0,0,0-3.011-3.009" transform="translate(-415.775 -146.16)" fill="#f8c25b"/>
    <path id="Path_1420" data-name="Path 1420" d="M506.155,591.129H393.785a2.808,2.808,0,0,0-2.809,2.807v44.928a2.808,2.808,0,0,0,2.809,2.807h9.927v12.171l11.4-12.171h91.048a2.808,2.808,0,0,0,2.809-2.807V593.936a2.808,2.808,0,0,0-2.809-2.807" transform="translate(-242.169 -366.143)" fill="#ff6765"/>
    <path id="Path_1421" data-name="Path 1421" d="M702.372,474.574c0-10.81,8.6-20.036,20.7-23.669a22.575,22.575,0,0,1,31.755-11.667,22.563,22.563,0,0,1,38.051,9.678,22.534,22.534,0,1,1-4.2,43.573,22.564,22.564,0,0,1-42.045,5.543,39.267,39.267,0,0,1-9.57,1.785l-9.445,12.873-3.347-14.1c-12.731-3.368-21.9-12.845-21.9-24.011" transform="translate(-435.047 -267.76)" fill="url(#linear-gradient-2)"/>
    <path id="Path_1422" data-name="Path 1422" d="M747.8,529.845V508.21h4.886a6.225,6.225,0,0,1,3.488,1.018,4.738,4.738,0,0,1,1.9,2.674,7.533,7.533,0,0,1,.311,2.295,5.076,5.076,0,0,1-1.157,3.485,3.277,3.277,0,0,1-1.14.845,3.792,3.792,0,0,1,1.847,1.639,6.387,6.387,0,0,1,.743,2.14,8.552,8.552,0,0,1,.121,1.5,7.219,7.219,0,0,1-.777,3.485,4.656,4.656,0,0,1-1.71,1.794,4.709,4.709,0,0,1-2.469.759Zm3.522-12.8h1.364a2,2,0,0,0,2.037-1.484,4.223,4.223,0,0,0,.19-1.363,2.85,2.85,0,0,0-.656-2.036,2.068,2.068,0,0,0-1.571-.638h-1.364Zm0,9.575h1.364a2.315,2.315,0,0,0,2.3-1.708,3.746,3.746,0,0,0,.225-1.345,4.1,4.1,0,0,0-.69-2.64,2.229,2.229,0,0,0-1.831-.759h-1.364Z" transform="translate(-463.183 -314.784)" fill="#fff"/>
    <path id="Path_1423" data-name="Path 1423" d="M789.161,507.529a5.171,5.171,0,0,1,5.18,5.176v11.8a5.171,5.171,0,1,1-10.342,0V512.7a5.171,5.171,0,0,1,5.163-5.176m1.779,5.107a1.857,1.857,0,0,0-1.865-1.863,1.829,1.829,0,0,0-1.33.543,1.783,1.783,0,0,0-.552,1.32v11.835a1.783,1.783,0,0,0,.552,1.32,1.829,1.829,0,0,0,1.33.543,1.857,1.857,0,0,0,1.865-1.863Z" transform="translate(-485.606 -314.362)" fill="#fff"/>
    <path id="Path_1424" data-name="Path 1424" d="M822.366,508.21l4.331,14.54V508.21h3.264v21.635h-3.505l-4.489-13.854v13.854H818.7V508.21Z" transform="translate(-507.102 -314.783)" fill="#fff"/>
    <path id="Path_1425" data-name="Path 1425" d="M861.362,525.029a4.931,4.931,0,0,1-1.511,3.649,5.006,5.006,0,0,1-3.651,1.492,6.522,6.522,0,0,1-2.02-.259l.466-3.036a5.279,5.279,0,0,0,.95.1,4.993,4.993,0,0,0,.69-.017,2.075,2.075,0,0,0,1.338-.569,1.713,1.713,0,0,0,.544-1.294V508.345h3.194Z" transform="translate(-529.076 -314.867)" fill="#fff"/>
    <path id="Path_1426" data-name="Path 1426" d="M885.7,507.529a5.171,5.171,0,0,1,5.18,5.176v11.8a5.171,5.171,0,1,1-10.343,0V512.7a5.171,5.171,0,0,1,5.162-5.176m1.779,5.107a1.857,1.857,0,0,0-1.865-1.863,1.829,1.829,0,0,0-1.33.543,1.783,1.783,0,0,0-.552,1.32v11.835a1.783,1.783,0,0,0,.552,1.32,1.829,1.829,0,0,0,1.33.543,1.857,1.857,0,0,0,1.865-1.863Z" transform="translate(-545.402 -314.362)" fill="#fff"/>
    <path id="Path_1427" data-name="Path 1427" d="M920.358,530.114a5.127,5.127,0,0,1-5.163-5.141V508.255h3.194v16.683a1.782,1.782,0,0,0,.552,1.32,1.83,1.83,0,0,0,1.33.543,1.856,1.856,0,0,0,1.865-1.863V508.255h3.4v16.718a4.912,4.912,0,0,1-1.519,3.658,5.049,5.049,0,0,1-3.66,1.484" transform="translate(-566.869 -314.812)" fill="#fff"/>
    <path id="Path_1428" data-name="Path 1428" d="M955.135,508.256a4.978,4.978,0,0,1,4.006,1.5,5.452,5.452,0,0,1,1.123,3.658v3.14a5.051,5.051,0,0,1-1.744,3.882l2.417,9.437h-3.529l-1.979-8.143h-2.176v8.143H949.99V508.256Zm1.951,5.21a1.655,1.655,0,0,0-1.865-1.88h-1.969V518.5h1.969a1.784,1.784,0,0,0,1.32-.552,1.825,1.825,0,0,0,.544-1.329Z" transform="translate(-588.421 -314.812)" fill="#fff"/>
    <path id="Path_1429" data-name="Path 1429" d="M433.5,154.879a6.682,6.682,0,0,1-6.713-6.685V132.9a6.7,6.7,0,1,1,13.4,0v3.2h-4.386v-3.286a2.444,2.444,0,0,0-2.439-2.437,2.314,2.314,0,0,0-1.712.716,2.366,2.366,0,0,0-.7,1.721v15.337a2.405,2.405,0,0,0,2.416,2.415,2.369,2.369,0,0,0,1.723-.7,2.309,2.309,0,0,0,.716-1.71v-3.868h4.386v3.913a6.41,6.41,0,0,1-1.969,4.74,6.479,6.479,0,0,1-4.721,1.945" transform="translate(-264.352 -78.164)" fill="#fff"/>
    <rect id="Rectangle_316" data-name="Rectangle 316" width="4.229" height="28.014" transform="translate(179.309 48.343)" fill="#fff"/>
    <path id="Path_1430" data-name="Path 1430" d="M496.947,148.592l-1.028,6.439h-4.4l4.766-28.014H502.1l4.7,28.014h-4.447l-.989-6.439Zm2.222-15.158L497.6,144.478h3.132Z" transform="translate(-304.443 -78.674)" fill="#fff"/>
    <path id="Path_1431" data-name="Path 1431" d="M546,126.076a6.7,6.7,0,0,1,6.713,6.708v15.293a6.7,6.7,0,1,1-13.4,0V132.784a6.7,6.7,0,0,1,6.69-6.708m2.3,6.618a2.407,2.407,0,0,0-2.417-2.415,2.368,2.368,0,0,0-1.723.7,2.309,2.309,0,0,0-.716,1.71v15.338a2.307,2.307,0,0,0,.716,1.71,2.368,2.368,0,0,0,1.723.7,2.407,2.407,0,0,0,2.417-2.415Z" transform="translate(-334.047 -78.091)" fill="#fff"/>
    <path id="Path_1432" data-name="Path 1432" d="M158.642,544.666c-1.784-16.356,14.437-31.539,36.232-33.913s40.908,8.961,42.693,25.317-14.437,31.539-36.232,33.913A49.381,49.381,0,0,1,179.1,567.47l-6.3,8.358-1.32-12.1c-7.172-4.575-11.984-11.246-12.837-19.064" transform="translate(-98.179 -316.164)" fill="#0c97f9"/>
    <path id="Path_1433" data-name="Path 1433" d="M196.863,574.147a3.17,3.17,0,0,0,.559-2.023h2.422a5.817,5.817,0,0,1-.348,1.724,3.3,3.3,0,0,1-1.013,1.595,3.172,3.172,0,0,1,.749,1.509,7.113,7.113,0,0,1,.215,1.477v8.45h-2.284a18.057,18.057,0,0,0-3.783-7.462,3.532,3.532,0,0,0-.615.668,6.441,6.441,0,0,0-.745,1.243,3.008,3.008,0,0,0-.332.947,2.542,2.542,0,0,1,1.79.611,2.3,2.3,0,0,1,.664,1.777,2.411,2.411,0,0,1-.681,1.756,2.509,2.509,0,0,1-1.879.7q-2.584,0-2.584-2.857a8.824,8.824,0,0,1,1.494-4.654,11.146,11.146,0,0,1,4.775-4,4.373,4.373,0,0,0-1.822-.259q-3.88,0-3.88,4.1h-2.1a5.736,5.736,0,0,1,1.612-4.375,6.487,6.487,0,0,1,4.633-1.526,6.117,6.117,0,0,1,3.151.6m-5.249,11.436a.805.805,0,0,0,.9-.923.9.9,0,1,0-.9.923m5.646-3.747v-2.849a4.269,4.269,0,0,0-.429-2.088l-.138-.234a10.6,10.6,0,0,1-1.92,1.295,6.365,6.365,0,0,1,1.406,1.756,11.352,11.352,0,0,1,1.081,2.12" transform="translate(-116.116 -354.372)" fill="#fff"/>
    <path id="Path_1434" data-name="Path 1434" d="M233.712,584.454v-4.006a2.5,2.5,0,0,0-2.827-2.825q-2.851,0-2.851,2.792v1.19h-2.025v-1.06a4.667,4.667,0,0,1,1.264-3.351,4.807,4.807,0,0,1,3.653-1.327q4.973,0,4.973,4.508v6.168a2.619,2.619,0,0,1-.814,2.157,3.034,3.034,0,0,1-1.972.66,2.449,2.449,0,0,1-1.928-.745,2.532,2.532,0,0,1-.664-1.74,2.579,2.579,0,0,1,.332-1.307,1.97,1.97,0,0,1,.948-.846,5.1,5.1,0,0,1,1.912-.267m-.6,3.286q.891,0,.891-.931a.895.895,0,1,0-1.79,0,.809.809,0,0,0,.9.931" transform="translate(-139.989 -356.69)" fill="#fff"/>
    <path id="Path_1435" data-name="Path 1435" d="M246.294,555.978a5.62,5.62,0,0,1-2.455,3.148,8.03,8.03,0,0,1-4.544,1.295,7.505,7.505,0,0,1-3.751-.761,2.481,2.481,0,0,1-.623-3.917,2.509,2.509,0,0,1,1.855-.7,2.175,2.175,0,0,1,1.693.7,2.386,2.386,0,0,1,.632,1.659,1.282,1.282,0,0,1-.5,1.2q0,.1,1.093.1a5.258,5.258,0,0,0,3.054-.963,4.716,4.716,0,0,0,1.9-2.614Zm-9.647.5a.927.927,0,1,0,.923.923.82.82,0,0,0-.923-.923" transform="translate(-145.078 -343.794)" fill="#fff"/>
    <path id="Path_1436" data-name="Path 1436" d="M268.1,574.147a3.17,3.17,0,0,0,.559-2.023h2.422a5.816,5.816,0,0,1-.348,1.724,3.3,3.3,0,0,1-1.013,1.595,3.172,3.172,0,0,1,.749,1.509,7.114,7.114,0,0,1,.215,1.477v8.45H268.4a18.057,18.057,0,0,0-3.783-7.462,3.534,3.534,0,0,0-.615.668,6.44,6.44,0,0,0-.745,1.243,3.007,3.007,0,0,0-.332.947,2.542,2.542,0,0,1,1.79.611,2.3,2.3,0,0,1,.664,1.777,2.411,2.411,0,0,1-.681,1.756,2.508,2.508,0,0,1-1.879.7q-2.584,0-2.584-2.857a8.824,8.824,0,0,1,1.494-4.654,11.146,11.146,0,0,1,4.775-4,4.373,4.373,0,0,0-1.822-.259q-3.88,0-3.88,4.1h-2.1a5.736,5.736,0,0,1,1.612-4.375,6.487,6.487,0,0,1,4.633-1.526,6.117,6.117,0,0,1,3.151.6m-5.249,11.436a.805.805,0,0,0,.9-.923.9.9,0,1,0-.9.923m5.646-3.747v-2.849a4.269,4.269,0,0,0-.429-2.088l-.138-.234a10.6,10.6,0,0,1-1.92,1.295,6.365,6.365,0,0,1,1.406,1.756,11.354,11.354,0,0,1,1.081,2.12" transform="translate(-160.238 -354.372)" fill="#fff"/>
    <path id="Path_1437" data-name="Path 1437" d="M305.269,583.693a1.957,1.957,0,0,1-1.628-2.153,2.327,2.327,0,0,1,.7-1.74,2.456,2.456,0,0,1,1.79-.68,2.584,2.584,0,0,1,1.741.611,2.211,2.211,0,0,1,.713,1.777,3.423,3.423,0,0,1-1.029,2.217l-4.771,5.472h-2.39v-8.822A3.9,3.9,0,0,1,302,577.061a6.682,6.682,0,0,1,4.095-1.194,6.469,6.469,0,0,1,4.35,1.247,4.125,4.125,0,0,1,1.426,3.262V589.2h-2.187v-8.749q0-2.825-3.556-2.825a4.392,4.392,0,0,0-2.5.7,2.383,2.383,0,0,0-1.045,2.125v6.2Zm.826-3.213a.88.88,0,0,0-1,1,1,1,0,1,0,1.993,0,.88.88,0,0,0-1-1" transform="translate(-186.062 -356.69)" fill="#fff"/>
    <path id="Path_1438" data-name="Path 1438" d="M308.5,556.414V554.2h2.187v6.329a35.454,35.454,0,0,0-10.084-1.392q-.567,0-1.329.032l-.794.033A4.828,4.828,0,0,1,300,556.265a5.491,5.491,0,0,1,4.313-1.7,4.9,4.9,0,0,1,4.18,1.853m-7.136,1.222q.4-.032,1.264-.032a19.652,19.652,0,0,1,5.038.769,3.4,3.4,0,0,0-1.175-1.295,3.691,3.691,0,0,0-2.341-.793,3.969,3.969,0,0,0-1.875.413,1.606,1.606,0,0,0-.911.939" transform="translate(-184.876 -343.268)" fill="#fff"/>
    <path id="Path_1439" data-name="Path 1439" d="M105.461,306.115c-1.85-11.56-16.134-25.014-26.38-21.4-.6-10.967-9.023-14.664-17.628-13.288a17.922,17.922,0,0,0-9.175,4.436,19.082,19.082,0,0,0-15.821-5.088c-9.353,1.495-16.018,10.286-16.715,20.9a17.464,17.464,0,0,0-2.966.217C5.584,293.68-1.762,305.919.368,319.227S13.3,341.873,24.49,340.084a17.586,17.586,0,0,0,6.482-2.419c3.726,10.5,13.125,17.3,22.821,15.75,7.822-1.25,13.765-7.6,15.908-15.861a30.749,30.749,0,0,0,8.9.534L89.3,350.5l.594-15.564c10.863-5.429,17.483-16.88,15.572-28.819" transform="translate(0 -167.581)" fill="#ff6765"/>
    <path id="Path_1440" data-name="Path 1440" d="M59.526,359.567v10.377h-3.7V345.458h3.7v10.4h4.459v-10.4h3.7v24.487h-3.7V359.567Z" transform="translate(-34.581 -213.975)" fill="#fff"/>
    <path id="Path_1441" data-name="Path 1441" d="M99.836,364.317l-.9,5.628H95.089l4.166-24.487h5.085l4.107,24.487h-3.887l-.865-5.628Zm1.942-13.25-1.369,9.654h2.738Z" transform="translate(-58.898 -213.976)" fill="#fff"/>
    <path id="Path_1442" data-name="Path 1442" d="M148.429,369.944H138.356V345.458h3.7v20.813h6.376Z" transform="translate(-85.697 -213.975)" fill="#fff"/>
    <path id="Path_1443" data-name="Path 1443" d="M181.573,369.944H171.5V345.458h3.7v20.813h6.376Z" transform="translate(-106.227 -213.975)" fill="#fff"/>
    <path id="Path_1444" data-name="Path 1444" d="M210.492,344.636a5.858,5.858,0,0,1,5.868,5.863v13.367a5.858,5.858,0,1,1-11.716,0V350.5a5.857,5.857,0,0,1,5.848-5.863m2.015,5.785a2.1,2.1,0,0,0-2.112-2.11,2.071,2.071,0,0,0-1.506.615,2.018,2.018,0,0,0-.626,1.495v13.406a2.017,2.017,0,0,0,.626,1.495,2.07,2.07,0,0,0,1.506.616,2.1,2.1,0,0,0,2.112-2.11Z" transform="translate(-126.756 -213.466)" fill="#fff"/>
    <path id="Path_1445" data-name="Path 1445" d="M434.594,648.629a37.994,37.994,0,0,1-6.278.475,23.591,23.591,0,0,1-4.048-.268c-2.5-.557-3.573-2.125-3.573-3.941a6.609,6.609,0,0,1,2.106-4.416l1.2.619a5.637,5.637,0,0,0-1.817,3.673c0,1.2.806,2.29,2.582,2.682a17.19,17.19,0,0,0,3.366.248,34.556,34.556,0,0,0,6.361-.557Zm-9.273-10.42a25.785,25.785,0,0,1,3.655-2.394v-.021c-1.57.186-5.163.268-7.455.247,0-.392,0-1.073-.021-1.444.454.021,8.385.145,11.771-.66l.165,1.527c-2.458.289-5.617,2.435-6.939,3.487Z" transform="translate(-260.577 -392.659)" fill="#fff"/>
    <path id="Path_1446" data-name="Path 1446" d="M462.958,646.556c1.528-4.374,4.068-11.679,4.874-13.866.392-1.114.929-2.682,1.074-3.2l2.23.578c-.1.289-.392.392-.805.392-1.136,2.827-2.891,7.655-3.655,9.719h.021a6.6,6.6,0,0,1,4.523-2.538c1.8,0,2.664,1.217,2.6,3.136l-.062,2.455c-.021,1.548.805,2.394,2.148,2.394,1.858,0,3.573-2.125,4.523-5.675a9.694,9.694,0,0,0,1.343.764c-1.136,3.941-3.181,6.417-5.927,6.417a3.292,3.292,0,0,1-3.614-3.425c0-.392.062-2.29.062-2.724,0-1.3-.537-1.981-1.446-1.981-2.375,0-4.771,3.446-5.287,4.787-.289.722-.744,2.043-1.136,3.24Z" transform="translate(-286.755 -389.905)" fill="#fff"/>
    <path id="Path_1447" data-name="Path 1447" d="M522.97,631.164c-.062.227-.268.351-.682.33a49.458,49.458,0,0,0-1.094,9.286,22.7,22.7,0,0,0,.268,4.086c.392-1.011,1.28-3.178,1.57-3.9l.867.908c-.847,2.084-1.466,3.26-1.755,4.189a3.539,3.539,0,0,0-.165.97,2.169,2.169,0,0,0,.1.64l-1.466.268a22.633,22.633,0,0,1-.909-7.1,60.307,60.307,0,0,1,1.095-10.049Zm13.155,15.084c-.743.041-1.508.062-2.272.062a28.42,28.42,0,0,1-3.841-.227c-2.54-.371-3.717-1.774-3.717-3.425,0-1.423.785-2.62,1.941-3.982l1.342.578a4.878,4.878,0,0,0-1.755,3.24c0,2.394,3.511,2.394,5.658,2.394.867,0,1.8-.041,2.664-.1Zm-9.562-12.607a67.5,67.5,0,0,0,9-.784l.124,1.445a78.283,78.283,0,0,1-9.087.763Z" transform="translate(-321.905 -390.711)" fill="#fff"/>
    <path id="Path_1448" data-name="Path 1448" d="M585.214,632.3a47.65,47.65,0,0,1-8.88,1.2,25.684,25.684,0,0,1-.971,5.468,10.521,10.521,0,0,1,5.865-2.187c3.077,0,4.957,1.651,4.957,4.436,0,4.106-4.151,5.489-10.863,5.654a6.137,6.137,0,0,0-.413-1.362c5.927-.124,9.768-1.135,9.768-4.251,0-1.857-1.239-3.137-3.635-3.137-1.838,0-5,1.114-6.361,3.157l-1.446-.681c.661-.743,1.342-3.693,1.652-7.077h-4.833v-1.444c.867.021,3.408.021,4.956.021.083-1.176.124-2.5.124-3.735l2.189.206c-.041.351-.289.413-.661.454-.041,1.032-.1,2.084-.186,3.054a40.1,40.1,0,0,0,8.467-1.259Z" transform="translate(-353.091 -389.2)" fill="#fff"/>
    <path id="Path_1449" data-name="Path 1449" d="M623.516,647.316c-.641-1.485-.888-4.56-.888-7.263a52.542,52.542,0,0,1,1.115-9.636l2,.392a.534.534,0,0,1-.537.371,39.6,39.6,0,0,0-1.2,8.894,24.445,24.445,0,0,0,.186,3.9c.454-1.238,1.28-3.219,1.714-4.189l.929.867c-.681,1.4-2.127,4.539-2.127,5.509a2.827,2.827,0,0,0,.206.99Zm5.245-12.154c1.734.021,3.469.042,5.2-.082-.083-1.775-.145-3.3-.186-4.829l2.086.062c-.021.206-.206.371-.537.434.02,1.32.062,2.662.1,4.23a18.306,18.306,0,0,0,4.048-.826l.186,1.444a19.921,19.921,0,0,1-4.172.743c.083,2.29.186,4.7.248,6.025a15.23,15.23,0,0,1,4.213,2.62l-.805,1.321a12.411,12.411,0,0,0-3.346-2.352c-.021,1.754-.351,3.714-3.449,3.714-2.416,0-4.027-1.155-4.027-2.971,0-2.1,2.127-3.033,4.027-3.033a7.134,7.134,0,0,1,1.962.268c-.062-1.3-.186-3.467-.289-5.489-.64.041-1.508.062-2.106.062h-3.139Zm5.658,8.11a6.99,6.99,0,0,0-2.045-.372c-1.26,0-2.767.454-2.767,1.754,0,1.156,1.239,1.733,2.747,1.733,1.528,0,2.086-.743,2.086-2.394Z" transform="translate(-385.654 -390.375)" fill="#fff"/>
    <path id="Path_1450" data-name="Path 1450" d="M699.464,111.314v8.658h-3.084V99.542h3.084v8.674h3.72V99.542h3.084v20.429h-3.084v-8.658Z" transform="translate(-431.335 -61.656)" fill="#fff"/>
    <path id="Path_1451" data-name="Path 1451" d="M734.4,98.856a4.887,4.887,0,0,1,4.895,4.891V114.9a4.887,4.887,0,1,1-9.773,0V103.747a4.886,4.886,0,0,1,4.879-4.891m1.681,4.826a1.755,1.755,0,0,0-1.762-1.761,1.727,1.727,0,0,0-1.257.514,1.684,1.684,0,0,0-.522,1.247v11.185a1.684,1.684,0,0,0,.522,1.247,1.728,1.728,0,0,0,1.257.513,1.754,1.754,0,0,0,1.762-1.761Z" transform="translate(-451.862 -61.231)" fill="#fff"/>
    <path id="Path_1452" data-name="Path 1452" d="M770.763,119.971h-8.4V99.541h3.084v17.364h5.319Z" transform="translate(-472.203 -61.656)" fill="#fff"/>
    <path id="Path_1453" data-name="Path 1453" d="M793.971,115.275l-.749,4.7h-3.211l3.476-20.429h4.242l3.426,20.429h-3.242l-.722-4.7Zm1.62-11.054-1.142,8.054h2.284Z" transform="translate(-489.33 -61.656)" fill="#fff"/>
    <path id="Path_1454" data-name="Path 1454" d="M166.248,132.983c.519-.1.94-.259.94-.648a1.214,1.214,0,0,0-.292-.648c-.292-.227-.422-.389-.422-.518,0-.1.13-.162.422-.162.972,0,2.14.551,2.14,1.037,0,.356-.389.68-.454,1.069,3.761.875,5.414,3.208,5.414,5.573,0,2.916-2.594,5.767-6.809,5.767-4.475,0-7.1-2.722-7.1-5.767,0-2.527,1.945-5.054,6.16-5.7m-4.118,5.7c0,2.2,1.653,4.374,4.961,4.374,3.242,0,4.864-2.171,4.864-4.374,0-2.171-1.621-4.406-4.864-4.406-3.307,0-4.961,2.235-4.961,4.406m6.679,11.178c-.032-.615-.778-.907-2.432-1.393-.357-.1-.616-.227-.616-.389s.292-.324,1.038-.454a24.644,24.644,0,0,1,3.437.227c.583.129.713.324.713.615,0,.227-.065.486-.1.842,0,1.426,0,3.338.032,4.471.032.745.454,1.037,1.589,1.1l5.869-.065c2.432-.194,1.264-.939,4.15-.939,1.07,0,2.432.129,2.432,1.1,0,.389-.324.713-.875.713h-11.7c-2.172-.032-3.372-.551-3.5-2.171Zm10.959-19.181c0-.356-.843-.94-2.788-1.782-.486-.162-.746-.356-.746-.486,0-.194.389-.324,1.167-.356.13,0,4.572.551,4.572,1.62,0,.227-.13.486-.13.81l-.032,10.174c.454-.032.973,0,1.459-.065,1.492-.292.811-.907,3.307-.907.649,0,1.848,0,1.848.875a.86.86,0,0,1-.94.81l-5.706.129c-.032,5.865-.227,7.322-.551,8.23-.292.615-.649,1.1-.94,1.1s-.486-.389-.519-1.458Z" transform="translate(-99.158 -79.319)" fill="#fff"/>
    <path id="Path_1455" data-name="Path 1455" d="M246.137,133.436c0-.615-1.329-1.037-2.561-1.393-.324-.1-.681-.226-.681-.421,0-.162.259-.324,1-.518,3.859.194,4.28.583,4.28,1.1,0,.162-.032.324-.032.518v7.517c-.032.486.13.745,1.038.745a29.423,29.423,0,0,0,9.759-3.208,1.9,1.9,0,0,1,.648-.194c.065,0,.1,0,.1.065,0,.1-.162.292-.551.615-3.988,2.689-10.343,4.7-11.413,4.7-.94,0-1.362-1.652-1.492-2.333Zm13.553,12.41a.584.584,0,0,0,.519-.551.831.831,0,0,0-.324-.615c-.227-.194-.324-.356-.324-.454,0-.13.1-.162.292-.162.583,0,1.978.518,1.978.972,0,.259-.227.518-.292.94,3.6.583,5.252,2.851,5.252,5.151,0,2.722-2.334,5.476-6.387,5.476-4.248,0-6.517-2.754-6.517-5.476,0-2.365,1.751-4.73,5.48-5.184Zm-3.988,5.216c0,2.139,1.589,4.244,4.766,4.244a4.231,4.231,0,1,0,0-8.457c-3.178,0-4.766,2.106-4.766,4.212m9.241-20.963c-.033-.324-1.362-1.134-2.886-1.814-.324-.1-.908-.292-.908-.486,0-.227.81-.421,1-.421.681,0,5.026.648,5.026,1.685,0,.292-.194.583-.227,1l-.065,8.975c0,5.443-.421,6.415-1.07,7.322-.13.194-.26.259-.357.259-.324,0-.519-.745-.519-2.008v-3.824c-1.492.033-2.951.162-4.021.227-.583.13-.649.389-1.07.389-.583,0-2.853-1-2.853-1.3,0-.13.195-.162.551-.162.324,0,1.848.065,2.2.065,1.524,0,3.113-.1,5.188-.226v-5.606c-1.946.032-3.372.129-4.15.195-.778.1-.811.421-1.232.421-.486,0-2.626-.81-2.626-1.329,0-.1.13-.162.421-.162a5.732,5.732,0,0,1,.616.065c.746.032,1.362.032,1.978.032,1.589,0,2.886-.065,4.993-.162Z" transform="translate(-150.448 -78.897)" fill="#fff"/>
    <path id="Path_1456" data-name="Path 1456" d="M-28.287.4a5.991,5.991,0,0,1-2.7-.532,4.352,4.352,0,0,1-1.676-1.442A5.608,5.608,0,0,1-33.516-3.7a13.7,13.7,0,0,1-.234-2.586V-24.428h3.432V-7.235a12.1,12.1,0,0,0,.081,1.523,2.213,2.213,0,0,0,.354,1.007,1.513,1.513,0,0,0,.822.556,5.273,5.273,0,0,0,1.5.169V.4Zm2.852,0h-2.127a.9.9,0,0,1-.846-.588,3.764,3.764,0,0,1-.282-1.6,3.764,3.764,0,0,1,.282-1.6.9.9,0,0,1,.846-.588h2.288A10.377,10.377,0,0,0-24.1-4.036a1.738,1.738,0,0,0,.79-.266,1.173,1.173,0,0,0,.443-.636,4.037,4.037,0,0,0,.137-1.184v-7.654H-19.3v6.542q0,.838.048,1.45a2.119,2.119,0,0,0,.314,1.015,1.555,1.555,0,0,0,.822.6,4.989,4.989,0,0,0,1.571.193V.4h-.741a5.9,5.9,0,0,1-2.4-.443,2.866,2.866,0,0,1-1.466-1.41h-.1a3.977,3.977,0,0,1-.935.918,5,5,0,0,1-1.072.564,5.292,5.292,0,0,1-1.12.29A7.537,7.537,0,0,1-25.435.4Zm6.01,5.575h-3.787v-3.4h3.787ZM-3.392-8.492A12.958,12.958,0,0,0-4.77-9.233a8.77,8.77,0,0,0-1.394-.5A10.294,10.294,0,0,0-7.7-10.014,16.851,16.851,0,0,0-9.515-10.1a17.3,17.3,0,0,0-2.175.129,15.707,15.707,0,0,0-2.095.419v-4.061a22.175,22.175,0,0,1,2.2-.5,13.387,13.387,0,0,1,2.248-.177,10.142,10.142,0,0,1,2.256.226,10.957,10.957,0,0,1,1.821.58,16.88,16.88,0,0,1,1.6.773q.757.419,1.563.822a7.183,7.183,0,0,0,.838.338,7.13,7.13,0,0,0,.959.242q.524.1,1.152.161t1.418.113l-.79,4.689A6.455,6.455,0,0,0-.29-5.583q-.959.572-2.111,1.321T-4.939-2.691A23.648,23.648,0,0,1-7.984-1.184,23.043,23.043,0,0,1-11.6-.048,18.891,18.891,0,0,1-15.847.4h-.693a.9.9,0,0,1-.846-.588,3.764,3.764,0,0,1-.282-1.6,3.764,3.764,0,0,1,.282-1.6.9.9,0,0,1,.846-.588h.838a16.124,16.124,0,0,0,3.561-.379,20.076,20.076,0,0,0,3.19-1,25.254,25.254,0,0,0,2.892-1.4q1.378-.781,2.667-1.6ZM2.747,3.4q1.112.322,1.861.459A7.706,7.706,0,0,0,5.986,4a4.335,4.335,0,0,0,2.127-.459A3.428,3.428,0,0,0,9.4,2.3,5.019,5.019,0,0,0,10.039.516a13.03,13.03,0,0,0,.169-2.143,16.021,16.021,0,0,0-.145-2.151A20.618,20.618,0,0,0,9.628-6.01q-.29-1.16-.717-2.449t-.975-2.82h3.8A29.224,29.224,0,0,1,12.713-8.4q.411,1.458.669,2.892a2.03,2.03,0,0,0,.218.6,1.353,1.353,0,0,0,.5.483,2.98,2.98,0,0,0,.927.33,7.582,7.582,0,0,0,1.5.121V.4h-.419A4.366,4.366,0,0,1,15.3.338a2.971,2.971,0,0,1-.6-.177,1.835,1.835,0,0,1-.467-.282,3.422,3.422,0,0,1-.395-.395L13.753-.5a12.864,12.864,0,0,1-.765,4.02A8.384,8.384,0,0,1,11.3,6.3,6.519,6.519,0,0,1,8.911,7.92,7.684,7.684,0,0,1,6.1,8.443,8.073,8.073,0,0,1,4.544,8.29a12.153,12.153,0,0,1-1.8-.524ZM27.094.4A7.711,7.711,0,0,1,25.459.234a7.835,7.835,0,0,1-1.482-.475,9.134,9.134,0,0,1-1.321-.709,7.4,7.4,0,0,1-1.12-.886A5.105,5.105,0,0,1,19.344-.1a7.262,7.262,0,0,1-2.707.5h-.113a.9.9,0,0,1-.846-.588,3.764,3.764,0,0,1-.282-1.6,3.764,3.764,0,0,1,.282-1.6.9.9,0,0,1,.846-.588h.226a3.457,3.457,0,0,0,1.676-.363,3.662,3.662,0,0,0,1.112-.927,5.445,5.445,0,0,0,.749-1.257q.3-.693.6-1.354a16.9,16.9,0,0,1,.959-1.8,7.1,7.1,0,0,1,1.217-1.5,5.372,5.372,0,0,1,1.6-1.023,5.38,5.38,0,0,1,2.095-.379,5.658,5.658,0,0,1,2.747.645,6.2,6.2,0,0,1,1.974,1.668,7.263,7.263,0,0,1,1.184,2.28,8.249,8.249,0,0,1,.395,2.481,6.512,6.512,0,0,1-.419,2.361,5.443,5.443,0,0,1-1.192,1.877A5.412,5.412,0,0,1,29.568-.04,6.587,6.587,0,0,1,27.094.4Zm-.451-8.669a2.821,2.821,0,0,0-1.176.234,3.128,3.128,0,0,0-.927.645,4.585,4.585,0,0,0-.733.975,8.842,8.842,0,0,0-.58,1.241,4.727,4.727,0,0,0,.733.516,4.649,4.649,0,0,0,.862.379,5.6,5.6,0,0,0,1.047.226,10.452,10.452,0,0,0,1.289.073q.451,0,.894-.04a2.843,2.843,0,0,0,.79-.177,1.4,1.4,0,0,0,.556-.379.95.95,0,0,0,.209-.645,3.223,3.223,0,0,0-.145-.822,3.3,3.3,0,0,0-.491-1.007,3.2,3.2,0,0,0-.918-.854A2.583,2.583,0,0,0,26.643-8.266Z" transform="translate(308.735 128.849)" fill="#fff"/>
  </g>
</svg>
