<svg xmlns="http://www.w3.org/2000/svg" xmlns:xlink="http://www.w3.org/1999/xlink" width="1116.993" height="1156.188" viewBox="0 0 1116.993 1156.188">
  <defs>
    <clipPath id="clip-path">
      <rect id="Rectangle_325" data-name="Rectangle 325" width="1116.993" height="1156.188" transform="translate(45.12 34.69)" fill="none" stroke="#000" stroke-width="10"/>
    </clipPath>
  </defs>
  <g id="phenix-outline-bg" transform="translate(-45.12 -34.69)" opacity="0.05" clip-path="url(#clip-path)">
    <path id="Path_1682" data-name="Path 1682" d="M638.582,29.673a596.4,596.4,0,0,1,61.073,3.168c7.515.809,18.35,2.946,28.828,5.012l6.363,1.249-1.371,9.891c-10.3-.86-20.688-1.3-30.881-1.3-119.125,0-226.8,58.443-295.424,160.332-68.819,102.185-94.337,191.385-78.012,272.7C355.265,610.76,485.9,696.685,601.149,772.5c68.114,44.8,132.451,87.123,166.4,133.269,4.458,6.241,20.512,30.84,31.264,53.906-9.074-69.607-72.323-123.475-122.2-159.561-21.143-15.321-42.14-28.79-62.447-41.815-94-60.3-168.247-107.92-130.261-258.9l20.614-62.685c-19.5-3.917-42.687-22.114-51.869-32.28a109.743,109.743,0,0,1-27.217-70.621l-.172-11.245,8.464,7.406c.86.752,1.8,1.726,2.574,2.535l.7.724,15.878,15.743c12.135,9.111,30.788,10.427,49.061,10.427,3.242,0,6.433-.042,9.531-.082,2.964-.039,5.842-.076,8.6-.076l31.949.39c16.161-7.7,35.806-11.609,58.415-11.609,26.244,0,51.329,5.257,66.316,8.4,5.919,1.24,11.03,2.312,13.28,2.424l5.151.242c57.062,2.654,143.3,6.665,144.527,113.794l.113,9.838-8.014-5.708c-29.179-20.784-63.59-42.031-97.566-42.031-19.4,0-36.98,6.7-53.745,20.473a111.663,111.663,0,0,0-41.33,103.961c1.912,11.509,6.27,20.953,10.884,30.951,2.019,4.375,4.028,8.735,5.817,13.247,6.19,3.154,11.55,8.458,17.193,14.041,5.373,5.317,10.93,10.815,17.791,15.19,14.148,9.042,22.335,10.834,37.2,14.088,3.039.665,6.32,1.384,9.942,2.23,113.041,27.012,199.384,122.53,214.879,237.689C965.708,980.9,858.7,1163.516,779.392,1182.9l-7.639,1.867,1.55-7.709c8.581-42.677,3.722-76.707-14.852-104.037-40.625-59.774-143.515-78.338-243.017-96.291-35.126-6.338-71.448-12.891-104.862-21.192C285.96,924.588,114.18,868.3,61.322,737.387,35.774,685.154,32.545,567.3,55.405,516.477l4.551-10.117,21.932,48.56c10.166-141.454,69.5-271.549,168.37-368.215C353.832,85.442,491.742,29.673,638.582,29.673Zm21.942,10.421q-11.015-.42-21.942-.421c-300.717,0-536.232,230.5-547.828,536.153L81.2,577.695,60.369,531.57c-16.811,52.676-12.457,155.645,10.082,201.75,51.29,127,220.046,182.092,342.532,212.512,33.1,8.222,69.258,14.747,104.227,21.056,101.534,18.32,206.525,37.263,249.512,100.511,18.939,27.866,24.817,61.771,17.89,103.447,74.989-27.72,170.314-195,158.35-282.655-14.949-111.1-98.244-203.248-207.269-229.3-3.548-.828-6.785-1.537-9.783-2.193-14.929-3.269-24.792-5.428-40.439-15.428-7.757-4.945-13.966-11.09-19.445-16.511-5.774-5.713-10.76-10.647-16.029-12.858l-1.982-.831-.76-2.01c-1.882-4.976-4.081-9.73-6.285-14.506-4.689-10.159-9.537-20.665-11.683-33.586a121.671,121.671,0,0,1,44.94-113.308c18.288-15.029,38.506-22.682,60.013-22.682,33.511,0,66.454,18.4,95.083,38.083-5.923-88.009-77.056-91.31-134.608-93.987l-5.176-.244c-3.043-.152-7.992-1.189-14.841-2.625-15.553-3.259-39.057-8.185-64.265-8.185-21.576,0-40.11,3.738-55.09,11.11l-1.073.528-34.262-.418c-2.655,0-5.49.037-8.409.075-3.14.041-6.375.083-9.661.083-20.015,0-40.6-1.561-55.6-12.887l-9.835-9.713a99.7,99.7,0,0,0,23.613,50.984c9.448,10.459,34.678,29.388,51.148,29.68l6.781.12-24.546,74.6c-36.132,143.664,31.9,187.3,126.062,247.7,20.424,13.1,41.543,26.647,62.912,42.132C741.971,835.052,819.807,902.784,808.9,993.641l-9.964-.679c.3-17.89-28.12-65.428-39.477-81.327-32.848-44.646-96.457-86.486-163.8-130.783-116.888-76.886-249.371-164.03-276.3-298.157-16.878-84.065,9.134-175.736,79.522-280.251C461.214,109.884,554.973,52.221,660.524,40.095Zm109.219,82.6h.009c95.612,0,171.069,56.761,217.533,104.374,86.325,88.46,143.747,217.9,145.684,326.38a93.55,93.55,0,0,0,6.575-10.328,94.5,94.5,0,0,1,8.95-13.537l6.632-8.174,2.146,10.3c29.407,141.245-6.177,281.756-102.907,406.34a414.187,414.187,0,0,1-78.618,79.49l-7.556,5.81-.486-9.519c-.645-12.635,1.5-26.906,3.978-43.43,7.854-52.324,18.611-123.983-48.906-217.9-28.087-39.056-60.094-59.583-83.464-74.572-9.192-5.9-16.452-10.552-21.667-15.191l-7.31-6.5,9.554-2.113c78.664-17.4,124.871-94.237,123.6-205.54-1.536-135-76.773-294.063-186.327-315.692l.716-9.9Q763.836,122.7,769.742,122.7Zm352.9,455.538.292-11.948c2.647-108.477-54.742-241.991-142.8-332.232-41.337-42.36-106.174-92.173-187.6-100.232,98.576,44.407,159.546,189.861,160.966,314.65,1.27,111.609-43.86,190.243-121.312,212.825,3.672,2.539,7.931,5.27,12.53,8.22,22.691,14.553,56.983,36.546,86.184,77.151,69.891,97.219,58.786,171.2,50.676,225.223-1.739,11.586-3.306,22.026-3.812,31.324a404.349,404.349,0,0,0,68.658-71.23c92.254-118.82,127.843-252.2,103.343-386.556-.52.885-1.03,1.773-1.547,2.673-3.75,6.528-7.627,13.279-16.862,21.95ZM610.072,381.256l27.753.808.749-.026a11.763,11.763,0,0,1,5.674,1.463l7.184,4.994a10.993,10.993,0,0,1-.089,18.22l-6.818,4.364a10.9,10.9,0,0,1-5.787,1.671l-28.51-.479a11.9,11.9,0,0,1-6.086-2l-6.8-4.759a11.061,11.061,0,0,1,.021-18.174l6.885-4.41A11.07,11.07,0,0,1,610.072,381.256Zm27.706,10.811-27.612-.808-7.26,4.4.011.007.161,1.652,6.735,4.714,28.734.713,7.323-4.4-.045-.03-.127-1.63-6.735-4.714ZM64.392,807.143c84.089,108.737,270.927,148.6,421.054,180.633,70.009,14.938,130.472,27.838,173.756,45.421,39.777,16.159,89.013,49.438,107.912,94.38,9.375,22.293,9.769,44.237,1.172,65.224l-5.569,13.595-3.881-14.169C727.83,1079.012,623.94,1065.6,513.949,1051.4c-31.54-4.072-64.155-8.283-94.825-15.016C276.212,1005.021,121.3,953.873,55.9,812.3Zm699.056,366.545c2.335-13.736.483-27.882-5.552-42.235-14.593-34.7-54.81-69.635-102.457-88.991-42.468-17.251-102.532-30.067-172.079-44.906C346.647,968.386,179.819,932.8,84.988,844.369c71.838,110.5,208.871,154.287,336.28,182.246,30.242,6.639,62.636,10.821,93.962,14.865C618.626,1054.83,725.38,1068.615,763.448,1173.688ZM117.954,961.274c11.122,8.2,91.618,37.328,121.972,46.374,68.02,20.391,140.334,33.765,210.268,46.7,148.9,27.538,277.5,51.321,301.227,132.8l4.766,16.365-12.851-11.2a163.778,163.778,0,0,1-13.865-13.561c-5.876-6.33-10.121-10.9-26.939-21.162-61.873-36.363-136.015-45.831-214.51-55.855-114.345-14.6-243.947-31.152-376.077-132.474Zm610.99,202.783c-40.746-55.523-153.045-76.293-280.569-99.877-70.2-12.982-142.782-26.406-211.313-46.95-15.687-4.675-49.64-16.354-78.467-27.357,115.978,74.535,229.385,89.011,330.693,101.949,79.541,10.158,154.671,19.752,218.381,57.2C718.4,1155.563,724.481,1160.076,728.944,1164.057Z" transform="translate(0.038 -0.095)"/>
  </g>
</svg>
