<svg id="px-icon" xmlns="http://www.w3.org/2000/svg" xmlns:xlink="http://www.w3.org/1999/xlink" width="234.075" height="210.077" viewBox="0 0 234.075 210.077">
  <defs>
    <linearGradient id="linear-gradient" x1="0.143" y1="0.248" x2="0.954" y2="0.821" gradientUnits="objectBoundingBox">
      <stop offset="0" stop-color="#f8c35b"/>
      <stop offset="0.48" stop-color="#f9ae5c"/>
      <stop offset="0.98" stop-color="#fb955d"/>
    </linearGradient>
    <clipPath id="clip-path">
      <rect id="Rectangle_167" data-name="Rectangle 167" width="165.86" height="150.757" fill="none"/>
    </clipPath>
  </defs>
  <g id="logo-icon">
    <path id="icon-base" d="M162.787,0a25.464,25.464,0,0,1,22.072,12.732l45.817,79.575a25.464,25.464,0,0,1,0,25.409l-45.817,79.629a25.464,25.464,0,0,1-22.072,12.732H71.28a25.464,25.464,0,0,1-22.072-12.732l-45.817-79.6a25.464,25.464,0,0,1,0-25.409l45.817-79.6A25.464,25.464,0,0,1,71.28,0Z" transform="translate(0.004 0)" fill="url(#linear-gradient)"/>
    <g id="Group_404" data-name="Group 404" transform="translate(33.877 33.43)" clip-path="url(#clip-path)">
      <path id="Path_953" data-name="Path 953" d="M151.3,45.582c28.83,5,41.52,62.988,9.33,69.241,2.63,2.055,9.83,4.628,15.72,11.82,13.35,16.307,6.42,27.7,6.81,34.414a57.765,57.765,0,0,0,11.54-10.239c13.3-15.025,19.71-33.176,15.14-52.459-1.41,1.546-1.5,2.634-3.63,4.391.69-24.1-24.58-58.483-54.91-57.157m-15,118.635c-20.55-7.332-70.28-8.878-88.6-29.672,9.47,17.993,31.82,24.693,53.42,28.855,20.09,3.873,44.89,1.185,51,20.785,3.83-8.211-5.87-16.43-15.79-19.969m13.28,19.644c-5-15.069-43.86-14.63-75.45-22.946-4.53-1.194-16.55-4.988-18.34-6.147,33.11,22.3,65,12.838,87.63,24.526,4,2.134,3.44,2.5,6.16,4.584M162.68,90.56c-.17-13.743-12.78-13.857-21.51-14.217-2-.088-12.65-3.205-20.29.105L116,76.387c-3.28,0-7.72.325-10.5-1.528l-2.36-2.046c-.11-.1-.28-.272-.44-.4a12.673,12.673,0,0,0,3.85,8.781c1.39,1.361,5.31,4.039,8.13,4.092L111.3,94.16c-6.71,23.42,10.68,27.284,28.34,38.515,9.32,5.927,20,14.507,18.46,25.694.05-2.634-4.39-9.027-6-11-18.09-21.7-95.66-36.679-53.44-91.712,10.52-13.716,28.3-22.55,49.13-21.031-1.85-.316-3.86-.685-5.16-.8C93.87,29.433,53.4,61.345,51.55,103.969l-3.83-7.455c-3.27,6.384-2.84,21.6.89,28.293,7.75,16.834,33.07,24.07,51.35,28.1,25.32,5.523,60.1,4.786,54.41,29.637,11.17-2.4,27.13-25.466,25.2-37.883-2.28-14.86-14.733-26.958-31.34-30.445-3.17-.65-4.57-.711-7.23-2.213-2.29-1.282-3.63-3.232-5.38-3.881-.87-2.02-2.18-3.758-2.63-6.147-.909-5.38,1.528-10.777,6.39-14.147,7.91-5.708,16.22-1.7,23.37,2.775m-28.7-11.135,1,.615a.748.748,0,0,1,.342.643.764.764,0,0,1-.392.621l-1,.562a1.107,1.107,0,0,1-.5.123l-4.09-.114a.918.918,0,0,1-.5-.149l-1-.615a.731.731,0,0,1,0-1.291l1-.562a1,1,0,0,1,.5-.123l4.1.114A.967.967,0,0,1,134.05,79.469Z" transform="translate(-45.45 -33.429)" fill="#fff" fill-rule="evenodd"/>
    </g>
  </g>
</svg>
