<svg id="px-text" xmlns="http://www.w3.org/2000/svg" width="446" height="77.595" viewBox="0 0 446 77.595">
  <g id="Text" transform="translate(0 0)">
    <text id="phenixthemes.com" transform="translate(212.39 71.595)" fill="#FFFFFF" font-size="22" font-family="Roboto-Regular, Roboto" letter-spacing="0.5em"><tspan x="-191.614" y="0">PHENIXTHEMES.COM</tspan></text>
    <path id="Path_729" data-name="Path 729" d="M-245.528-39.9h21.668q5.417,0,7.868,2.451t2.451,7.868v5.159q0,5.417-2.451,7.868t-7.868,2.451h-12.382V-3.787h-9.286Zm22.7,10.318q0-3.1-3.1-3.1h-10.318v11.35h10.318q3.1,0,3.1-3.1Zm46.947,25.8h-9.286v-14.7h-12.9v14.7h-9.286V-39.9h9.286v14.187h12.9V-39.9h9.286Zm36.371,0h-28.633V-39.9h28.633v7.223h-19.346v6.965h15.219v7.223h-15.219v7.481h19.346Zm37.145,0h-9.8l-12.382-21.668V-3.787h-9.286V-39.9h9.8l12.382,21.668V-39.9h9.286Zm24.763,0H-96.173v-7.223h4.643V-32.677h-4.643V-39.9H-77.6v7.223h-4.643v21.668H-77.6ZM-50.515-39.9H-40.2L-51.805-21.843-39.939-3.787H-50.257l-7.223-11.35L-64.7-3.787H-75.021l11.866-18.057L-74.763-39.9H-64.5l7.016,11.35ZM-1.246-3.787h-9.286V-32.677H-21.367V-39.9H9.588v7.223H-1.246Zm47.463,0H36.931v-14.7h-12.9v14.7H14.747V-39.9h9.286v14.187h12.9V-39.9h9.286Zm36.371,0H53.955V-39.9H82.588v7.223H63.242v6.965H78.461v7.223H63.242v7.481H82.588Zm36.629-20.12-7.223,12.9h-7.223l-7.223-12.9v20.12H88.263V-39.9h9.8l10.318,19.088L118.7-39.9h9.8V-3.787h-9.286Zm45.658,20.12H136.242V-39.9h28.633v7.223H145.529v6.965h15.219v7.223H145.529v7.481h19.346Zm4.592-7.481q14.136.774,19.14.774a2.545,2.545,0,0,0,1.883-.7,2.545,2.545,0,0,0,.7-1.883v-4.643H179.32q-5.417,0-7.868-2.451T169-28.034v-1.548q0-5.417,2.451-7.868T179.32-39.9h18.108v7.223H181.384q-3.1,0-3.1,3.1v1.032q0,3.1,3.1,3.1h9.286q5.056,0,7.429,2.373t2.373,7.429v2.58q0,5.056-2.373,7.429T190.67-3.271q-2.631,0-5.572-.1l-4.746-.206q-5.262-.258-10.886-.722Z" transform="translate(245.528 39.9)" fill="#f8c35b"/>
  </g>
</svg>
