<svg xmlns="http://www.w3.org/2000/svg" width="448" height="78.215" viewBox="0 0 448 78.215">
    <style>
        path {
            stroke-dasharray: 1000;
            stroke-dashoffset: 1000;
            animation: dash 3s ease-in-out both;
            animation-delay: 500ms;
        }

        @keyframes dash {
            to {stroke-dashoffset: 0;}
        }
    </style>
    <g id="px-text-outline" transform="translate(1 1)">
        <g id="Text">
            <path id="Path_729" data-name="Path 729"
                d="M-245.528-39.9h21.668q5.417,0,7.868,2.451t2.451,7.869v5.16q0,5.418-2.451,7.869t-7.868,2.451h-12.382V-3.778h-9.286Zm22.7,10.321q0-3.1-3.1-3.1h-10.318v11.353h10.318q3.1,0,3.1-3.1Zm46.947,25.8h-9.286V-18.485h-12.9V-3.778h-9.286V-39.9h9.286v14.191h12.9V-39.9h9.286Zm36.371,0h-28.633V-39.9h28.633v7.224h-19.346v6.966h15.219v7.224h-15.219V-11h19.346Zm37.145,0h-9.8l-12.382-21.673V-3.778h-9.286V-39.9h9.8l12.382,21.673V-39.9h9.286Zm24.763,0H-96.173V-11h4.643V-32.676h-4.643V-39.9H-77.6v7.224h-4.643V-11H-77.6ZM-50.515-39.9H-40.2L-51.805-21.839-39.939-3.778H-50.257L-57.48-15.131-64.7-3.778H-75.021l11.866-18.061L-74.763-39.9H-64.5l7.016,11.353ZM-1.246-3.778h-9.286v-28.9H-21.367V-39.9H9.588v7.224H-1.246Zm47.463,0H36.931V-18.485h-12.9V-3.778H14.747V-39.9h9.286v14.191h12.9V-39.9h9.286Zm36.371,0H53.955V-39.9H82.588v7.224H63.242v6.966H78.461v7.224H63.242V-11H82.588ZM119.217-23.9,111.995-11h-7.223L97.549-23.9V-3.778H88.263V-39.9h9.8l10.318,19.093L118.7-39.9h9.8V-3.778h-9.286ZM164.875-3.778H136.242V-39.9h28.633v7.224H145.529v6.966h15.219v7.224H145.529V-11h19.346Zm4.592-7.482q14.136.774,19.14.774a2.544,2.544,0,0,0,1.883-.7,2.545,2.545,0,0,0,.7-1.883v-4.644H179.32q-5.417,0-7.868-2.451T169-28.031v-1.548q0-5.418,2.451-7.869T179.32-39.9h18.108v7.224H181.384q-3.1,0-3.1,3.1v1.032q0,3.1,3.1,3.1h9.286q5.056,0,7.429,2.374t2.373,7.431v2.58q0,5.057-2.373,7.431T190.67-3.262q-2.631,0-5.572-.1l-4.746-.206q-5.262-.258-10.886-.722Z"
                transform="translate(245.528 39.9)" fill="none" stroke="#f8c35b" stroke-width="2" />
            <text id="phenixthemes.com" transform="translate(212.39 71.215)" fill="#868e96" font-size="22"
                font-family="Roboto-Regular, Roboto" letter-spacing="0.5em">
                <tspan x="-191.614" y="0">PHENIXTHEMES.COM</tspan>
            </text>
        </g>
    </g>
</svg>
