<svg id="icon" xmlns="http://www.w3.org/2000/svg" xmlns:xlink="http://www.w3.org/1999/xlink" width="612" height="524" viewBox="0 0 612 524">
  <defs>
    <linearGradient id="linear-gradient" x1="0.5" x2="0.5" y2="1" gradientUnits="objectBoundingBox">
      <stop offset="0" stop-color="#ffd500"/>
      <stop offset="1" stop-color="#f49d1a"/>
    </linearGradient>
    <linearGradient id="linear-gradient-2" x1="0.5" x2="0.5" y2="1" gradientUnits="objectBoundingBox">
      <stop offset="0" stop-color="#fff"/>
      <stop offset="1" stop-color="#fff"/>
    </linearGradient>
    <linearGradient id="linear-gradient-3" x1="0.5" x2="0.5" y2="1" gradientUnits="objectBoundingBox">
      <stop offset="0" stop-color="#ddd"/>
      <stop offset="1" stop-color="#f7f7f7"/>
    </linearGradient>
  </defs>
  <path id="Polygon_3" data-name="Polygon 3" d="M389.539,0A121,121,0,0,1,494.028,59.982l82.34,141a121,121,0,0,1,0,122.036l-82.34,141A121,121,0,0,1,389.539,524H222.461a121,121,0,0,1-104.488-59.982l-82.34-141a121,121,0,0,1,0-122.036l82.34-141A121,121,0,0,1,222.461,0Z" fill="url(#linear-gradient)"/>
  <path id="Subtraction_1" data-name="Subtraction 1" d="M143.59,407.123h-.015c-4.159,0-8.368-.2-12.51-.589-29.094-2.731-54.094-11.621-74.306-26.422A127.14,127.14,0,0,1,29.7,353.081a154.025,154.025,0,0,1-19.658-36.348,147.724,147.724,0,0,1-9.4-38.351A125.748,125.748,0,0,1,2.3,241.695a134.906,134.906,0,0,1,12.124-34.91,175.014,175.014,0,0,1,22-33.018c1.647-1.967,3.378-4.007,4.9-5.806,7.287-8.587,14.822-17.465,20.831-27.019A75.941,75.941,0,0,0,73.7,89.4a7.188,7.188,0,0,1,.2-1.984c.062-.342.133-.727.2-1.177A40.952,40.952,0,0,1,86.24,100.042a114.47,114.47,0,0,1,7.1,16.543l.285.773.492.123,1.445.363c1.425-2.429,2.924-4.862,4.373-7.215a181.123,181.123,0,0,0,9.1-15.965C120.276,71.2,122.968,45,117.268,14.589h0l0-.005a63.5,63.5,0,0,0-1.1-6.684c-.7-3.787-1.433-7.7-1.272-7.892A.018.018,0,0,1,114.919,0c6.59,8.8,13.41,22.018,18.713,36.259,5.439,14.609,8.8,28.759,9.455,39.845a82.321,82.321,0,0,1-4.549,33.148A76.961,76.961,0,0,1,120.495,137.3c-22.973,23.175-38.38,44.215-48.488,66.216-15.539,33.863-13.992,65.685,4.6,94.583,12.939,20.106,32.858,31.231,62.688,35.012a102.788,102.788,0,0,0,13.108.908,58.488,58.488,0,0,0,24.006-4.635c19.017-8.342,32.4-22.154,40.9-42.226,6.168,6.7,12.345,13.447,19.443,21.234,2.071-8.129-.683-18.15-7.37-26.8-9.679-12.524-25.6-19.708-43.687-19.708a83.8,83.8,0,0,0-21.7,3.036c1.969-1.805,8.807-8.905,15.42-15.772l.009-.01c5.821-6.044,11.32-11.753,12.873-13.2-.5-.006-1.044-.011-1.657-.011-13.923,0-32.46,2.418-41.7,13.94-5.291,6.594-6.8,15.365-4.482,26.069a138.3,138.3,0,0,0,4.936,16.324c.811,2.33,1.645,4.731,2.407,7.1.457,1.533.982,2.98,1.59,4.654l.1.289-.146,0-.621,0a51.246,51.246,0,0,1-26.926-7.826,66.988,66.988,0,0,1-18.036-16.313c-8.621-11.248-9.8-13.228-15.832-26.482a62.361,62.361,0,0,1-5.6-30.909c.635-9.312,3.178-19.244,7.775-30.363,5.895-14.359,15.448-27.4,29.207-39.875,11.876-10.791,26.029-25.932,30.092-47.413a103.837,103.837,0,0,0,1.249-17.4c.04-2.536.081-5.157.2-7.729,6.493,1.048,13.564,5.521,19.4,12.269,5.874,6.788,9.682,14.96,10.448,22.42a61.212,61.212,0,0,1,.241,6.646c-.079,10.214-.079,10.214,10.165,10.443l.486.011c1.429.038,2.857.057,4.246.057,22.89,0,40.512-5.117,55.457-16.1a104.055,104.055,0,0,0,9.347-8.244l.009-.009c1.51-1.439,3.072-2.928,4.763-4.472,2.316,12.875,1.533,24.318-2.39,34.982-3.758,10.216-10.34,19.531-20.12,28.478,11.783,10.055,24.976,14.739,41.521,14.739,8,0,16.641-1.046,28.024-3.392-3.742,10.338-9.011,18.167-16.106,23.94-7.077,5.758-15.927,9.433-27.057,11.235a71.971,71.971,0,0,1,18.286,15.859,66.081,66.081,0,0,1,10.678,18.92c5.439,14.648,6.315,30.994,6.455,45.052l-4.99-3.177c-6.177-3.934-11.512-7.331-17.2-10.925-.656,2.864-1.261,5.694-1.847,8.43-1.308,6.114-2.541,11.881-4.2,17.505A141.237,141.237,0,0,1,260.1,346a147.644,147.644,0,0,1-71.706,53.555A137.62,137.62,0,0,1,143.59,407.123Zm11.9-239.894h0l-8.074,14.313,8.074,14.315h16.148l8.076-14.315-8.076-14.313Z" transform="translate(144.645 42.258)" fill="url(#linear-gradient-2)"/>
  <path id="shadowover" d="M141.709,211.3c-70.03,66.54-55.992,203.592,66.4,235.2,14.926,1.864,108.515-27.313,108.918-114.844,0,0-29.125,74.4-112.952,35.9,0,0-33.24-14.508-42.115-62-2.824-13.211-19.605-29.258-23.881-49.115C134.771,240.964,143.887,221.512,141.709,211.3Z" transform="translate(45.171 -1.192)" opacity="0.7" fill="url(#linear-gradient-3)"/>
  <path id="Polygon_2" data-name="Polygon 2" d="M12.845,0l4.282,8.6-4.282,8.6H4.282L0,8.6,4.282,0Z" transform="translate(299.972 214.972)" fill="#f1f1f1"/>
</svg>
